<svg xmlns="http://www.w3.org/2000/svg" xmlns:xlink="http://www.w3.org/1999/xlink" width="108" height="108" viewBox="0 0 108 108">
  <defs>
    <filter id="Trazado_982547" x="0" y="0" width="108" height="108" filterUnits="userSpaceOnUse">
      <feOffset dy="3" input="SourceAlpha"/>
      <feGaussianBlur stdDeviation="3" result="blur"/>
      <feFlood flood-opacity="0.161"/>
      <feComposite operator="in" in2="blur"/>
      <feComposite in="SourceGraphic"/>
    </filter>
  </defs>
  <g id="Grupo_1158642" data-name="Grupo 1158642" transform="translate(-161 -5122)">
    <g id="Grupo_1158024" data-name="Grupo 1158024" transform="translate(0 2967)">
      <g id="Grupo_1153207" data-name="Grupo 1153207" transform="translate(0 703)">
        <g id="Grupo_1153117" data-name="Grupo 1153117" transform="translate(-93 939)">
          <g id="Grupo_1149598" data-name="Grupo 1149598" transform="translate(80 315)">
            <g id="Grupo_1148770" data-name="Grupo 1148770" transform="translate(-27 -2583)">
              <g id="Grupo_1146954" data-name="Grupo 1146954" transform="translate(-415 -1202)">
                <g transform="matrix(1, 0, 0, 1, 616, 3983)" filter="url(#Trazado_982547)">
                  <g id="Trazado_982547-2" data-name="Trazado 982547" transform="translate(9 6)" fill="#ebfefd">
                    <path d="M 45 88.5 C 39.12687683105469 88.5 33.43022537231445 87.35007476806641 28.06830024719238 85.08217620849609 C 22.88852500915527 82.89131164550781 18.23629951477051 79.75458526611328 14.2408504486084 75.75914764404297 C 10.24541282653809 71.76370239257812 7.108687400817871 67.11147308349609 4.917825222015381 61.93170166015625 C 2.649924993515015 56.56977462768555 1.5 50.87312316894531 1.5 45 C 1.5 39.12687683105469 2.649924993515015 33.43022537231445 4.917825222015381 28.06830024719238 C 7.108687400817871 22.88852500915527 10.24541282653809 18.23629951477051 14.2408504486084 14.2408504486084 C 18.23629951477051 10.24541282653809 22.88852500915527 7.108687400817871 28.06830024719238 4.917825222015381 C 33.43022537231445 2.649924993515015 39.12687683105469 1.5 45 1.5 C 50.87312316894531 1.5 56.56977462768555 2.649924993515015 61.93170166015625 4.917825222015381 C 67.11147308349609 7.108687400817871 71.76370239257812 10.24541282653809 75.75914764404297 14.2408504486084 C 79.75458526611328 18.23629951477051 82.89131164550781 22.88852500915527 85.08217620849609 28.06830024719238 C 87.35007476806641 33.43022537231445 88.5 39.12687683105469 88.5 45 C 88.5 50.87312316894531 87.35007476806641 56.56977462768555 85.08217620849609 61.93170166015625 C 82.89131164550781 67.11147308349609 79.75458526611328 71.76370239257812 75.75914764404297 75.75914764404297 C 71.76370239257812 79.75458526611328 67.11147308349609 82.89131164550781 61.93170166015625 85.08217620849609 C 56.56977462768555 87.35007476806641 50.87312316894531 88.5 45 88.5 Z" stroke="none"/>
                    <path d="M 45 3 C 39.32871246337891 3 33.82865524291992 4.110054016113281 28.65262985229492 6.299339294433594 C 23.65165710449219 8.414573669433594 19.15968322753906 11.44334411621094 15.301513671875 15.301513671875 C 11.44334411621094 19.15968322753906 8.414573669433594 23.65165710449219 6.299339294433594 28.65262985229492 C 4.110054016113281 33.82865524291992 3 39.32871246337891 3 45 C 3 50.67128753662109 4.110054016113281 56.17134475708008 6.299339294433594 61.34737396240234 C 8.414573669433594 66.34834289550781 11.44334411621094 70.84031677246094 15.301513671875 74.698486328125 C 19.15968322753906 78.55665588378906 23.65165710449219 81.58542633056641 28.65262985229492 83.70066070556641 C 33.82865524291992 85.88994598388672 39.32871246337891 87 45 87 C 50.67128753662109 87 56.17134475708008 85.88994598388672 61.34737396240234 83.70066070556641 C 66.34834289550781 81.58542633056641 70.84031677246094 78.55665588378906 74.698486328125 74.698486328125 C 78.55665588378906 70.84031677246094 81.58542633056641 66.34834289550781 83.70066070556641 61.34737396240234 C 85.88994598388672 56.17134475708008 87 50.67128753662109 87 45 C 87 39.32871246337891 85.88994598388672 33.82865524291992 83.70066070556641 28.65262985229492 C 81.58542633056641 23.65165710449219 78.55665588378906 19.15968322753906 74.698486328125 15.301513671875 C 70.84031677246094 11.44334411621094 66.34834289550781 8.414573669433594 61.34737396240234 6.299339294433594 C 56.17134475708008 4.110054016113281 50.67128753662109 3 45 3 M 45 0 C 69.85281372070312 0 90 20.14718627929688 90 45 C 90 69.85281372070312 69.85281372070312 90 45 90 C 20.14718627929688 90 0 69.85281372070312 0 45 C 0 20.14718627929688 20.14718627929688 0 45 0 Z" stroke="none" fill="#268985"/>
                  </g>
                </g>
              </g>
            </g>
          </g>
        </g>
      </g>
    </g>
    <g id="prueba_1_" data-name="prueba (1)" transform="translate(188 5145.625)">
      <g id="Grupo_1158639" data-name="Grupo 1158639" transform="translate(0.804 1.139)">
        <path id="Trazado_992733" data-name="Trazado 992733" d="M129.125,114.735l-2.287-3.961.407-3.738-6.134-3.543-3.035,2.221h-4.584l-3.035-2.221-6.134,3.543.407,3.738-2.287,3.961L99,116.251v7.085l3.441,1.516,2.287,3.961-.407,3.738,6.134,3.543,3.041-2.225h4.572l3.041,2.225,6.134-3.543-.407-3.738,2.287-3.961,3.44-1.516v-7.085Z" transform="translate(-89.188 -93.199)" fill="#a8e1f8"/>
        <circle id="Elipse_11981" data-name="Elipse 11981" cx="8.579" cy="8.579" r="8.579" transform="translate(18.016 18.016)" fill="#fff"/>
        <circle id="Elipse_11982" data-name="Elipse 11982" cx="6.97" cy="6.97" r="6.97" transform="translate(0 0)" fill="#a7eed4"/>
        <circle id="Elipse_11983" data-name="Elipse 11983" cx="6.97" cy="6.97" r="6.97" transform="translate(39.249 0)" fill="#ff9d87"/>
        <circle id="Elipse_11984" data-name="Elipse 11984" cx="6.97" cy="6.97" r="6.97" transform="translate(0 39.249)" fill="#ff9d87"/>
        <circle id="Elipse_11985" data-name="Elipse 11985" cx="6.97" cy="6.97" r="6.97" transform="translate(39.249 39.249)" fill="#a7eed4"/>
        <path id="Trazado_992734" data-name="Trazado 992734" d="M10.181,14.47a6.972,6.972,0,0,1,5.63-6.84,6.97,6.97,0,1,0,0,13.681A6.972,6.972,0,0,1,10.181,14.47Z" transform="translate(-7.5 -7.5)" fill="#71e4bf"/>
        <path id="Trazado_992735" data-name="Trazado 992735" d="M376.181,380.47a6.972,6.972,0,0,1,5.63-6.84,6.971,6.971,0,1,0,0,13.681A6.972,6.972,0,0,1,376.181,380.47Z" transform="translate(-334.251 -334.251)" fill="#71e4bf"/>
        <path id="Trazado_992736" data-name="Trazado 992736" d="M376.181,14.47a6.972,6.972,0,0,1,5.63-6.84,6.97,6.97,0,1,0,0,13.681A6.972,6.972,0,0,1,376.181,14.47Z" transform="translate(-334.251 -7.5)" fill="#ff6a47"/>
        <path id="Trazado_992737" data-name="Trazado 992737" d="M10.181,380.47a6.972,6.972,0,0,1,5.63-6.84,6.971,6.971,0,1,0,0,13.681A6.972,6.972,0,0,1,10.181,380.47Z" transform="translate(-7.5 -334.251)" fill="#ff6a47"/>
        <path id="Trazado_992738" data-name="Trazado 992738" d="M178.181,184.079a8.581,8.581,0,0,1,7.239-8.474,8.579,8.579,0,1,0,0,16.948A8.58,8.58,0,0,1,178.181,184.079Z" transform="translate(-157.484 -157.484)" fill="#e3edf6"/>
      </g>
      <g id="Grupo_1158640" data-name="Grupo 1158640" transform="translate(0 0.375)">
        <path id="Trazado_992739" data-name="Trazado 992739" d="M227.486,218.684v5.842H229.1V216h-1.511l-2.922,3.624,1.252,1.01Z" transform="translate(-200.57 -192.877)"/>
        <path id="Trazado_992740" data-name="Trazado 992740" d="M177.383,187.17a9.394,9.394,0,0,0,9.383-9.383c-.515-12.448-18.253-12.445-18.767,0A9.394,9.394,0,0,0,177.383,187.17Zm0-17.158a7.784,7.784,0,0,1,7.775,7.775c-.427,10.314-15.124,10.311-15.55,0A7.784,7.784,0,0,1,177.383,170.012Z" transform="translate(-149.984 -150.428)"/>
        <path id="Trazado_992741" data-name="Trazado 992741" d="M44.768,47.425,43.63,46.287,39.715,50.2l-1.381-1.381L37.2,49.959l2.519,2.518Z" transform="translate(-33.207 -41.363)"/>
        <path id="Trazado_992742" data-name="Trazado 992742" d="M7.775,15.884A7.784,7.784,0,0,0,15.55,8.109C15.123-2.2.426-2.2,0,8.11A7.784,7.784,0,0,0,7.775,15.884Zm0-13.941A6.166,6.166,0,1,1,1.609,8.109,6.173,6.173,0,0,1,7.775,1.943Z" transform="translate(0 -0.375)"/>
        <path id="Trazado_992743" data-name="Trazado 992743" d="M373.775,15.884a7.784,7.784,0,0,0,7.775-7.775C381.122-2.2,366.426-2.2,366,8.11A7.784,7.784,0,0,0,373.775,15.884Zm0-13.941a6.166,6.166,0,1,1-6.166,6.166A6.173,6.173,0,0,1,373.775,1.943Z" transform="translate(-326.751 -0.375)"/>
        <path id="Trazado_992744" data-name="Trazado 992744" d="M7.775,366A7.784,7.784,0,0,0,0,373.775c.427,10.314,15.124,10.311,15.55,0A7.784,7.784,0,0,0,7.775,366Zm0,13.941a6.166,6.166,0,1,1,6.166-6.166A6.173,6.173,0,0,1,7.775,379.941Z" transform="translate(0 -326.791)"/>
        <path id="Trazado_992745" data-name="Trazado 992745" d="M405.715,416.2l-1.381-1.381-1.138,1.137,2.519,2.518,5.053-5.053-1.138-1.138Z" transform="translate(-359.958 -368.114)"/>
        <path id="Trazado_992746" data-name="Trazado 992746" d="M373.775,366A7.784,7.784,0,0,0,366,373.775c.427,10.314,15.124,10.311,15.55,0A7.784,7.784,0,0,0,373.775,366Zm0,13.941a6.166,6.166,0,1,1,6.166-6.166A6.173,6.173,0,0,1,373.775,379.941Z" transform="translate(-326.751 -326.791)"/>
        <path id="Trazado_992747" data-name="Trazado 992747" d="M6.533,165.119l1.42-.756-2.571-4.827L.555,162.107l.756,1.42,2.236-1.191a25.59,25.59,0,0,0,.72,17.014l1.492-.6a23.989,23.989,0,0,1-.594-16.2Z" transform="translate(-0.495 -142.468)"/>
        <path id="Trazado_992748" data-name="Trazado 992748" d="M442.88,180.926l-1.42.756,2.571,4.827,4.827-2.571-.756-1.42-2.236,1.191a25.59,25.59,0,0,0-.72-17.014l-1.492.6a23.99,23.99,0,0,1,.594,16.2Z" transform="translate(-394.119 -148.859)"/>
        <path id="Trazado_992749" data-name="Trazado 992749" d="M169.827,445.379a23.782,23.782,0,0,1-7.278-1.13l2.57-1.369-.756-1.42-4.827,2.571,2.571,4.827,1.42-.756-1.191-2.236a25.589,25.589,0,0,0,17.014-.72l-.6-1.492a23.735,23.735,0,0,1-8.922,1.724Z" transform="translate(-142.428 -394.159)"/>
        <path id="Trazado_992750" data-name="Trazado 992750" d="M176.217,4.034a23.783,23.783,0,0,1,7.278,1.13l-2.57,1.369.756,1.42,4.827-2.571L183.938.555l-1.42.756,1.191,2.236a25.59,25.59,0,0,0-17.014.72l.6,1.492A23.732,23.732,0,0,1,176.217,4.034Z" transform="translate(-148.818 -0.536)"/>
        <path id="Trazado_992751" data-name="Trazado 992751" d="M409.334,48.7l2.112-2.112,2.112,2.112,1.138-1.138-2.112-2.112,2.112-2.112L413.558,42.2l-2.112,2.112L409.334,42.2,408.2,43.334l2.112,2.112L408.2,47.558Z" transform="translate(-364.422 -37.711)"/>
        <path id="Trazado_992752" data-name="Trazado 992752" d="M47.558,408.2l-2.112,2.112L43.334,408.2,42.2,409.334l2.112,2.112L42.2,413.558l1.138,1.138,2.112-2.112,2.112,2.112,1.138-1.138-2.112-2.112,2.112-2.112Z" transform="translate(-37.671 -364.462)"/>
        <path id="Trazado_992753" data-name="Trazado 992753" d="M103.811,148.714l3.252-2.38h4.047l3.252,2.38,2.947-1.7-.805-1.392-2.038,1.178-2.83-2.071h-5.1l-2.83,2.071-5.226-3.019.378-3.478-2.55-4.417-3.2-1.411v-6.035l3.2-1.411,2.55-4.417-.378-3.479,2.048-1.183-.8-1.393-2.956,1.708.435,4-2.024,3.506-3.68,1.622v8.133l3.68,1.622,2.024,3.506-.435,4Z" transform="translate(-81.688 -104.095)"/>
        <path id="Trazado_992754" data-name="Trazado 992754" d="M201.48,125l-.435-4,2.024-3.506,3.68-1.622v-8.133l-3.68-1.622-2.024-3.506.435-4-7.042-4.068-3.247,2.375h-4.058l-3.247-2.375L181.194,96.1,182,97.5l1.786-1.031,2.825,2.066h5.109l2.825-2.066,5.226,3.019-.378,3.479,2.55,4.417,3.2,1.411v6.035l-3.2,1.411-2.55,4.417.378,3.479-1.794,1.036.8,1.393C199.4,126.206,200.533,125.55,201.48,125Z" transform="translate(-161.763 -84.45)"/>
      </g>
      <g id="Grupo_1158641" data-name="Grupo 1158641" transform="translate(13.834 26.93)">
        <path id="Trazado_992755" data-name="Trazado 992755" d="M129,248h1.609v1.609H129Z" transform="translate(-129 -248)" fill="#fff"/>
        <path id="Trazado_992756" data-name="Trazado 992756" d="M367,248h1.609v1.609H367Z" transform="translate(-341.477 -248)" fill="#fff"/>
      </g>
    </g>
  </g>
</svg>
