<svg xmlns="http://www.w3.org/2000/svg" xmlns:xlink="http://www.w3.org/1999/xlink" width="108" height="108" viewBox="0 0 108 108">
  <defs>
    <filter id="Trazado_982547" x="0" y="0" width="108" height="108" filterUnits="userSpaceOnUse">
      <feOffset dy="3" input="SourceAlpha"/>
      <feGaussianBlur stdDeviation="3" result="blur"/>
      <feFlood flood-opacity="0.161"/>
      <feComposite operator="in" in2="blur"/>
      <feComposite in="SourceGraphic"/>
    </filter>
  </defs>
  <g id="Grupo_1158406" data-name="Grupo 1158406" transform="translate(-196 -321)">
    <g id="Grupo_1155782" data-name="Grupo 1155782" transform="translate(-420 -4906)">
      <g id="Grupo_1154033" data-name="Grupo 1154033" transform="translate(0 1317)">
        <g id="Grupo_1153177" data-name="Grupo 1153177" transform="translate(362 3397)">
          <g id="Grupo_1149598" data-name="Grupo 1149598" transform="translate(80 315)">
            <g id="Grupo_1148770" data-name="Grupo 1148770" transform="translate(-27 -2583)">
              <g id="Grupo_1146954" data-name="Grupo 1146954" transform="translate(-415 -1202)">
                <g transform="matrix(1, 0, 0, 1, 616, 3983)" filter="url(#Trazado_982547)">
                  <g id="Trazado_982547-2" data-name="Trazado 982547" transform="translate(9 6)" fill="#f6fde5">
                    <path d="M 45 88.5 C 39.12687683105469 88.5 33.43022537231445 87.35007476806641 28.06830024719238 85.08217620849609 C 22.88852500915527 82.89131164550781 18.23629951477051 79.75458526611328 14.2408504486084 75.75914764404297 C 10.24541282653809 71.76370239257812 7.108687400817871 67.11147308349609 4.917825222015381 61.93170166015625 C 2.649924993515015 56.56977462768555 1.5 50.87312316894531 1.5 45 C 1.5 39.12687683105469 2.649924993515015 33.43022537231445 4.917825222015381 28.06830024719238 C 7.108687400817871 22.88852500915527 10.24541282653809 18.23629951477051 14.2408504486084 14.2408504486084 C 18.23629951477051 10.24541282653809 22.88852500915527 7.108687400817871 28.06830024719238 4.917825222015381 C 33.43022537231445 2.649924993515015 39.12687683105469 1.5 45 1.5 C 50.87312316894531 1.5 56.56977462768555 2.649924993515015 61.93170166015625 4.917825222015381 C 67.11147308349609 7.108687400817871 71.76370239257812 10.24541282653809 75.75914764404297 14.2408504486084 C 79.75458526611328 18.23629951477051 82.89131164550781 22.88852500915527 85.08217620849609 28.06830024719238 C 87.35007476806641 33.43022537231445 88.5 39.12687683105469 88.5 45 C 88.5 50.87312316894531 87.35007476806641 56.56977462768555 85.08217620849609 61.93170166015625 C 82.89131164550781 67.11147308349609 79.75458526611328 71.76370239257812 75.75914764404297 75.75914764404297 C 71.76370239257812 79.75458526611328 67.11147308349609 82.89131164550781 61.93170166015625 85.08217620849609 C 56.56977462768555 87.35007476806641 50.87312316894531 88.5 45 88.5 Z" stroke="none"/>
                    <path d="M 45 3 C 39.32871246337891 3 33.82865524291992 4.110054016113281 28.65262985229492 6.299339294433594 C 23.65165710449219 8.414573669433594 19.15968322753906 11.44334411621094 15.301513671875 15.301513671875 C 11.44334411621094 19.15968322753906 8.414573669433594 23.65165710449219 6.299339294433594 28.65262985229492 C 4.110054016113281 33.82865524291992 3 39.32871246337891 3 45 C 3 50.67128753662109 4.110054016113281 56.17134475708008 6.299339294433594 61.34737396240234 C 8.414573669433594 66.34834289550781 11.44334411621094 70.84031677246094 15.301513671875 74.698486328125 C 19.15968322753906 78.55665588378906 23.65165710449219 81.58542633056641 28.65262985229492 83.70066070556641 C 33.82865524291992 85.88994598388672 39.32871246337891 87 45 87 C 50.67128753662109 87 56.17134475708008 85.88994598388672 61.34737396240234 83.70066070556641 C 66.34834289550781 81.58542633056641 70.84031677246094 78.55665588378906 74.698486328125 74.698486328125 C 78.55665588378906 70.84031677246094 81.58542633056641 66.34834289550781 83.70066070556641 61.34737396240234 C 85.88994598388672 56.17134475708008 87 50.67128753662109 87 45 C 87 39.32871246337891 85.88994598388672 33.82865524291992 83.70066070556641 28.65262985229492 C 81.58542633056641 23.65165710449219 78.55665588378906 19.15968322753906 74.698486328125 15.301513671875 C 70.84031677246094 11.44334411621094 66.34834289550781 8.414573669433594 61.34737396240234 6.299339294433594 C 56.17134475708008 4.110054016113281 50.67128753662109 3 45 3 M 45 0 C 69.85281372070312 0 90 20.14718627929688 90 45 C 90 69.85281372070312 69.85281372070312 90 45 90 C 20.14718627929688 90 0 69.85281372070312 0 45 C 0 20.14718627929688 20.14718627929688 0 45 0 Z" stroke="none" fill="#618307"/>
                  </g>
                </g>
              </g>
            </g>
          </g>
        </g>
      </g>
    </g>
    <g id="prueba" transform="translate(224.459 318.886)">
      <g id="Grupo_1158403" data-name="Grupo 1158403" transform="translate(0.748 31.376)">
        <path id="Trazado_992511" data-name="Trazado 992511" d="M271.148,44.134V67.355L258.4,68.647l-11.052-1.293-.958-10.037.958-14.438,21.605.152C269.785,43.032,271.148,43.7,271.148,44.134Z" transform="translate(-222.559 -42.404)" fill="#fe93d3"/>
        <path id="Trazado_992512" data-name="Trazado 992512" d="M264.539,288.19v14.954c0,1.221-1.482,3.278-2.308,3.278l-.906.3H240.744l-1.691-8.61,1.691-9.918Z" transform="translate(-215.951 -263.24)" fill="#66c6a6"/>
        <path id="Trazado_992513" data-name="Trazado 992513" d="M32.293,278.5V297.03H9a1.5,1.5,0,0,1-1.5-1.5V278.5l14.82-1.074Z" transform="translate(-7.5 -253.552)" fill="#ffef57"/>
        <path id="Trazado_992514" data-name="Trazado 992514" d="M32.293,41.476V65.95H7.5V47.42l1-4.6a1.5,1.5,0,0,1,1.5-1.5Z" transform="translate(-7.5 -41)" fill="#b2e5fb"/>
        <path id="Trazado_992515" data-name="Trazado 992515" d="M56.693,39.972v4.234l-2.657.318L7.5,44.534V39.611a1.5,1.5,0,0,1,1.5-1.5H52.608l2.33.1a1.974,1.974,0,0,1,1.754,1.754Z" transform="translate(-7.5 -38.114)" fill="#756e78"/>
        <g id="Grupo_1158400" data-name="Grupo 1158400" transform="translate(41.948 0)">
          <path id="Trazado_992516" data-name="Trazado 992516" d="M457.555,94.564V113.1l-2.6.842-2.6-.842V94.564l3.118-.864Z" transform="translate(-449.917 -88.154)" fill="#fe73c5"/>
          <path id="Trazado_992517" data-name="Trazado 992517" d="M439.679,288.19v17.031c0,.826-1.144,1.5-2.553,1.5h-4.631l.539-.188c.894-.309,1.442-.873,1.442-1.482V288.19Z" transform="translate(-432.041 -263.24)" fill="#50b29f"/>
          <path id="Trazado_992518" data-name="Trazado 992518" d="M435.582,39.611v4.913h-5.2v-4.47c0-.72-.674-1.382-1.755-1.725l-.68-.215h5.085C434.438,38.114,435.582,38.783,435.582,39.611Z" transform="translate(-427.944 -38.114)" fill="#655f66"/>
        </g>
        <path id="Trazado_992519" data-name="Trazado 992519" d="M133.507,137.626a6.318,6.318,0,0,1-.851,3.179l-1.95-.305-1.292-1.567a2.613,2.613,0,0,0-2.263-3.92l-.473-1.477.473-2.267A6.357,6.357,0,0,1,133.507,137.626Z" transform="translate(-114.787 -121.976)" fill="#ffef57"/>
        <path id="Trazado_992520" data-name="Trazado 992520" d="M74.066,131.27v3.743a2.613,2.613,0,0,0-2.264,3.92l-1.055,1.872H68.561a6.358,6.358,0,0,1,5.505-9.535Z" transform="translate(-61.703 -121.976)" fill="#fe93d3"/>
        <path id="Trazado_992521" data-name="Trazado 992521" d="M87.251,209.952a6.358,6.358,0,0,1-11.011,0l3.242-1.872a2.613,2.613,0,0,0,4.527,0Z" transform="translate(-69.382 -191.122)" fill="#7ec8ed"/>
        <g id="Grupo_1158401" data-name="Grupo 1158401" transform="translate(29.565 9.295)">
          <path id="Trazado_992522" data-name="Trazado 992522" d="M307.634,219.282h-3.6a.2.2,0,0,1-.2-.2v-3.969a.2.2,0,0,1,.2-.2h3.6l1.058,2.184Z" transform="translate(-303.83 -206.569)" fill="#f9db48"/>
          <path id="Trazado_992523" data-name="Trazado 992523" d="M345.761,194.685h-3.8v-6.894a.2.2,0,0,1,.2-.2h3.6l.972,4.287Z" transform="translate(-338.153 -181.972)" fill="#f2c853"/>
          <path id="Trazado_992524" data-name="Trazado 992524" d="M383.889,169.335h-3.8v-9.7a.2.2,0,0,1,.2-.2h3.6l.887,6.161Z" transform="translate(-372.477 -156.623)" fill="#f9db48"/>
          <path id="Trazado_992525" data-name="Trazado 992525" d="M421.817,143.987h-3.6V131.474a.2.2,0,0,1,.2-.2h3.4a.2.2,0,0,1,.2.2v12.313A.2.2,0,0,1,421.817,143.987Z" transform="translate(-406.8 -131.274)" fill="#ffef57"/>
        </g>
        <g id="Grupo_1158402" data-name="Grupo 1158402" transform="translate(4.037 30.477)">
          <circle id="Elipse_11968" data-name="Elipse 11968" cx="1.537" cy="1.537" r="1.537" fill="#fe93d3"/>
          <circle id="Elipse_11969" data-name="Elipse 11969" cx="1.537" cy="1.537" r="1.537" transform="translate(4.391 4.391)" fill="#fe93d3"/>
          <circle id="Elipse_11970" data-name="Elipse 11970" cx="1.537" cy="1.537" r="1.537" transform="translate(8.782)" fill="#fe93d3"/>
          <circle id="Elipse_11971" data-name="Elipse 11971" cx="1.537" cy="1.537" r="1.537" transform="translate(13.579 4.391)" fill="#fe93d3"/>
        </g>
        <path id="Trazado_992526" data-name="Trazado 992526" d="M306.355,333.79l.663,1.592-.663,1.592H303.8a1.592,1.592,0,1,1,0-3.184Z" transform="translate(-272.807 -304.29)" fill="#40a089"/>
        <path id="Trazado_992527" data-name="Trazado 992527" d="M354.992,335.381a1.591,1.591,0,0,1-1.592,1.592h-9.64V333.79h9.64A1.591,1.591,0,0,1,354.992,335.381Z" transform="translate(-310.211 -304.29)" fill="#f5f8f9"/>
        <path id="Trazado_992528" data-name="Trazado 992528" d="M313.542,398.38l.734,1.592-.734,1.592H303.8a1.592,1.592,0,0,1,0-3.185Z" transform="translate(-272.807 -362.436)" fill="#40a089"/>
        <path id="Trazado_992529" data-name="Trazado 992529" d="M419.836,399.972a1.592,1.592,0,0,1-1.592,1.592H415.79V398.38h2.453a1.592,1.592,0,0,1,1.592,1.592Z" transform="translate(-375.055 -362.436)" fill="#f5f8f9"/>
      </g>
      <g id="Grupo_1158405" data-name="Grupo 1158405" transform="translate(0 30.629)">
        <path id="Trazado_992530" data-name="Trazado 992530" d="M48.707,30.629H24.93a.748.748,0,0,0,0,1.5H48.707a.88.88,0,0,1,.879.879v3.974H1.5V33a.88.88,0,0,1,.879-.879H21.438a.748.748,0,0,0,0-1.5H2.376A2.378,2.378,0,0,0,0,33V73.224A2.378,2.378,0,0,0,2.376,75.6h14.4a.748.748,0,0,0,0-1.5H2.376a.88.88,0,0,1-.879-.879V57.074h3.08a.748.748,0,0,0,0-1.5H1.5v-17.1h23.3v17.1H8.068a.748.748,0,0,0,0,1.5H24.793V74.1H20.268a.748.748,0,0,0,0,1.5H48.707a2.378,2.378,0,0,0,2.376-2.376V33A2.378,2.378,0,0,0,48.707,30.629Zm.879,42.595a.88.88,0,0,1-.879.879H26.29V57.074h23.3Zm0-17.646H26.29v-17.1h23.3Z" transform="translate(0 -30.629)"/>
        <path id="Trazado_992531" data-name="Trazado 992531" d="M67.315,137.983a7.1,7.1,0,1,0-7.1-7.1A7.113,7.113,0,0,0,67.315,137.983Zm0-1.5a5.6,5.6,0,0,1-4.436-2.183l1.974-1.139a3.355,3.355,0,0,0,4.925,0L71.75,134.3A5.6,5.6,0,0,1,67.315,136.487Zm.748-11.165a5.6,5.6,0,0,1,4.438,7.687l-1.974-1.14a3.362,3.362,0,0,0-2.464-4.268Zm1.117,5.557a1.865,1.865,0,1,1-1.865-1.865A1.867,1.867,0,0,1,69.18,130.879Zm-7.473,0a5.615,5.615,0,0,1,4.86-5.557v2.28a3.362,3.362,0,0,0-2.464,4.268l-1.974,1.139A5.574,5.574,0,0,1,61.707,130.879Z" transform="translate(-54.203 -114.481)"/>
        <path id="Trazado_992532" data-name="Trazado 992532" d="M299.312,137.979h15.216a.748.748,0,0,0,.748-.748v-4.61a.748.748,0,1,0-1.5,0v3.862h-2.308V125.267h2.308v3.862a.748.748,0,1,0,1.5,0v-4.61a.748.748,0,0,0-.748-.748h-3.8a.748.748,0,0,0-.748.748v2.062H306.92a.748.748,0,0,0-.748.748v2.061h-3.056a.748.748,0,0,0-.748.748v1.978h-3.056a.748.748,0,0,0-.748.748v4.368A.748.748,0,0,0,299.312,137.979Zm8.356-9.9h2.307v8.407h-2.307Zm-3.8,2.809h2.307v5.6h-2.307Zm-3.8,2.726h2.307v2.871h-2.307Z" transform="translate(-268.776 -114.477)"/>
        <path id="Trazado_992533" data-name="Trazado 992533" d="M58.955,342.762a2.283,2.283,0,0,0-3.541-1.908l-1.486-1.486a2.285,2.285,0,1,0-4.111,0l-1.338,1.338a2.282,2.282,0,0,0-1.995,0l-1.338-1.338a2.286,2.286,0,1,0-1.058,1.058l1.338,1.338a2.285,2.285,0,1,0,4.111,0l1.338-1.338a2.282,2.282,0,0,0,1.995,0l1.628,1.628a2.285,2.285,0,1,0,4.457.708Zm-15.864-3.6a.788.788,0,1,1,.788-.788A.789.789,0,0,1,43.091,339.16Zm4.391,4.391a.788.788,0,1,1,.788-.788A.789.789,0,0,1,47.482,343.55Zm4.391-4.391a.788.788,0,1,1,.788-.788A.789.789,0,0,1,51.873,339.16Zm4.009,3.6a.788.788,0,1,1,.788.788A.789.789,0,0,1,55.881,342.762Z" transform="translate(-36.735 -305.61)"/>
        <path id="Trazado_992534" data-name="Trazado 992534" d="M298.025,330.968h12.193a2.34,2.34,0,1,0,0-4.681H298.025a2.34,2.34,0,0,0,0,4.681Zm3.3-3.184h8.891a.844.844,0,1,1,0,1.688h-8.891Zm-3.3,0h1.805v1.688h-1.805a.844.844,0,0,1,0-1.688Z" transform="translate(-266.184 -296.789)"/>
        <path id="Trazado_992535" data-name="Trazado 992535" d="M298.025,395.564h12.193a2.34,2.34,0,1,0,0-4.681H298.025a2.34,2.34,0,0,0,0,4.681Zm10.488-3.184h1.706a.844.844,0,1,1,0,1.688h-1.706Zm-10.488,0h8.991v1.688h-8.991a.844.844,0,0,1,0-1.688Z" transform="translate(-266.184 -354.94)"/>
        <g id="Grupo_1158404" data-name="Grupo 1158404" transform="translate(3.449 3.176)">
          <circle id="Elipse_11972" data-name="Elipse 11972" cx="0.748" cy="0.748" r="0.748"/>
          <circle id="Elipse_11973" data-name="Elipse 11973" cx="0.748" cy="0.748" r="0.748" transform="translate(3.404)"/>
          <circle id="Elipse_11974" data-name="Elipse 11974" cx="0.748" cy="0.748" r="0.748" transform="translate(6.808)"/>
        </g>
      </g>
    </g>
  </g>
</svg>
