<svg xmlns="http://www.w3.org/2000/svg" xmlns:xlink="http://www.w3.org/1999/xlink" width="108" height="108" viewBox="0 0 108 108">
  <defs>
    <filter id="Trazado_982547" x="0" y="0" width="108" height="108" filterUnits="userSpaceOnUse">
      <feOffset dy="3" input="SourceAlpha"/>
      <feGaussianBlur stdDeviation="3" result="blur"/>
      <feFlood flood-opacity="0.161"/>
      <feComposite operator="in" in2="blur"/>
      <feComposite in="SourceGraphic"/>
    </filter>
  </defs>
  <g id="Grupo_1158484" data-name="Grupo 1158484" transform="translate(-198 -2484)">
    <g id="Grupo_1158018" data-name="Grupo 1158018" transform="translate(37 329)">
      <g id="Grupo_1153207" data-name="Grupo 1153207" transform="translate(0 703)">
        <g id="Grupo_1153117" data-name="Grupo 1153117" transform="translate(-93 939)">
          <g id="Grupo_1149598" data-name="Grupo 1149598" transform="translate(80 315)">
            <g id="Grupo_1148770" data-name="Grupo 1148770" transform="translate(-27 -2583)">
              <g id="Grupo_1146954" data-name="Grupo 1146954" transform="translate(-415 -1202)">
                <g transform="matrix(1, 0, 0, 1, 616, 3983)" filter="url(#Trazado_982547)">
                  <g id="Trazado_982547-2" data-name="Trazado 982547" transform="translate(9 6)" fill="#f9f7fd">
                    <path d="M 45 88.5 C 39.12687683105469 88.5 33.43022537231445 87.35007476806641 28.06830024719238 85.08217620849609 C 22.88852500915527 82.89131164550781 18.23629951477051 79.75458526611328 14.2408504486084 75.75914764404297 C 10.24541282653809 71.76370239257812 7.108687400817871 67.11147308349609 4.917825222015381 61.93170166015625 C 2.649924993515015 56.56977462768555 1.5 50.87312316894531 1.5 45 C 1.5 39.12687683105469 2.649924993515015 33.43022537231445 4.917825222015381 28.06830024719238 C 7.108687400817871 22.88852500915527 10.24541282653809 18.23629951477051 14.2408504486084 14.2408504486084 C 18.23629951477051 10.24541282653809 22.88852500915527 7.108687400817871 28.06830024719238 4.917825222015381 C 33.43022537231445 2.649924993515015 39.12687683105469 1.5 45 1.5 C 50.87312316894531 1.5 56.56977462768555 2.649924993515015 61.93170166015625 4.917825222015381 C 67.11147308349609 7.108687400817871 71.76370239257812 10.24541282653809 75.75914764404297 14.2408504486084 C 79.75458526611328 18.23629951477051 82.89131164550781 22.88852500915527 85.08217620849609 28.06830024719238 C 87.35007476806641 33.43022537231445 88.5 39.12687683105469 88.5 45 C 88.5 50.87312316894531 87.35007476806641 56.56977462768555 85.08217620849609 61.93170166015625 C 82.89131164550781 67.11147308349609 79.75458526611328 71.76370239257812 75.75914764404297 75.75914764404297 C 71.76370239257812 79.75458526611328 67.11147308349609 82.89131164550781 61.93170166015625 85.08217620849609 C 56.56977462768555 87.35007476806641 50.87312316894531 88.5 45 88.5 Z" stroke="none"/>
                    <path d="M 45 3 C 39.32871246337891 3 33.82865524291992 4.110054016113281 28.65262985229492 6.299339294433594 C 23.65165710449219 8.414573669433594 19.15968322753906 11.44334411621094 15.301513671875 15.301513671875 C 11.44334411621094 19.15968322753906 8.414573669433594 23.65165710449219 6.299339294433594 28.65262985229492 C 4.110054016113281 33.82865524291992 3 39.32871246337891 3 45 C 3 50.67128753662109 4.110054016113281 56.17134475708008 6.299339294433594 61.34737396240234 C 8.414573669433594 66.34834289550781 11.44334411621094 70.84031677246094 15.301513671875 74.698486328125 C 19.15968322753906 78.55665588378906 23.65165710449219 81.58542633056641 28.65262985229492 83.70066070556641 C 33.82865524291992 85.88994598388672 39.32871246337891 87 45 87 C 50.67128753662109 87 56.17134475708008 85.88994598388672 61.34737396240234 83.70066070556641 C 66.34834289550781 81.58542633056641 70.84031677246094 78.55665588378906 74.698486328125 74.698486328125 C 78.55665588378906 70.84031677246094 81.58542633056641 66.34834289550781 83.70066070556641 61.34737396240234 C 85.88994598388672 56.17134475708008 87 50.67128753662109 87 45 C 87 39.32871246337891 85.88994598388672 33.82865524291992 83.70066070556641 28.65262985229492 C 81.58542633056641 23.65165710449219 78.55665588378906 19.15968322753906 74.698486328125 15.301513671875 C 70.84031677246094 11.44334411621094 66.34834289550781 8.414573669433594 61.34737396240234 6.299339294433594 C 56.17134475708008 4.110054016113281 50.67128753662109 3 45 3 M 45 0 C 69.85281372070312 0 90 20.14718627929688 90 45 C 90 69.85281372070312 69.85281372070312 90 45 90 C 20.14718627929688 90 0 69.85281372070312 0 45 C 0 20.14718627929688 20.14718627929688 0 45 0 Z" stroke="none" fill="#6c6384"/>
                  </g>
                </g>
              </g>
            </g>
          </g>
        </g>
      </g>
    </g>
    <g id="educacion-en-linea_2_" data-name="educacion-en-linea (2)" transform="translate(224 2509.001)">
      <path id="Trazado_992640" data-name="Trazado 992640" d="M288,400.659h19.067a1.733,1.733,0,0,0,1.733-1.733v-5.2a1.733,1.733,0,0,0-1.733-1.733H288Zm0,0" transform="translate(-256.8 -349.527)" fill="#33c0db"/>
      <path id="Trazado_992641" data-name="Trazado 992641" d="M47.867,120.422a19.934,19.934,0,1,0-39.867,0c0,.064.008.126.008.19S8,120.737,8,120.8a19.934,19.934,0,0,0,39.867,0c0-.064-.008-.125-.008-.19S47.867,120.486,47.867,120.422Zm0,0" transform="translate(-7.133 -89.603)" fill="#33c0db"/>
      <path id="Trazado_992642" data-name="Trazado 992642" d="M120.077,309.192v4.333a.867.867,0,0,1-.867.867h-1.27a.867.867,0,0,1-.721-.386L116,312.179a.866.866,0,0,0-.721-.387h-1.511a.867.867,0,0,0-.823.593l-2.579,7.739a19.925,19.925,0,0,0,22.711-3.552v-6.513a.867.867,0,0,0-.867-.867h-3a.867.867,0,0,1-.721-.386l-2.952-4.428a.866.866,0,0,0-.721-.387h-3.87a.867.867,0,0,0-.867.867v2.6" transform="translate(-98.411 -271.06)" fill="#fcb641"/>
      <path id="Trazado_992643" data-name="Trazado 992643" d="M162.8,100.943l2.23-.229A19.89,19.89,0,0,0,162.8,100.943Zm0,0" transform="translate(-145.164 -89.805)" fill="#33c0db"/>
      <path id="Trazado_992644" data-name="Trazado 992644" d="M94.8,102.951a19.5,19.5,0,0,0-6.874,3.118,19.815,19.815,0,0,1,8.111-3.244Zm0,0" transform="translate(-78.404 -91.685)" fill="#33c0db"/>
      <path id="Trazado_992645" data-name="Trazado 992645" d="M72.425,113.179a.865.865,0,0,0,.775.479h2.064a.867.867,0,0,1,.867.867v4.333a.867.867,0,0,0,.867.867h5.5a.865.865,0,0,0,.8-.525l2.15-5.016a.866.866,0,0,1,.8-.526H90a.867.867,0,0,0,.867-.867v-6.479a20.5,20.5,0,0,0-6.933-1.2c-.313,0-.624.009-.934.022l-2.23.221a19.1,19.1,0,0,0-9.966,4.576Zm0,0" transform="translate(-63.131 -93.726)" fill="#fcb641"/>
      <path id="Trazado_992646" data-name="Trazado 992646" d="M41.6,120.99a20.755,20.755,0,0,0-5.378-13.957L34.938,108.2a19.048,19.048,0,0,1,.6,24.881V128.79a1.735,1.735,0,0,0-1.733-1.733h-3l-2.952-4.428a1.73,1.73,0,0,0-1.442-.772h-3.87A1.735,1.735,0,0,0,20.8,123.59v2.6h1.733v-2.6H26.4l2.952,4.428a1.731,1.731,0,0,0,1.442.772h3v6.13l-.111.106c-.347.32-.707.622-1.075.912-.111.088-.22.176-.333.262-.359.272-.727.527-1.1.771-.132.086-.265.173-.4.257-.373.23-.753.444-1.14.647-.144.075-.288.15-.433.223q-.594.293-1.207.543c-.14.057-.279.112-.421.165-.43.164-.865.314-1.306.446-.12.036-.241.069-.361.1-.47.131-.945.246-1.425.341-.092.018-.185.033-.276.049-.513.093-1.03.169-1.552.219-.055.005-.111.008-.166.013-.558.048-1.123.078-1.691.078-.33,0-.66-.008-.987-.025-.261-.013-.52-.036-.778-.059-.062-.006-.126-.009-.188-.015-.3-.03-.594-.069-.887-.113l-.063-.009c-.29-.044-.578-.1-.863-.154l-.08-.015c-.269-.055-.534-.119-.8-.185l-.139-.034c-.238-.062-.474-.131-.709-.2l-.228-.068c-.208-.066-.413-.137-.619-.21-.1-.036-.207-.072-.308-.11-.183-.069-.364-.141-.544-.215-.122-.05-.244-.1-.365-.152-.074-.032-.146-.066-.218-.1l2.335-7H16.87l1.219,1.828a1.731,1.731,0,0,0,1.442.772H20.8a1.735,1.735,0,0,0,1.733-1.733v-4.333H20.8v4.333h-1.27l-1.219-1.828a1.73,1.73,0,0,0-1.442-.772H15.358a1.729,1.729,0,0,0-1.643,1.185L11.461,137.6a19,19,0,0,1-4.03-30.147l1.088,2.174a1.721,1.721,0,0,0,1.551.959h2.064v4.333a1.735,1.735,0,0,0,1.733,1.733h5.5a1.73,1.73,0,0,0,1.593-1.05L23.1,110.59h3.762a1.735,1.735,0,0,0,1.733-1.733v-1.733H26.867v1.733H23.1a1.731,1.731,0,0,0-1.593,1.051l-2.149,5.016h-5.5V110.59a1.735,1.735,0,0,0-1.733-1.733H10.069l-1.3-2.606a19.083,19.083,0,0,1,3.143-2.115c.076-.04.151-.081.229-.12.432-.222.87-.432,1.321-.621.045-.019.093-.035.138-.053.39-.16.789-.305,1.192-.439.145-.049.29-.1.437-.14.417-.128.839-.246,1.268-.345.033-.008.066-.018.1-.025l-.127-.56-.255-1.132c-.028.006-.055.016-.083.022-.483.111-.96.244-1.434.39-.168.052-.335.108-.5.164-.368.124-.733.259-1.095.4-.132.053-.265.1-.4.157q-.742.314-1.459.686l-.064.035c-.495.259-.978.542-1.452.84l-.025.016a20.9,20.9,0,0,0-2.6,1.933.8.8,0,0,0-.1.121,20.756,20.756,0,0,0,4.54,34.139c.012.007.02.018.032.024.049.024.1.044.146.068.174.085.351.163.528.243.295.134.591.259.889.379.179.071.355.145.536.211.208.076.419.144.628.213.134.044.268.091.4.132.217.067.436.127.655.186.132.036.264.072.4.106.219.055.44.106.661.153q.211.045.422.085c.215.042.429.081.645.116.16.026.322.047.485.069.2.027.4.055.6.076s.414.037.623.053c.16.012.32.028.481.036.375.021.752.032,1.131.032.648,0,1.288-.033,1.921-.092l.14-.01c.6-.059,1.189-.148,1.771-.257.086-.016.172-.029.256-.046.549-.11,1.088-.245,1.62-.4.121-.035.242-.067.361-.1.5-.152.99-.327,1.473-.515.146-.057.294-.113.438-.173.459-.191.908-.4,1.35-.625.157-.079.313-.157.468-.24.432-.231.853-.481,1.266-.741.148-.094.3-.186.441-.283.418-.278.823-.574,1.219-.881.127-.1.253-.2.377-.3.4-.328.794-.674,1.172-1.031.063-.06.132-.111.2-.172.012-.012.017-.029.029-.042a20.734,20.734,0,0,0,6.3-14.894Zm0,0" transform="translate(0 -89.791)"/>
      <path id="Trazado_992647" data-name="Trazado 992647" d="M57.092,275.017l-.945-.945a.868.868,0,0,0-.823-.228l-2.4.6a.868.868,0,0,1-.932-.36l-1.137-1.705a.864.864,0,0,0-.72-.387h-1.27a.867.867,0,0,0-.867.867V275.1a.865.865,0,0,0,.254.613l2.959,2.958a.866.866,0,0,0,.613.254h3.439a.865.865,0,0,0,.775-.479l1.214-2.429a.865.865,0,0,0-.162-1Zm0,0" transform="translate(-42.8 -242.527)" fill="#fcb641"/>
      <path id="Trazado_992648" data-name="Trazado 992648" d="M48.131,272.659H44.693a1.743,1.743,0,0,1-1.226-.508l-2.959-2.959A1.721,1.721,0,0,1,40,267.967v-2.242a1.735,1.735,0,0,1,1.733-1.733H43a1.73,1.73,0,0,1,1.442.772l1.137,1.706,2.4-.6a1.739,1.739,0,0,1,1.646.457l.944.944a1.731,1.731,0,0,1,.325,2L49.682,271.7a1.722,1.722,0,0,1-1.551.958Zm-6.4-6.933v2.242l2.959,2.958h3.439l1.215-2.429-.945-.945-2.4.6a1.737,1.737,0,0,1-1.862-.72L43,265.725Zm0,0" transform="translate(-35.667 -235.393)"/>
      <path id="Trazado_992649" data-name="Trazado 992649" d="M264.832,227.138l-1.333-2.667a.868.868,0,0,0-.776-.479h-1.8a.865.865,0,0,0-.481.146l-1.746,1.163a.866.866,0,0,0-.295,1.108l1.278,2.557a.868.868,0,0,0,.329.355l3.911,2.347a.865.865,0,0,0,.446.124h2.36a.867.867,0,0,0,.867-.867V228.95a.866.866,0,0,0-.593-.822l-1.666-.556a.865.865,0,0,1-.5-.434Zm0,0" transform="translate(-230.325 -199.727)" fill="#fcb641"/>
      <path id="Trazado_992650" data-name="Trazado 992650" d="M259.591,225.525h-2.36a1.736,1.736,0,0,1-.892-.247l-3.911-2.347a1.736,1.736,0,0,1-.658-.711l-1.279-2.556a1.736,1.736,0,0,1,.589-2.218l1.745-1.163a1.725,1.725,0,0,1,.961-.292h1.8a1.722,1.722,0,0,1,1.551.959l1.332,2.664,0,0,1.666.556a1.732,1.732,0,0,1,1.186,1.645v1.975a1.735,1.735,0,0,1-1.733,1.733Zm-4-7.8h-1.8l-1.746,1.163,1.279,2.556,3.91,2.347h2.36v-1.975l-1.667-.556a1.725,1.725,0,0,1-1-.868h0Zm0,0" transform="translate(-223.19 -192.593)"/>
      <path id="Trazado_992651" data-name="Trazado 992651" d="M224,63.173l8.667,2.994,8.667-2.994V57.5l-3.256-.969a19.062,19.062,0,0,0-10.958.025L224,57.5Zm0,0" transform="translate(-199.733 -49.702)" fill="#9c9792"/>
      <path id="Trazado_992652" data-name="Trazado 992652" d="M154.2,7.992,136,14.926l9.533,4.333V14.926l3.188-.957a19.069,19.069,0,0,1,10.957,0l3.189.957v4.333l9.533-4.333Zm0,0" transform="translate(-121.267 -7.127)" fill="#706d69"/>
      <path id="Trazado_992653" data-name="Trazado 992653" d="M456,132.325v-2.6a1.733,1.733,0,1,1,3.467,0v2.6" transform="translate(-406.599 -114.127)" fill="#9bc53d"/>
      <path id="Trazado_992654" data-name="Trazado 992654" d="M453.2,125.192h-1.733v-2.6a.867.867,0,0,0-1.733,0v2.6H448v-2.6a2.6,2.6,0,1,1,5.2,0Zm0,0" transform="translate(-399.466 -106.994)"/>
      <path id="Trazado_992655" data-name="Trazado 992655" d="M464,191.992h1.733v2.6H464Zm0,0" transform="translate(-413.733 -171.193)"/>
      <path id="Trazado_992656" data-name="Trazado 992656" d="M483.086,182.449l1.5-.867,1.3,2.252-1.5.867Zm0,0" transform="translate(-430.751 -161.911)"/>
      <path id="Trazado_992657" data-name="Trazado 992657" d="M435.07,183.838l1.3-2.252,1.5.866-1.3,2.252Zm0,0" transform="translate(-387.937 -161.915)"/>
      <path id="Trazado_992658" data-name="Trazado 992658" d="M166.126,7.8c0-.009,0-.018,0-.027a.865.865,0,0,0-.557-.782L147.372.056a.868.868,0,0,0-.618,0l-18.2,6.933a.866.866,0,0,0-.05,1.6l9.026,4.1v.782a.867.867,0,0,0,.584.819l8.667,2.994a.872.872,0,0,0,.283.047.851.851,0,0,0,.283-.047l8.667-2.994a.866.866,0,0,0,.584-.819v-.782l7.8-3.545v2.988h1.733V7.8Zm-11.263,5.055-7.8,2.695-7.8-2.695V8.443l2.57-.771a18.177,18.177,0,0,1,3.906-.721c.055,0,.111,0,.166-.006.1-.006.2-.006.295-.01l0,6.064h1.733l0-6.064.146.005c.081,0,.161,0,.242.008a18.254,18.254,0,0,1,3.905.713l2.636.784Zm1.733-2.068V7.8a.866.866,0,0,0-.045-.275.941.941,0,0,0-.084-.161.812.812,0,0,0-.043-.08.817.817,0,0,0-.125-.122.977.977,0,0,0-.07-.069.845.845,0,0,0-.115-.055.942.942,0,0,0-.136-.067l-3.189-.957a20,20,0,0,0-4.353-.793l-.04,0c-.444-.029-.888-.047-1.334-.047l-.043,0c-.311,0-.62.019-.929.034-.162.008-.325.007-.487.019a19.932,19.932,0,0,0-4.339.8l-3.086.934-.03.009h0a.847.847,0,0,0-.2.1c-.016.009-.036.014-.05.024a.864.864,0,0,0-.367.707v2.988l-6.417-2.917,15.95-6.077,15.95,6.076Zm0,0" transform="translate(-114.13)"/>
      <path id="Trazado_992659" data-name="Trazado 992659" d="M392,247.992h8.667a1.733,1.733,0,0,1,1.733,1.733v5.2a1.733,1.733,0,0,1-1.733,1.733H392Zm0,0" transform="translate(-349.533 -221.127)" fill="#fcb641"/>
      <path id="Trazado_992660" data-name="Trazado 992660" d="M408,391.992h3.467v8.667H408Zm0,0" transform="translate(-363.8 -349.527)" fill="#c7ebf2"/>
      <path id="Trazado_992661" data-name="Trazado 992661" d="M392,327.992h10.4a1.733,1.733,0,0,1,1.733,1.733v3.467a1.733,1.733,0,0,1-1.733,1.733H392Zm0,0" transform="translate(-349.533 -292.46)" fill="#9bc53d"/>
      <path id="Trazado_992662" data-name="Trazado 992662" d="M432,327.992h3.467v6.933H432Zm0,0" transform="translate(-385.2 -292.46)" fill="#c5d998"/>
      <path id="Trazado_992663" data-name="Trazado 992663" d="M408,247.992h3.467v8.667H408Zm0,0" transform="translate(-363.8 -221.127)" fill="#fce0b0"/>
      <path id="Trazado_992664" data-name="Trazado 992664" d="M310.342,248.76a2.585,2.585,0,0,0,.191-.967v-5.2a2.6,2.6,0,0,0-2.6-2.6h-8.667v1.733h.867v6.933h-.867v1.733h3.467v5.2h-6.067v1.733h3.467v6.933H288v1.733h19.067a2.6,2.6,0,0,0,2.6-2.6v-5.2a2.567,2.567,0,0,0-.16-.867h.16a2.6,2.6,0,0,0,2.6-2.6v-3.467a2.6,2.6,0,0,0-1.924-2.5Zm-1.542-6.167v5.2a.868.868,0,0,1-.867.867h-2.6v-6.933h2.6A.868.868,0,0,1,308.8,242.592Zm-6.933-.867H303.6v6.933h-1.733Zm2.6,8.667H306.2v5.2h-1.733Zm-2.6,13.867v-6.933H303.6v6.933Zm6.067-6.067v5.2a.868.868,0,0,1-.867.867h-1.733v-6.933h1.733A.868.868,0,0,1,307.933,258.193Zm2.6-3.467a.868.868,0,0,1-.867.867h-1.733v-5.2h1.733a.868.868,0,0,1,.867.867Zm0,0" transform="translate(-256.799 -213.994)"/>
    </g>
  </g>
</svg>
