<svg xmlns="http://www.w3.org/2000/svg" xmlns:xlink="http://www.w3.org/1999/xlink" width="113" height="113" viewBox="0 0 113 113">
  <defs>
    <filter id="Trazado_982547" x="0" y="0" width="113" height="113" filterUnits="userSpaceOnUse">
      <feOffset dy="3" input="SourceAlpha"/>
      <feGaussianBlur stdDeviation="3" result="blur"/>
      <feFlood flood-opacity="0.161"/>
      <feComposite operator="in" in2="blur"/>
      <feComposite in="SourceGraphic"/>
    </filter>
  </defs>
  <g id="Grupo_1159745" data-name="Grupo 1159745" transform="translate(-325 -4207)">
    <g id="Grupo_1158168" data-name="Grupo 1158168" transform="translate(-1 -1314)">
      <g id="Grupo_1152576" data-name="Grupo 1152576" transform="translate(-0.454 1205.621)">
        <g id="Grupo_1148633" data-name="Grupo 1148633" transform="translate(71.408 600.047)">
          <g id="Grupo_1148525" data-name="Grupo 1148525" transform="translate(264.046 3721.333)">
            <g transform="matrix(1, 0, 0, 1, -9, -6)" filter="url(#Trazado_982547)">
              <g id="Trazado_982547-2" data-name="Trazado 982547" transform="translate(9 6)" fill="#f0ebfe">
                <path d="M 47.5 93.5 C 41.28937149047852 93.5 35.26533508300781 92.28397369384766 29.59518623352051 89.88570404052734 C 24.11771965026855 87.56893157958984 19.19813346862793 84.25196075439453 14.97309303283691 80.02691650390625 C 10.74804019927979 75.80186462402344 7.431066513061523 70.88229370117188 5.114293098449707 65.40481567382812 C 2.716026782989502 59.73468017578125 1.5 53.71062850952148 1.5 47.5 C 1.5 41.28937149047852 2.716026782989502 35.26533508300781 5.114293098449707 29.59518623352051 C 7.431066513061523 24.11771965026855 10.74804019927979 19.19813346862793 14.97309303283691 14.97309303283691 C 19.19813346862793 10.74804019927979 24.11771965026855 7.431066513061523 29.59518623352051 5.114293098449707 C 35.26533508300781 2.716026782989502 41.28937149047852 1.5 47.5 1.5 C 53.71062850952148 1.5 59.73468017578125 2.716026782989502 65.40481567382812 5.114293098449707 C 70.88229370117188 7.431066513061523 75.80186462402344 10.74804019927979 80.02691650390625 14.97309303283691 C 84.25196075439453 19.19813346862793 87.56893157958984 24.11771965026855 89.88570404052734 29.59518623352051 C 92.28397369384766 35.26533508300781 93.5 41.28937149047852 93.5 47.5 C 93.5 53.71062850952148 92.28397369384766 59.73468017578125 89.88570404052734 65.40481567382812 C 87.56893157958984 70.88229370117188 84.25196075439453 75.80186462402344 80.02691650390625 80.02691650390625 C 75.80186462402344 84.25196075439453 70.88229370117188 87.56893157958984 65.40481567382812 89.88570404052734 C 59.73468017578125 92.28397369384766 53.71062850952148 93.5 47.5 93.5 Z" stroke="none"/>
                <path d="M 47.5 3 C 41.49121475219727 3 35.66376876831055 4.176155090332031 30.17950439453125 6.495796203613281 C 24.88084411621094 8.736953735351562 20.12152099609375 11.94598388671875 16.03375244140625 16.03375244140625 C 11.94598388671875 20.12152099609375 8.736953735351562 24.88084411621094 6.495796203613281 30.17950439453125 C 4.176155090332031 35.66376876831055 3 41.49121475219727 3 47.5 C 3 53.50878524780273 4.176155090332031 59.33623123168945 6.495796203613281 64.82049560546875 C 8.736953735351562 70.11915588378906 11.94598388671875 74.87847900390625 16.03375244140625 78.96624755859375 C 20.12152099609375 83.05401611328125 24.88084411621094 86.26304626464844 30.17950439453125 88.50419616699219 C 35.66376876831055 90.82384490966797 41.49121475219727 92 47.5 92 C 53.50878524780273 92 59.33623123168945 90.82384490966797 64.82049560546875 88.50419616699219 C 70.11915588378906 86.26304626464844 74.87847900390625 83.05401611328125 78.96624755859375 78.96624755859375 C 83.05401611328125 74.87847900390625 86.26304626464844 70.11915588378906 88.50419616699219 64.82049560546875 C 90.82384490966797 59.33623123168945 92 53.50878524780273 92 47.5 C 92 41.49121475219727 90.82384490966797 35.66376876831055 88.50419616699219 30.17950439453125 C 86.26304626464844 24.88084411621094 83.05401611328125 20.12152099609375 78.96624755859375 16.03375244140625 C 74.87847900390625 11.94598388671875 70.11915588378906 8.736953735351562 64.82049560546875 6.495796203613281 C 59.33623123168945 4.176155090332031 53.50878524780273 3 47.5 3 M 47.5 0 C 73.7335205078125 0 95 21.2664794921875 95 47.5 C 95 73.7335205078125 73.7335205078125 95 47.5 95 C 21.2664794921875 95 0 73.7335205078125 0 47.5 C 0 21.2664794921875 21.2664794921875 0 47.5 0 Z" stroke="none" fill="#7145fe"/>
              </g>
            </g>
          </g>
        </g>
      </g>
    </g>
    <g id="relacional" transform="translate(352 4231)">
      <g id="Grupo_1159743" data-name="Grupo 1159743" transform="translate(1.92 1.92)">
        <g id="Grupo_1159729" data-name="Grupo 1159729" transform="translate(0 7.363)">
          <path id="Trazado_993424" data-name="Trazado 993424" d="M2,19.2V10H24.09v9.2a1.846,1.846,0,0,1-1.841,1.841H3.841A1.846,1.846,0,0,1,2,19.2Z" transform="translate(-2 -10)" fill="#e6e9ed"/>
        </g>
        <g id="Grupo_1159730" data-name="Grupo 1159730" transform="translate(0 31.294)">
          <path id="Trazado_993425" data-name="Trazado 993425" d="M24.09,36v9.2a1.846,1.846,0,0,1-1.841,1.841H3.841A1.846,1.846,0,0,1,2,45.2V36Z" transform="translate(-2 -36)" fill="#e6e9ed"/>
        </g>
        <g id="Grupo_1159731" data-name="Grupo 1159731" transform="translate(32.215 44.18)">
          <path id="Trazado_993426" data-name="Trazado 993426" d="M59.09,50v9.2a1.846,1.846,0,0,1-1.841,1.841H38.841A1.846,1.846,0,0,1,37,59.2V50Z" transform="translate(-37 -50)" fill="#e6e9ed"/>
        </g>
        <g id="Grupo_1159732" data-name="Grupo 1159732" transform="translate(0 0)">
          <path id="Trazado_993427" data-name="Trazado 993427" d="M2,9.363V3.841A1.846,1.846,0,0,1,3.841,2H22.249A1.846,1.846,0,0,1,24.09,3.841V9.363Z" transform="translate(-2 -2)" fill="#5cd6b3"/>
        </g>
        <g id="Grupo_1159733" data-name="Grupo 1159733" transform="translate(0 23.931)">
          <path id="Trazado_993428" data-name="Trazado 993428" d="M24.09,33.523v1.841H2V29.841A1.846,1.846,0,0,1,3.841,28H22.249a1.846,1.846,0,0,1,1.841,1.841Z" transform="translate(-2 -28)" fill="#5cd6b3"/>
        </g>
        <g id="Grupo_1159734" data-name="Grupo 1159734" transform="translate(32.215 36.817)">
          <path id="Trazado_993429" data-name="Trazado 993429" d="M37,49.363V43.841A1.846,1.846,0,0,1,38.841,42H57.249a1.846,1.846,0,0,1,1.841,1.841v5.523Z" transform="translate(-37 -42)" fill="#5cd6b3"/>
        </g>
        <g id="Grupo_1159735" data-name="Grupo 1159735" transform="translate(14.727 11.045)">
          <path id="Trazado_993430" data-name="Trazado 993430" d="M18,14h3.682v3.682H18Z" transform="translate(-18 -14)" fill="#ff826e"/>
        </g>
        <g id="Grupo_1159736" data-name="Grupo 1159736" transform="translate(35.62 47.441)">
          <ellipse id="Elipse_12005" data-name="Elipse 12005" cx="2" cy="2.5" rx="2" ry="2.5" transform="translate(0.46 -0.361)" fill="#ff826e"/>
        </g>
        <g id="Grupo_1159737" data-name="Grupo 1159737" transform="translate(31.294 13.806)">
          <path id="Trazado_993431" data-name="Trazado 993431" d="M59.931,17v5.523c0,1.528-5.357,2.761-11.965,2.761S36,24.05,36,22.523V17c0,1.528,5.357,2.761,11.965,2.761S59.931,18.528,59.931,17Z" transform="translate(-36 -17)" fill="#fcd770"/>
        </g>
        <g id="Grupo_1159738" data-name="Grupo 1159738" transform="translate(31.294 2.761)">
          <path id="Trazado_993432" data-name="Trazado 993432" d="M59.931,5v5.523c0,1.528-5.357,2.761-11.965,2.761S36,12.05,36,10.523V5c0,1.528,5.357,2.761,11.965,2.761S59.931,6.528,59.931,5Z" transform="translate(-36 -5)" fill="#fcd770"/>
        </g>
        <g id="Grupo_1159739" data-name="Grupo 1159739" transform="translate(31.294 8.284)">
          <path id="Trazado_993433" data-name="Trazado 993433" d="M36,11c0,1.528,5.357,2.761,11.965,2.761S59.931,12.528,59.931,11v5.523c0,1.528-5.357,2.761-11.965,2.761S36,18.05,36,16.523V11Z" transform="translate(-36 -11)" fill="#ffeaa7"/>
        </g>
        <g id="Grupo_1159740" data-name="Grupo 1159740" transform="translate(31.321 0.154)">
          <ellipse id="Elipse_12006" data-name="Elipse 12006" cx="12" cy="2.5" rx="12" ry="2.5" transform="translate(-0.241 -0.075)" fill="#ffeaa7"/>
        </g>
        <g id="Grupo_1159741" data-name="Grupo 1159741" transform="translate(8.752 46.366)">
          <circle id="Elipse_12007" data-name="Elipse 12007" cx="2" cy="2" r="2" transform="translate(0.328 -0.287)" fill="#ff826e"/>
        </g>
        <g id="Grupo_1159742" data-name="Grupo 1159742" transform="translate(40.993 28.096)">
          <ellipse id="Elipse_12008" data-name="Elipse 12008" cx="2" cy="1.5" rx="2" ry="1.5" transform="translate(0.086 -0.017)" fill="#ff826e"/>
        </g>
      </g>
      <g id="Grupo_1159744" data-name="Grupo 1159744" transform="translate(1 1)">
        <path id="Trazado_993434" data-name="Trazado 993434" d="M45.18,1c-1.319,0-12.886.1-12.886,3.682V10.2H24.931V3.761A2.765,2.765,0,0,0,22.17,1H3.761A2.765,2.765,0,0,0,1,3.761V18.488a2.765,2.765,0,0,0,2.761,2.761h8.284v3.682H3.761A2.765,2.765,0,0,0,1,27.692V42.419A2.765,2.765,0,0,0,3.761,45.18h8.284v2.01A2.755,2.755,0,1,0,15.557,50.7H33.215v4.6a2.765,2.765,0,0,0,2.761,2.761H54.384A2.765,2.765,0,0,0,57.146,55.3V40.578a2.765,2.765,0,0,0-2.761-2.761H46.1V33.966a2.745,2.745,0,0,0,0-5.184V24.92c3.086-.068,11.965-.535,11.965-3.671V4.682C58.066,1.1,46.5,1,45.18,1Zm11.045,9.133c-.446.7-4.447,1.912-11.045,1.912s-10.6-1.214-11.045-1.912V6.772c3.32,1.533,10.057,1.591,11.045,1.591s7.725-.058,11.045-1.591Zm0,5.523c-.446.7-4.447,1.912-11.045,1.912s-10.6-1.214-11.045-1.912V12.294c3.32,1.533,10.057,1.591,11.045,1.591s7.725-.058,11.045-1.591ZM45.18,2.841c6.379,0,10.335,1.135,10.994,1.841-.659.706-4.616,1.841-10.994,1.841S34.845,5.388,34.186,4.682C34.845,3.976,38.8,2.841,45.18,2.841Zm-41.419,0H22.17a.921.921,0,0,1,.92.92v4.6H2.841v-4.6A.921.921,0,0,1,3.761,2.841Zm-.92,15.647V10.2H23.09v8.284a.921.921,0,0,1-.92.92H3.761A.921.921,0,0,1,2.841,18.488Zm11.045,2.761H22.17a2.765,2.765,0,0,0,2.761-2.761V12.045h7.363v9.2c0,3.135,8.879,3.6,11.965,3.671v3.862a2.759,2.759,0,0,0-1.671,1.671H24.931V27.692a2.765,2.765,0,0,0-2.761-2.761H13.886ZM3.761,26.772H22.17a.921.921,0,0,1,.92.92v4.6H2.841v-4.6A.921.921,0,0,1,3.761,26.772Zm-.92,15.647V34.135H23.09v8.284a.921.921,0,0,1-.92.92H3.761A.921.921,0,0,1,2.841,42.419ZM12.965,50.7a.92.92,0,1,1,.92-.92A.921.921,0,0,1,12.965,50.7Zm41.419,5.523H35.976a.921.921,0,0,1-.92-.92V47.021H55.3V55.3A.921.921,0,0,1,54.384,56.225Zm.92-15.647v4.6H35.056v-4.6a.921.921,0,0,1,.92-.92H54.384A.921.921,0,0,1,55.3,40.578ZM35.976,37.817a2.765,2.765,0,0,0-2.761,2.761v8.284H15.557a2.759,2.759,0,0,0-1.671-1.671V45.18H22.17a2.765,2.765,0,0,0,2.761-2.761V32.294H42.588a2.759,2.759,0,0,0,1.671,1.671v3.851Zm9.2-5.523a.92.92,0,1,1,.92-.92A.921.921,0,0,1,45.18,32.294Zm0-9.2c-6.572,0-10.571-1.2-11.045-1.9v-3.37c3.32,1.533,10.057,1.591,11.045,1.591s7.725-.058,11.045-1.591v3.37C55.751,21.885,51.752,23.09,45.18,23.09Z" transform="translate(-1 -1)"/>
        <path id="Trazado_993435" data-name="Trazado 993435" d="M13,5h1.841V6.841H13Z" transform="translate(-1.955 -1.318)"/>
        <path id="Trazado_993436" data-name="Trazado 993436" d="M9,5h1.841V6.841H9Z" transform="translate(-1.637 -1.318)"/>
        <path id="Trazado_993437" data-name="Trazado 993437" d="M5,5H6.841V6.841H5Z" transform="translate(-1.318 -1.318)"/>
        <path id="Trazado_993438" data-name="Trazado 993438" d="M13,31h1.841v1.841H13Z" transform="translate(-1.955 -3.387)"/>
        <path id="Trazado_993439" data-name="Trazado 993439" d="M5,31H6.841v1.841H5Z" transform="translate(-1.318 -3.387)"/>
        <path id="Trazado_993440" data-name="Trazado 993440" d="M9,31h1.841v1.841H9Z" transform="translate(-1.637 -3.387)"/>
        <path id="Trazado_993441" data-name="Trazado 993441" d="M44,45h1.841v1.841H44Z" transform="translate(-4.422 -4.501)"/>
        <path id="Trazado_993442" data-name="Trazado 993442" d="M48,45h1.841v1.841H48Z" transform="translate(-4.74 -4.501)"/>
        <path id="Trazado_993443" data-name="Trazado 993443" d="M40,45h1.841v1.841H40Z" transform="translate(-4.104 -4.501)"/>
        <path id="Trazado_993444" data-name="Trazado 993444" d="M42.761,53a2.761,2.761,0,1,0,2.761,2.761A2.765,2.765,0,0,0,42.761,53Zm0,3.682a.92.92,0,1,1,.92-.92A.921.921,0,0,1,42.761,56.682Z" transform="translate(-4.104 -5.138)"/>
        <path id="Trazado_993445" data-name="Trazado 993445" d="M48,53h9.2v1.841H48Z" transform="translate(-4.74 -5.138)"/>
        <path id="Trazado_993446" data-name="Trazado 993446" d="M48,57h5.523v1.841H48Z" transform="translate(-4.74 -5.456)"/>
        <path id="Trazado_993447" data-name="Trazado 993447" d="M56,57h1.841v1.841H56Z" transform="translate(-5.377 -5.456)"/>
        <path id="Trazado_993448" data-name="Trazado 993448" d="M5,39H6.841v1.841H5Z" transform="translate(-1.318 -4.024)"/>
        <path id="Trazado_993449" data-name="Trazado 993449" d="M9,39H21.886v1.841H9Z" transform="translate(-1.637 -4.024)"/>
        <path id="Trazado_993450" data-name="Trazado 993450" d="M5,43H21.568v1.841H5Z" transform="translate(-1.318 -4.342)"/>
        <path id="Trazado_993451" data-name="Trazado 993451" d="M17,18.523h5.523V13H17Zm1.841-3.682h1.841v1.841H18.841Z" transform="translate(-2.273 -1.955)"/>
        <path id="Trazado_993452" data-name="Trazado 993452" d="M5,13h9.2v1.841H5Z" transform="translate(-1.318 -1.955)"/>
        <path id="Trazado_993453" data-name="Trazado 993453" d="M5,17h5.523v1.841H5Z" transform="translate(-1.318 -2.273)"/>
        <path id="Trazado_993454" data-name="Trazado 993454" d="M13,17h1.841v1.841H13Z" transform="translate(-1.955 -2.273)"/>
      </g>
    </g>
  </g>
</svg>
