<svg xmlns="http://www.w3.org/2000/svg" xmlns:xlink="http://www.w3.org/1999/xlink" width="113" height="113" viewBox="0 0 113 113">
  <defs>
    <filter id="Trazado_982547" x="0" y="0" width="113" height="113" filterUnits="userSpaceOnUse">
      <feOffset dy="3" input="SourceAlpha"/>
      <feGaussianBlur stdDeviation="3" result="blur"/>
      <feFlood flood-opacity="0.161"/>
      <feComposite operator="in" in2="blur"/>
      <feComposite in="SourceGraphic"/>
    </filter>
  </defs>
  <g id="Grupo_1159768" data-name="Grupo 1159768" transform="translate(-742 -4207)">
    <g id="Grupo_1158169" data-name="Grupo 1158169" transform="translate(-1 -1314)">
      <g id="Grupo_1152577" data-name="Grupo 1152577" transform="translate(-0.5 1205.621)">
        <g id="Grupo_1148634" data-name="Grupo 1148634" transform="translate(488.454 600.047)">
          <g id="Grupo_1148525" data-name="Grupo 1148525" transform="translate(264.046 3721.333)">
            <g transform="matrix(1, 0, 0, 1, -9, -6)" filter="url(#Trazado_982547)">
              <g id="Trazado_982547-2" data-name="Trazado 982547" transform="translate(9 6)" fill="#f0ebfe">
                <path d="M 47.5 93.5 C 41.28937149047852 93.5 35.26533508300781 92.28397369384766 29.59518623352051 89.88570404052734 C 24.11771965026855 87.56893157958984 19.19813346862793 84.25196075439453 14.97309303283691 80.02691650390625 C 10.74804019927979 75.80186462402344 7.431066513061523 70.88229370117188 5.114293098449707 65.40481567382812 C 2.716026782989502 59.73468017578125 1.5 53.71062850952148 1.5 47.5 C 1.5 41.28937149047852 2.716026782989502 35.26533508300781 5.114293098449707 29.59518623352051 C 7.431066513061523 24.11771965026855 10.74804019927979 19.19813346862793 14.97309303283691 14.97309303283691 C 19.19813346862793 10.74804019927979 24.11771965026855 7.431066513061523 29.59518623352051 5.114293098449707 C 35.26533508300781 2.716026782989502 41.28937149047852 1.5 47.5 1.5 C 53.71062850952148 1.5 59.73468017578125 2.716026782989502 65.40481567382812 5.114293098449707 C 70.88229370117188 7.431066513061523 75.80186462402344 10.74804019927979 80.02691650390625 14.97309303283691 C 84.25196075439453 19.19813346862793 87.56893157958984 24.11771965026855 89.88570404052734 29.59518623352051 C 92.28397369384766 35.26533508300781 93.5 41.28937149047852 93.5 47.5 C 93.5 53.71062850952148 92.28397369384766 59.73468017578125 89.88570404052734 65.40481567382812 C 87.56893157958984 70.88229370117188 84.25196075439453 75.80186462402344 80.02691650390625 80.02691650390625 C 75.80186462402344 84.25196075439453 70.88229370117188 87.56893157958984 65.40481567382812 89.88570404052734 C 59.73468017578125 92.28397369384766 53.71062850952148 93.5 47.5 93.5 Z" stroke="none"/>
                <path d="M 47.5 3 C 41.49121475219727 3 35.66376876831055 4.176155090332031 30.17950439453125 6.495796203613281 C 24.88084411621094 8.736953735351562 20.12152099609375 11.94598388671875 16.03375244140625 16.03375244140625 C 11.94598388671875 20.12152099609375 8.736953735351562 24.88084411621094 6.495796203613281 30.17950439453125 C 4.176155090332031 35.66376876831055 3 41.49121475219727 3 47.5 C 3 53.50878524780273 4.176155090332031 59.33623123168945 6.495796203613281 64.82049560546875 C 8.736953735351562 70.11915588378906 11.94598388671875 74.87847900390625 16.03375244140625 78.96624755859375 C 20.12152099609375 83.05401611328125 24.88084411621094 86.26304626464844 30.17950439453125 88.50419616699219 C 35.66376876831055 90.82384490966797 41.49121475219727 92 47.5 92 C 53.50878524780273 92 59.33623123168945 90.82384490966797 64.82049560546875 88.50419616699219 C 70.11915588378906 86.26304626464844 74.87847900390625 83.05401611328125 78.96624755859375 78.96624755859375 C 83.05401611328125 74.87847900390625 86.26304626464844 70.11915588378906 88.50419616699219 64.82049560546875 C 90.82384490966797 59.33623123168945 92 53.50878524780273 92 47.5 C 92 41.49121475219727 90.82384490966797 35.66376876831055 88.50419616699219 30.17950439453125 C 86.26304626464844 24.88084411621094 83.05401611328125 20.12152099609375 78.96624755859375 16.03375244140625 C 74.87847900390625 11.94598388671875 70.11915588378906 8.736953735351562 64.82049560546875 6.495796203613281 C 59.33623123168945 4.176155090332031 53.50878524780273 3 47.5 3 M 47.5 0 C 73.7335205078125 0 95 21.2664794921875 95 47.5 C 95 73.7335205078125 73.7335205078125 95 47.5 95 C 21.2664794921875 95 0 73.7335205078125 0 47.5 C 0 21.2664794921875 21.2664794921875 0 47.5 0 Z" stroke="none" fill="#7145fe"/>
              </g>
            </g>
          </g>
        </g>
      </g>
    </g>
    <g id="la-satisfaccion-del-cliente" transform="translate(766 4229)">
      <g id="Grupo_1159766" data-name="Grupo 1159766">
        <g id="Grupo_1159746" data-name="Grupo 1159746">
          <path id="Trazado_993455" data-name="Trazado 993455" d="M50.14,50.14l4.24,4.24A25.882,25.882,0,0,1,36,62V56a19.938,19.938,0,0,0,14.14-5.86Z" fill="#e6e9ed"/>
        </g>
        <g id="Grupo_1159747" data-name="Grupo 1159747">
          <path id="Trazado_993456" data-name="Trazado 993456" d="M36,56v6a25.886,25.886,0,0,1-11.69-2.77L24,58a11.783,11.783,0,0,0,1.85-4.76h.01A19.925,19.925,0,0,0,36,56Z" fill="#ff826e"/>
        </g>
        <g id="Grupo_1159748" data-name="Grupo 1159748">
          <path id="Trazado_993457" data-name="Trazado 993457" d="M56,36h6a25.882,25.882,0,0,1-7.62,18.38l-4.24-4.24A19.938,19.938,0,0,0,56,36Z" fill="#69d6f4"/>
        </g>
        <g id="Grupo_1159749" data-name="Grupo 1159749">
          <path id="Trazado_993458" data-name="Trazado 993458" d="M62,36H56a19.938,19.938,0,0,0-5.86-14.14l4.24-4.24A25.882,25.882,0,0,1,62,36Z" fill="#fcd770"/>
        </g>
        <g id="Grupo_1159750" data-name="Grupo 1159750">
          <path id="Trazado_993459" data-name="Trazado 993459" d="M36,16a20.006,20.006,0,0,0-8.26,1.78,3.347,3.347,0,0,0-.45-.72A19.614,19.614,0,0,0,28,11.84v-.59a26.045,26.045,0,0,1,26.38,6.37l-4.24,4.24A19.938,19.938,0,0,0,36,16Z" fill="#b4dd7f"/>
        </g>
        <g id="Grupo_1159751" data-name="Grupo 1159751">
          <path id="Trazado_993460" data-name="Trazado 993460" d="M17,10H12a4,4,0,0,0-4,4v2H7a2.987,2.987,0,0,0-2.29,1.06A19.614,19.614,0,0,1,4,11.84,9.833,9.833,0,0,1,13.84,2H26a2.006,2.006,0,0,1,2,2v7.84a19.614,19.614,0,0,1-.71,5.22A2.987,2.987,0,0,0,25,16H24V14a2.006,2.006,0,0,0-2-2H21A5.01,5.01,0,0,1,17,10Z" fill="#656d78"/>
        </g>
        <g id="Grupo_1159752" data-name="Grupo 1159752">
          <path id="Trazado_993461" data-name="Trazado 993461" d="M17.94,33.17,17,36H15l-.94-2.83L16,32Z" fill="#ff826e"/>
        </g>
        <g id="Grupo_1159753" data-name="Grupo 1159753">
          <path id="Trazado_993462" data-name="Trazado 993462" d="M24,38a2.006,2.006,0,0,0-2,2V38a2.015,2.015,0,0,0-2-2,2.006,2.006,0,0,0-2,2,2.015,2.015,0,0,0-2-2h1l.94-2.83L21,35l.86-4.29A14.009,14.009,0,0,1,30,43.44V44H26V40a2.015,2.015,0,0,0-2-2Z" fill="#fcd770"/>
        </g>
        <g id="Grupo_1159754" data-name="Grupo 1159754">
          <path id="Trazado_993463" data-name="Trazado 993463" d="M10,32V44.92a1.083,1.083,0,0,1-2.15.18l-.29-1.76A3.985,3.985,0,0,0,6.2,40.95,3.942,3.942,0,0,0,3.62,40a1.593,1.593,0,0,0-1.35.73H2.26a14.059,14.059,0,0,1,8.49-10.29A1.993,1.993,0,0,0,10,32Z" fill="#fcd770"/>
        </g>
        <g id="Grupo_1159755" data-name="Grupo 1159755">
          <path id="Trazado_993464" data-name="Trazado 993464" d="M16,32l-1.94,1.17L14,33.2V32a2.012,2.012,0,0,0-.4-1.2Z" fill="#ffc729"/>
        </g>
        <g id="Grupo_1159756" data-name="Grupo 1159756">
          <path id="Trazado_993465" data-name="Trazado 993465" d="M21.86,30.7v.01L21,35l-3.06-1.83L16,32l4-2a14.815,14.815,0,0,1,1.86.7Z" fill="#ffc729"/>
        </g>
        <g id="Grupo_1159757" data-name="Grupo 1159757">
          <path id="Trazado_993466" data-name="Trazado 993466" d="M34,32V24a2.006,2.006,0,0,1,2-2h8a1.961,1.961,0,0,1,1.49.68A1.94,1.94,0,0,1,46,24v8a2.006,2.006,0,0,1-2,2H36A2.006,2.006,0,0,1,34,32Z" fill="#ff826e"/>
        </g>
        <g id="Grupo_1159758" data-name="Grupo 1159758">
          <path id="Trazado_993467" data-name="Trazado 993467" d="M34,48V40a2.006,2.006,0,0,1,2-2h8a1.961,1.961,0,0,1,1.49.68A1.94,1.94,0,0,1,46,40v8a2.006,2.006,0,0,1-2,2H36A2.006,2.006,0,0,1,34,48Z" fill="#ff826e"/>
        </g>
        <g id="Grupo_1159759" data-name="Grupo 1159759">
          <path id="Trazado_993468" data-name="Trazado 993468" d="M24.31,59.23,25,62H7l1-4H24Z" fill="#b4dd7f"/>
        </g>
        <g id="Grupo_1159760" data-name="Grupo 1159760">
          <path id="Trazado_993469" data-name="Trazado 993469" d="M22,40a2.006,2.006,0,0,1,2-2,2.015,2.015,0,0,1,2,2V51.39a11.447,11.447,0,0,1-.15,1.85A11.783,11.783,0,0,1,24,58H8L6.08,55.43a6.862,6.862,0,0,1-1.33-3.21l-.26-1.79a28.92,28.92,0,0,0-1.78-6.65L2.12,42.3A1.668,1.668,0,0,1,2,41.68v-.06a1.61,1.61,0,0,1,.27-.89A1.593,1.593,0,0,1,3.62,40a3.942,3.942,0,0,1,2.58.95,3.985,3.985,0,0,1,1.36,2.39l.29,1.76A1.083,1.083,0,0,0,10,44.92V32a1.993,1.993,0,0,1,.75-1.56A2.021,2.021,0,0,1,12,30a1.955,1.955,0,0,1,1.41.59c.07.07.13.14.19.21A2.012,2.012,0,0,1,14,32v6a2.006,2.006,0,0,1,2-2,2.015,2.015,0,0,1,2,2,2.006,2.006,0,0,1,2-2,2.015,2.015,0,0,1,2,2Z" fill="#f0d0b4"/>
        </g>
        <g id="Grupo_1159761" data-name="Grupo 1159761">
          <path id="Trazado_993470" data-name="Trazado 993470" d="M27.74,17.78A2.934,2.934,0,0,1,28,19a3,3,0,0,1-3,3H24V16h1a2.987,2.987,0,0,1,2.29,1.06,3.347,3.347,0,0,1,.45.72Z" fill="#f0d0b4"/>
        </g>
        <g id="Grupo_1159762" data-name="Grupo 1159762">
          <path id="Trazado_993471" data-name="Trazado 993471" d="M18,28a5.761,5.761,0,0,0,1.18-.12L20,30l-4,2-2.4-1.2c-.06-.07-.12-.14-.19-.21A1.955,1.955,0,0,0,12,30l.82-2.12A5.761,5.761,0,0,0,14,28Z" fill="#f0d0b4"/>
        </g>
        <g id="Grupo_1159763" data-name="Grupo 1159763">
          <path id="Trazado_993472" data-name="Trazado 993472" d="M24,16v6a5.99,5.99,0,0,1-4.82,5.88A5.761,5.761,0,0,1,18,28H14a5.761,5.761,0,0,1-1.18-.12A5.99,5.99,0,0,1,8,22V14a4,4,0,0,1,4-4h5a5.01,5.01,0,0,0,4,2h1a2.006,2.006,0,0,1,2,2Z" fill="#f0d0b4"/>
        </g>
        <g id="Grupo_1159764" data-name="Grupo 1159764">
          <path id="Trazado_993473" data-name="Trazado 993473" d="M8,16v6H7a3,3,0,1,1,0-6Z" fill="#f0d0b4"/>
        </g>
        <g id="Grupo_1159765" data-name="Grupo 1159765">
          <path id="Trazado_993474" data-name="Trazado 993474" d="M12,20h8a4,4,0,1,1-8,0Z" fill="#ff826e"/>
        </g>
      </g>
      <g id="Grupo_1159767" data-name="Grupo 1159767">
        <circle id="Elipse_12009" data-name="Elipse 12009" cx="1" cy="1" r="1" transform="translate(11 15)"/>
        <circle id="Elipse_12010" data-name="Elipse 12010" cx="1" cy="1" r="1" transform="translate(19 15)"/>
        <path id="Trazado_993475" data-name="Trazado 993475" d="M21,20V19H11v1a5,5,0,0,0,10,0Zm-7.829,1h5.657a3,3,0,0,1-5.657,0Z"/>
        <path id="Trazado_993476" data-name="Trazado 993476" d="M36,9a27.037,27.037,0,0,0-7,.936V4a3,3,0,0,0-3-3H13.838A10.85,10.85,0,0,0,3,11.838a20.454,20.454,0,0,0,.635,5.017A3.986,3.986,0,0,0,7,23h.08A7.01,7.01,0,0,0,11.5,28.53l-.221.568a2.974,2.974,0,0,0-1.025.474A14.971,14.971,0,0,0,1.31,40.429,2.712,2.712,0,0,0,1,41.677a2.655,2.655,0,0,0,.191.994l.593,1.482A27.956,27.956,0,0,1,3.5,50.572l.256,1.793a8.015,8.015,0,0,0,1.52,3.669l1.638,2.185L5.719,63H26.281l-.5-2.012A26.73,26.73,0,0,0,36,63,27,27,0,0,0,36,9ZM22.884,37.22a3,3,0,0,0-1-1.537l.7-3.482A12.931,12.931,0,0,1,28.993,43H27V40a2.988,2.988,0,0,0-4.116-2.779Zm-2.811-6.138c.217.072.436.141.647.223L20.3,33.412,18.077,32.08ZM15.721,35l-.463-1.388L16,33.166l.742.445L16.279,35Zm2.778-.334.74.444a2.982,2.982,0,0,0-1.063.525ZM27,51.4V45h4V43.44A14.926,14.926,0,0,0,20.764,29.206L20.5,28.53A7.01,7.01,0,0,0,24.92,23H25a4,4,0,0,0,4-4,4.056,4.056,0,0,0-.062-.617,18.992,18.992,0,1,1-2.01,34.3A12.905,12.905,0,0,0,27,51.395ZM25,17a2,2,0,0,1,0,4ZM37,56.949a20.882,20.882,0,0,0,13.1-5.434l2.844,2.844A24.9,24.9,0,0,1,37,60.974ZM51.515,50.1A20.887,20.887,0,0,0,56.949,37h4.025a24.9,24.9,0,0,1-6.615,15.946ZM56.949,35a20.887,20.887,0,0,0-5.434-13.1l2.844-2.844A24.9,24.9,0,0,1,60.974,35Zm-4-17.36L50.1,20.484a20.927,20.927,0,0,0-21.625-4.093,20.475,20.475,0,0,0,.517-4.377A24.881,24.881,0,0,1,52.946,17.64ZM5,19a2,2,0,0,1,2-2v4A2,2,0,0,1,5,19Zm4,3V14a3,3,0,0,1,2.9-2.99,7.731,7.731,0,0,0,2.548,2.822l1.109-1.664A5.726,5.726,0,0,1,13,7.4V7H11V7.4A7.765,7.765,0,0,0,11.2,9.082,5,5,0,0,0,7,14v1a3.968,3.968,0,0,0-1.654.368A18.5,18.5,0,0,1,5,11.838,8.848,8.848,0,0,1,13.838,3H26a1,1,0,0,1,1,1v7.838a18.5,18.5,0,0,1-.346,3.53A3.968,3.968,0,0,0,25,15V14a3,3,0,0,0-3-3H21a4,4,0,0,1-4-4H15a6.006,6.006,0,0,0,6,6h1a1,1,0,0,1,1,1v8a5.006,5.006,0,0,1-5,5H14A5.006,5.006,0,0,1,9,22Zm5,7h4c.178,0,.353-.014.527-.027l.21.54L16,30.882l-1.792-.9a2.992,2.992,0,0,0-.873-.659l.138-.354C13.647,28.986,13.822,29,14,29ZM9,32.494V44.917c0,.086-.152.1-.165.015l-.293-1.76a4.968,4.968,0,0,0-4.753-4.157A12.935,12.935,0,0,1,9,32.494ZM5.736,52.083,5.48,50.289a29.962,29.962,0,0,0-1.838-6.878l-.593-1.484A.749.749,0,0,1,3,41.618.618.618,0,0,1,3.618,41,2.984,2.984,0,0,1,6.57,43.5l.293,1.76A2.083,2.083,0,0,0,11,44.917V32a1,1,0,0,1,2,0V45h2V38a1,1,0,0,1,2,0v7h2V38a1,1,0,0,1,2,0v7h2V40a1,1,0,1,1,2,0V51.4A10.861,10.861,0,0,1,23.442,57H8.5L6.876,54.835a6.019,6.019,0,0,1-1.14-2.752ZM8.281,61l.5-2H23.219l.5,2Zm16.791-2.835a12.892,12.892,0,0,0,1.476-3.409A20.981,20.981,0,0,0,35,56.967v4.005a24.67,24.67,0,0,1-9.838-2.446Z"/>
        <path id="Trazado_993477" data-name="Trazado 993477" d="M37.707,26.293l-1.414,1.414,3.815,3.815L46.8,22.6l-1.6-1.2-5.308,7.078Z"/>
        <path id="Trazado_993478" data-name="Trazado 993478" d="M36,35h8a3,3,0,0,0,3-3V28H45v4a1,1,0,0,1-1,1H36a1,1,0,0,1-1-1V24a1,1,0,0,1,1-1h5V21H36a3,3,0,0,0-3,3v8A3,3,0,0,0,36,35Z"/>
        <path id="Trazado_993479" data-name="Trazado 993479" d="M39.892,44.478l-2.185-2.185-1.414,1.414,3.815,3.815L46.8,38.6l-1.6-1.2Z"/>
        <path id="Trazado_993480" data-name="Trazado 993480" d="M44,51a3,3,0,0,0,3-3V44H45v4a1,1,0,0,1-1,1H36a1,1,0,0,1-1-1V40a1,1,0,0,1,1-1h5V37H36a3,3,0,0,0-3,3v8a3,3,0,0,0,3,3Z"/>
      </g>
    </g>
  </g>
</svg>
