<svg xmlns="http://www.w3.org/2000/svg" xmlns:xlink="http://www.w3.org/1999/xlink" width="113" height="113" viewBox="0 0 113 113">
  <defs>
    <filter id="Trazado_982547" x="0" y="0" width="113" height="113" filterUnits="userSpaceOnUse">
      <feOffset dy="3" input="SourceAlpha"/>
      <feGaussianBlur stdDeviation="3" result="blur"/>
      <feFlood flood-opacity="0.161"/>
      <feComposite operator="in" in2="blur"/>
      <feComposite in="SourceGraphic"/>
    </filter>
  </defs>
  <g id="Grupo_1159769" data-name="Grupo 1159769" transform="translate(-1163 -4207)">
    <g id="Grupo_1158170" data-name="Grupo 1158170" transform="translate(-1 -1314)">
      <g id="Grupo_1152578" data-name="Grupo 1152578" transform="translate(0.046 1205.621)">
        <g id="Grupo_1148635" data-name="Grupo 1148635" transform="translate(908.908 600.047)">
          <g id="Grupo_1148525" data-name="Grupo 1148525" transform="translate(264.046 3721.333)">
            <g transform="matrix(1, 0, 0, 1, -9, -6)" filter="url(#Trazado_982547)">
              <g id="Trazado_982547-2" data-name="Trazado 982547" transform="translate(9 6)" fill="#f0ebfe">
                <path d="M 47.5 93.5 C 41.28937149047852 93.5 35.26533508300781 92.28397369384766 29.59518623352051 89.88570404052734 C 24.11771965026855 87.56893157958984 19.19813346862793 84.25196075439453 14.97309303283691 80.02691650390625 C 10.74804019927979 75.80186462402344 7.431066513061523 70.88229370117188 5.114293098449707 65.40481567382812 C 2.716026782989502 59.73468017578125 1.5 53.71062850952148 1.5 47.5 C 1.5 41.28937149047852 2.716026782989502 35.26533508300781 5.114293098449707 29.59518623352051 C 7.431066513061523 24.11771965026855 10.74804019927979 19.19813346862793 14.97309303283691 14.97309303283691 C 19.19813346862793 10.74804019927979 24.11771965026855 7.431066513061523 29.59518623352051 5.114293098449707 C 35.26533508300781 2.716026782989502 41.28937149047852 1.5 47.5 1.5 C 53.71062850952148 1.5 59.73468017578125 2.716026782989502 65.40481567382812 5.114293098449707 C 70.88229370117188 7.431066513061523 75.80186462402344 10.74804019927979 80.02691650390625 14.97309303283691 C 84.25196075439453 19.19813346862793 87.56893157958984 24.11771965026855 89.88570404052734 29.59518623352051 C 92.28397369384766 35.26533508300781 93.5 41.28937149047852 93.5 47.5 C 93.5 53.71062850952148 92.28397369384766 59.73468017578125 89.88570404052734 65.40481567382812 C 87.56893157958984 70.88229370117188 84.25196075439453 75.80186462402344 80.02691650390625 80.02691650390625 C 75.80186462402344 84.25196075439453 70.88229370117188 87.56893157958984 65.40481567382812 89.88570404052734 C 59.73468017578125 92.28397369384766 53.71062850952148 93.5 47.5 93.5 Z" stroke="none"/>
                <path d="M 47.5 3 C 41.49121475219727 3 35.66376876831055 4.176155090332031 30.17950439453125 6.495796203613281 C 24.88084411621094 8.736953735351562 20.12152099609375 11.94598388671875 16.03375244140625 16.03375244140625 C 11.94598388671875 20.12152099609375 8.736953735351562 24.88084411621094 6.495796203613281 30.17950439453125 C 4.176155090332031 35.66376876831055 3 41.49121475219727 3 47.5 C 3 53.50878524780273 4.176155090332031 59.33623123168945 6.495796203613281 64.82049560546875 C 8.736953735351562 70.11915588378906 11.94598388671875 74.87847900390625 16.03375244140625 78.96624755859375 C 20.12152099609375 83.05401611328125 24.88084411621094 86.26304626464844 30.17950439453125 88.50419616699219 C 35.66376876831055 90.82384490966797 41.49121475219727 92 47.5 92 C 53.50878524780273 92 59.33623123168945 90.82384490966797 64.82049560546875 88.50419616699219 C 70.11915588378906 86.26304626464844 74.87847900390625 83.05401611328125 78.96624755859375 78.96624755859375 C 83.05401611328125 74.87847900390625 86.26304626464844 70.11915588378906 88.50419616699219 64.82049560546875 C 90.82384490966797 59.33623123168945 92 53.50878524780273 92 47.5 C 92 41.49121475219727 90.82384490966797 35.66376876831055 88.50419616699219 30.17950439453125 C 86.26304626464844 24.88084411621094 83.05401611328125 20.12152099609375 78.96624755859375 16.03375244140625 C 74.87847900390625 11.94598388671875 70.11915588378906 8.736953735351562 64.82049560546875 6.495796203613281 C 59.33623123168945 4.176155090332031 53.50878524780273 3 47.5 3 M 47.5 0 C 73.7335205078125 0 95 21.2664794921875 95 47.5 C 95 73.7335205078125 73.7335205078125 95 47.5 95 C 21.2664794921875 95 0 73.7335205078125 0 47.5 C 0 21.2664794921875 21.2664794921875 0 47.5 0 Z" stroke="none" fill="#7145fe"/>
              </g>
            </g>
          </g>
        </g>
      </g>
    </g>
    <g id="Icon" transform="translate(1187 4228)">
      <g id="_06" data-name="06" transform="translate(0 0)">
        <path id="Trazado_993481" data-name="Trazado 993481" d="M32.484,64.968A32.484,32.484,0,0,1,9.514,9.514,32.484,32.484,0,0,1,55.454,55.454a32.272,32.272,0,0,1-22.97,9.514Z" transform="translate(0 0)"/>
        <circle id="Elipse_12011" data-name="Elipse 12011" cx="31.537" cy="31.537" r="31.537" transform="translate(1.051 1.051)" fill="#ffb3e4"/>
        <g id="File" transform="translate(9.009 9.009)">
          <path id="Trazado_993482" data-name="Trazado 993482" d="M112.717,117.949a3.441,3.441,0,0,1-3.437-3.437V74.437A3.441,3.441,0,0,1,112.717,71H135.7a1.266,1.266,0,0,1,.9.372l9.542,9.542a1.268,1.268,0,0,1,.372.9v32.7a3.441,3.441,0,0,1-3.437,3.437Z" transform="translate(-104.423 -71)"/>
          <path id="Trazado_993483" data-name="Trazado 993483" d="M119.28,83.169v40.074a2.168,2.168,0,0,0,2.169,2.169h30.36a2.168,2.168,0,0,0,2.169-2.169v-32.7L144.435,81H121.449a2.168,2.168,0,0,0-2.169,2.169Z" transform="translate(-113.154 -79.731)" fill="#680c36"/>
          <path id="Trazado_993484" data-name="Trazado 993484" d="M310.957,83.08a3.441,3.441,0,0,1-3.437-3.437V72.269a1.269,1.269,0,0,1,2.166-.9l9.542,9.542a1.269,1.269,0,0,1-.9,2.166Z" transform="translate(-277.508 -71)"/>
          <path id="Trazado_993485" data-name="Trazado 993485" d="M327.062,90.542h-7.374a2.168,2.168,0,0,1-2.169-2.169V81Z" transform="translate(-286.239 -79.731)" fill="#b81576"/>
          <rect id="Rectángulo_410154" data-name="Rectángulo 410154" width="19.886" height="46.949" rx="9.943" transform="translate(46.949 21.858) rotate(90)"/>
          <rect id="Rectángulo_410155" data-name="Rectángulo 410155" width="44.412" height="17.348" rx="8.674" transform="translate(1.269 23.128)" fill="#9e0066"/>
          <path id="Trazado_993486" data-name="Trazado 993486" d="M145.6,136.794a2.137,2.137,0,1,1,0-4.274h15.614a2.137,2.137,0,0,1,0,4.274Z" transform="translate(-134.266 -124.714)"/>
          <rect id="Rectángulo_410156" data-name="Rectángulo 410156" width="17.348" height="1.735" rx="0.867" transform="translate(10.463 9.075)" fill="#b81576"/>
          <path id="Trazado_993487" data-name="Trazado 993487" d="M145.6,170.974a2.137,2.137,0,1,1,0-4.274h19.951a2.137,2.137,0,1,1,0,4.274Z" transform="translate(-134.266 -154.557)"/>
          <rect id="Rectángulo_410157" data-name="Rectángulo 410157" width="21.686" height="1.735" rx="0.867" transform="translate(10.463 13.412)" fill="#b81576"/>
          <path id="Trazado_993488" data-name="Trazado 993488" d="M145.6,205.144a2.137,2.137,0,1,1,0-4.274h24.288a2.137,2.137,0,0,1,0,4.274Z" transform="translate(-134.266 -184.391)"/>
          <rect id="Rectángulo_410158" data-name="Rectángulo 410158" width="26.023" height="1.735" rx="0.867" transform="translate(10.463 17.749)" fill="#b81576"/>
        </g>
        <path id="Trazado_993489" data-name="Trazado 993489" d="M213.63,282.171a3.741,3.741,0,0,1-2.845-1.217,1.27,1.27,0,0,1-1.255,1.082h-2.372a1.269,1.269,0,0,1-1.269-1.269V270.9a1.269,1.269,0,0,1,1.269-1.269h2.372A1.269,1.269,0,0,1,210.8,270.9v2.316a3.757,3.757,0,0,1,2.845-1.185,3.491,3.491,0,0,1,.384.02v-1.693a1.269,1.269,0,0,1,1.269-1.269h2.29a1.269,1.269,0,0,1,1.269,1.269v10.409a1.269,1.269,0,0,1-1.269,1.269h-2.053a1.281,1.281,0,0,1-.56-.129,3.432,3.432,0,0,1-1.345.265Z" transform="translate(-179.765 -234.945)"/>
        <path id="Trazado_993490" data-name="Trazado 993490" d="M218.262,289.489H215.89v-9.867h2.372Zm1.26-3.72a4.481,4.481,0,0,1,.752-2.745,2.475,2.475,0,0,1,2.1-1,2.1,2.1,0,0,1,1.653.773V279.08h2.29v10.409h-2.053l-.115-.787a2.162,2.162,0,0,1-1.789.921,2.47,2.47,0,0,1-2.073-1,4.622,4.622,0,0,1-.765-2.852Zm2.284.142q0,1.951,1.138,1.952a1.121,1.121,0,0,0,1.084-.637v-2.792a1.094,1.094,0,0,0-1.071-.651q-1.056,0-1.146,1.708l-.006.42Z" transform="translate(-188.496 -243.667)" fill="#ffa6e4"/>
      </g>
    </g>
  </g>
</svg>
