<svg xmlns="http://www.w3.org/2000/svg" xmlns:xlink="http://www.w3.org/1999/xlink" width="505" height="440" viewBox="0 0 505 440">
  <defs>
    <clipPath id="clip-path">
      <rect id="Rectángulo_411609" data-name="Rectángulo 411609" width="505" height="440" transform="translate(180 6206)" fill="#fff" stroke="#707070" stroke-width="1"/>
    </clipPath>
  </defs>
  <g id="Enmascarar_grupo_1098663" data-name="Enmascarar grupo 1098663" transform="translate(-180 -6206)" clip-path="url(#clip-path)">
    <g id="OBJECTS" transform="translate(139.044 6147.125)">
      <g id="Grupo_1161367" data-name="Grupo 1161367" transform="translate(3.863 71.408)" opacity="0.5">
        <circle id="Elipse_12015" data-name="Elipse 12015" cx="102.473" cy="102.473" r="102.473" transform="translate(0 321.131) rotate(-45)" fill="#ded7ff"/>
        <circle id="Elipse_12016" data-name="Elipse 12016" cx="161.593" cy="161.593" r="161.593" transform="translate(215.83)" fill="#ded7ff"/>
      </g>
      <path id="Trazado_994905" data-name="Trazado 994905" d="M279.219,186.68l-13.2-2.963a46.509,46.509,0,0,0-1.545-8.25l11.239-7.538a9.007,9.007,0,0,0,2.463-12.5l-6.146-9.162a9.007,9.007,0,0,0-12.5-2.463l-11.239,7.538a46.647,46.647,0,0,0-4.919-3.368l2.963-13.2a9.005,9.005,0,0,0-6.816-10.759L228.754,121.6a9.006,9.006,0,0,0-10.759,6.817l-2.963,13.2a46.555,46.555,0,0,0-5.886.944L202.2,130.948a9.005,9.005,0,0,0-12.351-3.111l-9.47,5.658a9.005,9.005,0,0,0-3.111,12.351l6.941,11.618a46.45,46.45,0,0,0-4.921,6.8l-13.2-2.963a9.006,9.006,0,0,0-10.759,6.817l-2.415,10.764a9.006,9.006,0,0,0,6.816,10.759l13.2,2.963a46.509,46.509,0,0,0,1.545,8.25l-11.239,7.538a9.007,9.007,0,0,0-2.463,12.5l6.144,9.162a9.007,9.007,0,0,0,12.5,2.463l11.239-7.538a46.636,46.636,0,0,0,4.918,3.368l-2.963,13.2a9.006,9.006,0,0,0,6.817,10.759L210.2,254.72a9.006,9.006,0,0,0,10.759-6.817l2.963-13.2a46.338,46.338,0,0,0,5.886-.944l6.941,11.618a9.005,9.005,0,0,0,12.351,3.111l9.47-5.658a9.005,9.005,0,0,0,3.111-12.351l-6.943-11.618a46.389,46.389,0,0,0,4.921-6.8l13.2,2.963a9.006,9.006,0,0,0,10.759-6.817l2.415-10.764A9,9,0,0,0,279.219,186.68Zm-66.308,30.741a29.988,29.988,0,1,1,35.825-22.7A30.022,30.022,0,0,1,212.911,217.421Z" transform="translate(27.677 9.293)" fill="#09136e"/>
      <path id="Trazado_994906" data-name="Trazado 994906" d="M348.242,356.337l-8.819-5.79a36.273,36.273,0,0,0,1.14-6.442l10.27-2.411a7.019,7.019,0,0,0,5.23-8.439l-1.965-8.372a7.019,7.019,0,0,0-8.439-5.23l-10.27,2.411a36.386,36.386,0,0,0-2.662-3.808l5.79-8.819a7.022,7.022,0,0,0-2.016-9.722L329.311,295a7.022,7.022,0,0,0-9.722,2.016l-5.79,8.819a36.283,36.283,0,0,0-4.553-.929l-1.871-10.383a7.021,7.021,0,0,0-8.156-5.664l-8.463,1.526a7.02,7.02,0,0,0-5.663,8.156l1.873,10.383a36.266,36.266,0,0,0-5.458,3.608l-8.819-5.79a7.022,7.022,0,0,0-9.722,2.016l-4.719,7.189a7.022,7.022,0,0,0,2.016,9.722l8.819,5.79a36.269,36.269,0,0,0-1.14,6.442l-10.27,2.411a7.021,7.021,0,0,0-5.231,8.439l1.965,8.373a7.019,7.019,0,0,0,8.439,5.23l10.27-2.411a36.2,36.2,0,0,0,2.662,3.808l-5.79,8.819A7.022,7.022,0,0,0,272,382.289l7.189,4.719a7.022,7.022,0,0,0,9.723-2.016l5.79-8.819a36.072,36.072,0,0,0,4.553.929l1.873,10.383a7.02,7.02,0,0,0,8.156,5.663l8.463-1.526a7.02,7.02,0,0,0,5.663-8.156l-1.873-10.383A36.274,36.274,0,0,0,327,369.475l8.819,5.79a7.022,7.022,0,0,0,9.723-2.016l4.719-7.189A7.022,7.022,0,0,0,348.242,356.337Zm-56.82,4.205a23.378,23.378,0,1,1,32.373-6.714A23.4,23.4,0,0,1,291.422,360.542Z" transform="translate(46.19 40.415)" fill="#09136e"/>
      <g id="Grupo_1161372" data-name="Grupo 1161372" transform="translate(83.321 200.806)">
        <path id="Trazado_994907" data-name="Trazado 994907" d="M473.681,219.2a99.306,99.306,0,0,0-109.523-33.764h-.028c-2.185.237-9.475,2.763-16.764,6.606-6.92,3.631-13.842,8.5-16.894,11.606L299.63,234.332,282.172,251.69l-17.489-17.384-18.368-18.274c-.361-.5-.741-.994-1.155-1.468a99.641,99.641,0,0,0-12.621-12.107c-.127-.106-.256-.209-.385-.311A99.369,99.369,0,1,0,170.264,379.3c21.116,0,40.153-6.408,58.18-19.536a19.961,19.961,0,0,0,4.186-3.144L249,340.358l33.177-32.992,33.374,33.177,12.265,12.2a19.682,19.682,0,0,0,2.5,2.589c.4.348.823.671,1.231,1.012.251.215.5.426.763.626A99.353,99.353,0,0,0,473.681,219.2ZM221.235,312.277,206.448,326.97c-.034.026-.072.046-.107.072-11.734,8.845-22.851,12.788-36.077,12.788a59.758,59.758,0,0,1-42.747-17.981c-.536-.551-1.071-1.1-1.575-1.672a59.514,59.514,0,0,1-15.579-38.738c-.017-.5-.017-1.007-.017-1.525,0-1.054.032-2.077.082-3.067a59.531,59.531,0,0,1,13.842-35.3q1.656-1.971,3.457-3.8a59.8,59.8,0,0,1,79.183-5.225l28.614,28.461,18.649,18.539Zm216.261,9.87a59.833,59.833,0,0,1-79.873,4.549l-14.494-14.418-32.954-32.756,18.9-18.8,16.9-16.81a19.63,19.63,0,0,0,3.888-3.4A59.913,59.913,0,1,1,437.5,322.147Z" transform="translate(-70.862 -180.516)" fill="#ffc655"/>
        <g id="Grupo_1161368" data-name="Grupo 1161368" transform="translate(0 25.797)">
          <path id="Trazado_994908" data-name="Trazado 994908" d="M133.236,335.183a10.761,10.761,0,0,0-7.354-3.228c-.353-.071-.744-.11-.887-.152a10.08,10.08,0,0,1-4.843-3.144c-1.5-1.786-1.416-3.164-1.395-5.487l7.187-7.039a59.514,59.514,0,0,1-15.579-38.738c-.017-.5-.017-1.007-.017-1.525,0-1.054.032-2.077.082-3.067a59.531,59.531,0,0,1,13.843-35.3l-10.218-6.881a5.279,5.279,0,0,1,1.092-3.084,10.073,10.073,0,0,1,4.584-3.514c.139-.053.527-.122.872-.221a10.809,10.809,0,1,0-11.995-10.27c-.065.4-.057.932-.09,1.108a10.065,10.065,0,0,1-2.652,5.13c-1.571,1.615-2.919,1.716-5.09,1.908l-9.35-6.3a99.2,99.2,0,0,0,6.312,128.369l8.3-8.132c2.328.026,3.708-.037,5.465,1.506a10.075,10.075,0,0,1,3.044,4.906c.047.173.079.7.177,1.1a10.8,10.8,0,1,0,18.509-7.948Z" transform="translate(-70.862 -202.268)" fill="#542fd0"/>
        </g>
        <g id="Grupo_1161369" data-name="Grupo 1161369" transform="translate(358.096 25.798)">
          <path id="Trazado_994909" data-name="Trazado 994909" d="M438.269,275.87a99.058,99.058,0,0,0-20.562-60.485l-9.35,6.3c-2.17-.192-3.519-.293-5.09-1.908a10.072,10.072,0,0,1-2.651-5.13c-.033-.176-.025-.709-.09-1.108a10.8,10.8,0,1,0-11.995,10.27c.347.1.733.167.873.221a10.08,10.08,0,0,1,4.583,3.514,5.277,5.277,0,0,1,1.092,3.084l-10.218,6.881A59.53,59.53,0,0,1,398.7,272.8c.049.99.081,2.013.081,3.067,0,.519,0,1.022-.017,1.525a59.517,59.517,0,0,1-15.579,38.738l7.187,7.039c.021,2.323.11,3.7-1.395,5.487a9.985,9.985,0,0,1-3.057,2.429,10.1,10.1,0,0,1-1.786.715c-.142.042-.534.081-.887.152A10.81,10.81,0,1,0,394.4,343.134c.1-.393.128-.925.176-1.1a10.075,10.075,0,0,1,3.044-4.906c1.758-1.543,3.138-1.48,5.466-1.506l8.3,8.132A99.128,99.128,0,0,0,438.269,275.87Z" transform="translate(-372.809 -202.269)" fill="#542fd0"/>
        </g>
        <g id="Grupo_1161370" data-name="Grupo 1161370" transform="translate(155.387 43.118)">
          <path id="Trazado_994910" data-name="Trazado 994910" d="M325.3,324.685a10.758,10.758,0,0,0-7.238-2.923c-.395-.088-.927-.11-1.1-.154A10.071,10.071,0,0,1,312,318.663a6.064,6.064,0,0,1-1.589-4.58l8.36-8.567L240.32,227.542l-8.363,7.654c-2.287-.071-3.662-.051-5.371-1.615a10.012,10.012,0,0,1-2.3-3.153,10.139,10.139,0,0,1-.642-1.813c-.044-.173-.066-.707-.154-1.1a10.806,10.806,0,1,0-11.378,10.95c.352.078.742.125.884.17a10.074,10.074,0,0,1,4.778,3.241c1.382,1.709,1.36,3.036,1.3,5.119l-7.906,7.234,80.026,79.552,7.415-7.6c2.073-.064,3.4-.082,5.1,1.3a10.069,10.069,0,0,1,3.241,4.779c.045.142.091.532.17.884a10.8,10.8,0,1,0,18.188-8.454Z" transform="translate(-201.885 -216.873)" fill="#542fd0"/>
        </g>
        <g id="Grupo_1161371" data-name="Grupo 1161371" transform="translate(140.302 43.119)">
          <path id="Trazado_994911" data-name="Trazado 994911" d="M300.1,241.875a10.069,10.069,0,0,1,4.779-3.241c.142-.045.532-.091.884-.17a10.81,10.81,0,1,0-11.377-10.95c-.089.394-.11.927-.154,1.1a10.071,10.071,0,0,1-2.945,4.967c-1.652,1.512-3,1.543-5.151,1.608l-8.5-7.621-78.394,77.947,8.234,8.327c-.062,1.964-.165,3.253-1.6,4.82a10.012,10.012,0,0,1-3.153,2.3,10.12,10.12,0,0,1-1.815.642c-.173.044-.707.065-1.1.154a10.805,10.805,0,1,0,10.95,11.377c.078-.351.125-.741.17-.884a10.068,10.068,0,0,1,3.241-4.779c1.817-1.469,3.193-1.352,5.516-1.283l7.319,7.4,80.078-79.631-8.289-7.43A6.059,6.059,0,0,1,300.1,241.875Z" transform="translate(-189.165 -216.874)" fill="#d42190"/>
        </g>
      </g>
      <g id="Grupo_1161374" data-name="Grupo 1161374" transform="translate(378.435 254.329)">
        <path id="Trazado_994912" data-name="Trazado 994912" d="M444.547,263.26h0a9.806,9.806,0,0,1-9.567,10.039l-47.311-1.7-.351-13.927,47.19-3.977A9.8,9.8,0,0,1,444.547,263.26Z" transform="translate(-307.129 -220.432)" fill="#d42190"/>
        <g id="Grupo_1161373" data-name="Grupo 1161373" transform="translate(0 0)">
          <circle id="Elipse_12017" data-name="Elipse 12017" cx="31.877" cy="31.877" r="31.877" transform="matrix(0.727, -0.687, 0.687, 0.727, 0, 43.793)" fill="#b19cfe"/>
          <path id="Trazado_994913" data-name="Trazado 994913" d="M359.713,244.152A12.553,12.553,0,1,1,347.466,257,12.553,12.553,0,0,1,359.713,244.152Z" transform="translate(-314.54 -222.207)" fill="#fff" opacity="0.3"/>
          <path id="Trazado_994914" data-name="Trazado 994914" d="M365.839,258.236a8.66,8.66,0,1,1-8.449,8.866A8.66,8.66,0,0,1,365.839,258.236Z" transform="translate(-312.694 -219.587)" fill="#fff" opacity="0.3"/>
          <path id="Trazado_994915" data-name="Trazado 994915" d="M400.051,268.5a36.633,36.633,0,1,1-37.5-35.741A36.672,36.672,0,0,1,400.051,268.5Zm-63.736,1.535a27.121,27.121,0,1,0,26.46-27.766A27.152,27.152,0,0,0,336.315,270.032Z" transform="translate(-318.383 -224.327)" fill="#09136e"/>
        </g>
      </g>
      <g id="Grupo_1161386" data-name="Grupo 1161386" transform="translate(46.21 157.627)">
        <g id="Grupo_1161375" data-name="Grupo 1161375" opacity="0.4">
          <path id="Trazado_994916" data-name="Trazado 994916" d="M178.3,152.082V270.066a7.969,7.969,0,0,1-7.974,7.965H47.544a7.969,7.969,0,0,1-7.974-7.965V152.082a7.971,7.971,0,0,1,7.974-7.974h122.78A7.971,7.971,0,0,1,178.3,152.082Z" transform="translate(-39.57 -144.108)" fill="#d42190"/>
          <path id="Trazado_994917" data-name="Trazado 994917" d="M178.3,153.73V270.11a6.133,6.133,0,0,1-6.133,6.134H45.712A6.143,6.143,0,0,1,39.57,270.1V153.73Z" transform="translate(-39.57 -142.319)" fill="#ded7ff"/>
        </g>
        <g id="Grupo_1161376" data-name="Grupo 1161376" transform="translate(10.237 19.908)">
          <path id="Trazado_994918" data-name="Trazado 994918" d="M78.7,161.614a24.592,24.592,0,0,0-29.069,15.611c-.228.634-.428,1.286-.6,1.947a24.521,24.521,0,0,0,3.158,19.681,24.759,24.759,0,0,0,2.534,3.254,24.481,24.481,0,0,0,14.426,7.658,24.2,24.2,0,0,0,3.636.27A24.573,24.573,0,0,0,78.7,161.614Zm-5.917,42.071a18.421,18.421,0,0,1-2.17-.127,18.181,18.181,0,0,1-10.886-5.393,18.168,18.168,0,0,1-3.2-20.94,18.243,18.243,0,0,1,16.252-9.981,17.851,17.851,0,0,1,4.7.619,18.219,18.219,0,0,1-4.7,35.822Z" transform="translate(-48.202 -160.894)" fill="#09136e"/>
          <path id="Trazado_994919" data-name="Trazado 994919" d="M69.985,198.445l-1.466,6.207a24.668,24.668,0,0,1-16.96-10.912v-5.35l4.339.18a17.946,17.946,0,0,0,3.2,4.482A18.182,18.182,0,0,0,69.985,198.445Z" transform="translate(-47.578 -155.781)" fill="#ffc655"/>
          <path id="Trazado_994920" data-name="Trazado 994920" d="M59.723,195.6l-5.006,3.942a24.523,24.523,0,0,1-5.694-22.936c.174-.662.376-1.313.6-1.947h6.9A18.191,18.191,0,0,0,59.723,195.6Z" transform="translate(-48.202 -158.334)" fill="#d42190"/>
          <path id="Trazado_994921" data-name="Trazado 994921" d="M78.566,161.614l-1.217,6.25a17.859,17.859,0,0,0-4.7-.619A18.258,18.258,0,0,0,54.8,181.771l-5.906-2.6a24.594,24.594,0,0,1,29.671-17.559Z" transform="translate(-48.073 -160.894)" fill="#542fd0"/>
        </g>
        <g id="Grupo_1161377" data-name="Grupo 1161377" transform="translate(68.972 32.972)">
          <rect id="Rectángulo_411566" data-name="Rectángulo 411566" width="59.52" height="3.984" fill="#09136e"/>
          <rect id="Rectángulo_411567" data-name="Rectángulo 411567" width="59.52" height="3.984" transform="translate(0 9.515)" fill="#09136e"/>
          <rect id="Rectángulo_411568" data-name="Rectángulo 411568" width="26.677" height="3.984" transform="translate(0 19.03)" fill="#09136e"/>
          <rect id="Rectángulo_411569" data-name="Rectángulo 411569" width="28.738" height="3.984" transform="translate(30.782 19.03)" fill="#09136e"/>
        </g>
        <g id="Grupo_1161378" data-name="Grupo 1161378" transform="translate(14.329 85.763)">
          <rect id="Rectángulo_411570" data-name="Rectángulo 411570" width="57.789" height="3.984" fill="#09136e"/>
          <rect id="Rectángulo_411571" data-name="Rectángulo 411571" width="47.107" height="3.984" transform="translate(61.703)" fill="#09136e"/>
          <rect id="Rectángulo_411572" data-name="Rectángulo 411572" width="108.806" height="3.984" transform="translate(0 9.515)" fill="#09136e"/>
          <rect id="Rectángulo_411573" data-name="Rectángulo 411573" width="78.034" height="3.984" transform="translate(0 27.601)" fill="#09136e"/>
          <rect id="Rectángulo_411574" data-name="Rectángulo 411574" width="26.997" height="3.984" transform="translate(81.812 27.601)" fill="#09136e"/>
          <rect id="Rectángulo_411575" data-name="Rectángulo 411575" width="26.677" height="3.984" transform="translate(0 19.03)" fill="#09136e"/>
          <rect id="Rectángulo_411576" data-name="Rectángulo 411576" width="78.024" height="3.984" transform="translate(30.782 19.03)" fill="#09136e"/>
        </g>
        <g id="Grupo_1161381" data-name="Grupo 1161381" transform="translate(121.617 123.776)">
          <g id="Grupo_1161379" data-name="Grupo 1161379">
            <path id="Trazado_994922" data-name="Trazado 994922" d="M142.381,253.168a.264.264,0,0,1-.187-.449l1.87-1.9-1.87-1.9a.264.264,0,1,1,.376-.371l2.053,2.082a.263.263,0,0,1,0,.371l-2.053,2.083A.273.273,0,0,1,142.381,253.168Z" transform="translate(-142.118 -248.476)" fill="#fff"/>
          </g>
          <g id="Grupo_1161380" data-name="Grupo 1161380" transform="translate(5.764)">
            <path id="Trazado_994923" data-name="Trazado 994923" d="M147.243,253.168a.269.269,0,0,1-.186-.076.264.264,0,0,1,0-.374l1.87-1.9-1.87-1.9a.264.264,0,1,1,.376-.371l2.054,2.082a.263.263,0,0,1,0,.371l-2.054,2.083A.264.264,0,0,1,147.243,253.168Z" transform="translate(-146.978 -248.476)" fill="#fff"/>
          </g>
        </g>
        <g id="Grupo_1161383" data-name="Grupo 1161383" transform="translate(8.134 4.615)">
          <g id="Grupo_1161382" data-name="Grupo 1161382" transform="translate(0 0.297)">
            <path id="Trazado_994924" data-name="Trazado 994924" d="M49.453,149.762a1.512,1.512,0,1,1-1.512-1.512A1.512,1.512,0,0,1,49.453,149.762Z" transform="translate(-46.429 -148.25)" fill="#fff"/>
            <path id="Trazado_994925" data-name="Trazado 994925" d="M57.39,149.762a1.512,1.512,0,1,1-1.512-1.512A1.512,1.512,0,0,1,57.39,149.762Z" transform="translate(-44.953 -148.25)" fill="#fff"/>
            <path id="Trazado_994926" data-name="Trazado 994926" d="M65.328,149.762a1.512,1.512,0,1,1-1.512-1.512A1.512,1.512,0,0,1,65.328,149.762Z" transform="translate(-43.477 -148.25)" fill="#fff"/>
          </g>
          <path id="Trazado_994927" data-name="Trazado 994927" d="M148.765,149.809l1.423-1.384a.26.26,0,0,0,.019-.344.21.21,0,0,0-.314-.02l-1.462,1.422-1.462-1.422a.21.21,0,0,0-.314.02.259.259,0,0,0,.019.344l1.423,1.384-1.423,1.384a.26.26,0,0,0-.019.344.213.213,0,0,0,.166.082.208.208,0,0,0,.147-.062l1.462-1.422,1.462,1.422a.209.209,0,0,0,.314-.02.26.26,0,0,0-.019-.344Z" transform="translate(-27.802 -147.999)" fill="#fff"/>
        </g>
        <g id="Grupo_1161385" data-name="Grupo 1161385" transform="translate(8.134 4.615)">
          <g id="Grupo_1161384" data-name="Grupo 1161384" transform="translate(0 0.297)">
            <path id="Trazado_994928" data-name="Trazado 994928" d="M49.453,149.762a1.512,1.512,0,1,1-1.512-1.512A1.512,1.512,0,0,1,49.453,149.762Z" transform="translate(-46.429 -148.25)" fill="#fff"/>
            <path id="Trazado_994929" data-name="Trazado 994929" d="M57.39,149.762a1.512,1.512,0,1,1-1.512-1.512A1.512,1.512,0,0,1,57.39,149.762Z" transform="translate(-44.953 -148.25)" fill="#fff"/>
            <path id="Trazado_994930" data-name="Trazado 994930" d="M65.328,149.762a1.512,1.512,0,1,1-1.512-1.512A1.512,1.512,0,0,1,65.328,149.762Z" transform="translate(-43.477 -148.25)" fill="#fff"/>
          </g>
          <path id="Trazado_994931" data-name="Trazado 994931" d="M148.765,149.809l1.423-1.384a.26.26,0,0,0,.019-.344.21.21,0,0,0-.314-.02l-1.462,1.422-1.462-1.422a.21.21,0,0,0-.314.02.259.259,0,0,0,.019.344l1.423,1.384-1.423,1.384a.26.26,0,0,0-.019.344.213.213,0,0,0,.166.082.208.208,0,0,0,.147-.062l1.462-1.422,1.462,1.422a.209.209,0,0,0,.314-.02.26.26,0,0,0-.019-.344Z" transform="translate(-27.802 -147.999)" fill="#fff"/>
        </g>
      </g>
      <g id="Grupo_1161407" data-name="Grupo 1161407" transform="translate(381.237 341.339)">
        <g id="Grupo_1161387" data-name="Grupo 1161387" transform="translate(0 0)" opacity="0.4">
          <path id="Trazado_994932" data-name="Trazado 994932" d="M460.794,306.988v123.7a7.969,7.969,0,0,1-7.974,7.965H330.039a7.969,7.969,0,0,1-7.974-7.965v-123.7a7.971,7.971,0,0,1,7.974-7.974h122.78A7.971,7.971,0,0,1,460.794,306.988Z" transform="translate(-322.065 -299.014)" fill="#d42190"/>
          <path id="Trazado_994933" data-name="Trazado 994933" d="M460.794,308.636V430.727a6.134,6.134,0,0,1-6.134,6.134H328.207a6.143,6.143,0,0,1-6.142-6.142V308.636Z" transform="translate(-322.065 -297.225)" fill="#ded7ff"/>
        </g>
        <g id="Grupo_1161388" data-name="Grupo 1161388" transform="translate(14.96 92.984)">
          <rect id="Rectángulo_411577" data-name="Rectángulo 411577" width="57.789" height="3.984" fill="#09136e"/>
          <rect id="Rectángulo_411578" data-name="Rectángulo 411578" width="47.107" height="3.984" transform="translate(61.702)" fill="#09136e"/>
          <rect id="Rectángulo_411579" data-name="Rectángulo 411579" width="108.806" height="3.984" transform="translate(0 9.515)" fill="#09136e"/>
          <rect id="Rectángulo_411580" data-name="Rectángulo 411580" width="78.034" height="3.984" transform="translate(0 27.601)" fill="#09136e"/>
          <rect id="Rectángulo_411581" data-name="Rectángulo 411581" width="26.997" height="3.984" transform="translate(81.812 27.601)" fill="#09136e"/>
          <rect id="Rectángulo_411582" data-name="Rectángulo 411582" width="26.677" height="3.984" transform="translate(0 19.03)" fill="#09136e"/>
          <rect id="Rectángulo_411583" data-name="Rectángulo 411583" width="78.024" height="3.984" transform="translate(30.78 19.03)" fill="#09136e"/>
        </g>
        <g id="Grupo_1161390" data-name="Grupo 1161390" transform="translate(8.133 4.615)">
          <g id="Grupo_1161389" data-name="Grupo 1161389" transform="translate(0 0.298)">
            <path id="Trazado_994934" data-name="Trazado 994934" d="M331.947,304.668a1.512,1.512,0,1,1-1.512-1.512A1.512,1.512,0,0,1,331.947,304.668Z" transform="translate(-328.923 -303.156)" fill="#fff"/>
            <path id="Trazado_994935" data-name="Trazado 994935" d="M339.885,304.668a1.512,1.512,0,1,1-1.512-1.512A1.512,1.512,0,0,1,339.885,304.668Z" transform="translate(-327.447 -303.156)" fill="#fff"/>
            <path id="Trazado_994936" data-name="Trazado 994936" d="M347.822,304.668a1.512,1.512,0,1,1-1.512-1.512A1.512,1.512,0,0,1,347.822,304.668Z" transform="translate(-325.971 -303.156)" fill="#fff"/>
          </g>
          <path id="Trazado_994937" data-name="Trazado 994937" d="M431.26,304.715l1.423-1.384a.26.26,0,0,0,.019-.344.21.21,0,0,0-.314-.02l-1.462,1.422-1.462-1.422a.21.21,0,0,0-.314.02.26.26,0,0,0,.019.344l1.423,1.384-1.423,1.384a.26.26,0,0,0-.019.344.213.213,0,0,0,.166.082.207.207,0,0,0,.147-.062l1.462-1.422,1.462,1.422a.209.209,0,0,0,.314-.02.26.26,0,0,0-.019-.344Z" transform="translate(-310.296 -302.905)" fill="#fff"/>
        </g>
        <g id="Grupo_1161396" data-name="Grupo 1161396" transform="translate(8.133 4.615)">
          <g id="Grupo_1161393" data-name="Grupo 1161393" transform="translate(113.484 124.871)">
            <g id="Grupo_1161391" data-name="Grupo 1161391">
              <path id="Trazado_994938" data-name="Trazado 994938" d="M424.876,412.889a.264.264,0,0,1-.187-.449l1.869-1.9-1.869-1.9a.264.264,0,0,1,.376-.371l2.053,2.083a.263.263,0,0,1,0,.371l-2.053,2.083A.273.273,0,0,1,424.876,412.889Z" transform="translate(-424.613 -408.197)" fill="#fff"/>
            </g>
            <g id="Grupo_1161392" data-name="Grupo 1161392" transform="translate(5.765)">
              <path id="Trazado_994939" data-name="Trazado 994939" d="M429.737,412.889a.264.264,0,0,1-.187-.449l1.87-1.9-1.87-1.9a.264.264,0,0,1,.376-.371l2.054,2.083a.263.263,0,0,1,0,.371l-2.054,2.083A.271.271,0,0,1,429.737,412.889Z" transform="translate(-429.474 -408.197)" fill="#fff"/>
            </g>
          </g>
          <g id="Grupo_1161395" data-name="Grupo 1161395">
            <g id="Grupo_1161394" data-name="Grupo 1161394" transform="translate(0 0.298)">
              <path id="Trazado_994940" data-name="Trazado 994940" d="M331.947,304.668a1.512,1.512,0,1,1-1.512-1.512A1.512,1.512,0,0,1,331.947,304.668Z" transform="translate(-328.923 -303.156)" fill="#fff"/>
              <path id="Trazado_994941" data-name="Trazado 994941" d="M339.885,304.668a1.512,1.512,0,1,1-1.512-1.512A1.512,1.512,0,0,1,339.885,304.668Z" transform="translate(-327.447 -303.156)" fill="#fff"/>
              <path id="Trazado_994942" data-name="Trazado 994942" d="M347.822,304.668a1.512,1.512,0,1,1-1.512-1.512A1.512,1.512,0,0,1,347.822,304.668Z" transform="translate(-325.971 -303.156)" fill="#fff"/>
            </g>
            <path id="Trazado_994943" data-name="Trazado 994943" d="M431.26,304.715l1.423-1.384a.26.26,0,0,0,.019-.344.21.21,0,0,0-.314-.02l-1.462,1.422-1.462-1.422a.21.21,0,0,0-.314.02.26.26,0,0,0,.019.344l1.423,1.384-1.423,1.384a.26.26,0,0,0-.019.344.213.213,0,0,0,.166.082.207.207,0,0,0,.147-.062l1.462-1.422,1.462,1.422a.209.209,0,0,0,.314-.02.26.26,0,0,0-.019-.344Z" transform="translate(-310.296 -302.905)" fill="#fff"/>
          </g>
        </g>
        <g id="Grupo_1161406" data-name="Grupo 1161406" transform="translate(13.962 20.565)">
          <g id="Grupo_1161398" data-name="Grupo 1161398">
            <rect id="Rectángulo_411584" data-name="Rectángulo 411584" width="7.12" height="24.064" transform="translate(16.214 38.872)" fill="#ffc655"/>
            <rect id="Rectángulo_411585" data-name="Rectángulo 411585" width="7.12" height="30.248" transform="translate(59.853 32.689)" fill="#ffc655"/>
            <rect id="Rectángulo_411586" data-name="Rectángulo 411586" width="7.12" height="16.887" transform="translate(30.306 46.049)" fill="#d42190"/>
            <rect id="Rectángulo_411587" data-name="Rectángulo 411587" width="6.048" height="16.887" transform="translate(4.068 46.049)" fill="#542fd0"/>
            <rect id="Rectángulo_411588" data-name="Rectángulo 411588" width="7.12" height="31.466" transform="translate(45.041 31.47)" fill="#542fd0"/>
            <rect id="Rectángulo_411589" data-name="Rectángulo 411589" width="7.12" height="41.634" transform="translate(74.664 21.302)" fill="#d42190"/>
            <rect id="Rectángulo_411590" data-name="Rectángulo 411590" width="7.12" height="50.755" transform="translate(88.361 12.181)" fill="#542fd0"/>
            <g id="Grupo_1161397" data-name="Grupo 1161397">
              <path id="Trazado_994944" data-name="Trazado 994944" d="M334.449,358.05a.662.662,0,0,1-.472-.189.468.468,0,0,1,.084-.731L357.6,340.714a.7.7,0,0,1,.812.028l9.741,8.018,17.291-13.223a.69.69,0,0,1,.8-.014l10.069,7.04,30.63-26.056a.689.689,0,0,1,.863,0,.465.465,0,0,1,0,.733l-31.023,26.389a.689.689,0,0,1-.821.034l-10.091-7.055-17.324,13.248a.692.692,0,0,1-.834-.012l-9.758-8.032-23.117,16.123A.692.692,0,0,1,334.449,358.05Z" transform="translate(-333.838 -316.354)" fill="#542fd0"/>
            </g>
          </g>
          <g id="Grupo_1161405" data-name="Grupo 1161405" transform="translate(105.049 6.954)">
            <g id="Grupo_1161404" data-name="Grupo 1161404">
              <g id="Grupo_1161399" data-name="Grupo 1161399">
                <rect id="Rectángulo_411591" data-name="Rectángulo 411591" width="5.755" height="5.755" fill="#542fd0"/>
              </g>
              <g id="Grupo_1161400" data-name="Grupo 1161400" transform="translate(0 12.557)">
                <rect id="Rectángulo_411592" data-name="Rectángulo 411592" width="5.755" height="5.755" fill="#ffc655"/>
              </g>
              <g id="Grupo_1161401" data-name="Grupo 1161401" transform="translate(0 25.114)">
                <rect id="Rectángulo_411593" data-name="Rectángulo 411593" width="5.755" height="5.755" fill="#d42190"/>
              </g>
              <g id="Grupo_1161402" data-name="Grupo 1161402" transform="translate(0 37.671)">
                <rect id="Rectángulo_411594" data-name="Rectángulo 411594" width="5.755" height="5.755" fill="#542fd0"/>
              </g>
              <g id="Grupo_1161403" data-name="Grupo 1161403" transform="translate(0 50.228)">
                <rect id="Rectángulo_411595" data-name="Rectángulo 411595" width="5.755" height="5.755" fill="#ffc655"/>
              </g>
            </g>
          </g>
        </g>
      </g>
      <g id="Grupo_1161411" data-name="Grupo 1161411" transform="translate(63.382 95.814)">
        <g id="Grupo_1161408" data-name="Grupo 1161408">
          <path id="Trazado_994945" data-name="Trazado 994945" d="M149.9,137.8H55.257l-.162-.339a10.523,10.523,0,0,1-1.046-4.605,10.65,10.65,0,0,1,10.637-10.638c.3,0,.618.015.945.047a18.375,18.375,0,0,1,18.151-21.206,18.281,18.281,0,0,1,9.611,2.718,22.9,22.9,0,0,1,42.875,9.634,18.312,18.312,0,0,1,13.769,23.985Zm-93.877-1.2h93.018a17.112,17.112,0,0,0-13.445-22.1l-.477-.082-.021-.483A21.7,21.7,0,0,0,94.143,104.9l-.307.592-.555-.37a17.168,17.168,0,0,0-26.672,14.3,17.294,17.294,0,0,0,.343,3.418l.172.852-.857-.142a9.57,9.57,0,0,0-1.58-.142,9.451,9.451,0,0,0-9.44,9.441A9.336,9.336,0,0,0,56.019,136.6Z" transform="translate(-54.049 -91.987)" fill="#b19cfe"/>
        </g>
        <g id="Grupo_1161409" data-name="Grupo 1161409" transform="translate(145.451 312.99)">
          <path id="Trazado_994946" data-name="Trazado 994946" d="M272.54,401.709H177.9l-.162-.339a10.523,10.523,0,0,1-1.046-4.605,10.65,10.65,0,0,1,10.637-10.638c.3,0,.618.017.944.047a18.375,18.375,0,0,1,18.151-21.206,18.28,18.28,0,0,1,9.611,2.718,22.9,22.9,0,0,1,42.875,9.634A18.312,18.312,0,0,1,272.68,401.3Zm-93.878-1.2H271.68a17.112,17.112,0,0,0-13.445-22.1l-.477-.082-.021-.483a21.7,21.7,0,0,0-40.952-9.033l-.307.592-.555-.37a17.167,17.167,0,0,0-26.672,14.3,17.345,17.345,0,0,0,.343,3.42l.173.853-.86-.145a9.435,9.435,0,0,0-10.244,13.044Z" transform="translate(-176.693 -355.9)" fill="#b19cfe"/>
        </g>
        <g id="Grupo_1161410" data-name="Grupo 1161410" transform="translate(370.494 45.809)">
          <path id="Trazado_994947" data-name="Trazado 994947" d="M451.623,171.4H367.548l-.162-.339a9.42,9.42,0,0,1-.936-4.116,9.518,9.518,0,0,1,9.508-9.508c.247,0,.5.012.758.036a16.366,16.366,0,0,1,24.69-16.426,20.389,20.389,0,0,1,38.136,8.588A16.32,16.32,0,0,1,451.762,171Zm-83.312-1.2h82.453a15.122,15.122,0,0,0-11.894-19.476l-.477-.082-.021-.483a19.193,19.193,0,0,0-36.214-7.99l-.307.592-.555-.369A15.168,15.168,0,0,0,377.73,155.03a15.354,15.354,0,0,0,.3,3.022l.172.854-.857-.145a8.308,8.308,0,0,0-9.036,11.442Z" transform="translate(-366.45 -130.613)" fill="#b19cfe"/>
        </g>
      </g>
      <g id="Grupo_1161418" data-name="Grupo 1161418" transform="translate(45.586 421.216)">
        <g id="Grupo_1161412" data-name="Grupo 1161412" transform="translate(0 0)">
          <path id="Trazado_994948" data-name="Trazado 994948" d="M80.377,395.754H39.044V366.366H80.377v29.388Zm-40.084-1.248H79.129v-26.89H40.293Z" transform="translate(-39.044 -366.366)" fill="#b19cfe"/>
        </g>
        <g id="Grupo_1161415" data-name="Grupo 1161415" transform="translate(0.254 0.125)">
          <g id="Grupo_1161413" data-name="Grupo 1161413" transform="translate(0 0.026)">
            <rect id="Rectángulo_411596" data-name="Rectángulo 411596" width="1.248" height="25.329" transform="matrix(0.612, -0.791, 0.791, 0.612, 0, 0.987)" fill="#b19cfe"/>
          </g>
          <g id="Grupo_1161414" data-name="Grupo 1161414" transform="translate(20.015 0)">
            <rect id="Rectángulo_411597" data-name="Rectángulo 411597" width="25.33" height="1.248" transform="translate(0 15.489) rotate(-37.7)" fill="#b19cfe"/>
          </g>
        </g>
        <g id="Grupo_1161416" data-name="Grupo 1161416" transform="translate(25.488 12.156)">
          <rect id="Rectángulo_411598" data-name="Rectángulo 411598" width="1.248" height="21.925" transform="translate(0 0.841) rotate(-42.382)" fill="#b19cfe"/>
        </g>
        <g id="Grupo_1161417" data-name="Grupo 1161417" transform="translate(0.169 12.168)">
          <rect id="Rectángulo_411599" data-name="Rectángulo 411599" width="21.925" height="1.248" transform="matrix(0.674, -0.739, 0.739, 0.674, 0, 16.194)" fill="#b19cfe"/>
        </g>
      </g>
      <g id="Grupo_1161419" data-name="Grupo 1161419" transform="translate(318.045 95.702)">
        <path id="Trazado_994949" data-name="Trazado 994949" d="M284.98,127.58l-.306-.173c-21.306-12.013-15.055-30.923-14.988-31.112l.17-.486.51.074c6.013.868,14.221-3.77,14.3-3.818l.3-.171.3.162c.356.2,8.37,4.671,14.322,3.826l.51-.074.17.486c.066.19,6.318,19.1-14.987,31.112Zm-14.262-30.4c-.841,2.961-4.154,18.391,14.26,28.965,18.417-10.574,15.1-26,14.262-28.965-5.748.561-12.7-3.015-14.262-3.861C283.413,94.158,276.387,97.723,270.718,97.18Z" transform="translate(-268.781 -91.893)" fill="#b19cfe"/>
      </g>
      <g id="Grupo_1161423" data-name="Grupo 1161423" transform="translate(66.297 283.779)">
        <g id="Grupo_1161420" data-name="Grupo 1161420" transform="translate(1.549 1.691)">
          <path id="Trazado_994950" data-name="Trazado 994950" d="M147.567,341.882H58.437a.623.623,0,0,1-.624-.624v-88.73a.624.624,0,0,1,1.248,0v88.1h88.506a.624.624,0,0,1,0,1.249Z" transform="translate(-57.813 -251.905)" fill="#d42190"/>
        </g>
        <g id="Grupo_1161421" data-name="Grupo 1161421">
          <path id="Trazado_994951" data-name="Trazado 994951" d="M60.859,252.655a2.176,2.176,0,1,1-2.176-2.176A2.177,2.177,0,0,1,60.859,252.655Z" transform="translate(-56.507 -250.479)" fill="#d42190"/>
        </g>
        <g id="Grupo_1161422" data-name="Grupo 1161422" transform="translate(89.127 88.869)">
          <path id="Trazado_994952" data-name="Trazado 994952" d="M136.011,327.589a2.176,2.176,0,1,1-2.176-2.176A2.177,2.177,0,0,1,136.011,327.589Z" transform="translate(-131.659 -325.413)" fill="#d42190"/>
        </g>
      </g>
      <g id="Grupo_1161427" data-name="Grupo 1161427" transform="translate(432.626 210.014)">
        <g id="Grupo_1161424" data-name="Grupo 1161424" transform="translate(1.554 1.554)">
          <path id="Trazado_994953" data-name="Trazado 994953" d="M467.9,340.55H439.4a.624.624,0,1,1,0-1.248h27.869V190.839H367.33a.624.624,0,1,1,0-1.248H467.9a.624.624,0,0,1,.624.624V339.927A.624.624,0,0,1,467.9,340.55Z" transform="translate(-366.706 -189.591)" fill="#d42190"/>
        </g>
        <g id="Grupo_1161425" data-name="Grupo 1161425" transform="translate(71.201 149.713)">
          <path id="Trazado_994954" data-name="Trazado 994954" d="M425.433,316.7a2.176,2.176,0,1,1,2.176,2.176A2.177,2.177,0,0,1,425.433,316.7Z" transform="translate(-425.433 -314.519)" fill="#d42190"/>
        </g>
        <g id="Grupo_1161426" data-name="Grupo 1161426">
          <path id="Trazado_994955" data-name="Trazado 994955" d="M365.4,190.457a2.176,2.176,0,1,1,2.176,2.176A2.177,2.177,0,0,1,365.4,190.457Z" transform="translate(-365.396 -188.281)" fill="#d42190"/>
        </g>
      </g>
      <path id="Trazado_994956" data-name="Trazado 994956" d="M260.522,318.435l-5.86-3.825a24.093,24.093,0,0,0,.745-4.275l6.809-1.618a4.657,4.657,0,0,0,3.455-5.607l-1.319-5.55a4.657,4.657,0,0,0-5.607-3.455l-6.809,1.618a23.969,23.969,0,0,0-1.773-2.521l3.825-5.86a4.658,4.658,0,0,0-1.354-6.446l-4.777-3.118a4.658,4.658,0,0,0-6.446,1.354l-3.825,5.86a24,24,0,0,0-3.022-.608L233.3,277.5a4.658,4.658,0,0,0-5.42-3.743l-5.611,1.027a4.658,4.658,0,0,0-3.743,5.42l1.259,6.883a24.041,24.041,0,0,0-3.614,2.4l-5.86-3.825a4.658,4.658,0,0,0-6.446,1.354l-3.118,4.777a4.658,4.658,0,0,0,1.354,6.446l5.86,3.825a23.968,23.968,0,0,0-.745,4.275l-6.809,1.618a4.657,4.657,0,0,0-3.455,5.607l1.319,5.55a4.657,4.657,0,0,0,5.607,3.455l6.809-1.618a23.973,23.973,0,0,0,1.773,2.521l-3.825,5.86A4.658,4.658,0,0,0,210,335.782l4.777,3.118a4.658,4.658,0,0,0,6.446-1.354l3.825-5.86a24,24,0,0,0,3.022.608l1.259,6.883a4.658,4.658,0,0,0,5.42,3.743l5.611-1.027a4.656,4.656,0,0,0,3.742-5.42l-1.259-6.883a24.043,24.043,0,0,0,3.614-2.4l5.86,3.825a4.658,4.658,0,0,0,6.446-1.354l3.118-4.777A4.655,4.655,0,0,0,260.522,318.435Zm-37.681,2.889a15.507,15.507,0,1,1,21.461-4.51A15.524,15.524,0,0,1,222.84,321.324Z" transform="translate(35.884 37.614)" fill="#09136e"/>
      <path id="Trazado_994957" data-name="Trazado 994957" d="M167.82,362.791l-.025-47.375c5.841-2.7,9.835-8.12,9.832-14.374,0-6.4-4.19-11.907-10.251-14.537l.009,17.722-15.988.008-.009-17.722c-6.059,2.636-10.24,8.152-10.237,14.548,0,6.254,4,11.667,9.846,14.364l.025,47.375c-5.841,2.7-9.835,8.12-9.832,14.374,0,6.4,4.19,11.907,10.251,14.537l-.009-17.722,15.988-.008.009,17.722c6.059-2.636,10.24-8.152,10.237-14.548C177.663,370.9,173.664,365.486,167.82,362.791Z" transform="translate(25.53 39.999)" fill="#09136e"/>
      <g id="Grupo_1161433" data-name="Grupo 1161433" transform="translate(59.412 119.565)">
        <g id="Grupo_1161428" data-name="Grupo 1161428" transform="translate(0 275.659)">
          <path id="Trazado_994958" data-name="Trazado 994958" d="M59.658,348.928a4.478,4.478,0,1,1-4.478-4.478A4.478,4.478,0,0,1,59.658,348.928Z" transform="translate(-50.702 -344.45)" fill="#ffc655"/>
        </g>
        <g id="Grupo_1161429" data-name="Grupo 1161429" transform="translate(297.157 33.584)">
          <path id="Trazado_994959" data-name="Trazado 994959" d="M310.221,144.81a4.478,4.478,0,1,1-4.478-4.478A4.478,4.478,0,0,1,310.221,144.81Z" transform="translate(-301.265 -140.332)" fill="#ffc655"/>
        </g>
        <g id="Grupo_1161430" data-name="Grupo 1161430" transform="translate(115.885)">
          <path id="Trazado_994960" data-name="Trazado 994960" d="M153.492,122.167a5.076,5.076,0,1,1,5.076-5.076A5.082,5.082,0,0,1,153.492,122.167Zm0-8.956a3.88,3.88,0,1,0,3.879,3.88A3.884,3.884,0,0,0,153.492,113.211Z" transform="translate(-148.416 -112.014)" fill="#ffc655"/>
        </g>
        <g id="Grupo_1161431" data-name="Grupo 1161431" transform="translate(277.064 326.736)">
          <circle id="Elipse_12018" data-name="Elipse 12018" cx="4.478" cy="4.478" r="4.478" fill="#ffc655"/>
        </g>
        <g id="Grupo_1161432" data-name="Grupo 1161432" transform="translate(476.391 71.963)">
          <path id="Trazado_994961" data-name="Trazado 994961" d="M457.471,182.846a5.076,5.076,0,1,1,5.077-5.077A5.082,5.082,0,0,1,457.471,182.846Zm0-8.956a3.88,3.88,0,1,0,3.88,3.879A3.883,3.883,0,0,0,457.471,173.89Z" transform="translate(-452.395 -172.693)" fill="#ffc655"/>
        </g>
      </g>
      <g id="Grupo_1161435" data-name="Grupo 1161435" transform="translate(406.305 96.414)">
        <g id="Grupo_1161434" data-name="Grupo 1161434">
          <rect id="Rectángulo_411600" data-name="Rectángulo 411600" width="62.353" height="5.129" fill="#542fd0"/>
          <rect id="Rectángulo_411601" data-name="Rectángulo 411601" width="75.648" height="5.128" transform="translate(0 11.877)" fill="#542fd0"/>
          <rect id="Rectángulo_411602" data-name="Rectángulo 411602" width="69.371" height="5.129" transform="translate(0 23.754)" fill="#542fd0"/>
          <rect id="Rectángulo_411603" data-name="Rectángulo 411603" width="27.027" height="5.129" transform="translate(0 35.631)" fill="#542fd0"/>
        </g>
      </g>
      <g id="Grupo_1161437" data-name="Grupo 1161437" transform="translate(130.385 440.89)">
        <g id="Grupo_1161436" data-name="Grupo 1161436">
          <rect id="Rectángulo_411604" data-name="Rectángulo 411604" width="13.513" height="5.129" transform="translate(0 23.754)" fill="#542fd0"/>
          <rect id="Rectángulo_411605" data-name="Rectángulo 411605" width="54.93" height="5.129" transform="translate(17.664 23.754)" fill="#542fd0"/>
          <rect id="Rectángulo_411606" data-name="Rectángulo 411606" width="45.466" height="5.129" transform="translate(0 11.877)" fill="#542fd0"/>
          <rect id="Rectángulo_411607" data-name="Rectángulo 411607" width="60.852" height="5.129" transform="translate(0 34.956)" fill="#542fd0"/>
          <rect id="Rectángulo_411608" data-name="Rectángulo 411608" width="27.027" height="5.129" fill="#542fd0"/>
        </g>
      </g>
      <g id="Grupo_1161444" data-name="Grupo 1161444" transform="translate(301.206 470.123)">
        <g id="Grupo_1161438" data-name="Grupo 1161438">
          <path id="Trazado_994962" data-name="Trazado 994962" d="M255.354,418.393a.772.772,0,0,1-.5-1.361l10.963-9.246a.771.771,0,1,1,.994,1.179L255.85,418.21A.763.763,0,0,1,255.354,418.393Z" transform="translate(-254.582 -407.605)" fill="#d42190"/>
        </g>
        <g id="Grupo_1161439" data-name="Grupo 1161439" transform="translate(10.014)">
          <path id="Trazado_994963" data-name="Trazado 994963" d="M263.8,418.393a.772.772,0,0,1-.5-1.361l10.963-9.246a.771.771,0,1,1,.994,1.179l-10.963,9.246A.766.766,0,0,1,263.8,418.393Z" transform="translate(-263.026 -407.605)" fill="#d42190"/>
        </g>
        <g id="Grupo_1161440" data-name="Grupo 1161440" transform="translate(20.028)">
          <path id="Trazado_994964" data-name="Trazado 994964" d="M272.241,418.393a.772.772,0,0,1-.5-1.361l10.964-9.246a.771.771,0,1,1,.994,1.179l-10.964,9.246A.771.771,0,0,1,272.241,418.393Z" transform="translate(-271.47 -407.605)" fill="#d42190"/>
        </g>
        <g id="Grupo_1161441" data-name="Grupo 1161441" transform="translate(30.04)">
          <path id="Trazado_994965" data-name="Trazado 994965" d="M280.684,418.393a.772.772,0,0,1-.5-1.361l10.963-9.246a.771.771,0,1,1,.994,1.179L281.18,418.21A.766.766,0,0,1,280.684,418.393Z" transform="translate(-279.912 -407.605)" fill="#d42190"/>
        </g>
        <g id="Grupo_1161442" data-name="Grupo 1161442" transform="translate(40.054)">
          <path id="Trazado_994966" data-name="Trazado 994966" d="M289.127,418.393a.772.772,0,0,1-.5-1.361l10.963-9.246a.771.771,0,1,1,.994,1.179l-10.963,9.246A.769.769,0,0,1,289.127,418.393Z" transform="translate(-288.356 -407.605)" fill="#d42190"/>
        </g>
        <g id="Grupo_1161443" data-name="Grupo 1161443" transform="translate(51.016)">
          <path id="Trazado_994967" data-name="Trazado 994967" d="M298.371,418.393a.772.772,0,0,1-.5-1.361l10.963-9.246a.771.771,0,0,1,.994,1.179l-10.963,9.246A.764.764,0,0,1,298.371,418.393Z" transform="translate(-297.599 -407.605)" fill="#d42190"/>
        </g>
      </g>
      <g id="Grupo_1161451" data-name="Grupo 1161451" transform="translate(191.861 95.643)">
        <g id="Grupo_1161445" data-name="Grupo 1161445">
          <path id="Trazado_994968" data-name="Trazado 994968" d="M163.155,102.629a.771.771,0,0,1-.5-1.36l10.964-9.245a.771.771,0,0,1,.994,1.179l-10.964,9.245A.765.765,0,0,1,163.155,102.629Z" transform="translate(-162.383 -91.843)" fill="#d42190"/>
        </g>
        <g id="Grupo_1161446" data-name="Grupo 1161446" transform="translate(10.013)">
          <path id="Trazado_994969" data-name="Trazado 994969" d="M171.6,102.629a.771.771,0,0,1-.5-1.36l10.963-9.245a.771.771,0,0,1,.994,1.179l-10.963,9.245A.765.765,0,0,1,171.6,102.629Z" transform="translate(-170.826 -91.843)" fill="#d42190"/>
        </g>
        <g id="Grupo_1161447" data-name="Grupo 1161447" transform="translate(20.027)">
          <path id="Trazado_994970" data-name="Trazado 994970" d="M180.041,102.629a.771.771,0,0,1-.5-1.36l10.963-9.245A.771.771,0,1,1,191.5,93.2l-10.963,9.245A.768.768,0,0,1,180.041,102.629Z" transform="translate(-179.27 -91.843)" fill="#d42190"/>
        </g>
        <g id="Grupo_1161448" data-name="Grupo 1161448" transform="translate(30.039)">
          <path id="Trazado_994971" data-name="Trazado 994971" d="M188.484,102.629a.771.771,0,0,1-.5-1.36l10.964-9.245a.771.771,0,0,1,.994,1.179l-10.964,9.245A.762.762,0,0,1,188.484,102.629Z" transform="translate(-187.712 -91.843)" fill="#d42190"/>
        </g>
        <g id="Grupo_1161449" data-name="Grupo 1161449" transform="translate(40.054)">
          <path id="Trazado_994972" data-name="Trazado 994972" d="M196.928,102.629a.771.771,0,0,1-.5-1.36l10.963-9.245a.771.771,0,0,1,.994,1.179l-10.963,9.245A.77.77,0,0,1,196.928,102.629Z" transform="translate(-196.157 -91.843)" fill="#d42190"/>
        </g>
        <g id="Grupo_1161450" data-name="Grupo 1161450" transform="translate(51.016)">
          <path id="Trazado_994973" data-name="Trazado 994973" d="M206.172,102.629a.771.771,0,0,1-.5-1.36l10.964-9.245a.771.771,0,0,1,.994,1.179l-10.964,9.245A.765.765,0,0,1,206.172,102.629Z" transform="translate(-205.4 -91.843)" fill="#d42190"/>
        </g>
      </g>
      <path id="Trazado_994974" data-name="Trazado 994974" d="M319.141,191.732H307.947V180.539a3.164,3.164,0,0,0-3.164-3.164h-2.145a3.164,3.164,0,0,0-3.164,3.164v11.193H288.28a3.164,3.164,0,0,0-3.164,3.164v2.145a3.164,3.164,0,0,0,3.164,3.164h11.193V211.4a3.164,3.164,0,0,0,3.164,3.164h2.145a3.164,3.164,0,0,0,3.164-3.164V200.206h11.194a3.164,3.164,0,0,0,3.164-3.164V194.9A3.164,3.164,0,0,0,319.141,191.732Z" transform="translate(52.301 19.705)" fill="#542fd0"/>
      <path id="Trazado_994975" data-name="Trazado 994975" d="M354.62,173.6H343.427V162.4a3.164,3.164,0,0,0-3.164-3.164h-2.145a3.164,3.164,0,0,0-3.164,3.164V173.6H323.76a3.164,3.164,0,0,0-3.164,3.164V178.9a3.164,3.164,0,0,0,3.164,3.164h11.193v11.193a3.164,3.164,0,0,0,3.164,3.164h2.145a3.164,3.164,0,0,0,3.164-3.164V182.069H354.62a3.164,3.164,0,0,0,3.164-3.164v-2.145A3.164,3.164,0,0,0,354.62,173.6Z" transform="translate(58.899 16.333)" fill="#542fd0"/>
    </g>
  </g>
</svg>
