<svg xmlns="http://www.w3.org/2000/svg" xmlns:xlink="http://www.w3.org/1999/xlink" width="108" height="108" viewBox="0 0 108 108">
  <defs>
    <filter id="Trazado_982547" x="0" y="0" width="108" height="108" filterUnits="userSpaceOnUse">
      <feOffset dy="3" input="SourceAlpha"/>
      <feGaussianBlur stdDeviation="3" result="blur"/>
      <feFlood flood-opacity="0.161"/>
      <feComposite operator="in" in2="blur"/>
      <feComposite in="SourceGraphic"/>
    </filter>
  </defs>
  <g id="Grupo_1159263" data-name="Grupo 1159263" transform="translate(-185 -856)">
    <g id="Grupo_1158149" data-name="Grupo 1158149" transform="translate(-431 -4371)">
      <g id="Grupo_1154033" data-name="Grupo 1154033" transform="translate(0 1317)">
        <g id="Grupo_1153177" data-name="Grupo 1153177" transform="translate(362 3397)">
          <g id="Grupo_1149598" data-name="Grupo 1149598" transform="translate(80 315)">
            <g id="Grupo_1148770" data-name="Grupo 1148770" transform="translate(-27 -2583)">
              <g id="Grupo_1146954" data-name="Grupo 1146954" transform="translate(-415 -1202)">
                <g transform="matrix(1, 0, 0, 1, 616, 3983)" filter="url(#Trazado_982547)">
                  <g id="Trazado_982547-2" data-name="Trazado 982547" transform="translate(9 6)" fill="#f9f7fd">
                    <path d="M 45 88.5 C 39.12687683105469 88.5 33.43022537231445 87.35007476806641 28.06830024719238 85.08217620849609 C 22.88852500915527 82.89131164550781 18.23629951477051 79.75458526611328 14.2408504486084 75.75914764404297 C 10.24541282653809 71.76370239257812 7.108687400817871 67.11147308349609 4.917825222015381 61.93170166015625 C 2.649924993515015 56.56977462768555 1.5 50.87312316894531 1.5 45 C 1.5 39.12687683105469 2.649924993515015 33.43022537231445 4.917825222015381 28.06830024719238 C 7.108687400817871 22.88852500915527 10.24541282653809 18.23629951477051 14.2408504486084 14.2408504486084 C 18.23629951477051 10.24541282653809 22.88852500915527 7.108687400817871 28.06830024719238 4.917825222015381 C 33.43022537231445 2.649924993515015 39.12687683105469 1.5 45 1.5 C 50.87312316894531 1.5 56.56977462768555 2.649924993515015 61.93170166015625 4.917825222015381 C 67.11147308349609 7.108687400817871 71.76370239257812 10.24541282653809 75.75914764404297 14.2408504486084 C 79.75458526611328 18.23629951477051 82.89131164550781 22.88852500915527 85.08217620849609 28.06830024719238 C 87.35007476806641 33.43022537231445 88.5 39.12687683105469 88.5 45 C 88.5 50.87312316894531 87.35007476806641 56.56977462768555 85.08217620849609 61.93170166015625 C 82.89131164550781 67.11147308349609 79.75458526611328 71.76370239257812 75.75914764404297 75.75914764404297 C 71.76370239257812 79.75458526611328 67.11147308349609 82.89131164550781 61.93170166015625 85.08217620849609 C 56.56977462768555 87.35007476806641 50.87312316894531 88.5 45 88.5 Z" stroke="none"/>
                    <path d="M 45 3 C 39.32871246337891 3 33.82865524291992 4.110054016113281 28.65262985229492 6.299339294433594 C 23.65165710449219 8.414573669433594 19.15968322753906 11.44334411621094 15.301513671875 15.301513671875 C 11.44334411621094 19.15968322753906 8.414573669433594 23.65165710449219 6.299339294433594 28.65262985229492 C 4.110054016113281 33.82865524291992 3 39.32871246337891 3 45 C 3 50.67128753662109 4.110054016113281 56.17134475708008 6.299339294433594 61.34737396240234 C 8.414573669433594 66.34834289550781 11.44334411621094 70.84031677246094 15.301513671875 74.698486328125 C 19.15968322753906 78.55665588378906 23.65165710449219 81.58542633056641 28.65262985229492 83.70066070556641 C 33.82865524291992 85.88994598388672 39.32871246337891 87 45 87 C 50.67128753662109 87 56.17134475708008 85.88994598388672 61.34737396240234 83.70066070556641 C 66.34834289550781 81.58542633056641 70.84031677246094 78.55665588378906 74.698486328125 74.698486328125 C 78.55665588378906 70.84031677246094 81.58542633056641 66.34834289550781 83.70066070556641 61.34737396240234 C 85.88994598388672 56.17134475708008 87 50.67128753662109 87 45 C 87 39.32871246337891 85.88994598388672 33.82865524291992 83.70066070556641 28.65262985229492 C 81.58542633056641 23.65165710449219 78.55665588378906 19.15968322753906 74.698486328125 15.301513671875 C 70.84031677246094 11.44334411621094 66.34834289550781 8.414573669433594 61.34737396240234 6.299339294433594 C 56.17134475708008 4.110054016113281 50.67128753662109 3 45 3 M 45 0 C 69.85281372070312 0 90 20.14718627929688 90 45 C 90 69.85281372070312 69.85281372070312 90 45 90 C 20.14718627929688 90 0 69.85281372070312 0 45 C 0 20.14718627929688 20.14718627929688 0 45 0 Z" stroke="none" fill="#6c6384"/>
                  </g>
                </g>
              </g>
            </g>
          </g>
        </g>
      </g>
    </g>
    <g id="Icons" transform="translate(208.5 876.833)">
      <g id="Grupo_1159262" data-name="Grupo 1159262" transform="translate(2.5 2.167)">
        <path id="Trazado_993091" data-name="Trazado 993091" d="M59.051,43.227V78.556a2.151,2.151,0,0,1-2.2,2.1H7.2a2.151,2.151,0,0,1-2.2-2.1V43.227Z" transform="translate(-4.451 -34.205)" fill="#efefef"/>
        <path id="Trazado_993092" data-name="Trazado 993092" d="M86.534,58.4v31.18H54.02V58.4a3.741,3.741,0,0,1,3.735-3.735H82.8A3.741,3.741,0,0,1,86.534,58.4Z" transform="translate(-42.7 -43.132)" fill="#afafaf"/>
        <path id="Trazado_993093" data-name="Trazado 993093" d="M59.051,13.14H5V6.864a2.2,2.2,0,0,1,2.2-2.2H56.854a2.2,2.2,0,0,1,2.2,2.2Z" transform="translate(-4.451 -4.118)" fill="#72c2e9"/>
        <circle id="Elipse_11992" data-name="Elipse 11992" cx="1.376" cy="1.376" r="1.376" transform="translate(3.909 3.41)" fill="#fc5d3d"/>
        <circle id="Elipse_11993" data-name="Elipse 11993" cx="1.376" cy="1.376" r="1.376" transform="translate(10.137 3.41)" fill="#f0c020"/>
        <circle id="Elipse_11994" data-name="Elipse 11994" cx="1.376" cy="1.376" r="1.376" transform="translate(16.364 3.41)" fill="#efefef"/>
        <path id="Trazado_993094" data-name="Trazado 993094" d="M88.261,103.34H63.217a2.2,2.2,0,0,1-2.2-2.2V63.864a2.2,2.2,0,0,1,2.2-2.2H88.261a2.2,2.2,0,0,1,2.2,2.2v37.279A2.2,2.2,0,0,1,88.261,103.34Z" transform="translate(-48.162 -48.594)" fill="#fc5d3d"/>
        <path id="Trazado_993095" data-name="Trazado 993095" d="M107.842,65.512H95.1a1.1,1.1,0,0,1-1.1-1.1V61.667h14.941v2.747A1.1,1.1,0,0,1,107.842,65.512Z" transform="translate(-73.896 -48.594)" fill="#f0c020"/>
        <path id="Trazado_993096" data-name="Trazado 993096" d="M100.174,90.654v28.913a1.1,1.1,0,0,1-1.1,1.1H79.452a1.1,1.1,0,0,1-1.1-1.1V90.654a1.1,1.1,0,0,1,1.1-1.1H99.075A1.1,1.1,0,0,1,100.174,90.654Z" transform="translate(-61.687 -70.354)" fill="#efefef"/>
        <path id="Trazado_993097" data-name="Trazado 993097" d="M220.263,155.637h-2.244a1.122,1.122,0,0,1,0-2.244h2.244a1.122,1.122,0,1,1,0,2.244Z" transform="translate(-169.79 -120.166)" fill="#72c2e9"/>
        <path id="Trazado_993098" data-name="Trazado 993098" d="M211.59,180.316,210,178.729a1.122,1.122,0,0,1,1.587-1.587l1.587,1.587a1.122,1.122,0,0,1-1.587,1.587Z" transform="translate(-164.154 -138.44)" fill="#f0c020"/>
        <path id="Trazado_993099" data-name="Trazado 993099" d="M210,126.252a1.122,1.122,0,0,1,0-1.587l1.587-1.587a1.122,1.122,0,1,1,1.587,1.587l-1.587,1.587A1.122,1.122,0,0,1,210,126.252Z" transform="translate(-164.154 -96.255)" fill="#fc5d3d"/>
        <path id="Trazado_993100" data-name="Trazado 993100" d="M19.8,154.56h2.244a1.122,1.122,0,0,1,0,2.244H19.8a1.122,1.122,0,0,1,0-2.244Z" transform="translate(-15.121 -121.076)" fill="#72c2e9"/>
        <path id="Trazado_993101" data-name="Trazado 993101" d="M30.8,124.245l1.587,1.587a1.122,1.122,0,0,1-1.587,1.587l-1.587-1.587a1.122,1.122,0,0,1,1.587-1.587Z" transform="translate(-23.091 -97.166)" fill="#f0c020"/>
        <path id="Trazado_993102" data-name="Trazado 993102" d="M32.391,178.31a1.122,1.122,0,0,1,0,1.587L30.8,181.483a1.122,1.122,0,1,1-1.587-1.587L30.8,178.31A1.122,1.122,0,0,1,32.391,178.31Z" transform="translate(-23.091 -139.351)" fill="#fc5d3d"/>
        <path id="Trazado_993103" data-name="Trazado 993103" d="M102.646,133.153l-3.4-3.4a1.489,1.489,0,0,1,2.106-2.106l2.349,2.349,5.8-5.8A1.489,1.489,0,0,1,111.6,126.3l-6.85,6.85A1.489,1.489,0,0,1,102.646,133.153Z" transform="translate(-77.648 -97.044)" fill="#72c2e9"/>
        <path id="Trazado_993104" data-name="Trazado 993104" d="M239.049,84.861a.549.549,0,0,1-.549-.549v-.659a.549.549,0,1,1,1.1,0v.659A.549.549,0,0,1,239.049,84.861Zm0-2.856a.549.549,0,0,1-.549-.549V51.276a.549.549,0,0,1,1.1,0V81.455A.549.549,0,0,1,239.049,82Z" transform="translate(-186.646 -40.057)" fill="#fff"/>
        <path id="Trazado_993105" data-name="Trazado 993105" d="M13.049,84.861a.549.549,0,0,1-.549-.549V54.133a.549.549,0,0,1,1.1,0V84.311A.549.549,0,0,1,13.049,84.861Zm0-32.376a.549.549,0,0,1-.549-.549v-.659a.549.549,0,0,1,1.1,0v.659A.549.549,0,0,1,13.049,52.485Z" transform="translate(-10.303 -40.057)" fill="#fff"/>
        <path id="Trazado_993106" data-name="Trazado 993106" d="M5.247,49.167h9.562v5.549a2.749,2.749,0,0,0,2.747,2.746h.874a.549.549,0,0,0,0-1.1H17.55a1.65,1.65,0,0,1-1.643-1.648V17.438a1.65,1.65,0,0,1,1.648-1.648h4.5v2.2A1.65,1.65,0,0,0,23.7,19.635v1.184H20.265a1.65,1.65,0,0,0-1.648,1.648V51.379a1.65,1.65,0,0,0,1.648,1.648H39.889a1.65,1.65,0,0,0,1.648-1.648V22.466a1.65,1.65,0,0,0-1.648-1.648H36.447V19.635a1.65,1.65,0,0,0,1.648-1.648v-2.2h4.5a1.65,1.65,0,0,1,1.648,1.648V54.717A1.65,1.65,0,0,1,42.6,56.364H22.824a.549.549,0,1,0,0,1.1H42.6a2.749,2.749,0,0,0,2.746-2.746V49.167H54.9a2.7,2.7,0,0,0,2.747-2.648h0V19.978a.549.549,0,0,0-1.1,0V46.517A1.6,1.6,0,0,1,54.9,48.069H45.345V17.438A2.749,2.749,0,0,0,42.6,14.691H17.555a2.749,2.749,0,0,0-2.746,2.747V48.069H5.246A1.6,1.6,0,0,1,3.6,46.517V11.739H56.551v3.845a.549.549,0,0,0,1.1,0V4.913A2.749,2.749,0,0,0,54.9,2.167H5.247A2.749,2.749,0,0,0,2.5,4.913v41.6a2.7,2.7,0,0,0,2.747,2.65Zm34.643-27.25a.55.55,0,0,1,.549.549V51.379a.55.55,0,0,1-.549.549H20.265a.55.55,0,0,1-.549-.549V22.466a.55.55,0,0,1,.549-.549H23.7V23.26a1.65,1.65,0,0,0,1.648,1.648H34.8a1.65,1.65,0,0,0,1.648-1.648V21.917Zm-15.088,0H35.348V23.26a.55.55,0,0,1-.549.549H25.351a.55.55,0,0,1-.549-.549Zm10.547-1.1H24.8V19.635H35.348ZM37,17.987a.55.55,0,0,1-.549.549H23.7a.55.55,0,0,1-.549-.549v-2.2H37ZM5.247,3.266H54.9a1.65,1.65,0,0,1,1.648,1.648v5.726H3.6V4.913A1.65,1.65,0,0,1,5.247,3.266Z" transform="translate(-2.5 -2.167)"/>
        <circle id="Elipse_11995" data-name="Elipse 11995" cx="0.549" cy="0.549" r="0.549" transform="translate(54.051 15.065)"/>
        <path id="Trazado_993107" data-name="Trazado 993107" d="M19.717,19.037a1.925,1.925,0,1,0-1.925-1.925A1.927,1.927,0,0,0,19.717,19.037Zm0-2.751a.826.826,0,1,1-.826.826A.827.827,0,0,1,19.717,16.286Z" transform="translate(-14.432 -12.326)"/>
        <path id="Trazado_993108" data-name="Trazado 993108" d="M48.06,19.037a1.925,1.925,0,1,0-1.925-1.925,1.927,1.927,0,0,0,1.925,1.925Zm0-2.751a.826.826,0,1,1-.826.826A.827.827,0,0,1,48.06,16.286Z" transform="translate(-36.548 -12.326)"/>
        <path id="Trazado_993109" data-name="Trazado 993109" d="M76.4,19.037a1.925,1.925,0,1,0-1.925-1.925A1.927,1.927,0,0,0,76.4,19.037Zm0-2.751a.826.826,0,1,1-.826.826A.827.827,0,0,1,76.4,16.286Z" transform="translate(-58.663 -12.326)"/>
        <path id="Trazado_993110" data-name="Trazado 993110" d="M189.049,22.547h9.668a.549.549,0,0,0,0-1.1h-9.668a.549.549,0,0,0,0,1.1Z" transform="translate(-147.632 -17.212)"/>
        <circle id="Elipse_11996" data-name="Elipse 11996" cx="0.657" cy="0.657" r="0.657" transform="translate(17.07 53.983)"/>
        <path id="Trazado_993111" data-name="Trazado 993111" d="M219.984,152.564a1.673,1.673,0,0,0-1.671-1.671h-2.244a1.671,1.671,0,1,0,0,3.343h2.244A1.673,1.673,0,0,0,219.984,152.564Zm-4.489,0a.573.573,0,0,1,.573-.573h2.244a.573.573,0,1,1,0,1.146h-2.244A.573.573,0,0,1,215.5,152.564Z" transform="translate(-167.839 -118.215)"/>
        <path id="Trazado_993112" data-name="Trazado 993112" d="M211.613,178.757a1.673,1.673,0,0,0,0-2.364l-1.587-1.587a1.671,1.671,0,0,0-2.364,2.364l1.587,1.587A1.67,1.67,0,0,0,211.613,178.757Zm-3.174-2.364a.573.573,0,0,1,.81-.81l1.587,1.587a.573.573,0,0,1,0,.81.587.587,0,0,1-.81,0Z" transform="translate(-162.202 -136.493)"/>
        <path id="Trazado_993113" data-name="Trazado 993113" d="M210.026,124.689l1.587-1.587a1.671,1.671,0,0,0-2.364-2.364l-1.587,1.587a1.671,1.671,0,1,0,2.364,2.364Zm-1.587-1.587,1.587-1.587a.573.573,0,0,1,.81.81l-1.587,1.587a.573.573,0,0,1-.81-.81Z" transform="translate(-162.202 -94.304)"/>
        <path id="Trazado_993114" data-name="Trazado 993114" d="M21.762,153.731a1.673,1.673,0,0,0-1.671-1.671H17.846a1.671,1.671,0,1,0,0,3.343h2.244A1.673,1.673,0,0,0,21.762,153.731Zm-4.489,0a.573.573,0,0,1,.573-.573h2.244a.573.573,0,0,1,0,1.146H17.846A.573.573,0,0,1,17.274,153.731Z" transform="translate(-13.17 -119.126)"/>
        <path id="Trazado_993115" data-name="Trazado 993115" d="M30.828,123.491,29.241,121.9a1.671,1.671,0,1,0-2.364,2.364l1.587,1.587a1.671,1.671,0,0,0,2.364-2.364Zm-.777,1.587a.574.574,0,0,1-.81,0l-1.587-1.587a.573.573,0,1,1,.81-.81l1.587,1.587A.574.574,0,0,1,30.051,125.078Z" transform="translate(-21.139 -95.213)"/>
        <path id="Trazado_993116" data-name="Trazado 993116" d="M29.242,179.924l1.587-1.587a1.671,1.671,0,0,0-2.364-2.364l-1.587,1.587a1.671,1.671,0,1,0,2.363,2.364Zm-1.587-1.587,1.587-1.587a.573.573,0,0,1,.81.81l-1.587,1.587a.586.586,0,0,1-.81,0A.572.572,0,0,1,27.655,178.337Z" transform="translate(-21.139 -137.404)"/>
        <path id="Trazado_993117" data-name="Trazado 993117" d="M107.161,121.862l-5.408,5.408-1.96-1.96a2.038,2.038,0,0,0-2.883,2.883l3.4,3.4a2.04,2.04,0,0,0,2.881,0l0,0,.635-.635a.549.549,0,0,0,0-.776.561.561,0,0,0-.778,0l-.633.633,0,0a.941.941,0,0,1-1.329,0l-3.4-3.4a.94.94,0,0,1,1.329-1.329l2.349,2.349a.549.549,0,0,0,.777,0l5.8-5.8a.94.94,0,0,1,1.329,1.329l0,0-3.107,3.106a.549.549,0,0,0,.778.776l3.107-3.107,0,0a2.038,2.038,0,0,0-2.885-2.88Z" transform="translate(-75.701 -95.097)"/>
        <path id="Trazado_993118" data-name="Trazado 993118" d="M121.377,185.445h-9.409a.549.549,0,1,0,0,1.1h9.409a.549.549,0,1,0,0-1.1Z" transform="translate(-87.487 -145.175)"/>
        <path id="Trazado_993119" data-name="Trazado 993119" d="M97.58,185.445H96.43a.549.549,0,0,0,0,1.1h1.15a.549.549,0,0,0,0-1.1Z" transform="translate(-75.363 -145.175)"/>
        <path id="Trazado_993120" data-name="Trazado 993120" d="M121.377,200.739h-9.409a.549.549,0,1,0,0,1.1h9.409a.549.549,0,1,0,0-1.1Z" transform="translate(-87.487 -157.109)"/>
        <path id="Trazado_993121" data-name="Trazado 993121" d="M97.58,200.739H96.43a.549.549,0,0,0,0,1.1h1.15a.549.549,0,0,0,0-1.1Z" transform="translate(-75.363 -157.109)"/>
        <path id="Trazado_993122" data-name="Trazado 993122" d="M134.26,155a.549.549,0,0,0,0-.776.561.561,0,0,0-.778,0,.549.549,0,0,0,.778.776Z" transform="translate(-104.578 -120.692)"/>
      </g>
    </g>
  </g>
</svg>
