<svg xmlns="http://www.w3.org/2000/svg" xmlns:xlink="http://www.w3.org/1999/xlink" width="295" height="258" viewBox="0 0 295 258">
  <defs>
    <clipPath id="clip-path">
      <rect id="Rectángulo_411634" data-name="Rectángulo 411634" width="295" height="258" transform="translate(180 8169)" fill="#fff" stroke="#707070" stroke-width="1" opacity="0.62"/>
    </clipPath>
    <clipPath id="clip-path-2">
      <rect id="Rectángulo_411632" data-name="Rectángulo 411632" width="318" height="318" fill="none"/>
    </clipPath>
    <clipPath id="clip-path-3">
      <rect id="Rectángulo_411612" data-name="Rectángulo 411612" width="51.613" height="49.412" fill="none"/>
    </clipPath>
    <clipPath id="clip-path-4">
      <rect id="Rectángulo_411613" data-name="Rectángulo 411613" width="59.418" height="56.884" fill="none"/>
    </clipPath>
    <clipPath id="clip-path-7">
      <rect id="Rectángulo_411616" data-name="Rectángulo 411616" width="56.253" height="53.854" fill="none"/>
    </clipPath>
    <clipPath id="clip-path-8">
      <rect id="Rectángulo_411617" data-name="Rectángulo 411617" width="59.418" height="56.885" fill="none"/>
    </clipPath>
    <clipPath id="clip-path-9">
      <rect id="Rectángulo_411630" data-name="Rectángulo 411630" width="51.935" height="49.721" fill="none"/>
    </clipPath>
    <clipPath id="clip-path-10">
      <rect id="Rectángulo_411631" data-name="Rectángulo 411631" width="56.514" height="54.104" fill="none"/>
    </clipPath>
  </defs>
  <g id="Enmascarar_grupo_1098664" data-name="Enmascarar grupo 1098664" transform="translate(-180 -8169)" clip-path="url(#clip-path)">
    <g id="Grupo_1161560" data-name="Grupo 1161560" transform="translate(-4310 189)">
      <g id="Grupo_1161559" data-name="Grupo 1161559" transform="translate(4480 7951)">
        <g id="Grupo_1161558" data-name="Grupo 1161558" clip-path="url(#clip-path-2)">
          <path id="Trazado_995092" data-name="Trazado 995092" d="M299.564,183.538A116.026,116.026,0,1,1,183.538,67.512,116.026,116.026,0,0,1,299.564,183.538" transform="translate(-24.587 -24.588)" fill="#ded7ff"/>
          <circle id="Elipse_12030" data-name="Elipse 12030" cx="47.979" cy="47.979" r="47.979" transform="translate(15.262 80.395)" fill="none" stroke="#ffc655" stroke-linecap="round" stroke-linejoin="round" stroke-width="2" stroke-dasharray="6 6"/>
          <circle id="Elipse_12031" data-name="Elipse 12031" cx="56.301" cy="56.301" r="56.301" transform="translate(189.895 153.162) rotate(-0.145)" fill="none" stroke="#ffc655" stroke-linecap="round" stroke-linejoin="round" stroke-width="2" stroke-dasharray="6 6"/>
          <path id="Trazado_995093" data-name="Trazado 995093" d="M281.148,139.553V269.646a8.123,8.123,0,0,1-8.129,8.119H130.66a8.123,8.123,0,0,1-8.128-8.119V139.553a8.125,8.125,0,0,1,8.128-8.129H273.02a8.125,8.125,0,0,1,8.129,8.129" transform="translate(-44.626 -47.864)" fill="#d42190"/>
          <path id="Trazado_995094" data-name="Trazado 995094" d="M122.532,149.719V279.351a5.077,5.077,0,0,0,5.078,5.077H276.08a5.068,5.068,0,0,0,5.069-5.068V149.719Z" transform="translate(-44.626 -54.527)" fill="#b19cfe"/>
          <path id="Trazado_995095" data-name="Trazado 995095" d="M138.655,140.84a1.541,1.541,0,1,1-1.541-1.541,1.542,1.542,0,0,1,1.541,1.541" transform="translate(-49.375 -50.733)" fill="#ffc655"/>
          <path id="Trazado_995096" data-name="Trazado 995096" d="M153.747,140.84a1.542,1.542,0,1,1-1.542-1.541,1.542,1.542,0,0,1,1.542,1.541" transform="translate(-54.872 -50.733)" fill="#ffc655"/>
          <path id="Trazado_995097" data-name="Trazado 995097" d="M168.84,140.84A1.542,1.542,0,1,1,167.3,139.3a1.542,1.542,0,0,1,1.542,1.541" transform="translate(-60.368 -50.733)" fill="#ffc655"/>
          <path id="Trazado_995098" data-name="Trazado 995098" d="M183.931,140.84a1.541,1.541,0,1,1-1.542-1.541,1.542,1.542,0,0,1,1.542,1.541" transform="translate(-65.865 -50.733)" fill="#ffc655"/>
          <path id="Trazado_995099" data-name="Trazado 995099" d="M355.3,140.666l1.45-1.411a.265.265,0,0,0,.019-.35.213.213,0,0,0-.32-.021l-1.491,1.45-1.491-1.45a.213.213,0,0,0-.32.021.265.265,0,0,0,.019.35l1.45,1.411-1.45,1.411a.265.265,0,0,0-.019.35.213.213,0,0,0,.32.021l1.491-1.45,1.491,1.45a.213.213,0,0,0,.32-.021.265.265,0,0,0-.019-.35Z" transform="translate(-128.595 -50.559)" fill="#ffc655"/>
          <g id="Grupo_1161536" data-name="Grupo 1161536" transform="translate(57.633 65.284)" style="mix-blend-mode: multiply;isolation: isolate">
            <g id="Grupo_1161535" data-name="Grupo 1161535">
              <g id="Grupo_1161534" data-name="Grupo 1161534" clip-path="url(#clip-path-3)">
                <path id="Trazado_995100" data-name="Trazado 995100" d="M135.523,152.092H97.382a6.736,6.736,0,0,1-6.736-6.736v-35.94a6.736,6.736,0,0,1,6.736-6.736h38.14a6.736,6.736,0,0,1,6.736,6.736v35.94a6.736,6.736,0,0,1-6.736,6.736" transform="translate(-90.646 -102.68)" fill="#eaeaea"/>
              </g>
            </g>
          </g>
          <g id="Grupo_1161539" data-name="Grupo 1161539" transform="translate(223.355 129.915)" style="mix-blend-mode: multiply;isolation: isolate">
            <g id="Grupo_1161538" data-name="Grupo 1161538">
              <g id="Grupo_1161537" data-name="Grupo 1161537" clip-path="url(#clip-path-4)">
                <path id="Trazado_995101" data-name="Trazado 995101" d="M403.978,261.216H358.033a6.736,6.736,0,0,1-6.736-6.736V211.067a6.736,6.736,0,0,1,6.736-6.736h45.946a6.737,6.737,0,0,1,6.736,6.736v43.412a6.736,6.736,0,0,1-6.736,6.736" transform="translate(-351.297 -204.332)" fill="#eaeaea"/>
              </g>
            </g>
          </g>
          <g id="Grupo_1161542" data-name="Grupo 1161542" transform="translate(187.338 194.328)" style="mix-blend-mode: multiply;isolation: isolate">
            <g id="Grupo_1161541" data-name="Grupo 1161541">
              <g id="Grupo_1161540" data-name="Grupo 1161540" clip-path="url(#clip-path-4)">
                <path id="Trazado_995102" data-name="Trazado 995102" d="M347.33,362.527H301.385a6.736,6.736,0,0,1-6.736-6.736V312.379a6.736,6.736,0,0,1,6.736-6.736H347.33a6.737,6.737,0,0,1,6.736,6.736v43.412a6.736,6.736,0,0,1-6.736,6.736" transform="translate(-294.648 -305.643)" fill="#eaeaea"/>
              </g>
            </g>
          </g>
          <g id="Grupo_1161545" data-name="Grupo 1161545" transform="translate(68.344 204.614)" style="mix-blend-mode: multiply;isolation: isolate">
            <g id="Grupo_1161544" data-name="Grupo 1161544">
              <g id="Grupo_1161543" data-name="Grupo 1161543" clip-path="url(#clip-path-4)">
                <path id="Trazado_995103" data-name="Trazado 995103" d="M160.175,378.7H114.229a6.736,6.736,0,0,1-6.736-6.736V328.556a6.737,6.737,0,0,1,6.736-6.736h45.946a6.737,6.737,0,0,1,6.736,6.736v43.412a6.736,6.736,0,0,1-6.736,6.736" transform="translate(-107.493 -321.821)" fill="#eaeaea"/>
              </g>
            </g>
          </g>
          <g id="Grupo_1161548" data-name="Grupo 1161548" transform="translate(29.427 141.12)" style="mix-blend-mode: multiply;isolation: isolate">
            <g id="Grupo_1161547" data-name="Grupo 1161547">
              <g id="Grupo_1161546" data-name="Grupo 1161546" clip-path="url(#clip-path-7)">
                <path id="Trazado_995104" data-name="Trazado 995104" d="M95.8,275.81H53.02a6.736,6.736,0,0,1-6.736-6.736V228.692a6.736,6.736,0,0,1,6.736-6.736H95.8a6.736,6.736,0,0,1,6.736,6.736v40.382A6.736,6.736,0,0,1,95.8,275.81" transform="translate(-46.284 -221.956)" fill="#eaeaea"/>
              </g>
            </g>
          </g>
          <g id="Grupo_1161551" data-name="Grupo 1161551" transform="translate(187.128 46.962)" style="mix-blend-mode: multiply;isolation: isolate">
            <g id="Grupo_1161550" data-name="Grupo 1161550">
              <g id="Grupo_1161549" data-name="Grupo 1161549" clip-path="url(#clip-path-8)">
                <path id="Trazado_995105" data-name="Trazado 995105" d="M347,130.747H301.055a6.736,6.736,0,0,1-6.736-6.736V80.6a6.736,6.736,0,0,1,6.736-6.736H347a6.737,6.737,0,0,1,6.736,6.736V124.01A6.736,6.736,0,0,1,347,130.747" transform="translate(-294.319 -73.862)" fill="#eaeaea"/>
              </g>
            </g>
          </g>
          <path id="Trazado_995106" data-name="Trazado 995106" d="M407.172,138.35h-7.3a25.105,25.105,0,0,0-1.787-4.158l5.023-5.293a4.856,4.856,0,0,0-.179-6.865l-4.314-4.095a4.856,4.856,0,0,0-6.865.179l-5.023,5.292a25.005,25.005,0,0,0-2.986-1.191v-7.3a4.856,4.856,0,0,0-4.856-4.856H372.94a4.856,4.856,0,0,0-4.856,4.856v7.3a25.043,25.043,0,0,0-2.985,1.191l-5.023-5.292a4.856,4.856,0,0,0-6.865-.179l-4.314,4.095a4.856,4.856,0,0,0-.179,6.865l5.023,5.293a25.113,25.113,0,0,0-1.787,4.158h-7.3a4.857,4.857,0,0,0-4.856,4.856v5.948a4.856,4.856,0,0,0,4.856,4.856h7.3a25.1,25.1,0,0,0,1.787,4.158l-5.023,5.292a4.856,4.856,0,0,0,.179,6.865l4.314,4.1a4.856,4.856,0,0,0,6.865-.179l5.023-5.292a25.152,25.152,0,0,0,2.985,1.191v7.3a4.857,4.857,0,0,0,4.856,4.856h5.949a4.856,4.856,0,0,0,4.856-4.856v-7.3a25.113,25.113,0,0,0,2.986-1.191l5.023,5.292a4.856,4.856,0,0,0,6.865.179l4.314-4.1a4.856,4.856,0,0,0,.179-6.865l-5.023-5.292a25.089,25.089,0,0,0,1.787-4.158h7.3a4.856,4.856,0,0,0,4.856-4.856v-5.948A4.856,4.856,0,0,0,407.172,138.35Zm-31.257,24a16.17,16.17,0,1,1,16.17-16.17A16.187,16.187,0,0,1,375.915,162.35Z" transform="translate(-123.755 -40.086)" fill="none" stroke="#09136e" stroke-miterlimit="10" stroke-width="1.5"/>
          <path id="Trazado_995107" data-name="Trazado 995107" d="M113.655,303.066h-7.3a25.109,25.109,0,0,0-1.787-4.158l5.023-5.293a4.856,4.856,0,0,0-.179-6.865l-4.315-4.095a4.855,4.855,0,0,0-6.865.179l-5.023,5.292a25.012,25.012,0,0,0-2.986-1.191v-7.3a4.856,4.856,0,0,0-4.856-4.856H79.423a4.856,4.856,0,0,0-4.856,4.856v7.3a25.045,25.045,0,0,0-2.985,1.191l-5.023-5.292a4.856,4.856,0,0,0-6.865-.179l-4.314,4.095a4.856,4.856,0,0,0-.179,6.865l5.023,5.293a25.107,25.107,0,0,0-1.787,4.158h-7.3a4.856,4.856,0,0,0-4.856,4.856v5.948a4.856,4.856,0,0,0,4.856,4.856h7.3a25.108,25.108,0,0,0,1.787,4.158L55.2,328.177a4.856,4.856,0,0,0,.179,6.865l4.314,4.1a4.857,4.857,0,0,0,6.865-.179l5.023-5.292a25.042,25.042,0,0,0,2.985,1.191v7.3a4.857,4.857,0,0,0,4.856,4.856h5.949a4.856,4.856,0,0,0,4.856-4.856v-7.3a25.009,25.009,0,0,0,2.986-1.191l5.023,5.292a4.856,4.856,0,0,0,6.865.179l4.315-4.1a4.856,4.856,0,0,0,.179-6.865l-5.023-5.292a25.11,25.11,0,0,0,1.787-4.158h7.3a4.856,4.856,0,0,0,4.856-4.856v-5.948a4.857,4.857,0,0,0-4.856-4.856m-31.257,24a16.17,16.17,0,1,1,16.17-16.17,16.187,16.187,0,0,1-16.17,16.17" transform="translate(-16.857 -100.076)" fill="#09136e"/>
          <path id="Trazado_995108" data-name="Trazado 995108" d="M411.122,254.368H365.176a6.736,6.736,0,0,1-6.736-6.736V204.219a6.737,6.737,0,0,1,6.736-6.736h45.946a6.737,6.737,0,0,1,6.736,6.736v43.412a6.736,6.736,0,0,1-6.736,6.736" transform="translate(-130.543 -71.923)" fill="#d42190"/>
          <path id="Trazado_995109" data-name="Trazado 995109" d="M397.006,222.018l-2.725-.38a9.424,9.424,0,0,0-.451-1.646l2.152-1.715a1.832,1.832,0,0,0,.291-2.574l-1.4-1.754a1.83,1.83,0,0,0-2.573-.291l-2.152,1.715a9.459,9.459,0,0,0-1.053-.6l.38-2.725a1.831,1.831,0,0,0-1.56-2.066l-2.221-.31a1.832,1.832,0,0,0-2.067,1.56l-.38,2.725a9.633,9.633,0,0,0-1.177.289l-1.6-2.238a1.831,1.831,0,0,0-2.555-.425l-1.825,1.3a1.831,1.831,0,0,0-.425,2.555l1.6,2.239a9.437,9.437,0,0,0-.884,1.46l-2.725-.38a1.831,1.831,0,0,0-2.067,1.56l-.31,2.221a1.831,1.831,0,0,0,1.56,2.067l2.725.38a9.433,9.433,0,0,0,.451,1.646l-2.152,1.715a1.831,1.831,0,0,0-.291,2.573l1.4,1.754a1.831,1.831,0,0,0,2.573.291l2.152-1.715a9.357,9.357,0,0,0,1.053.6l-.38,2.726a1.831,1.831,0,0,0,1.56,2.066l2.221.31a1.832,1.832,0,0,0,2.067-1.561l.38-2.725a9.4,9.4,0,0,0,1.177-.289l1.6,2.239a1.831,1.831,0,0,0,2.555.425l1.825-1.3a1.831,1.831,0,0,0,.425-2.555l-1.6-2.239a9.429,9.429,0,0,0,.884-1.459l2.725.38a1.831,1.831,0,0,0,2.067-1.561l.31-2.221a1.831,1.831,0,0,0-1.561-2.066m-12.925,7.334a6.1,6.1,0,1,1,6.882-5.2,6.1,6.1,0,0,1-6.882,5.2" transform="translate(-135.214 -76.355)" fill="#fff"/>
          <path id="Trazado_995110" data-name="Trazado 995110" d="M425.418,250.528l-2.16-.3a7.537,7.537,0,0,0-.357-1.3l1.705-1.359a1.451,1.451,0,0,0,.231-2.039l-1.108-1.391a1.451,1.451,0,0,0-2.039-.23l-1.705,1.359a7.53,7.53,0,0,0-.835-.476l.3-2.16a1.451,1.451,0,0,0-1.237-1.638l-1.76-.246a1.452,1.452,0,0,0-1.638,1.237l-.3,2.159a7.54,7.54,0,0,0-.933.23l-1.268-1.774a1.451,1.451,0,0,0-2.024-.337l-1.446,1.034a1.45,1.45,0,0,0-.336,2.024l1.268,1.775a7.482,7.482,0,0,0-.7,1.156l-2.159-.3a1.452,1.452,0,0,0-1.638,1.237l-.245,1.761a1.451,1.451,0,0,0,1.237,1.638l2.16.3a7.5,7.5,0,0,0,.357,1.3l-1.706,1.359a1.451,1.451,0,0,0-.23,2.04l1.108,1.39a1.451,1.451,0,0,0,2.039.231l1.706-1.359a7.425,7.425,0,0,0,.834.476l-.3,2.16a1.451,1.451,0,0,0,1.237,1.638l1.761.245a1.451,1.451,0,0,0,1.638-1.237l.3-2.16a7.421,7.421,0,0,0,.933-.229l1.268,1.774a1.451,1.451,0,0,0,2.024.336l1.446-1.034a1.451,1.451,0,0,0,.337-2.024l-1.268-1.774a7.52,7.52,0,0,0,.7-1.157l2.159.3a1.451,1.451,0,0,0,1.638-1.237l.246-1.761a1.452,1.452,0,0,0-1.237-1.638m-10.243,5.812a4.832,4.832,0,1,1,5.454-4.118,4.838,4.838,0,0,1-5.454,4.118" transform="translate(-147.507 -87.673)" fill="#fff"/>
          <path id="Trazado_995111" data-name="Trazado 995111" d="M355.615,371.311H309.669a6.736,6.736,0,0,1-6.736-6.736V321.163a6.737,6.737,0,0,1,6.736-6.736h45.946a6.737,6.737,0,0,1,6.736,6.736v43.412a6.736,6.736,0,0,1-6.736,6.736" transform="translate(-110.328 -114.514)" fill="#542fd0"/>
          <path id="Trazado_995112" data-name="Trazado 995112" d="M351.614,344.263a5.12,5.12,0,1,1-5.119-5.119,5.119,5.119,0,0,1,5.119,5.119" transform="translate(-124.328 -123.516)" fill="#b19cfe"/>
          <path id="Trazado_995113" data-name="Trazado 995113" d="M348.97,354.23a6.24,6.24,0,0,1-8.7,0,7.978,7.978,0,0,0-4.041,6.879v4.52h16.779v-4.52a7.978,7.978,0,0,0-4.041-6.879" transform="translate(-122.455 -129.01)" fill="#b19cfe"/>
          <path id="Trazado_995114" data-name="Trazado 995114" d="M380.089,351.286a5.12,5.12,0,1,1-5.119-5.119,5.119,5.119,0,0,1,5.119,5.119" transform="translate(-134.698 -126.074)" fill="#b19cfe"/>
          <path id="Trazado_995115" data-name="Trazado 995115" d="M377.444,361.252a6.24,6.24,0,0,1-8.7,0,7.978,7.978,0,0,0-4.041,6.879v4.52h16.779v-4.52a7.978,7.978,0,0,0-4.041-6.879" transform="translate(-132.825 -131.567)" fill="#b19cfe"/>
          <path id="Trazado_995116" data-name="Trazado 995116" d="M323.607,351.286a5.12,5.12,0,1,1-5.119-5.119,5.119,5.119,0,0,1,5.119,5.119" transform="translate(-114.128 -126.074)" fill="#b19cfe"/>
          <path id="Trazado_995117" data-name="Trazado 995117" d="M320.962,361.252a6.24,6.24,0,0,1-8.7,0,7.979,7.979,0,0,0-4.042,6.879v4.52H325v-4.52a7.978,7.978,0,0,0-4.041-6.879" transform="translate(-112.255 -131.567)" fill="#b19cfe"/>
          <path id="Trazado_995118" data-name="Trazado 995118" d="M355.829,124.539H309.883a6.736,6.736,0,0,1-6.736-6.736V74.39a6.737,6.737,0,0,1,6.736-6.736h45.946a6.737,6.737,0,0,1,6.736,6.736V117.8a6.736,6.736,0,0,1-6.736,6.736" transform="translate(-110.406 -24.639)" fill="#d42190"/>
          <path id="Trazado_995119" data-name="Trazado 995119" d="M353.873,89.671c-.249-.32-.514-.626-.778-.93a19.028,19.028,0,0,0-28.256,0c-.264.3-.521.61-.77.93a18.977,18.977,0,0,0,.329,24.043c.257.313.53.618.819.907a18.981,18.981,0,0,0,27.5,0c.289-.289.561-.594.818-.907a18.963,18.963,0,0,0,.337-24.043m-1.348,23.378c-.264.313-.545.618-.834.907a17.646,17.646,0,0,1-8.528,4.854,16.578,16.578,0,0,1-3.594.489c-.2.017-.4.017-.6.017s-.4,0-.6-.017a16.981,16.981,0,0,1-3.586-.481,17.779,17.779,0,0,1-8.536-4.861c-.289-.289-.562-.594-.827-.915a17.624,17.624,0,0,1-4.26-10.95c-.016-.2-.016-.4-.016-.6s0-.4.016-.6a17.644,17.644,0,0,1,3.907-10.533c.249-.313.513-.626.794-.923a17.813,17.813,0,0,1,8.921-5.271,16.981,16.981,0,0,1,3.586-.481c.2-.017.4-.017.6-.017s.4,0,.6.017a16.579,16.579,0,0,1,3.594.489,17.827,17.827,0,0,1,8.921,5.255c.273.3.537.61.794.931a17.644,17.644,0,0,1,3.907,10.533c.016.2.016.4.016.6s0,.4-.016.6a17.7,17.7,0,0,1-4.26,10.959" transform="translate(-116.521 -30.031)" fill="#fff"/>
          <path id="Trazado_995120" data-name="Trazado 995120" d="M354.124,100.885a33.393,33.393,0,0,0-1.043-8.005c-.1-.4-.2-.795-.321-1.171a16.19,16.19,0,0,0-4.4-7.541,6,6,0,0,0-8.384-.008,16.154,16.154,0,0,0-4.4,7.549c-.121.376-.233.77-.337,1.171a33.827,33.827,0,0,0-1.035,8.005c-.008.2-.008.4-.008.6s0,.4.008.6a33.756,33.756,0,0,0,1.2,8.6c.113.393.233.778.361,1.146a15.737,15.737,0,0,0,4.212,6.98,6,6,0,0,0,8.384-.008,15.75,15.75,0,0,0,4.22-6.963c.121-.377.241-.762.353-1.155a33.7,33.7,0,0,0,1.2-8.6c.008-.2.008-.4.008-.6s0-.4-.008-.6m-2.342,9.419c-.113.394-.233.779-.353,1.156-1.476,4.42-3.9,7.429-6.667,7.806a3.768,3.768,0,0,1-1.2,0c-2.768-.377-5.191-3.393-6.659-7.814-.121-.377-.241-.762-.353-1.155a32.64,32.64,0,0,1-1.139-8.207c-.008-.2-.008-.4-.008-.6s0-.4.008-.6a32.96,32.96,0,0,1,.979-7.613c.1-.4.217-.786.329-1.162,1.445-4.742,3.955-8.007,6.844-8.4a3.767,3.767,0,0,1,1.2,0c2.9.393,5.407,3.658,6.851,8.4.12.376.224.762.321,1.162a32.535,32.535,0,0,1,.987,7.613c.008.2.008.4.008.6s0,.4-.008.6a32.75,32.75,0,0,1-1.139,8.215" transform="translate(-121.714 -30.031)" fill="#fff"/>
          <path id="Trazado_995121" data-name="Trazado 995121" d="M355.462,92.339c-.329.241-.666.473-1.011.682a23.392,23.392,0,0,1-4.517,2.287c-.377.144-.762.28-1.147.4a23.6,23.6,0,0,1-6.851,1.155c-.2.017-.4.017-.6.017s-.4,0-.6-.017a23.546,23.546,0,0,1-6.843-1.155c-.385-.12-.762-.249-1.139-.4a23.2,23.2,0,0,1-4.525-2.279c-.345-.217-.682-.441-1.019-.69-.265.3-.521.61-.77.931.329.24.658.465.995.682a25.727,25.727,0,0,0,4.982,2.527c.377.136.762.273,1.147.393a25.269,25.269,0,0,0,7.172,1.2c.2.008.4.008.6.008s.4,0,.6-.008a25.274,25.274,0,0,0,7.172-1.2c.385-.12.77-.257,1.147-.393a26.038,26.038,0,0,0,4.99-2.527c.337-.216.666-.449,1-.682-.249-.321-.514-.626-.778-.931" transform="translate(-118.888 -33.63)" fill="#fff"/>
          <path id="Trazado_995122" data-name="Trazado 995122" d="M355.08,128.333a25.8,25.8,0,0,0-4.79-2.359c-.377-.136-.762-.264-1.147-.385a25.346,25.346,0,0,0-7.02-1.155c-.2-.008-.4-.008-.6-.008s-.4,0-.6.008a25.6,25.6,0,0,0-7.012,1.147c-.385.128-.77.257-1.147.393a25.788,25.788,0,0,0-4.789,2.351c-.345.217-.682.441-1.019.674.257.313.53.618.819.907.336-.233.673-.457,1.027-.666a23.975,23.975,0,0,1,4.324-2.118c.377-.137.754-.265,1.139-.385a23.771,23.771,0,0,1,6.659-1.091c.2-.016.4-.016.6-.016s.4,0,.6.016a23.811,23.811,0,0,1,6.667,1.1c.385.112.77.249,1.147.385a23.865,23.865,0,0,1,4.308,2.11c.353.209.69.433,1.027.666.289-.289.561-.594.818-.907-.329-.224-.666-.449-1.011-.666" transform="translate(-119.076 -45.316)" fill="#fff"/>
          <rect id="Rectángulo_411618" data-name="Rectángulo 411618" width="36.861" height="1.204" transform="translate(204.019 70.854)" fill="#fff"/>
          <rect id="Rectángulo_411619" data-name="Rectángulo 411619" width="1.204" height="36.861" transform="translate(221.847 53.026)" fill="#fff"/>
          <path id="Trazado_995123" data-name="Trazado 995123" d="M90.438,271.039H49.194a6.736,6.736,0,0,1-6.736-6.736V225.392a6.736,6.736,0,0,1,6.736-6.736H90.438a6.736,6.736,0,0,1,6.736,6.736V264.3a6.736,6.736,0,0,1-6.736,6.736" transform="translate(-15.463 -79.634)" fill="#d42190"/>
          <rect id="Rectángulo_411620" data-name="Rectángulo 411620" width="21.023" height="3.735" transform="translate(32.648 143.279)" fill="#fff"/>
          <rect id="Rectángulo_411621" data-name="Rectángulo 411621" width="3.644" height="3.735" transform="translate(62.643 143.279)" fill="#ffc655"/>
          <rect id="Rectángulo_411622" data-name="Rectángulo 411622" width="3.644" height="3.735" transform="translate(67.528 143.279)" fill="#ffc655"/>
          <rect id="Rectángulo_411623" data-name="Rectángulo 411623" width="3.644" height="3.735" transform="translate(72.414 143.279)" fill="#ffc655"/>
          <path id="Trazado_995124" data-name="Trazado 995124" d="M130.086,146.66H91.945a6.736,6.736,0,0,1-6.736-6.736v-35.94a6.736,6.736,0,0,1,6.736-6.736h38.14a6.736,6.736,0,0,1,6.736,6.736v35.94a6.736,6.736,0,0,1-6.736,6.736" transform="translate(-31.033 -35.418)" fill="#542fd0"/>
          <path id="Trazado_995125" data-name="Trazado 995125" d="M95.112,159.926v3.126c0,.7,5.285,1.265,11.8,1.265s11.8-.567,11.8-1.265v-3.126Z" transform="translate(-34.64 -58.245)" fill="#ffc655"/>
          <path id="Trazado_995126" data-name="Trazado 995126" d="M118.721,159.2c0,.7-5.285,1.265-11.8,1.265s-11.8-.566-11.8-1.265,5.285-1.265,11.8-1.265,11.8.566,11.8,1.265" transform="translate(-34.639 -57.52)" fill="#ccc"/>
          <path id="Trazado_995127" data-name="Trazado 995127" d="M95.112,155.077V158.2c0,.7,5.285,1.265,11.8,1.265s11.8-.566,11.8-1.265v-3.126Z" transform="translate(-34.64 -56.479)" fill="#fff"/>
          <path id="Trazado_995128" data-name="Trazado 995128" d="M118.721,154.352c0,.7-5.285,1.265-11.8,1.265s-11.8-.566-11.8-1.265,5.285-1.265,11.8-1.265,11.8.567,11.8,1.265" transform="translate(-34.639 -55.754)" fill="#ccc"/>
          <path id="Trazado_995129" data-name="Trazado 995129" d="M95.112,150.227v3.126c0,.7,5.285,1.265,11.8,1.265s11.8-.567,11.8-1.265v-3.126Z" transform="translate(-34.64 -54.713)" fill="#ffc655"/>
          <path id="Trazado_995130" data-name="Trazado 995130" d="M118.721,149.5c0,.7-5.285,1.265-11.8,1.265s-11.8-.566-11.8-1.265,5.285-1.265,11.8-1.265,11.8.566,11.8,1.265" transform="translate(-34.639 -53.988)" fill="#ccc"/>
          <path id="Trazado_995131" data-name="Trazado 995131" d="M95.112,140.528v3.126c0,.7,5.285,1.265,11.8,1.265s11.8-.566,11.8-1.265v-3.126Z" transform="translate(-34.64 -51.18)" fill="#ffc655"/>
          <path id="Trazado_995132" data-name="Trazado 995132" d="M118.721,139.8c0,.7-5.285,1.265-11.8,1.265s-11.8-.566-11.8-1.265,5.285-1.265,11.8-1.265,11.8.566,11.8,1.265" transform="translate(-34.639 -50.455)" fill="#ccc"/>
          <path id="Trazado_995133" data-name="Trazado 995133" d="M95.112,145.378V148.5c0,.7,5.285,1.265,11.8,1.265s11.8-.567,11.8-1.265v-3.126Z" transform="translate(-34.64 -52.946)" fill="#fff"/>
          <path id="Trazado_995134" data-name="Trazado 995134" d="M118.721,144.653c0,.7-5.285,1.265-11.8,1.265s-11.8-.566-11.8-1.265,5.285-1.265,11.8-1.265,11.8.567,11.8,1.265" transform="translate(-34.639 -52.222)" fill="#ffc655"/>
          <path id="Trazado_995135" data-name="Trazado 995135" d="M95.112,135.679V138.8c0,.7,5.285,1.265,11.8,1.265s11.8-.567,11.8-1.265v-3.126Z" transform="translate(-34.64 -49.414)" fill="#fff"/>
          <path id="Trazado_995136" data-name="Trazado 995136" d="M118.721,134.954c0,.7-5.285,1.265-11.8,1.265s-11.8-.566-11.8-1.265,5.285-1.265,11.8-1.265,11.8.567,11.8,1.265" transform="translate(-34.639 -48.689)" fill="#ffc655"/>
          <path id="Trazado_995137" data-name="Trazado 995137" d="M142.6,117.5a12.116,12.116,0,1,1-12.116-12.116A12.116,12.116,0,0,1,142.6,117.5" transform="translate(-43.111 -38.379)" fill="#ffc655"/>
          <path id="Trazado_995138" data-name="Trazado 995138" d="M131.323,128.99a10.659,10.659,0,1,1,10.659-10.659,10.67,10.67,0,0,1-10.659,10.659m0-20.4a9.741,9.741,0,1,0,9.742,9.742,9.752,9.752,0,0,0-9.742-9.742" transform="translate(-43.946 -39.214)" fill="#fff"/>
          <path id="Trazado_995139" data-name="Trazado 995139" d="M152.433,385.187H106.488a6.735,6.735,0,0,1-6.736-6.735V335.039a6.737,6.737,0,0,1,6.736-6.736h45.946a6.737,6.737,0,0,1,6.736,6.736v43.413a6.736,6.736,0,0,1-6.736,6.735" transform="translate(-36.33 -119.568)" fill="#542fd0"/>
          <rect id="Rectángulo_411624" data-name="Rectángulo 411624" width="3.995" height="13.502" transform="translate(84.597 236.625)" fill="#b19cfe"/>
          <rect id="Rectángulo_411625" data-name="Rectángulo 411625" width="3.995" height="24.424" transform="translate(103.362 225.702)" fill="#b19cfe"/>
          <rect id="Rectángulo_411626" data-name="Rectángulo 411626" width="3.995" height="9.475" transform="translate(90.871 240.652)" fill="#b19cfe"/>
          <rect id="Rectángulo_411627" data-name="Rectángulo 411627" width="3.995" height="20.834" transform="translate(109.227 229.293)" fill="#b19cfe"/>
          <rect id="Rectángulo_411628" data-name="Rectángulo 411628" width="3.394" height="9.475" transform="translate(79.389 240.652)" fill="#b19cfe"/>
          <rect id="Rectángulo_411629" data-name="Rectángulo 411629" width="3.995" height="19.721" transform="translate(96.981 230.405)" fill="#b19cfe"/>
          <path id="Trazado_995140" data-name="Trazado 995140" d="M119.25,381.3a.248.248,0,0,1-.248-.248V342.866a.248.248,0,0,1,.5,0v38.187a.248.248,0,0,1-.248.248" transform="translate(-43.34 -124.781)" fill="#b19cfe"/>
          <path id="Trazado_995141" data-name="Trazado 995141" d="M152.921,398.944H114.734a.248.248,0,0,1,0-.5h38.187a.248.248,0,0,1,0,.5" transform="translate(-41.696 -145.114)" fill="#b19cfe"/>
          <path id="Trazado_995142" data-name="Trazado 995142" d="M126.162,359.66a.248.248,0,0,1-.165-.433l6.291-5.59a.245.245,0,0,1,.32-.007l5.763,4.67,12.66-14.308a.251.251,0,0,1,.175-.084.261.261,0,0,1,.181.068l6.378,6.01a.247.247,0,1,1-.34.36l-6.193-5.835-12.648,14.3a.248.248,0,0,1-.342.028l-5.784-4.687-6.134,5.45a.247.247,0,0,1-.165.062" transform="translate(-45.858 -125.25)" fill="#b19cfe"/>
          <path id="Trazado_995143" data-name="Trazado 995143" d="M429.377,312.231H419.083a.43.43,0,1,1,0-.86h10.294a.43.43,0,0,1,0,.86" transform="translate(-152.473 -113.401)" fill="#b19cfe"/>
          <path id="Trazado_995144" data-name="Trazado 995144" d="M405.329,312.231h-7.684a.43.43,0,0,1,0-.86h7.684a.43.43,0,0,1,0,.86" transform="translate(-144.666 -113.401)" fill="#b19cfe"/>
          <path id="Trazado_995145" data-name="Trazado 995145" d="M403.536,302.429h-17.1a.43.43,0,1,1,0-.86h17.1a.43.43,0,0,1,0,.86" transform="translate(-140.581 -109.831)" fill="#b19cfe"/>
          <path id="Trazado_995146" data-name="Trazado 995146" d="M106.375,191.9H94.685a.43.43,0,0,1,0-.86h11.69a.43.43,0,0,1,0,.86" transform="translate(-34.328 -69.575)" fill="#b19cfe"/>
          <path id="Trazado_995147" data-name="Trazado 995147" d="M79.006,191.9H67.637a.43.43,0,0,1,0-.86H79.006a.43.43,0,0,1,0,.86" transform="translate(-24.477 -69.575)" fill="#b19cfe"/>
          <path id="Trazado_995148" data-name="Trazado 995148" d="M104.638,199.74H85.089a.43.43,0,0,1,0-.86h19.55a.43.43,0,0,1,0,.86" transform="translate(-30.833 -72.432)" fill="#b19cfe"/>
          <path id="Trazado_995149" data-name="Trazado 995149" d="M314.148,424.446H298.572a.43.43,0,0,1,0-.86h15.576a.43.43,0,0,1,0,.86" transform="translate(-108.583 -154.269)" fill="#b19cfe"/>
          <path id="Trazado_995150" data-name="Trazado 995150" d="M325.819,414.754H302.937a.43.43,0,1,1,0-.86h22.881a.43.43,0,0,1,0,.86" transform="translate(-110.173 -150.74)" fill="#b19cfe"/>
          <path id="Trazado_995151" data-name="Trazado 995151" d="M291.48,414.754h-8.609a.43.43,0,1,1,0-.86h8.609a.43.43,0,1,1,0,.86" transform="translate(-102.865 -150.74)" fill="#b19cfe"/>
          <path id="Trazado_995152" data-name="Trazado 995152" d="M185.342,90.524H163.775a.43.43,0,0,1,0-.86h21.567a.43.43,0,0,1,0,.86" transform="translate(-59.49 -32.656)" fill="#b19cfe"/>
          <path id="Trazado_995153" data-name="Trazado 995153" d="M199.8,99.928H181.2a.43.43,0,0,1,0-.86h18.6a.43.43,0,0,1,0,.86" transform="translate(-65.838 -36.08)" fill="#b19cfe"/>
          <g id="Grupo_1161554" data-name="Grupo 1161554" transform="translate(158.449 75.394)" style="mix-blend-mode: multiply;isolation: isolate">
            <g id="Grupo_1161553" data-name="Grupo 1161553">
              <g id="Grupo_1161552" data-name="Grupo 1161552" clip-path="url(#clip-path-9)">
                <path id="Trazado_995154" data-name="Trazado 995154" d="M294.411,168.3H255.948a6.736,6.736,0,0,1-6.736-6.736V125.317a6.737,6.737,0,0,1,6.736-6.736h38.463a6.736,6.736,0,0,1,6.736,6.736v36.248a6.736,6.736,0,0,1-6.736,6.736" transform="translate(-249.212 -118.581)" fill="#eaeaea"/>
              </g>
            </g>
          </g>
          <path id="Trazado_995155" data-name="Trazado 995155" d="M289.1,163.425H250.637a6.736,6.736,0,0,1-6.736-6.736V120.44a6.737,6.737,0,0,1,6.736-6.736H289.1a6.737,6.737,0,0,1,6.736,6.736v36.248a6.736,6.736,0,0,1-6.736,6.736" transform="translate(-88.828 -41.411)" fill="#542fd0"/>
          <path id="Trazado_995156" data-name="Trazado 995156" d="M286.695,154.547a16.53,16.53,0,1,1-8.106-27.037l-5.673,16.765,17.958.237a17.373,17.373,0,0,1-4.18,10.035" transform="translate(-93.917 -46.242)" fill="#b19cfe"/>
          <path id="Trazado_995157" data-name="Trazado 995157" d="M286.58,142.354l16.781.109a17.017,17.017,0,0,0-5.559-12.588,16.725,16.725,0,0,0-5.868-3.429Z" transform="translate(-104.372 -46.051)" fill="#ffc655"/>
          <g id="Grupo_1161557" data-name="Grupo 1161557" transform="translate(105.36 223.075)" style="mix-blend-mode: multiply;isolation: isolate">
            <g id="Grupo_1161556" data-name="Grupo 1161556">
              <g id="Grupo_1161555" data-name="Grupo 1161555" clip-path="url(#clip-path-10)">
                <path id="Trazado_995158" data-name="Trazado 995158" d="M215.49,404.96H172.448a6.736,6.736,0,0,1-6.736-6.736V357.591a6.737,6.737,0,0,1,6.736-6.736H215.49a6.737,6.737,0,0,1,6.736,6.736v40.632a6.736,6.736,0,0,1-6.736,6.736" transform="translate(-165.712 -350.856)" fill="#eaeaea"/>
              </g>
            </g>
          </g>
          <path id="Trazado_995159" data-name="Trazado 995159" d="M221.916,410.691H180.672a6.736,6.736,0,0,1-6.736-6.736V365.044a6.736,6.736,0,0,1,6.736-6.736h41.244a6.736,6.736,0,0,1,6.736,6.736v38.911a6.736,6.736,0,0,1-6.736,6.736" transform="translate(-63.347 -130.495)" fill="#d42190"/>
          <path id="Trazado_995160" data-name="Trazado 995160" d="M221.4,383.256l-27.61-4.586c-.013,0-.027,0-.041,0s-.05,0-.076,0a.863.863,0,0,0-.252.029c-.015,0-.029,0-.043.005l-4.025,1.322a.866.866,0,0,0,.541,1.645l3.227-1.06,6.179,17.037c-.005,0-.012.006-.017.01-.234.218-2.288,2.181-2.288,4a.865.865,0,0,0,.865.866h20.778a.866.866,0,1,0,0-1.731H199a7.9,7.9,0,0,1,1.465-1.871.844.844,0,0,0,.244-.469h19.523a.866.866,0,0,0,.863-.8l1.029-13.478a.865.865,0,0,0-.721-.919m-1.4,6h-6.355v-5.535l6.694,1.111Zm-14.5,0V382.37l7.277,1.209v5.68Zm7.277,7.464H205.5v-6.6h7.277Zm-8.143-14.5v7.032H198.1l-3.133-8.637Zm-6.219,7.9h6.219v6.6h-3.826Zm15.228,6.6v-6.6h6.289l-.5,6.6Z" transform="translate(-68.746 -137.91)" fill="#fff"/>
          <path id="Trazado_995161" data-name="Trazado 995161" d="M204.453,417.7a2.2,2.2,0,1,0,2.2,2.2,2.2,2.2,0,0,0-2.2-2.2" transform="translate(-73.661 -152.126)" fill="#fff"/>
          <path id="Trazado_995162" data-name="Trazado 995162" d="M231.039,417.7a2.2,2.2,0,1,0,2.2,2.2,2.2,2.2,0,0,0-2.2-2.2" transform="translate(-83.343 -152.126)" fill="#fff"/>
          <path id="Trazado_995163" data-name="Trazado 995163" d="M393.26,404.518l-3.333-1.579a12.691,12.691,0,0,0,.084-2.285l3.439-1.331a2.454,2.454,0,0,0,1.4-3.174l-1.085-2.8a2.454,2.454,0,0,0-3.174-1.4l-3.439,1.331a12.576,12.576,0,0,0-1.106-1.19l1.578-3.333a2.453,2.453,0,0,0-1.167-3.268l-2.717-1.287a2.454,2.454,0,0,0-3.268,1.167L378.9,388.7a12.633,12.633,0,0,0-1.621-.1l-1.149-3.5a2.454,2.454,0,0,0-3.1-1.567l-2.856.937a2.454,2.454,0,0,0-1.567,3.1l1.149,3.5a12.684,12.684,0,0,0-1.715,1.513l-3.333-1.579a2.454,2.454,0,0,0-3.268,1.167l-1.287,2.717a2.454,2.454,0,0,0,1.167,3.268l3.333,1.579a12.686,12.686,0,0,0-.084,2.285l-3.439,1.331a2.454,2.454,0,0,0-1.4,3.174l1.085,2.8a2.454,2.454,0,0,0,3.174,1.4l3.439-1.33a12.638,12.638,0,0,0,1.106,1.19l-1.579,3.332a2.455,2.455,0,0,0,1.167,3.269l2.717,1.286A2.453,2.453,0,0,0,374.1,417.3l1.579-3.332a12.637,12.637,0,0,0,1.621.1l1.15,3.5a2.454,2.454,0,0,0,3.1,1.567l2.857-.937a2.454,2.454,0,0,0,1.567-3.1l-1.149-3.5a12.638,12.638,0,0,0,1.715-1.512l3.332,1.579a2.455,2.455,0,0,0,3.269-1.168l1.286-2.716a2.453,2.453,0,0,0-1.167-3.268m-19.467,4.2a8.171,8.171,0,1,1,10.882-3.887,8.18,8.18,0,0,1-10.882,3.887" transform="translate(-130.952 -139.634)" fill="#09136e"/>
          <path id="Trazado_995164" data-name="Trazado 995164" d="M80.647,111.614l-2.89-1.5a11.2,11.2,0,0,0,.15-2.015l3.08-1.061a2.169,2.169,0,0,0,1.345-2.756l-.864-2.511a2.169,2.169,0,0,0-2.756-1.345l-3.08,1.061a11.22,11.22,0,0,0-.937-1.087l1.5-2.89a2.169,2.169,0,0,0-.922-2.925l-2.356-1.226A2.168,2.168,0,0,0,70,94.276l-1.5,2.89a11.2,11.2,0,0,0-1.428-.144l-.9-3.132A2.168,2.168,0,0,0,63.484,92.4l-2.553.732a2.169,2.169,0,0,0-1.487,2.682l.9,3.132a11.173,11.173,0,0,0-1.565,1.279l-2.89-1.5a2.168,2.168,0,0,0-2.925.922L51.736,102a2.169,2.169,0,0,0,.922,2.925l2.89,1.5a11.216,11.216,0,0,0-.15,2.015l-3.081,1.061a2.168,2.168,0,0,0-1.344,2.756l.864,2.511a2.169,2.169,0,0,0,2.756,1.345l3.08-1.061a11.15,11.15,0,0,0,.937,1.088l-1.5,2.89a2.168,2.168,0,0,0,.923,2.925l2.356,1.226a2.168,2.168,0,0,0,2.925-.922l1.5-2.89a11.063,11.063,0,0,0,1.428.144l.9,3.133a2.168,2.168,0,0,0,2.682,1.487l2.553-.732a2.169,2.169,0,0,0,1.487-2.682l-.9-3.132a11.172,11.172,0,0,0,1.565-1.278l2.89,1.5a2.168,2.168,0,0,0,2.925-.922l1.226-2.356a2.169,2.169,0,0,0-.922-2.925m-17.329,3.06a7.22,7.22,0,1,1,9.739-3.07,7.229,7.229,0,0,1-9.739,3.07" transform="translate(-18.521 -33.622)" fill="#09136e"/>
          <path id="Trazado_995165" data-name="Trazado 995165" d="M113.121,75.848l-2.478-1.29a9.649,9.649,0,0,0,.128-1.728l2.642-.909a1.86,1.86,0,0,0,1.153-2.363l-.741-2.153a1.86,1.86,0,0,0-2.363-1.153l-2.642.909a9.512,9.512,0,0,0-.8-.932l1.29-2.478a1.86,1.86,0,0,0-.79-2.508L106.5,60.19a1.859,1.859,0,0,0-2.508.791l-1.29,2.478a9.5,9.5,0,0,0-1.225-.123L100.7,60.65a1.859,1.859,0,0,0-2.3-1.275L96.213,60a1.86,1.86,0,0,0-1.275,2.3l.771,2.686a9.611,9.611,0,0,0-1.342,1.1l-2.478-1.29a1.859,1.859,0,0,0-2.508.79L88.33,67.606a1.859,1.859,0,0,0,.79,2.508L91.6,71.4a9.587,9.587,0,0,0-.128,1.728l-2.642.909A1.859,1.859,0,0,0,87.675,76.4l.741,2.153a1.86,1.86,0,0,0,2.363,1.153l2.642-.91a9.615,9.615,0,0,0,.8.933l-1.291,2.478a1.86,1.86,0,0,0,.791,2.508l2.02,1.052a1.86,1.86,0,0,0,2.508-.791l1.29-2.478a9.5,9.5,0,0,0,1.225.123l.771,2.686a1.859,1.859,0,0,0,2.3,1.275l2.19-.628a1.859,1.859,0,0,0,1.274-2.3l-.77-2.686a9.61,9.61,0,0,0,1.342-1.1l2.478,1.29a1.86,1.86,0,0,0,2.508-.791l1.052-2.02a1.86,1.86,0,0,0-.791-2.508M98.261,78.473a6.191,6.191,0,1,1,8.351-2.633,6.2,6.2,0,0,1-8.351,2.633" transform="translate(-31.894 -21.598)" fill="#09136e"/>
          <path id="Trazado_995166" data-name="Trazado 995166" d="M248.787,97.906a3.593,3.593,0,1,1-3.593-3.593,3.593,3.593,0,0,1,3.593,3.593" transform="translate(-87.991 -34.349)" fill="#09136e"/>
          <path id="Trazado_995167" data-name="Trazado 995167" d="M250.436,87.757a.941.941,0,0,1-.832-.547,8.6,8.6,0,0,0-15.8,0,.9.9,0,0,1-1.3.409,1.146,1.146,0,0,1-.364-1.46,10.411,10.411,0,0,1,19.12,0,1.146,1.146,0,0,1-.364,1.46.868.868,0,0,1-.466.138" transform="translate(-84.503 -29.089)" fill="#09136e"/>
          <path id="Trazado_995168" data-name="Trazado 995168" d="M225.7,80.581a.87.87,0,0,1-.467-.138,1.145,1.145,0,0,1-.364-1.46c2.88-5.757,8.316-9.332,14.189-9.332s11.309,3.576,14.189,9.332a1.146,1.146,0,0,1-.363,1.46.9.9,0,0,1-1.3-.409,13.642,13.642,0,0,0-25.054,0,.939.939,0,0,1-.832.547" transform="translate(-81.851 -25.367)" fill="#09136e"/>
          <path id="Trazado_995169" data-name="Trazado 995169" d="M253.833,72.42a.94.94,0,0,1-.832-.547c-3.218-6.431-9.292-10.426-15.851-10.426s-12.633,3.995-15.85,10.426a.9.9,0,0,1-1.3.409,1.146,1.146,0,0,1-.364-1.46C223.192,63.717,229.9,59.3,237.15,59.3s13.958,4.414,17.513,11.519a1.146,1.146,0,0,1-.364,1.46.87.87,0,0,1-.467.138" transform="translate(-79.947 -21.598)" fill="#09136e"/>
        </g>
      </g>
      <text id="ERP" transform="matrix(1, 0.001, -0.001, 1, 4575.88, 8123.761)" fill="#fff" font-size="52" font-family="Montserrat-Bold, Montserrat" font-weight="700"><tspan x="0" y="0" letter-spacing="0.05em">ER</tspan><tspan y="0">P</tspan></text>
      <path id="Trazado_995170" data-name="Trazado 995170" d="M66.754,254.317l-7.814,2.855,7.81,2.845,0,2.932-11.163-4.255,0-3.05,11.17-4.236Zm9.576-8.671,3.26,0L71.831,267.74l-3.261,0Zm16.012,10.031,0,3.049-11.169,4.237,0-2.932,7.814-2.832-7.809-2.869,0-2.909Z" transform="translate(4459.756 7861.536)" fill="#fff"/>
      <text id="_" data-name="$" transform="matrix(1, 0.001, -0.001, 1, 4562.608, 8031.686)" fill="#fff" font-size="11" font-family="Montserrat-Bold, Montserrat" font-weight="700"><tspan x="0" y="0">$</tspan></text>
      <rect id="Rectángulo_411633" data-name="Rectángulo 411633" width="318" height="318" transform="translate(4480 7951)" fill="none"/>
    </g>
  </g>
</svg>
