<svg xmlns="http://www.w3.org/2000/svg" xmlns:xlink="http://www.w3.org/1999/xlink" width="108" height="108" viewBox="0 0 108 108">
  <defs>
    <filter id="Trazado_982547" x="0" y="0" width="108" height="108" filterUnits="userSpaceOnUse">
      <feOffset dy="3" input="SourceAlpha"/>
      <feGaussianBlur stdDeviation="3" result="blur"/>
      <feFlood flood-opacity="0.161"/>
      <feComposite operator="in" in2="blur"/>
      <feComposite in="SourceGraphic"/>
    </filter>
  </defs>
  <g id="Grupo_1161455" data-name="Grupo 1161455" transform="translate(-187 -8297)">
    <g id="Grupo_1158297" data-name="Grupo 1158297" transform="translate(-429 3070)">
      <g id="Grupo_1154033" data-name="Grupo 1154033" transform="translate(0 1317)">
        <g id="Grupo_1153177" data-name="Grupo 1153177" transform="translate(362 3397)">
          <g id="Grupo_1149598" data-name="Grupo 1149598" transform="translate(80 315)">
            <g id="Grupo_1148770" data-name="Grupo 1148770" transform="translate(-27 -2583)">
              <g id="Grupo_1146954" data-name="Grupo 1146954" transform="translate(-415 -1202)">
                <g transform="matrix(1, 0, 0, 1, 616, 3983)" filter="url(#Trazado_982547)">
                  <g id="Trazado_982547-2" data-name="Trazado 982547" transform="translate(9 6)" fill="#ebfefd">
                    <path d="M 45 88.5 C 39.12687683105469 88.5 33.43022537231445 87.35007476806641 28.06830024719238 85.08217620849609 C 22.88852500915527 82.89131164550781 18.23629951477051 79.75458526611328 14.2408504486084 75.75914764404297 C 10.24541282653809 71.76370239257812 7.108687400817871 67.11147308349609 4.917825222015381 61.93170166015625 C 2.649924993515015 56.56977462768555 1.5 50.87312316894531 1.5 45 C 1.5 39.12687683105469 2.649924993515015 33.43022537231445 4.917825222015381 28.06830024719238 C 7.108687400817871 22.88852500915527 10.24541282653809 18.23629951477051 14.2408504486084 14.2408504486084 C 18.23629951477051 10.24541282653809 22.88852500915527 7.108687400817871 28.06830024719238 4.917825222015381 C 33.43022537231445 2.649924993515015 39.12687683105469 1.5 45 1.5 C 50.87312316894531 1.5 56.56977462768555 2.649924993515015 61.93170166015625 4.917825222015381 C 67.11147308349609 7.108687400817871 71.76370239257812 10.24541282653809 75.75914764404297 14.2408504486084 C 79.75458526611328 18.23629951477051 82.89131164550781 22.88852500915527 85.08217620849609 28.06830024719238 C 87.35007476806641 33.43022537231445 88.5 39.12687683105469 88.5 45 C 88.5 50.87312316894531 87.35007476806641 56.56977462768555 85.08217620849609 61.93170166015625 C 82.89131164550781 67.11147308349609 79.75458526611328 71.76370239257812 75.75914764404297 75.75914764404297 C 71.76370239257812 79.75458526611328 67.11147308349609 82.89131164550781 61.93170166015625 85.08217620849609 C 56.56977462768555 87.35007476806641 50.87312316894531 88.5 45 88.5 Z" stroke="none"/>
                    <path d="M 45 3 C 39.32871246337891 3 33.82865524291992 4.110054016113281 28.65262985229492 6.299339294433594 C 23.65165710449219 8.414573669433594 19.15968322753906 11.44334411621094 15.301513671875 15.301513671875 C 11.44334411621094 19.15968322753906 8.414573669433594 23.65165710449219 6.299339294433594 28.65262985229492 C 4.110054016113281 33.82865524291992 3 39.32871246337891 3 45 C 3 50.67128753662109 4.110054016113281 56.17134475708008 6.299339294433594 61.34737396240234 C 8.414573669433594 66.34834289550781 11.44334411621094 70.84031677246094 15.301513671875 74.698486328125 C 19.15968322753906 78.55665588378906 23.65165710449219 81.58542633056641 28.65262985229492 83.70066070556641 C 33.82865524291992 85.88994598388672 39.32871246337891 87 45 87 C 50.67128753662109 87 56.17134475708008 85.88994598388672 61.34737396240234 83.70066070556641 C 66.34834289550781 81.58542633056641 70.84031677246094 78.55665588378906 74.698486328125 74.698486328125 C 78.55665588378906 70.84031677246094 81.58542633056641 66.34834289550781 83.70066070556641 61.34737396240234 C 85.88994598388672 56.17134475708008 87 50.67128753662109 87 45 C 87 39.32871246337891 85.88994598388672 33.82865524291992 83.70066070556641 28.65262985229492 C 81.58542633056641 23.65165710449219 78.55665588378906 19.15968322753906 74.698486328125 15.301513671875 C 70.84031677246094 11.44334411621094 66.34834289550781 8.414573669433594 61.34737396240234 6.299339294433594 C 56.17134475708008 4.110054016113281 50.67128753662109 3 45 3 M 45 0 C 69.85281372070312 0 90 20.14718627929688 90 45 C 90 69.85281372070312 69.85281372070312 90 45 90 C 20.14718627929688 90 0 69.85281372070312 0 45 C 0 20.14718627929688 20.14718627929688 0 45 0 Z" stroke="none" fill="#268985"/>
                  </g>
                </g>
              </g>
            </g>
          </g>
        </g>
      </g>
    </g>
    <g id="prueba_2_" data-name="prueba (2)" transform="translate(212.375 8320)">
      <g id="Grupo_1161452" data-name="Grupo 1161452" transform="translate(1.399 0.815)">
        <path id="Trazado_994977" data-name="Trazado 994977" d="M15.75,191.269v-7.132l5.755-2.047,2.073-5-2.622-5.517,4.862-4.862,5.517,2.622,5-2.073,2.047-5.755h6.876l2.047,5.755,5,2.073,5.517-2.622,4.862,4.862-2.622,5.517,2.073,5,5.755,2.047v7.132Z" transform="translate(-14.881 -144.769)" fill="#fff"/>
        <path id="Trazado_994978" data-name="Trazado 994978" d="M235.75,305.749v2.5l2.173,1.249,2.173-1.249v-2.5l-2.173-1.249Z" transform="translate(-210.979 -272.233)" fill="#a8e1f8"/>
        <path id="Trazado_994979" data-name="Trazado 994979" d="M170.417,297.023v-4.5a3.266,3.266,0,0,1,1.635-2.825,10.867,10.867,0,0,0-.005-18.818v9.308l-5.432,3.145-5.432-3.145v-9.308a10.867,10.867,0,0,0-.005,18.818,3.266,3.266,0,0,1,1.635,2.825v4.5" transform="translate(-139.671 -242.266)" fill="#8ba2b6"/>
        <circle id="Elipse_12019" data-name="Elipse 12019" cx="7.062" cy="7.062" r="7.062" fill="#a7eed4"/>
        <circle id="Elipse_12020" data-name="Elipse 12020" cx="7.062" cy="7.062" r="7.062" transform="translate(39.764)" fill="#ff9d87"/>
        <path id="Trazado_994980" data-name="Trazado 994980" d="M376.466,14.562a7.063,7.063,0,0,1,5.7-6.93,7.062,7.062,0,1,0,0,13.86A7.063,7.063,0,0,1,376.466,14.562Z" transform="translate(-333.986 -7.5)" fill="#ff6a47"/>
        <path id="Trazado_994981" data-name="Trazado 994981" d="M10.466,14.562a7.063,7.063,0,0,1,5.7-6.93,7.062,7.062,0,1,0,0,13.86A7.063,7.063,0,0,1,10.466,14.562Z" transform="translate(-7.75 -7.5)" fill="#71e4bf"/>
        <path id="Trazado_994982" data-name="Trazado 994982" d="M41.282,161.5h-2.9l-2.047,5.755-5,2.073-5.517-2.622-4.862,4.862,2.622,5.517-2.073,5-5.755,2.047v7.132h2.716v-5.215l5.087-1.809,3-7.235-2.318-4.876,2.152-2.152,4.876,2.318,7.235-3Z" transform="translate(-14.881 -144.769)" fill="#e3edf6"/>
        <path id="Trazado_994983" data-name="Trazado 994983" d="M163.893,288.614c-3.244-1.879-5.427-4.519-5.427-8.538a10.276,10.276,0,0,1,2.716-7.019v-2.174a10.867,10.867,0,0,0-.005,18.818,3.266,3.266,0,0,1,1.635,2.825v4.5h2.716v-5.586A3.266,3.266,0,0,0,163.893,288.614Z" transform="translate(-139.671 -242.268)" fill="#5c7c94"/>
      </g>
      <g id="Grupo_1161453" data-name="Grupo 1161453" transform="translate(0.624)">
        <path id="Trazado_994984" data-name="Trazado 994984" d="M49.235,37.39c-.669-1.614-1.075-2.6-1.754-4.236l2.713-5.709L44.519,21.77l-5.709,2.713-4.336-1.8-2.117-5.956H31v-5.6a2.447,2.447,0,0,1,2.445-2.445H40.39a7.888,7.888,0,0,0,7.835,7.062C58.674,15.321,58.671.431,48.224,0A7.888,7.888,0,0,0,40.39,7.062H33.449a4.079,4.079,0,0,0-4.074,4.074v5.6H27.2v-5.6a4.079,4.079,0,0,0-4.074-4.074H16.3A7.888,7.888,0,0,0,8.461,0c-10.45.433-10.447,15.322,0,15.753A7.888,7.888,0,0,0,16.3,8.692h6.832a2.447,2.447,0,0,1,2.445,2.445v5.6H24.329l-2.117,5.956-4.336,1.8-5.709-2.713L6.491,27.444,9.2,33.154l-1.8,4.336L1.453,39.607V48.13H12.462V46.5H3.083V40.757l5.554-1.975,2.35-5.674-2.53-5.325,4.049-4.049,5.325,2.53,5.675-2.35,1.974-5.554h5.727l1.974,5.554,5.675,2.35,5.325-2.53,4.049,4.049L45.7,33.108c.881,2.13,1.509,3.645,2.35,5.674L53.6,40.757V46.5H37.153a11.729,11.729,0,0,0-2.971-17.776l-1.223-.707V38.267l-4.617,2.674-4.617-2.674V28.017l-1.223.707A11.73,11.73,0,0,0,19.532,46.5h-5.44v1.63h7.174a11.607,11.607,0,0,0,1.231.824,2.46,2.46,0,0,1,1.229,2.12v4.5h1.63v-4.5a4.094,4.094,0,0,0-2.041-3.53A10.088,10.088,0,0,1,22.1,30.969v8.238l6.247,3.617,6.247-3.617V30.969a10.088,10.088,0,0,1-1.218,16.574,4.1,4.1,0,0,0-2.041,3.538l1.63-.008a2.46,2.46,0,0,1,1.229-2.12,11.611,11.611,0,0,0,1.231-.823H55.232V39.607L49.277,37.49ZM48.224,1.63a6.247,6.247,0,1,1-6.247,6.247A6.254,6.254,0,0,1,48.224,1.63ZM8.461,14.124a6.247,6.247,0,1,1,6.247-6.247A6.254,6.254,0,0,1,8.461,14.124Z" transform="translate(-0.624)"/>
        <path id="Trazado_994985" data-name="Trazado 994985" d="M234.225,301.009v-3.442l-2.988-1.718-2.988,1.718v3.442l2.988,1.718Zm-4.346-2.5,1.358-.781,1.358.781v1.556l-1.358.781-1.358-.781Z" transform="translate(-203.52 -263.707)"/>
        <path id="Trazado_994986" data-name="Trazado 994986" d="M283.25,485.16h1.63v2.862h-1.63Z" transform="translate(-252.544 -432.45)"/>
        <path id="Trazado_994987" data-name="Trazado 994987" d="M39,52.254l-1.4-1.4-1.152,1.152L39,54.559l5.119-5.119-1.152-1.153Z" transform="translate(-32.555 -43.041)"/>
        <path id="Trazado_994988" data-name="Trazado 994988" d="M409.6,48.781l2.14-2.14,2.14,2.14,1.152-1.153-2.14-2.14,2.14-2.14L413.879,42.2l-2.14,2.14L409.6,42.2l-1.152,1.153,2.14,2.14-2.14,2.14Z" transform="translate(-364.139 -37.612)"/>
      </g>
      <g id="Grupo_1161454" data-name="Grupo 1161454" transform="translate(27.528 45.401)">
        <path id="Trazado_994989" data-name="Trazado 994989" d="M248.25,448.883h1.63v1.63h-1.63Z" transform="translate(-248.25 -445.515)" fill="#fff"/>
        <path id="Trazado_994990" data-name="Trazado 994990" d="M248.25,417.883h1.63v1.63h-1.63Z" transform="translate(-248.25 -417.883)" fill="#fff"/>
      </g>
    </g>
  </g>
</svg>
