<svg xmlns="http://www.w3.org/2000/svg" xmlns:xlink="http://www.w3.org/1999/xlink" width="113" height="113" viewBox="0 0 113 113">
  <defs>
    <filter id="Trazado_982547" x="0" y="0" width="113" height="113" filterUnits="userSpaceOnUse">
      <feOffset dy="3" input="SourceAlpha"/>
      <feGaussianBlur stdDeviation="3" result="blur"/>
      <feFlood flood-opacity="0.161"/>
      <feComposite operator="in" in2="blur"/>
      <feComposite in="SourceGraphic"/>
    </filter>
  </defs>
  <g id="Grupo_1161501" data-name="Grupo 1161501" transform="translate(-827 -10034)">
    <g id="Grupo_1158304" data-name="Grupo 1158304" transform="translate(501 4513)">
      <g id="Grupo_1152576" data-name="Grupo 1152576" transform="translate(-0.454 1205.621)">
        <g id="Grupo_1148633" data-name="Grupo 1148633" transform="translate(71.408 600.047)">
          <g id="Grupo_1148525" data-name="Grupo 1148525" transform="translate(264.046 3721.333)">
            <g transform="matrix(1, 0, 0, 1, -9, -6)" filter="url(#Trazado_982547)">
              <g id="Trazado_982547-2" data-name="Trazado 982547" transform="translate(9 6)" fill="#f0ebfe">
                <path d="M 47.5 93.5 C 41.28937149047852 93.5 35.26533508300781 92.28397369384766 29.59518623352051 89.88570404052734 C 24.11771965026855 87.56893157958984 19.19813346862793 84.25196075439453 14.97309303283691 80.02691650390625 C 10.74804019927979 75.80186462402344 7.431066513061523 70.88229370117188 5.114293098449707 65.40481567382812 C 2.716026782989502 59.73468017578125 1.5 53.71062850952148 1.5 47.5 C 1.5 41.28937149047852 2.716026782989502 35.26533508300781 5.114293098449707 29.59518623352051 C 7.431066513061523 24.11771965026855 10.74804019927979 19.19813346862793 14.97309303283691 14.97309303283691 C 19.19813346862793 10.74804019927979 24.11771965026855 7.431066513061523 29.59518623352051 5.114293098449707 C 35.26533508300781 2.716026782989502 41.28937149047852 1.5 47.5 1.5 C 53.71062850952148 1.5 59.73468017578125 2.716026782989502 65.40481567382812 5.114293098449707 C 70.88229370117188 7.431066513061523 75.80186462402344 10.74804019927979 80.02691650390625 14.97309303283691 C 84.25196075439453 19.19813346862793 87.56893157958984 24.11771965026855 89.88570404052734 29.59518623352051 C 92.28397369384766 35.26533508300781 93.5 41.28937149047852 93.5 47.5 C 93.5 53.71062850952148 92.28397369384766 59.73468017578125 89.88570404052734 65.40481567382812 C 87.56893157958984 70.88229370117188 84.25196075439453 75.80186462402344 80.02691650390625 80.02691650390625 C 75.80186462402344 84.25196075439453 70.88229370117188 87.56893157958984 65.40481567382812 89.88570404052734 C 59.73468017578125 92.28397369384766 53.71062850952148 93.5 47.5 93.5 Z" stroke="none"/>
                <path d="M 47.5 3 C 41.49121475219727 3 35.66376876831055 4.176155090332031 30.17950439453125 6.495796203613281 C 24.88084411621094 8.736953735351562 20.12152099609375 11.94598388671875 16.03375244140625 16.03375244140625 C 11.94598388671875 20.12152099609375 8.736953735351562 24.88084411621094 6.495796203613281 30.17950439453125 C 4.176155090332031 35.66376876831055 3 41.49121475219727 3 47.5 C 3 53.50878524780273 4.176155090332031 59.33623123168945 6.495796203613281 64.82049560546875 C 8.736953735351562 70.11915588378906 11.94598388671875 74.87847900390625 16.03375244140625 78.96624755859375 C 20.12152099609375 83.05401611328125 24.88084411621094 86.26304626464844 30.17950439453125 88.50419616699219 C 35.66376876831055 90.82384490966797 41.49121475219727 92 47.5 92 C 53.50878524780273 92 59.33623123168945 90.82384490966797 64.82049560546875 88.50419616699219 C 70.11915588378906 86.26304626464844 74.87847900390625 83.05401611328125 78.96624755859375 78.96624755859375 C 83.05401611328125 74.87847900390625 86.26304626464844 70.11915588378906 88.50419616699219 64.82049560546875 C 90.82384490966797 59.33623123168945 92 53.50878524780273 92 47.5 C 92 41.49121475219727 90.82384490966797 35.66376876831055 88.50419616699219 30.17950439453125 C 86.26304626464844 24.88084411621094 83.05401611328125 20.12152099609375 78.96624755859375 16.03375244140625 C 74.87847900390625 11.94598388671875 70.11915588378906 8.736953735351562 64.82049560546875 6.495796203613281 C 59.33623123168945 4.176155090332031 53.50878524780273 3 47.5 3 M 47.5 0 C 73.7335205078125 0 95 21.2664794921875 95 47.5 C 95 73.7335205078125 73.7335205078125 95 47.5 95 C 21.2664794921875 95 0 73.7335205078125 0 47.5 C 0 21.2664794921875 21.2664794921875 0 47.5 0 Z" stroke="none" fill="#7145fe"/>
              </g>
            </g>
          </g>
        </g>
      </g>
    </g>
    <g id="factores-de-riesgo" transform="translate(850 10022.703)">
      <g id="Grupo_1161499" data-name="Grupo 1161499" transform="translate(0.968 37.264)">
        <g id="Grupo_1161498" data-name="Grupo 1161498" transform="translate(0 0)">
          <g id="Grupo_1161488" data-name="Grupo 1161488" transform="translate(30.415)">
            <g id="Grupo_1161486" data-name="Grupo 1161486">
              <path id="Trazado_995010" data-name="Trazado 995010" d="M257.423,45.343,243.67,69.163a3.1,3.1,0,0,0,2.681,4.643h27.505a3.1,3.1,0,0,0,2.68-4.643l-13.752-23.82A3.1,3.1,0,0,0,257.423,45.343Z" transform="translate(-243.251 -43.796)" fill="#fedf30"/>
            </g>
            <g id="Grupo_1161487" data-name="Grupo 1161487" transform="translate(0.002 0.001)">
              <path id="Trazado_995011" data-name="Trazado 995011" d="M276.547,69.168l-13.752-23.82a3.094,3.094,0,0,0-5.285-.122l11.3,19.566a3.1,3.1,0,0,1-2.681,4.643H243.545a3.1,3.1,0,0,0,2.816,4.377h27.505A3.1,3.1,0,0,0,276.547,69.168Z" transform="translate(-243.263 -43.801)" fill="#fed402"/>
            </g>
          </g>
          <g id="Grupo_1161497" data-name="Grupo 1161497" transform="translate(0 5.718)">
            <g id="Grupo_1161489" data-name="Grupo 1161489" transform="translate(0 20.553)">
              <path id="Trazado_995012" data-name="Trazado 995012" d="M42.36,274.616V253.833a6.411,6.411,0,0,0-6.411-6.411H13.911A6.411,6.411,0,0,0,7.5,253.833v20.783a1.29,1.29,0,0,0,1.29,1.29H41.07A1.29,1.29,0,0,0,42.36,274.616Z" transform="translate(-7.5 -247.422)" fill="#c4e2ff"/>
            </g>
            <g id="Grupo_1161490" data-name="Grupo 1161490" transform="translate(0 20.676)">
              <path id="Trazado_995013" data-name="Trazado 995013" d="M37.2,248.374v21.91a1.29,1.29,0,0,1-1.29,1.29H7.5v3.87a1.29,1.29,0,0,0,1.29,1.29H41.07a1.29,1.29,0,0,0,1.29-1.29V254.662A6.412,6.412,0,0,0,37.2,248.374Z" transform="translate(-7.5 -248.374)" fill="#b3dafe"/>
            </g>
            <g id="Grupo_1161491" data-name="Grupo 1161491" transform="translate(7.048)">
              <circle id="Elipse_12027" data-name="Elipse 12027" cx="10.276" cy="10.276" r="10.276" fill="#d78878"/>
            </g>
            <g id="Grupo_1161492" data-name="Grupo 1161492" transform="translate(10.335 0.166)">
              <path id="Trazado_995014" data-name="Trazado 995014" d="M96.423,89.4A10.272,10.272,0,0,1,87.6,107.04,10.275,10.275,0,1,0,96.423,89.4Z" transform="translate(-87.604 -89.398)" fill="#c96e59"/>
            </g>
            <g id="Grupo_1161496" data-name="Grupo 1161496" transform="translate(12.634 20.553)">
              <g id="Grupo_1161493" data-name="Grupo 1161493" transform="translate(0 6.104)">
                <path id="Trazado_995015" data-name="Trazado 995015" d="M114.97,317.113l-2.8-22.2-.259-.183h-3.278l-.259.183-2.944,22.2Z" transform="translate(-105.426 -294.733)" fill="#0593fc"/>
              </g>
              <g id="Grupo_1161494" data-name="Grupo 1161494" transform="translate(0 23.323)">
                <path id="Trazado_995016" data-name="Trazado 995016" d="M106.111,428.2l-.685,5.161h9.544l-.652-5.161Z" transform="translate(-105.426 -428.203)" fill="#0182fc"/>
              </g>
              <g id="Grupo_1161495" data-name="Grupo 1161495" transform="translate(0.665)">
                <path id="Trazado_995017" data-name="Trazado 995017" d="M110.584,247.422l2.279,6.287h3.8l2.187-6.269Z" transform="translate(-110.584 -247.422)" fill="#0182fc"/>
              </g>
            </g>
          </g>
        </g>
      </g>
      <g id="Grupo_1161500" data-name="Grupo 1161500" transform="translate(0 36.297)">
        <path id="Trazado_995018" data-name="Trazado 995018" d="M314.313,301.754a.967.967,0,0,0-1.359.16l-2.472,3.134-1.512-1.434a.968.968,0,0,0-1.332,1.4l2.281,2.164a.967.967,0,0,0,.666.266l.07,0a.967.967,0,0,0,.69-.366l3.128-3.967A.968.968,0,0,0,314.313,301.754Z" transform="translate(-267.686 -267.325)"/>
        <path id="Trazado_995019" data-name="Trazado 995019" d="M401.711,316.918H388.739a.968.968,0,1,0,0,1.935h12.972a.968.968,0,1,0,0-1.935Z" transform="translate(-337.743 -280.714)"/>
        <path id="Trazado_995020" data-name="Trazado 995020" d="M314.313,363.81a.967.967,0,0,0-1.359.16l-2.472,3.134-1.512-1.434a.968.968,0,1,0-1.332,1.4l2.281,2.164a.967.967,0,0,0,.666.266l.07,0a.967.967,0,0,0,.69-.366l3.128-3.967A.968.968,0,0,0,314.313,363.81Z" transform="translate(-267.686 -321.375)"/>
        <path id="Trazado_995021" data-name="Trazado 995021" d="M401.711,378.976H388.739a.968.968,0,0,0,0,1.935h12.972a.968.968,0,1,0,0-1.935Z" transform="translate(-337.743 -334.766)"/>
        <path id="Trazado_995022" data-name="Trazado 995022" d="M314.313,425.868a.967.967,0,0,0-1.359.16l-2.472,3.134-1.512-1.434a.968.968,0,1,0-1.332,1.4l2.281,2.164a.967.967,0,0,0,.666.266l.07,0a.967.967,0,0,0,.69-.366l3.128-3.967A.968.968,0,0,0,314.313,425.868Z" transform="translate(-267.686 -375.427)"/>
        <path id="Trazado_995023" data-name="Trazado 995023" d="M401.711,441.034H388.739a.968.968,0,0,0,0,1.935h12.972a.968.968,0,1,0,0-1.935Z" transform="translate(-337.743 -388.817)"/>
        <path id="Trazado_995024" data-name="Trazado 995024" d="M367.344,116.114a.967.967,0,0,0,.968-.968v-7.626a.968.968,0,0,0-1.935,0v7.626A.968.968,0,0,0,367.344,116.114Z" transform="translate(-319.109 -97.489)"/>
        <path id="Trazado_995025" data-name="Trazado 995025" d="M366.376,210.594a.968.968,0,0,0,1.935,0V209.53a.968.968,0,0,0-1.935,0Z" transform="translate(-319.109 -186.337)"/>
        <path id="Trazado_995026" data-name="Trazado 995026" d="M65.5,62.148,51.752,38.328a4.063,4.063,0,0,0-7.037,0l-5.2,9.008a.968.968,0,0,0,1.676.968l5.2-9.008a2.128,2.128,0,0,1,3.685,0l13.752,23.82a2.128,2.128,0,0,1-1.843,3.191H35.832a7.426,7.426,0,0,0-3.272-3.035c.025-.053.051-.105.08-.156l6.294-10.9a.968.968,0,0,0-1.676-.968l-6.294,10.9a4.18,4.18,0,0,0-.259.534,7.387,7.387,0,0,0-1.288-.115H24.592a11.244,11.244,0,1,0-12.6,0H7.378A7.387,7.387,0,0,0,0,69.946v2.083a.968.968,0,0,0,1.935,0V69.946A5.449,5.449,0,0,1,7.378,64.5h6.21l1.967,5.427-2.8,21.122H2.258a.323.323,0,0,1-.323-.323V76.544a.968.968,0,0,0-1.935,0V90.729a2.26,2.26,0,0,0,2.258,2.258h32.28A2.26,2.26,0,0,0,36.8,90.729V69.946a7.37,7.37,0,0,0-.2-1.7H61.986A4.063,4.063,0,0,0,65.5,62.148ZM8.983,53.259a9.309,9.309,0,1,1,9.309,9.309A9.319,9.319,0,0,1,8.983,53.259Zm6.665,11.247,5.519.011-1.513,4.337h-2.43ZM34.86,90.729a.323.323,0,0,1-.323.323H24l-1.075-8.513a.968.968,0,0,0-1.92.243l1.045,8.27H14.706L17.394,70.79h2.095l.949,7.506a.968.968,0,0,0,1.92-.243L21.33,69.926,23.222,64.5h6.2a5.449,5.449,0,0,1,5.443,5.443Z" transform="translate(0 -36.297)"/>
      </g>
    </g>
  </g>
</svg>
