<svg xmlns="http://www.w3.org/2000/svg" width="505" height="446.104" viewBox="0 0 505 446.104">
  <g id="Grupo_1159479" data-name="Grupo 1159479" transform="translate(-4469.763 -777.765)">
    <g id="OBJECTS" transform="translate(4469.763 777.765)">
      <g id="Grupo_1159264" data-name="Grupo 1159264" transform="translate(20.866 0.12)" opacity="0.45">
        <circle id="Elipse_11997" data-name="Elipse 11997" cx="95.074" cy="95.074" r="95.074" transform="translate(276.579 255.836)" fill="#ded7ff"/>
        <circle id="Elipse_11998" data-name="Elipse 11998" cx="161.914" cy="161.914" r="161.914" fill="#ded7ff"/>
      </g>
      <path id="Trazado_993123" data-name="Trazado 993123" d="M454.531,196.876,449.7,201.3a3.7,3.7,0,0,0-.431.475,31.435,31.435,0,0,0-9.958-4.605,3.647,3.647,0,0,0,.089-.648l.257-6.548a3.7,3.7,0,0,0-3.551-3.84l-6.548-.257a3.7,3.7,0,0,0-3.84,3.551l-.257,6.548a3.8,3.8,0,0,0,.038.65,31.428,31.428,0,0,0-10.032,3.662,3.867,3.867,0,0,0-.387-.51l-4.425-4.833a3.7,3.7,0,0,0-5.225-.23L400.6,199.14a3.7,3.7,0,0,0-.229,5.225l4.425,4.833a3.793,3.793,0,0,0,.475.431,31.437,31.437,0,0,0-4.605,9.958,3.65,3.65,0,0,0-.646-.089l-6.548-.257a3.671,3.671,0,0,0-2.642.967.066.066,0,0,0-.013.013,3.673,3.673,0,0,0-1.185,2.571l-.257,6.548h0a3.7,3.7,0,0,0,3.551,3.84l6.548.257a3.576,3.576,0,0,0,.65-.04,31.425,31.425,0,0,0,3.662,10.033,3.677,3.677,0,0,0-.511.387l-4.833,4.425a3.7,3.7,0,0,0-.229,5.225l4.425,4.833a3.7,3.7,0,0,0,5.225.229l4.833-4.425a3.7,3.7,0,0,0,.431-.475,31.425,31.425,0,0,0,9.96,4.606,3.714,3.714,0,0,0-.091.647l-.257,6.548a3.7,3.7,0,0,0,3.549,3.84l6.548.257h0a3.7,3.7,0,0,0,3.841-3.551l.257-6.548a3.569,3.569,0,0,0-.04-.65,31.427,31.427,0,0,0,10.033-3.662,3.706,3.706,0,0,0,.388.511l4.425,4.833a3.7,3.7,0,0,0,5.225.23l4.833-4.425a3.7,3.7,0,0,0,.229-5.225l-4.425-4.833a3.7,3.7,0,0,0-.475-.431,31.414,31.414,0,0,0,4.606-9.96,3.72,3.72,0,0,0,.646.091l6.548.257a3.7,3.7,0,0,0,3.84-3.551l.258-6.548a3.7,3.7,0,0,0-3.551-3.84l-6.548-.257a3.709,3.709,0,0,0-.651.037,31.424,31.424,0,0,0-3.662-10.031,3.613,3.613,0,0,0,.511-.387l4.833-4.425a3.7,3.7,0,0,0,.229-5.225l-4.425-4.833A3.7,3.7,0,0,0,454.531,196.876Zm-11.609,43.637A17.369,17.369,0,1,1,444,215.974,17.389,17.389,0,0,1,442.922,240.513Z" transform="translate(23.742 -51.067)" fill="none" stroke="#0f1b63" stroke-miterlimit="10" stroke-width="1"/>
      <g id="Grupo_1159271" data-name="Grupo 1159271" transform="translate(4.104 217.68)">
        <g id="Grupo_1159270" data-name="Grupo 1159270">
          <g id="Grupo_1159266" data-name="Grupo 1159266" transform="translate(6.101)">
            <g id="Grupo_1159265" data-name="Grupo 1159265">
              <path id="Trazado_993124" data-name="Trazado 993124" d="M125.763,439.833h-2.547a.852.852,0,1,1,0-1.7h2.547a.852.852,0,0,1,0,1.7Zm-8.221,0h-5.676a.852.852,0,0,1,0-1.7h5.676a.852.852,0,0,1,0,1.7Zm-11.351,0h-5.676a.852.852,0,0,1,0-1.7h5.676a.852.852,0,1,1,0,1.7Zm-11.351,0H89.163a.852.852,0,1,1,0-1.7h5.676a.852.852,0,0,1,0,1.7Zm-11.351,0H77.812a.852.852,0,0,1,0-1.7h5.676a.852.852,0,0,1,0,1.7Zm-11.351,0H66.461a.852.852,0,0,1,0-1.7h5.676a.852.852,0,1,1,0,1.7Zm-11.351-.008h-.023a21.6,21.6,0,0,1-5.809-.961.851.851,0,0,1,.5-1.626,19.949,19.949,0,0,0,5.352.886.851.851,0,0,1-.024,1.7Zm-10.7-3.327a.85.85,0,0,1-.462-.137,21.733,21.733,0,0,1-4.46-3.844.852.852,0,0,1,1.277-1.128,19.989,19.989,0,0,0,4.11,3.543.853.853,0,0,1-.464,1.567Zm-7.418-8.4a.853.853,0,0,1-.769-.481,21.679,21.679,0,0,1-1.814-5.6.851.851,0,1,1,1.676-.3,19.868,19.868,0,0,0,1.672,5.16.852.852,0,0,1-.4,1.136A.826.826,0,0,1,42.666,428.094ZM40.6,417.057a.852.852,0,0,1-.852-.852V410.53a.852.852,0,1,1,1.7,0v5.676A.852.852,0,0,1,40.6,417.057Zm0-11.351a.852.852,0,0,1-.852-.852v-5.676a.852.852,0,1,1,1.7,0v5.676A.852.852,0,0,1,40.6,405.706Zm0-11.351a.852.852,0,0,1-.852-.852v-5.676a.852.852,0,0,1,1.7,0V393.5A.852.852,0,0,1,40.6,394.355ZM40.6,383a.852.852,0,0,1-.852-.852v-5.676a.852.852,0,1,1,1.7,0v5.676A.852.852,0,0,1,40.6,383Zm0-11.351a.852.852,0,0,1-.852-.852v-5.676a.852.852,0,0,1,1.7,0V370.8A.852.852,0,0,1,40.6,371.652Zm0-11.351a.852.852,0,0,1-.852-.852v-5.676a.852.852,0,1,1,1.7,0v5.676A.851.851,0,0,1,40.6,360.3Zm0-11.351a.852.852,0,0,1-.852-.852v-5.676a.852.852,0,1,1,1.7,0V348.1A.851.851,0,0,1,40.6,348.95Zm0-11.35a.852.852,0,0,1-.852-.852v-5.676a.852.852,0,0,1,1.7,0v5.676A.852.852,0,0,1,40.6,337.6Zm0-11.351a.852.852,0,0,1-.852-.852v-5.676a.852.852,0,1,1,1.7,0V325.4A.852.852,0,0,1,40.6,326.248Zm0-11.351a.852.852,0,0,1-.852-.852V308.37a.852.852,0,1,1,1.7,0v5.676A.852.852,0,0,1,40.6,314.9Zm0-11.351a.852.852,0,0,1-.852-.852v-5.676a.852.852,0,1,1,1.7,0v5.676A.852.852,0,0,1,40.6,303.546Zm0-11.351a.852.852,0,0,1-.852-.852v-5.676a.852.852,0,1,1,1.7,0v5.676A.852.852,0,0,1,40.6,292.195Zm0-11.351a.852.852,0,0,1-.852-.852v-.574a21.719,21.719,0,0,1,.643-5.255.851.851,0,0,1,1.653.411,20.056,20.056,0,0,0-.592,4.842v.574A.852.852,0,0,1,40.6,280.843Zm2.727-10.871a.851.851,0,0,1-.739-1.273,21.7,21.7,0,0,1,3.589-4.668.852.852,0,0,1,1.2,1.211,19.982,19.982,0,0,0-3.306,4.3A.853.853,0,0,1,43.327,269.973Zm7.974-7.879a.852.852,0,0,1-.414-1.6,21.555,21.555,0,0,1,5.492-2.13.852.852,0,0,1,.393,1.657,19.781,19.781,0,0,0-5.058,1.961A.852.852,0,0,1,51.3,262.094Zm141.444-2.6h-5.676a.852.852,0,0,1,0-1.7h5.676a.852.852,0,0,1,0,1.7Zm-11.35,0h-5.676a.852.852,0,0,1,0-1.7h5.676a.852.852,0,0,1,0,1.7Zm-11.351,0h-5.676a.852.852,0,0,1,0-1.7h5.676a.852.852,0,0,1,0,1.7Zm-11.351,0h-5.676a.852.852,0,0,1,0-1.7h5.676a.852.852,0,0,1,0,1.7Zm-11.351,0h-5.676a.852.852,0,0,1,0-1.7h5.676a.852.852,0,0,1,0,1.7Zm-11.351,0h-5.676a.852.852,0,0,1,0-1.7h5.676a.852.852,0,0,1,0,1.7Zm-11.351,0h-5.676a.852.852,0,0,1,0-1.7h5.676a.852.852,0,0,1,0,1.7Zm-11.351,0h-5.676a.852.852,0,0,1,0-1.7h5.676a.852.852,0,0,1,0,1.7Zm-11.351,0H96.26a.852.852,0,0,1,0-1.7h5.676a.852.852,0,0,1,0,1.7Zm-11.351,0H84.909a.852.852,0,0,1,0-1.7h5.676a.852.852,0,0,1,0,1.7Zm-11.351,0H73.557a.852.852,0,0,1,0-1.7h5.676a.852.852,0,0,1,0,1.7Zm-11.351,0H62.206a.852.852,0,0,1,0-1.7h5.676a.852.852,0,0,1,0,1.7Z" transform="translate(-39.749 -257.787)" fill="#b19cfe"/>
            </g>
          </g>
          <g id="Grupo_1159269" data-name="Grupo 1159269" transform="translate(0 84.323)">
            <g id="Grupo_1159267" data-name="Grupo 1159267" transform="translate(3.243 3.242)">
              <circle id="Elipse_11999" data-name="Elipse 11999" cx="3.71" cy="3.71" r="3.71" fill="#b19cfe"/>
            </g>
            <g id="Grupo_1159268" data-name="Grupo 1159268">
              <path id="Trazado_993125" data-name="Trazado 993125" d="M41.408,344.863a6.952,6.952,0,1,1,6.953-6.953A6.961,6.961,0,0,1,41.408,344.863Zm0-13.055a6.1,6.1,0,1,0,6.1,6.1A6.108,6.108,0,0,0,41.408,331.809Z" transform="translate(-34.455 -330.958)" fill="#b19cfe"/>
            </g>
          </g>
        </g>
      </g>
      <g id="Grupo_1159279" data-name="Grupo 1159279" transform="translate(201.1 0)">
        <g id="Grupo_1159273" data-name="Grupo 1159273" transform="translate(0 6.258)">
          <g id="Grupo_1159272" data-name="Grupo 1159272">
            <path id="Trazado_993126" data-name="Trazado 993126" d="M206.433,261.509a1.037,1.037,0,0,1-1.036-1.036v-6.905a1.036,1.036,0,0,1,2.072,0v6.905A1.037,1.037,0,0,1,206.433,261.509Zm0-13.811a1.037,1.037,0,0,1-1.036-1.036v-6.905a1.036,1.036,0,1,1,2.072,0v6.905A1.037,1.037,0,0,1,206.433,247.7Zm0-13.812a1.037,1.037,0,0,1-1.036-1.036v-6.905a1.036,1.036,0,1,1,2.072,0v6.905A1.036,1.036,0,0,1,206.433,233.887Zm0-13.811a1.037,1.037,0,0,1-1.036-1.036v-6.905a1.036,1.036,0,0,1,2.072,0v6.905A1.036,1.036,0,0,1,206.433,220.076Zm0-13.811a1.037,1.037,0,0,1-1.036-1.036v-6.905a1.036,1.036,0,0,1,2.072,0v6.905A1.037,1.037,0,0,1,206.433,206.266Zm0-13.811a1.037,1.037,0,0,1-1.036-1.036v-6.905a1.036,1.036,0,0,1,2.072,0v6.905A1.037,1.037,0,0,1,206.433,192.455ZM316.1,180.015a1.037,1.037,0,0,1-1.036-1.036v-3.833a1.036,1.036,0,1,1,2.072,0v3.833A1.037,1.037,0,0,1,316.1,180.015Zm-109.666-1.37a1.036,1.036,0,0,1-1.036-1.036V170.7a1.036,1.036,0,1,1,2.072,0v6.905A1.037,1.037,0,0,1,206.433,178.645ZM316.1,169.277a1.036,1.036,0,0,1-1.036-1.036v-6.905a1.036,1.036,0,1,1,2.072,0v6.905A1.037,1.037,0,0,1,316.1,169.277Zm-109.666-4.443A1.037,1.037,0,0,1,205.4,163.8v-6.905a1.036,1.036,0,1,1,2.072,0V163.8A1.037,1.037,0,0,1,206.433,164.834ZM316.1,155.465a1.037,1.037,0,0,1-1.036-1.036v-6.905a1.036,1.036,0,1,1,2.072,0v6.905A1.036,1.036,0,0,1,316.1,155.465Zm-109.666-4.443a1.037,1.037,0,0,1-1.036-1.036v-6.905a1.036,1.036,0,1,1,2.072,0v6.905A1.036,1.036,0,0,1,206.433,151.023ZM316.1,141.655a1.037,1.037,0,0,1-1.036-1.036v-6.905a1.036,1.036,0,1,1,2.072,0v6.905A1.036,1.036,0,0,1,316.1,141.655Zm-109.666-4.443a1.037,1.037,0,0,1-1.036-1.036v-6.905a1.036,1.036,0,1,1,2.072,0v6.905A1.036,1.036,0,0,1,206.433,137.212ZM316.1,127.844a1.037,1.037,0,0,1-1.036-1.036V119.9a1.036,1.036,0,1,1,2.072,0v6.905A1.036,1.036,0,0,1,316.1,127.844ZM206.433,123.4a1.037,1.037,0,0,1-1.036-1.036V115.46a1.036,1.036,0,0,1,2.072,0v6.905A1.037,1.037,0,0,1,206.433,123.4ZM316.1,114.034A1.037,1.037,0,0,1,315.063,113v-6.905a1.036,1.036,0,1,1,2.072,0V113A1.037,1.037,0,0,1,316.1,114.034Zm-109.666-4.443a1.037,1.037,0,0,1-1.036-1.036V101.65a1.036,1.036,0,0,1,2.072,0v6.905A1.037,1.037,0,0,1,206.433,109.591Zm109.621-9.367a1.036,1.036,0,0,1-1.033-.977,24.2,24.2,0,0,0-1.267-6.477,1.036,1.036,0,1,1,1.959-.672,26.229,26.229,0,0,1,1.376,7.031,1.037,1.037,0,0,1-.975,1.094Zm-108.94-4.39a1.071,1.071,0,0,1-.24-.028,1.036,1.036,0,0,1-.769-1.247,26.139,26.139,0,0,1,2.592-6.683,1.036,1.036,0,0,1,1.81,1.008,24.009,24.009,0,0,0-2.387,6.153A1.036,1.036,0,0,1,207.114,95.835Zm104.523-8.5a1.036,1.036,0,0,1-.854-.446,24.366,24.366,0,0,0-4.455-4.875,1.036,1.036,0,0,1,1.326-1.591,26.5,26.5,0,0,1,4.832,5.287,1.037,1.037,0,0,1-.263,1.442A1.02,1.02,0,0,1,311.637,87.33Zm-97.906-3.419a1.036,1.036,0,0,1-.736-1.764,26.447,26.447,0,0,1,5.678-4.367,1.036,1.036,0,0,1,1.028,1.8,24.3,24.3,0,0,0-5.233,4.024A1.037,1.037,0,0,1,213.731,83.911Zm87.425-5.31a1.038,1.038,0,0,1-.423-.09A24.132,24.132,0,0,0,294.4,76.66a1.035,1.035,0,0,1-.874-1.177,1.024,1.024,0,0,1,1.177-.872,26.17,26.17,0,0,1,6.881,2.009,1.036,1.036,0,0,1-.425,1.981ZM225.57,77.149a1.036,1.036,0,0,1-.25-2.041,26.429,26.429,0,0,1,6.394-.783h.7a1.036,1.036,0,1,1,0,2.072h-.7a24.341,24.341,0,0,0-5.892.72A1.042,1.042,0,0,1,225.57,77.149Zm62.086-.751h-6.905a1.036,1.036,0,1,1,0-2.072h6.905a1.036,1.036,0,0,1,0,2.072Zm-13.811,0H266.94a1.036,1.036,0,0,1,0-2.072h6.905a1.036,1.036,0,0,1,0,2.072Zm-13.812,0h-6.905a1.036,1.036,0,0,1,0-2.072h6.905a1.036,1.036,0,1,1,0,2.072Zm-13.81,0h-6.905a1.036,1.036,0,1,1,0-2.072h6.905a1.036,1.036,0,0,1,0,2.072Z" transform="translate(-205.397 -74.326)" fill="#b19cfe"/>
          </g>
        </g>
        <g id="Grupo_1159278" data-name="Grupo 1159278" transform="translate(48.575)">
          <g id="Grupo_1159275" data-name="Grupo 1159275" transform="translate(3.402 3.402)">
            <g id="Grupo_1159274" data-name="Grupo 1159274">
              <circle id="Elipse_12000" data-name="Elipse 12000" cx="3.892" cy="3.892" r="3.892" fill="#b19cfe"/>
            </g>
          </g>
          <g id="Grupo_1159277" data-name="Grupo 1159277">
            <g id="Grupo_1159276" data-name="Grupo 1159276">
              <path id="Trazado_993127" data-name="Trazado 993127" d="M254.842,83.483a7.294,7.294,0,1,1,7.294-7.294A7.3,7.3,0,0,1,254.842,83.483Zm0-13.694a6.4,6.4,0,1,0,6.4,6.4A6.408,6.408,0,0,0,254.842,69.789Z" transform="translate(-247.548 -68.896)" fill="#b19cfe"/>
            </g>
          </g>
        </g>
      </g>
      <g id="Grupo_1159280" data-name="Grupo 1159280" transform="translate(190.902 59.106)">
        <rect id="Rectángulo_409814" data-name="Rectángulo 409814" width="66.787" height="11.418" transform="translate(3.93 4.297)" fill="#c1c1c1"/>
        <path id="Trazado_993128" data-name="Trazado 993128" d="M321.222,120.185H273.481a13.531,13.531,0,0,0-9,3.186l-12.969,9.7H200.416a3.868,3.868,0,0,0-3.868,3.867v70.716a3.868,3.868,0,0,0,3.868,3.868H324.9a3.867,3.867,0,0,0,3.867-3.868V128.78C328.772,124.237,325.392,120.185,321.222,120.185Z" transform="translate(-196.548 -120.185)" fill="#ffc655"/>
      </g>
      <path id="Trazado_993129" data-name="Trazado 993129" d="M146.3,307.662l-7.08,6.864a5.606,5.606,0,0,0-.628.733,47.284,47.284,0,0,0-15.176-6.5,5.625,5.625,0,0,0,.106-.977l.106-9.861a5.571,5.571,0,0,0-5.505-5.624l-9.861-.106a5.572,5.572,0,0,0-5.624,5.505l-.106,9.861a5.727,5.727,0,0,0,.084.977,47.29,47.29,0,0,0-14.932,5.938,5.554,5.554,0,0,0-.605-.751l-6.864-7.08a5.571,5.571,0,0,0-7.87-.122l-7.08,6.864a5.572,5.572,0,0,0-.122,7.87L72,328.332a5.673,5.673,0,0,0,.732.628,47.283,47.283,0,0,0-6.5,15.176,5.6,5.6,0,0,0-.977-.106l-9.861-.106a5.527,5.527,0,0,0-3.933,1.568.148.148,0,0,0-.018.02,5.529,5.529,0,0,0-1.672,3.917l-.106,9.861h0a5.571,5.571,0,0,0,5.505,5.624l9.861.106a5.574,5.574,0,0,0,.976-.088,47.267,47.267,0,0,0,5.94,14.934,5.557,5.557,0,0,0-.751.6l-7.08,6.864a5.571,5.571,0,0,0-.122,7.869l6.864,7.08a5.572,5.572,0,0,0,7.87.122l7.08-6.864a5.67,5.67,0,0,0,.628-.732,47.3,47.3,0,0,0,15.18,6.5,5.564,5.564,0,0,0-.109.976l-.106,9.861a5.566,5.566,0,0,0,5.505,5.625l9.861.106h0a5.571,5.571,0,0,0,5.624-5.5l.106-9.861a5.571,5.571,0,0,0-.088-.976,47.282,47.282,0,0,0,14.935-5.94,5.555,5.555,0,0,0,.605.751l6.864,7.08a5.572,5.572,0,0,0,7.87.122l7.08-6.864a5.572,5.572,0,0,0,.122-7.87l-6.864-7.08a5.608,5.608,0,0,0-.733-.628,47.291,47.291,0,0,0,6.5-15.18,5.561,5.561,0,0,0,.976.109l9.861.106a5.571,5.571,0,0,0,5.625-5.5l.107-9.861a5.573,5.573,0,0,0-5.505-5.625l-9.861-.106a5.61,5.61,0,0,0-.977.084,47.289,47.289,0,0,0-5.938-14.932,5.555,5.555,0,0,0,.751-.605l7.08-6.864a5.571,5.571,0,0,0,.122-7.869l-6.864-7.08A5.57,5.57,0,0,0,146.3,307.662ZM130.7,373.8a26.136,26.136,0,1,1,.573-36.957A26.166,26.166,0,0,1,130.7,373.8Z" transform="translate(-28.033 -34.863)" fill="none" stroke="#0f1b63" stroke-miterlimit="10" stroke-width="1"/>
      <g id="Grupo_1159281" data-name="Grupo 1159281" transform="translate(77.007 100.282)">
        <rect id="Rectángulo_409815" data-name="Rectángulo 409815" width="105.989" height="50.808" transform="translate(123.073 253.349)" fill="#c60c88"/>
        <path id="Trazado_993130" data-name="Trazado 993130" d="M449.85,169.386V400.839a13.462,13.462,0,0,1-13.471,13.46H111.187a13.469,13.469,0,0,1-13.471-13.46V169.386a13.477,13.477,0,0,1,13.471-13.471H436.379A13.471,13.471,0,0,1,449.85,169.386Z" transform="translate(-97.716 -155.915)" fill="#d42190"/>
        <path id="Trazado_993131" data-name="Trazado 993131" d="M257.829,366.915A6.914,6.914,0,1,1,250.914,360,6.914,6.914,0,0,1,257.829,366.915Z" transform="translate(-75.42 -124.81)" fill="#fff" opacity="0.5"/>
        <path id="Trazado_993132" data-name="Trazado 993132" d="M445.061,382.173V171.384a11.374,11.374,0,0,0-11.17-11.568H112.557a11.374,11.374,0,0,0-11.17,11.568V382.173Z" transform="translate(-97.156 -155.32)" fill="#ded7ff"/>
        <path id="Trazado_993133" data-name="Trazado 993133" d="M334.113,426.043h-147.7v-.354a10.6,10.6,0,0,1,10.6-10.6H323.516a10.6,10.6,0,0,1,10.6,10.6v.354Z" transform="translate(-84.197 -116.413)" fill="#d42190"/>
      </g>
      <g id="Grupo_1159282" data-name="Grupo 1159282" transform="translate(0 52.522)">
        <path id="Trazado_993134" data-name="Trazado 993134" d="M139.841,164.564a19.868,19.868,0,0,0-17.589-19.732,17.647,17.647,0,0,0-17.586-19.74,17.623,17.623,0,0,0-7.337,1.605,26.519,26.519,0,0,0-48.586,18.1,19.874,19.874,0,0,0,2.025,39.644h70.185v-.05A19.86,19.86,0,0,0,139.841,164.564Z" transform="translate(-30.894 -114.472)" fill="#b19cfe"/>
        <path id="Trazado_993135" data-name="Trazado 993135" d="M93.627,192.427V161.549H68.17v30.878H60.213L80.9,211.807l20.687-19.38Z" transform="translate(-26.425 -107.297)" fill="#ffc655"/>
      </g>
      <g id="Grupo_1159283" data-name="Grupo 1159283" transform="translate(275.453 75.498)">
        <path id="Trazado_993136" data-name="Trazado 993136" d="M342.886,176.126h-62.5a10.465,10.465,0,0,1-10.465-10.465V144.874a10.466,10.466,0,0,1,10.465-10.465h62.5a10.465,10.465,0,0,1,10.465,10.465V165.66A10.466,10.466,0,0,1,342.886,176.126Z" transform="translate(-269.917 -134.409)" fill="#542fd0"/>
      </g>
      <g id="Grupo_1159284" data-name="Grupo 1159284" transform="translate(42.138 375.697)">
        <path id="Trazado_993137" data-name="Trazado 993137" d="M140.426,436.621h-62.5a10.466,10.466,0,0,1-10.465-10.465V405.37a10.465,10.465,0,0,1,10.465-10.465h62.5a10.465,10.465,0,0,1,10.465,10.465v20.786A10.466,10.466,0,0,1,140.426,436.621Z" transform="translate(-67.459 -394.905)" fill="#542fd0"/>
      </g>
      <g id="Grupo_1159285" data-name="Grupo 1159285" transform="translate(72.193 199.218)">
        <path id="Trazado_993138" data-name="Trazado 993138" d="M166.508,283.482H104a10.465,10.465,0,0,1-10.465-10.465V252.231A10.465,10.465,0,0,1,104,241.766h62.5a10.465,10.465,0,0,1,10.465,10.465v20.786A10.465,10.465,0,0,1,166.508,283.482Z" transform="translate(-93.539 -241.766)" fill="#542fd0"/>
      </g>
      <g id="Grupo_1159289" data-name="Grupo 1159289" transform="translate(361.529 258.827)">
        <g id="Grupo_1159286" data-name="Grupo 1159286" transform="translate(0 113.887)">
          <path id="Trazado_993139" data-name="Trazado 993139" d="M348.479,394.1H345.5a.893.893,0,0,1,0-1.786h2.977a.893.893,0,0,1,0,1.786Z" transform="translate(-344.609 -392.317)" fill="#b19cfe"/>
        </g>
        <g id="Grupo_1159287" data-name="Grupo 1159287" transform="translate(8.932 8.958)">
          <path id="Trazado_993140" data-name="Trazado 993140" d="M418.762,407.981h-5.956a.893.893,0,0,1,0-1.786h5.956a.893.893,0,1,1,0,1.786Zm-11.911,0H400.9a.893.893,0,1,1,0-1.786h5.954a.893.893,0,1,1,0,1.786Zm-11.91,0h-5.956a.893.893,0,1,1,0-1.786h5.956a.893.893,0,0,1,0,1.786Zm-11.911,0h-5.956a.893.893,0,0,1,0-1.786h5.956a.893.893,0,1,1,0,1.786Zm-11.91,0h-5.955a.893.893,0,0,1,0-1.786h5.955a.893.893,0,1,1,0,1.786Zm-11.91,0h-5.956a.893.893,0,1,1,0-1.786h5.956a.893.893,0,1,1,0,1.786Zm65.45-.693a.894.894,0,0,1-.21-1.762,23.591,23.591,0,0,0,5.359-2.012.893.893,0,0,1,.825,1.583,25.381,25.381,0,0,1-5.763,2.164A.826.826,0,0,1,424.659,407.288Zm10.462-5.446a.893.893,0,0,1-.589-1.564,24,24,0,0,0,3.819-4.267.893.893,0,0,1,1.464,1.023,25.768,25.768,0,0,1-4.1,4.585A.9.9,0,0,1,435.121,401.842Zm6.752-9.666a.892.892,0,0,1-.832-1.215,23.568,23.568,0,0,0,1.4-5.549.882.882,0,0,1,1-.774.892.892,0,0,1,.774,1,25.342,25.342,0,0,1-1.505,5.969A.892.892,0,0,1,441.873,392.175Zm1.648-11.7a.893.893,0,0,1-.893-.893v-5.956a.893.893,0,1,1,1.786,0v5.956A.892.892,0,0,1,443.521,380.472Zm0-11.911a.893.893,0,0,1-.893-.893v-5.955a.893.893,0,1,1,1.786,0v5.955A.892.892,0,0,1,443.521,368.56Zm0-11.91a.893.893,0,0,1-.893-.893V349.8a.893.893,0,1,1,1.786,0v5.954A.892.892,0,0,1,443.521,356.65Zm0-11.91a.893.893,0,0,1-.893-.893v-5.956a.893.893,0,1,1,1.786,0v5.956A.893.893,0,0,1,443.521,344.74Zm0-11.91a.893.893,0,0,1-.893-.893v-5.956a.893.893,0,1,1,1.786,0v5.956A.893.893,0,0,1,443.521,332.83Zm0-11.911a.893.893,0,0,1-.893-.893v-5.955a.893.893,0,1,1,1.786,0v5.955A.892.892,0,0,1,443.521,320.918Zm0-11.911a.893.893,0,0,1-.893-.893v-5.956a.893.893,0,1,1,1.786,0v5.956A.892.892,0,0,1,443.521,309.007Z" transform="translate(-352.36 -301.265)" fill="#b19cfe"/>
        </g>
        <g id="Grupo_1159288" data-name="Grupo 1159288" transform="translate(97.558)">
          <path id="Trazado_993141" data-name="Trazado 993141" d="M431.8,298.255a.893.893,0,0,1-.893-.893v-2.084h-.749a.893.893,0,1,1,0-1.786H431.8a.893.893,0,0,1,.893.893v2.977A.892.892,0,0,1,431.8,298.255Z" transform="translate(-429.264 -293.492)" fill="#b19cfe"/>
        </g>
      </g>
      <g id="Grupo_1159365" data-name="Grupo 1159365" transform="translate(347.259 169.519)">
        <path id="Trazado_993142" data-name="Trazado 993142" d="M418.87,215.995H340.731a8.5,8.5,0,0,0-8.5,8.5V386.885a8.5,8.5,0,0,0,8.5,8.5H418.87a8.5,8.5,0,0,0,8.5-8.5V224.5A8.5,8.5,0,0,0,418.87,215.995Z" transform="translate(-332.226 -215.995)" fill="#b19cfe"/>
        <g id="Grupo_1159290" data-name="Grupo 1159290" transform="translate(20.715 6.481)">
          <path id="Trazado_993143" data-name="Trazado 993143" d="M394.533,224.5H351.552a1.351,1.351,0,0,1-1.351-1.351v-.174a1.351,1.351,0,0,1,1.351-1.351h42.982a1.351,1.351,0,0,1,1.351,1.351v.174A1.351,1.351,0,0,1,394.533,224.5Z" transform="translate(-350.201 -221.619)" fill="#0f1b63"/>
          <path id="Trazado_993144" data-name="Trazado 993144" d="M397.2,223.057a1.438,1.438,0,1,1-1.438-1.438A1.439,1.439,0,0,1,397.2,223.057Z" transform="translate(-343.477 -221.619)" fill="#0f1b63"/>
        </g>
        <rect id="Rectángulo_409816" data-name="Rectángulo 409816" width="84.674" height="52.03" transform="translate(5.238 16.291)" fill="#fff"/>
        <path id="Trazado_993145" data-name="Trazado 993145" d="M393.946,250.556l-6.208,7.426-16.063-19.216-26.858,32.128h66.131Z" transform="translate(-330.307 -212.524)" fill="#ffc655"/>
        <g id="Grupo_1159291" data-name="Grupo 1159291" transform="translate(5.238 137.239)">
          <rect id="Rectángulo_409817" data-name="Rectángulo 409817" width="39.976" height="23.447" fill="#fff"/>
          <path id="Trazado_993146" data-name="Trazado 993146" d="M363.765,343.726l-2.932,3.506-7.584-9.073-12.68,15.169h31.222Z" transform="translate(-336.192 -334.614)" fill="#ffc655"/>
        </g>
        <g id="Grupo_1159306" data-name="Grupo 1159306" transform="translate(5.238 76.997)">
          <g id="Grupo_1159305" data-name="Grupo 1159305">
            <g id="Grupo_1159293" data-name="Grupo 1159293" transform="translate(0 4.706)">
              <g id="Grupo_1159292" data-name="Grupo 1159292">
                <rect id="Rectángulo_409818" data-name="Rectángulo 409818" width="39.976" height="2.246" fill="#b19cfe"/>
              </g>
            </g>
            <g id="Grupo_1159294" data-name="Grupo 1159294">
              <rect id="Rectángulo_409819" data-name="Rectángulo 409819" width="39.976" height="2.246" fill="#b19cfe"/>
            </g>
            <g id="Grupo_1159296" data-name="Grupo 1159296" transform="translate(0 9.305)">
              <g id="Grupo_1159295" data-name="Grupo 1159295">
                <rect id="Rectángulo_409820" data-name="Rectángulo 409820" width="25.277" height="2.246" fill="#b19cfe"/>
              </g>
            </g>
            <g id="Grupo_1159298" data-name="Grupo 1159298" transform="translate(27.074 9.305)">
              <g id="Grupo_1159297" data-name="Grupo 1159297">
                <rect id="Rectángulo_409821" data-name="Rectángulo 409821" width="12.901" height="2.246" fill="#b19cfe"/>
              </g>
            </g>
            <g id="Grupo_1159300" data-name="Grupo 1159300" transform="translate(0 13.897)">
              <g id="Grupo_1159299" data-name="Grupo 1159299">
                <rect id="Rectángulo_409822" data-name="Rectángulo 409822" width="35.368" height="2.246" fill="#b19cfe"/>
              </g>
            </g>
            <g id="Grupo_1159302" data-name="Grupo 1159302" transform="translate(0 18.615)">
              <g id="Grupo_1159301" data-name="Grupo 1159301">
                <rect id="Rectángulo_409823" data-name="Rectángulo 409823" width="12.284" height="2.246" fill="#b19cfe"/>
              </g>
            </g>
            <g id="Grupo_1159304" data-name="Grupo 1159304" transform="translate(14.403 18.615)">
              <g id="Grupo_1159303" data-name="Grupo 1159303">
                <rect id="Rectángulo_409824" data-name="Rectángulo 409824" width="8.847" height="2.246" fill="#b19cfe"/>
              </g>
            </g>
          </g>
        </g>
        <g id="Grupo_1159321" data-name="Grupo 1159321" transform="translate(49.935 108.451)">
          <g id="Grupo_1159320" data-name="Grupo 1159320">
            <g id="Grupo_1159308" data-name="Grupo 1159308" transform="translate(0 4.708)">
              <g id="Grupo_1159307" data-name="Grupo 1159307">
                <rect id="Rectángulo_409825" data-name="Rectángulo 409825" width="39.976" height="2.246" fill="#b19cfe"/>
              </g>
            </g>
            <g id="Grupo_1159309" data-name="Grupo 1159309">
              <rect id="Rectángulo_409826" data-name="Rectángulo 409826" width="39.976" height="2.246" fill="#b19cfe"/>
            </g>
            <g id="Grupo_1159311" data-name="Grupo 1159311" transform="translate(0 9.305)">
              <g id="Grupo_1159310" data-name="Grupo 1159310">
                <rect id="Rectángulo_409827" data-name="Rectángulo 409827" width="25.277" height="2.246" fill="#b19cfe"/>
              </g>
            </g>
            <g id="Grupo_1159313" data-name="Grupo 1159313" transform="translate(27.074 9.305)">
              <g id="Grupo_1159312" data-name="Grupo 1159312">
                <rect id="Rectángulo_409828" data-name="Rectángulo 409828" width="12.901" height="2.246" fill="#b19cfe"/>
              </g>
            </g>
            <g id="Grupo_1159315" data-name="Grupo 1159315" transform="translate(0 13.897)">
              <g id="Grupo_1159314" data-name="Grupo 1159314">
                <rect id="Rectángulo_409829" data-name="Rectángulo 409829" width="35.368" height="2.246" fill="#b19cfe"/>
              </g>
            </g>
            <g id="Grupo_1159317" data-name="Grupo 1159317" transform="translate(0 18.615)">
              <g id="Grupo_1159316" data-name="Grupo 1159316">
                <rect id="Rectángulo_409830" data-name="Rectángulo 409830" width="12.284" height="2.246" fill="#b19cfe"/>
              </g>
            </g>
            <g id="Grupo_1159319" data-name="Grupo 1159319" transform="translate(14.403 18.615)">
              <g id="Grupo_1159318" data-name="Grupo 1159318">
                <rect id="Rectángulo_409831" data-name="Rectángulo 409831" width="8.847" height="2.246" fill="#b19cfe"/>
              </g>
            </g>
          </g>
        </g>
        <g id="Grupo_1159336" data-name="Grupo 1159336" transform="translate(49.935 76.997)">
          <g id="Grupo_1159335" data-name="Grupo 1159335">
            <g id="Grupo_1159323" data-name="Grupo 1159323" transform="translate(0 4.706)">
              <g id="Grupo_1159322" data-name="Grupo 1159322">
                <rect id="Rectángulo_409832" data-name="Rectángulo 409832" width="39.976" height="2.246" fill="#b19cfe"/>
              </g>
            </g>
            <g id="Grupo_1159324" data-name="Grupo 1159324">
              <rect id="Rectángulo_409833" data-name="Rectángulo 409833" width="39.976" height="2.246" fill="#b19cfe"/>
            </g>
            <g id="Grupo_1159326" data-name="Grupo 1159326" transform="translate(0 9.305)">
              <g id="Grupo_1159325" data-name="Grupo 1159325">
                <rect id="Rectángulo_409834" data-name="Rectángulo 409834" width="25.277" height="2.246" fill="#b19cfe"/>
              </g>
            </g>
            <g id="Grupo_1159328" data-name="Grupo 1159328" transform="translate(27.074 9.305)">
              <g id="Grupo_1159327" data-name="Grupo 1159327">
                <rect id="Rectángulo_409835" data-name="Rectángulo 409835" width="12.901" height="2.246" fill="#b19cfe"/>
              </g>
            </g>
            <g id="Grupo_1159330" data-name="Grupo 1159330" transform="translate(0 13.897)">
              <g id="Grupo_1159329" data-name="Grupo 1159329">
                <rect id="Rectángulo_409836" data-name="Rectángulo 409836" width="39.976" height="2.246" fill="#b19cfe"/>
              </g>
            </g>
            <g id="Grupo_1159332" data-name="Grupo 1159332" transform="translate(0 18.615)">
              <g id="Grupo_1159331" data-name="Grupo 1159331">
                <rect id="Rectángulo_409837" data-name="Rectángulo 409837" width="12.284" height="2.246" fill="#b19cfe"/>
              </g>
            </g>
            <g id="Grupo_1159334" data-name="Grupo 1159334" transform="translate(14.403 18.615)">
              <g id="Grupo_1159333" data-name="Grupo 1159333">
                <rect id="Rectángulo_409838" data-name="Rectángulo 409838" width="25.573" height="2.246" fill="#b19cfe"/>
              </g>
            </g>
          </g>
        </g>
        <g id="Grupo_1159347" data-name="Grupo 1159347" transform="translate(5.238 108.451)">
          <g id="Grupo_1159346" data-name="Grupo 1159346">
            <g id="Grupo_1159338" data-name="Grupo 1159338" transform="translate(0 4.708)">
              <g id="Grupo_1159337" data-name="Grupo 1159337">
                <rect id="Rectángulo_409839" data-name="Rectángulo 409839" width="39.976" height="2.246" fill="#b19cfe"/>
              </g>
            </g>
            <g id="Grupo_1159339" data-name="Grupo 1159339">
              <rect id="Rectángulo_409840" data-name="Rectángulo 409840" width="39.976" height="2.246" fill="#b19cfe"/>
            </g>
            <g id="Grupo_1159341" data-name="Grupo 1159341" transform="translate(0 9.305)">
              <g id="Grupo_1159340" data-name="Grupo 1159340">
                <rect id="Rectángulo_409841" data-name="Rectángulo 409841" width="39.976" height="2.246" fill="#b19cfe"/>
              </g>
            </g>
            <g id="Grupo_1159343" data-name="Grupo 1159343" transform="translate(0 13.897)">
              <g id="Grupo_1159342" data-name="Grupo 1159342">
                <rect id="Rectángulo_409842" data-name="Rectángulo 409842" width="39.976" height="2.246" fill="#b19cfe"/>
              </g>
            </g>
            <g id="Grupo_1159345" data-name="Grupo 1159345" transform="translate(0 18.615)">
              <g id="Grupo_1159344" data-name="Grupo 1159344">
                <rect id="Rectángulo_409843" data-name="Rectángulo 409843" width="39.976" height="2.246" fill="#b19cfe"/>
              </g>
            </g>
          </g>
        </g>
        <g id="Grupo_1159364" data-name="Grupo 1159364" transform="translate(49.935 138.006)">
          <g id="Grupo_1159363" data-name="Grupo 1159363">
            <g id="Grupo_1159349" data-name="Grupo 1159349" transform="translate(0 4.706)">
              <g id="Grupo_1159348" data-name="Grupo 1159348">
                <rect id="Rectángulo_409844" data-name="Rectángulo 409844" width="39.976" height="2.246" fill="#b19cfe"/>
              </g>
            </g>
            <g id="Grupo_1159350" data-name="Grupo 1159350">
              <rect id="Rectángulo_409845" data-name="Rectángulo 409845" width="39.976" height="2.246" fill="#b19cfe"/>
            </g>
            <g id="Grupo_1159352" data-name="Grupo 1159352" transform="translate(14.698 9.303)">
              <g id="Grupo_1159351" data-name="Grupo 1159351">
                <rect id="Rectángulo_409846" data-name="Rectángulo 409846" width="25.277" height="2.246" fill="#b19cfe"/>
              </g>
            </g>
            <g id="Grupo_1159354" data-name="Grupo 1159354" transform="translate(0 9.303)">
              <g id="Grupo_1159353" data-name="Grupo 1159353">
                <rect id="Rectángulo_409847" data-name="Rectángulo 409847" width="12.901" height="2.246" fill="#b19cfe"/>
              </g>
            </g>
            <g id="Grupo_1159356" data-name="Grupo 1159356" transform="translate(0 13.896)">
              <g id="Grupo_1159355" data-name="Grupo 1159355">
                <rect id="Rectángulo_409848" data-name="Rectángulo 409848" width="30.696" height="2.246" fill="#b19cfe"/>
              </g>
            </g>
            <g id="Grupo_1159358" data-name="Grupo 1159358" transform="translate(32.828 13.896)">
              <g id="Grupo_1159357" data-name="Grupo 1159357">
                <rect id="Rectángulo_409849" data-name="Rectángulo 409849" width="7.147" height="2.246" fill="#b19cfe"/>
              </g>
            </g>
            <g id="Grupo_1159360" data-name="Grupo 1159360" transform="translate(10.488 18.614)">
              <g id="Grupo_1159359" data-name="Grupo 1159359">
                <rect id="Rectángulo_409850" data-name="Rectángulo 409850" width="29.488" height="2.246" fill="#b19cfe"/>
              </g>
            </g>
            <g id="Grupo_1159362" data-name="Grupo 1159362" transform="translate(0 18.614)">
              <g id="Grupo_1159361" data-name="Grupo 1159361">
                <rect id="Rectángulo_409851" data-name="Rectángulo 409851" width="8.847" height="2.246" fill="#b19cfe"/>
              </g>
            </g>
          </g>
        </g>
      </g>
      <g id="Grupo_1159366" data-name="Grupo 1159366" transform="translate(293.221 348.915)">
        <path id="Trazado_993147" data-name="Trazado 993147" d="M358.3,413.381H295.8a10.465,10.465,0,0,1-10.465-10.465V382.13A10.466,10.466,0,0,1,295.8,371.665h62.5a10.466,10.466,0,0,1,10.465,10.465v20.786A10.465,10.465,0,0,1,358.3,413.381Z" transform="translate(-285.335 -371.665)" fill="#542fd0"/>
      </g>
      <g id="Grupo_1159370" data-name="Grupo 1159370" transform="translate(453.655 314.148)">
        <g id="Grupo_1159369" data-name="Grupo 1159369">
          <g id="Grupo_1159367" data-name="Grupo 1159367" transform="translate(3.403 3.402)">
            <path id="Trazado_993148" data-name="Trazado 993148" d="M435.287,348.34a3.892,3.892,0,1,1-3.892-3.892A3.892,3.892,0,0,1,435.287,348.34Z" transform="translate(-427.504 -344.448)" fill="#b19cfe"/>
          </g>
          <g id="Grupo_1159368" data-name="Grupo 1159368">
            <path id="Trazado_993149" data-name="Trazado 993149" d="M431.845,356.083a7.294,7.294,0,1,1,7.294-7.294A7.3,7.3,0,0,1,431.845,356.083Zm0-13.7a6.4,6.4,0,1,0,6.4,6.4A6.408,6.408,0,0,0,431.845,342.388Z" transform="translate(-424.551 -341.496)" fill="#b19cfe"/>
          </g>
        </g>
      </g>
      <g id="Grupo_1159371" data-name="Grupo 1159371" transform="translate(421.566 222.622)">
        <path id="Trazado_993150" data-name="Trazado 993150" d="M469.674,303.791h-62.5a10.466,10.466,0,0,1-10.465-10.465V272.54a10.466,10.466,0,0,1,10.465-10.465h62.5A10.465,10.465,0,0,1,480.14,272.54v20.786A10.465,10.465,0,0,1,469.674,303.791Z" transform="translate(-396.706 -262.075)" fill="#542fd0"/>
      </g>
      <g id="Grupo_1159451" data-name="Grupo 1159451" transform="translate(91.845 135.036)">
        <g id="Grupo_1159378" data-name="Grupo 1159378" transform="translate(152.042 136.939)">
          <g id="Grupo_1159372" data-name="Grupo 1159372">
            <rect id="Rectángulo_409852" data-name="Rectángulo 409852" width="26.253" height="2.382" fill="#0f1b63"/>
          </g>
          <g id="Grupo_1159373" data-name="Grupo 1159373" transform="translate(32.988)">
            <rect id="Rectángulo_409853" data-name="Rectángulo 409853" width="60.798" height="2.382" fill="#0f1b63"/>
          </g>
          <g id="Grupo_1159374" data-name="Grupo 1159374" transform="translate(31.319 18.076)">
            <path id="Trazado_993151" data-name="Trazado 993151" d="M301.009,323.006c-10.436,0-20.9-.013-31.306-.038l0-2.382c20.82.05,41.833.05,62.458,0l.006,2.382C321.858,322.993,311.446,323.006,301.009,323.006Z" transform="translate(-269.703 -320.586)" fill="#0f1b63"/>
          </g>
          <g id="Grupo_1159375" data-name="Grupo 1159375" transform="translate(21.754 9.038)">
            <rect id="Rectángulo_409854" data-name="Rectángulo 409854" width="72.032" height="2.382" fill="#0f1b63"/>
          </g>
          <g id="Grupo_1159376" data-name="Grupo 1159376" transform="translate(17.836 27.152)">
            <rect id="Rectángulo_409855" data-name="Rectángulo 409855" width="75.951" height="2.382" fill="#0f1b63"/>
          </g>
          <g id="Grupo_1159377" data-name="Grupo 1159377" transform="translate(7.302 36.19)">
            <rect id="Rectángulo_409856" data-name="Rectángulo 409856" width="86.485" height="2.382" fill="#0f1b63"/>
          </g>
        </g>
        <g id="Grupo_1159411" data-name="Grupo 1159411">
          <g id="Grupo_1159379" data-name="Grupo 1159379" transform="translate(10.154 0.742)">
            <rect id="Rectángulo_409857" data-name="Rectángulo 409857" width="40.663" height="2.382" fill="#b19cfe"/>
          </g>
          <g id="Grupo_1159380" data-name="Grupo 1159380" transform="translate(103.363 0.742)">
            <rect id="Rectángulo_409858" data-name="Rectángulo 409858" width="41.962" height="2.382" fill="#b19cfe"/>
          </g>
          <g id="Grupo_1159383" data-name="Grupo 1159383" transform="translate(116.217 9.781)">
            <g id="Grupo_1159382" data-name="Grupo 1159382">
              <g id="Grupo_1159381" data-name="Grupo 1159381">
                <rect id="Rectángulo_409859" data-name="Rectángulo 409859" width="29.108" height="2.382" fill="#ffc655"/>
              </g>
            </g>
          </g>
          <g id="Grupo_1159386" data-name="Grupo 1159386" transform="translate(104.244 27.895)">
            <g id="Grupo_1159385" data-name="Grupo 1159385">
              <g id="Grupo_1159384" data-name="Grupo 1159384">
                <rect id="Rectángulo_409860" data-name="Rectángulo 409860" width="41.081" height="2.382" fill="#ffc655"/>
              </g>
            </g>
          </g>
          <g id="Grupo_1159389" data-name="Grupo 1159389" transform="translate(96.198 36.933)">
            <g id="Grupo_1159388" data-name="Grupo 1159388">
              <g id="Grupo_1159387" data-name="Grupo 1159387">
                <rect id="Rectángulo_409861" data-name="Rectángulo 409861" width="49.127" height="2.382" fill="#ffc655"/>
              </g>
            </g>
          </g>
          <g id="Grupo_1159392" data-name="Grupo 1159392" transform="translate(82.132 47.5)">
            <g id="Grupo_1159391" data-name="Grupo 1159391">
              <g id="Grupo_1159390" data-name="Grupo 1159390">
                <rect id="Rectángulo_409862" data-name="Rectángulo 409862" width="63.193" height="2.382" fill="#ffc655"/>
              </g>
            </g>
          </g>
          <g id="Grupo_1159393" data-name="Grupo 1159393" transform="translate(57.407 0.742)">
            <rect id="Rectángulo_409863" data-name="Rectángulo 409863" width="40.663" height="2.382" fill="#ffc655"/>
          </g>
          <g id="Grupo_1159396" data-name="Grupo 1159396" transform="translate(79.482 18.818)">
            <g id="Grupo_1159395" data-name="Grupo 1159395">
              <g id="Grupo_1159394" data-name="Grupo 1159394">
                <path id="Trazado_993152" data-name="Trazado 993152" d="M212.579,204.822c-6.212,0-12.445-.009-24.912-.026l-8.1-.012,0-2.382,8.106.012c24.929.035,24.931.035,49.684,0l8.051-.012v2.382l-8.047.012C224.98,204.814,218.79,204.822,212.579,204.822Z" transform="translate(-179.562 -202.402)" fill="#ffc655"/>
              </g>
            </g>
          </g>
          <g id="Grupo_1159397" data-name="Grupo 1159397" transform="translate(10.152 18.819)">
            <path id="Trazado_993153" data-name="Trazado 993153" d="M150.563,204.822c-10.436,0-20.848-.013-31.162-.037l0-2.382c20.626.05,41.641.05,62.461,0l0,2.382C171.459,204.81,161,204.822,150.563,204.822Z" transform="translate(-119.401 -202.403)" fill="#b19cfe"/>
          </g>
          <g id="Grupo_1159398" data-name="Grupo 1159398" transform="translate(10.154 9.781)">
            <rect id="Rectángulo_409864" data-name="Rectángulo 409864" width="100.289" height="2.382" fill="#b19cfe"/>
          </g>
          <g id="Grupo_1159399" data-name="Grupo 1159399" transform="translate(10.154 47.5)">
            <rect id="Rectángulo_409865" data-name="Rectángulo 409865" width="66.411" height="2.382" fill="#b19cfe"/>
          </g>
          <g id="Grupo_1159400" data-name="Grupo 1159400" transform="translate(10.154 27.895)">
            <rect id="Rectángulo_409866" data-name="Rectángulo 409866" width="88.904" height="2.382" fill="#b19cfe"/>
          </g>
          <g id="Grupo_1159401" data-name="Grupo 1159401" transform="translate(10.154 36.933)">
            <rect id="Rectángulo_409867" data-name="Rectángulo 409867" width="80.573" height="2.382" fill="#b19cfe"/>
          </g>
          <g id="Grupo_1159409" data-name="Grupo 1159409" transform="translate(0 0.292)">
            <g id="Grupo_1159408" data-name="Grupo 1159408">
              <g id="Grupo_1159402" data-name="Grupo 1159402" transform="translate(0)">
                <circle id="Elipse_12001" data-name="Elipse 12001" cx="1.642" cy="1.642" r="1.642" fill="#d42190"/>
              </g>
              <g id="Grupo_1159403" data-name="Grupo 1159403" transform="translate(0 9.038)">
                <path id="Trazado_993154" data-name="Trazado 993154" d="M113.876,195.811a1.642,1.642,0,1,1-1.642-1.642A1.642,1.642,0,0,1,113.876,195.811Z" transform="translate(-110.592 -194.169)" fill="#d42190"/>
              </g>
              <g id="Grupo_1159404" data-name="Grupo 1159404" transform="translate(0 18.076)">
                <circle id="Elipse_12002" data-name="Elipse 12002" cx="1.642" cy="1.642" r="1.642" fill="#d42190"/>
              </g>
              <g id="Grupo_1159405" data-name="Grupo 1159405" transform="translate(0 27.114)">
                <path id="Trazado_993155" data-name="Trazado 993155" d="M113.876,211.5a1.642,1.642,0,1,1-1.642-1.642A1.642,1.642,0,0,1,113.876,211.5Z" transform="translate(-110.592 -209.854)" fill="#d42190"/>
              </g>
              <g id="Grupo_1159406" data-name="Grupo 1159406" transform="translate(0 36.19)">
                <circle id="Elipse_12003" data-name="Elipse 12003" cx="1.642" cy="1.642" r="1.642" fill="#d42190"/>
              </g>
              <g id="Grupo_1159407" data-name="Grupo 1159407" transform="translate(0 46.757)">
                <path id="Trazado_993156" data-name="Trazado 993156" d="M113.876,228.541a1.642,1.642,0,1,1-1.642-1.642A1.642,1.642,0,0,1,113.876,228.541Z" transform="translate(-110.592 -226.899)" fill="#d42190"/>
              </g>
            </g>
          </g>
          <g id="Grupo_1159410" data-name="Grupo 1159410" transform="translate(155.569)">
            <path id="Trazado_993157" data-name="Trazado 993157" d="M246.182,240.149a.6.6,0,0,1-.6-.6V186.669a.6.6,0,0,1,1.192,0v52.885A.6.6,0,0,1,246.182,240.149Z" transform="translate(-245.586 -186.073)" fill="#d42190"/>
          </g>
        </g>
        <g id="Grupo_1159427" data-name="Grupo 1159427" transform="translate(33.751 100.539)">
          <g id="Grupo_1159412" data-name="Grupo 1159412" transform="translate(0 28.979)">
            <path id="Trazado_993158" data-name="Trazado 993158" d="M160.92,337.1h-3.661a.61.61,0,1,1,0-1.219h3.661a.61.61,0,1,1,0,1.219Zm-7.321,0h-3.66a.61.61,0,1,1,0-1.219h3.66a.61.61,0,1,1,0,1.219Zm-7.321,0H144.8a4.923,4.923,0,0,1-2.382-.615.61.61,0,1,1,.591-1.067,3.7,3.7,0,0,0,1.791.462h1.482a.61.61,0,0,1,0,1.22Zm-5.691-3.386a.61.61,0,0,1-.595-.481,4.955,4.955,0,0,1-.113-1.05v-2.732a.61.61,0,0,1,1.219,0v2.732a3.749,3.749,0,0,0,.085.792.61.61,0,0,1-.466.726A.752.752,0,0,1,140.587,333.71Zm-.1-7.313a.609.609,0,0,1-.61-.61v-3.661a.61.61,0,1,1,1.219,0v3.661A.609.609,0,0,1,140.489,326.4Zm0-7.321a.609.609,0,0,1-.61-.611V314.8a.61.61,0,0,1,1.219,0v3.661A.609.609,0,0,1,140.489,319.075Zm0-7.322a.609.609,0,0,1-.61-.61v-3.661a.61.61,0,0,1,1.219,0v3.661A.608.608,0,0,1,140.489,311.753Zm0-7.321a.609.609,0,0,1-.61-.61v-.446a4.9,4.9,0,0,1,1.306-3.337.61.61,0,0,1,.9.829,3.687,3.687,0,0,0-.982,2.51v.446A.61.61,0,0,1,140.489,304.432Zm22.718-4.751h-3.66a.61.61,0,0,1,0-1.219h3.66a.61.61,0,1,1,0,1.219Zm-7.321,0h-3.66a.61.61,0,1,1,0-1.219h3.66a.61.61,0,1,1,0,1.219Zm-7.321,0H144.9a.61.61,0,1,1,0-1.219h3.66a.61.61,0,0,1,0,1.219Z" transform="translate(-139.879 -298.461)" fill="#0f1b63"/>
          </g>
          <g id="Grupo_1159413" data-name="Grupo 1159413" transform="translate(14.723 51.77)">
            <rect id="Rectángulo_409868" data-name="Rectángulo 409868" width="19.597" height="2.441" fill="#0f1b63"/>
          </g>
          <g id="Grupo_1159414" data-name="Grupo 1159414" transform="translate(39.449 51.77)">
            <rect id="Rectángulo_409869" data-name="Rectángulo 409869" width="31.659" height="2.441" fill="#0f1b63"/>
          </g>
          <g id="Grupo_1159415" data-name="Grupo 1159415" transform="translate(51.512 72.532)">
            <rect id="Rectángulo_409870" data-name="Rectángulo 409870" width="19.596" height="2.441" fill="#0f1b63"/>
          </g>
          <g id="Grupo_1159416" data-name="Grupo 1159416" transform="translate(14.723 72.532)">
            <rect id="Rectángulo_409871" data-name="Rectángulo 409871" width="31.66" height="2.441" fill="#0f1b63"/>
          </g>
          <g id="Grupo_1159417" data-name="Grupo 1159417" transform="translate(14.723 58.841)">
            <rect id="Rectángulo_409872" data-name="Rectángulo 409872" width="34.468" height="2.441" fill="#0f1b63"/>
          </g>
          <g id="Grupo_1159418" data-name="Grupo 1159418" transform="translate(54.319 58.841)">
            <rect id="Rectángulo_409873" data-name="Rectángulo 409873" width="16.788" height="2.441" fill="#0f1b63"/>
          </g>
          <g id="Grupo_1159419" data-name="Grupo 1159419" transform="translate(14.723 65.783)">
            <rect id="Rectángulo_409874" data-name="Rectángulo 409874" width="28.364" height="2.441" fill="#0f1b63"/>
          </g>
          <g id="Grupo_1159420" data-name="Grupo 1159420" transform="translate(51.861 65.783)">
            <rect id="Rectángulo_409875" data-name="Rectángulo 409875" width="19.246" height="2.441" fill="#0f1b63"/>
          </g>
          <g id="Grupo_1159425" data-name="Grupo 1159425" transform="translate(14.723)">
            <g id="Grupo_1159421" data-name="Grupo 1159421" transform="translate(0 22.287)">
              <rect id="Rectángulo_409876" data-name="Rectángulo 409876" width="10.259" height="19.102" fill="#ffc655"/>
            </g>
            <g id="Grupo_1159423" data-name="Grupo 1159423" transform="translate(16.095 15.034)">
              <g id="Grupo_1159422" data-name="Grupo 1159422">
                <rect id="Rectángulo_409877" data-name="Rectángulo 409877" width="10.259" height="26.353" fill="#d42190"/>
              </g>
            </g>
            <g id="Grupo_1159424" data-name="Grupo 1159424" transform="translate(31.659)">
              <rect id="Rectángulo_409878" data-name="Rectángulo 409878" width="10.259" height="41.388" fill="#542fd0"/>
            </g>
          </g>
          <g id="Grupo_1159426" data-name="Grupo 1159426" transform="translate(45.798 65.783)">
            <rect id="Rectángulo_409879" data-name="Rectángulo 409879" width="3.682" height="2.441" fill="#0f1b63"/>
          </g>
        </g>
        <g id="Grupo_1159450" data-name="Grupo 1159450" transform="translate(166.918 34.482)">
          <rect id="Rectángulo_409880" data-name="Rectángulo 409880" width="76.796" height="85.682" transform="translate(1.192 1.218)" fill="#b19cfe"/>
          <g id="Grupo_1159436" data-name="Grupo 1159436" transform="translate(7.39 16.446)">
            <g id="Grupo_1159428" data-name="Grupo 1159428" transform="translate(0.001)">
              <rect id="Rectángulo_409881" data-name="Rectángulo 409881" width="53.548" height="1.786" fill="#fff"/>
            </g>
            <g id="Grupo_1159429" data-name="Grupo 1159429" transform="translate(0 12.972)">
              <path id="Trazado_993159" data-name="Trazado 993159" d="M288.566,243.338c-9.2,0-18.375-.009-26.719-.03l0-1.786c16.685.041,36.7.041,53.543,0l0,1.786C306.977,243.329,297.762,243.338,288.566,243.338Z" transform="translate(-261.847 -241.522)" fill="#fff"/>
            </g>
            <g id="Grupo_1159430" data-name="Grupo 1159430" transform="translate(0.001 6.486)">
              <rect id="Rectángulo_409882" data-name="Rectángulo 409882" width="53.548" height="1.786" fill="#fff"/>
            </g>
            <g id="Grupo_1159431" data-name="Grupo 1159431" transform="translate(0.001 19.487)">
              <rect id="Rectángulo_409883" data-name="Rectángulo 409883" width="39.037" height="1.786" fill="#fff"/>
            </g>
            <g id="Grupo_1159432" data-name="Grupo 1159432" transform="translate(0.001 63.146)">
              <rect id="Rectángulo_409884" data-name="Rectángulo 409884" width="53.548" height="1.786" fill="#fff"/>
            </g>
            <g id="Grupo_1159433" data-name="Grupo 1159433" transform="translate(0 50.147)">
              <path id="Trazado_993160" data-name="Trazado 993160" d="M315.4,275.6c-16.843-.04-36.86-.04-53.543,0l0-1.786c16.688-.039,36.709-.039,53.553,0Z" transform="translate(-261.847 -273.781)" fill="#fff"/>
            </g>
            <g id="Grupo_1159434" data-name="Grupo 1159434" transform="translate(0.001 56.662)">
              <rect id="Rectángulo_409885" data-name="Rectángulo 409885" width="53.548" height="1.786" fill="#fff"/>
            </g>
            <g id="Grupo_1159435" data-name="Grupo 1159435" transform="translate(0.001 43.66)">
              <rect id="Rectángulo_409886" data-name="Rectángulo 409886" width="39.037" height="1.786" fill="#fff"/>
            </g>
          </g>
          <g id="Grupo_1159437" data-name="Grupo 1159437">
            <path id="Trazado_993161" data-name="Trazado 993161" d="M334.612,304.085H255.434v-88.09h79.178Zm-77.986-1.19h76.8v-85.71h-76.8Z" transform="translate(-255.434 -215.995)" fill="#542fd0"/>
          </g>
          <g id="Grupo_1159439" data-name="Grupo 1159439" transform="translate(0.596 0.595)">
            <g id="Grupo_1159438" data-name="Grupo 1159438">
              <rect id="Rectángulo_409887" data-name="Rectángulo 409887" width="77.987" height="10.263" fill="#542fd0"/>
            </g>
          </g>
          <g id="Grupo_1159442" data-name="Grupo 1159442" transform="translate(49.418 43.151)">
            <g id="Grupo_1159440" data-name="Grupo 1159440">
              <path id="Trazado_993162" data-name="Trazado 993162" d="M305.21,265.831a.9.9,0,0,1-.592-.224l-6-5.3a.9.9,0,0,1,0-1.339l6-5.3A.894.894,0,1,1,305.8,255l-5.243,4.633,5.243,4.633a.893.893,0,0,1-.591,1.563Z" transform="translate(-298.316 -253.439)" fill="#fff"/>
            </g>
            <g id="Grupo_1159441" data-name="Grupo 1159441" transform="translate(15.258 0.001)">
              <path id="Trazado_993163" data-name="Trazado 993163" d="M312.449,265.831a.893.893,0,0,1-.591-1.563l5.244-4.633L311.858,255a.894.894,0,1,1,1.184-1.339l6,5.3a.9.9,0,0,1,0,1.339l-6,5.3A.894.894,0,0,1,312.449,265.831Z" transform="translate(-311.556 -253.44)" fill="#fff"/>
            </g>
          </g>
          <g id="Grupo_1159449" data-name="Grupo 1159449" transform="translate(4.329 2.787)">
            <g id="Grupo_1159444" data-name="Grupo 1159444">
              <g id="Grupo_1159443" data-name="Grupo 1159443">
                <path id="Trazado_993164" data-name="Trazado 993164" d="M262.843,221.354l2.08-2.08a.5.5,0,1,0-.712-.712l-2.08,2.08-2.08-2.08a.5.5,0,1,0-.712.712l2.08,2.08-2.08,2.08a.5.5,0,1,0,.712.712l2.08-2.08,2.08,2.08a.5.5,0,0,0,.712-.712Z" transform="translate(-259.191 -218.414)" fill="#fff"/>
              </g>
            </g>
            <g id="Grupo_1159446" data-name="Grupo 1159446" transform="translate(9.634 0)">
              <g id="Grupo_1159445" data-name="Grupo 1159445">
                <path id="Trazado_993165" data-name="Trazado 993165" d="M270.492,224.294a2.94,2.94,0,1,1,2.94-2.94A2.944,2.944,0,0,1,270.492,224.294Zm0-4.939a2,2,0,1,0,2,2A2,2,0,0,0,270.492,219.354Z" transform="translate(-267.551 -218.414)" fill="#fff"/>
              </g>
            </g>
            <g id="Grupo_1159448" data-name="Grupo 1159448" transform="translate(18.656 4.873)">
              <g id="Grupo_1159447" data-name="Grupo 1159447">
                <path id="Trazado_993166" data-name="Trazado 993166" d="M280.674,223.649h-4.792a.5.5,0,0,1,0-1.007h4.792a.5.5,0,0,1,0,1.007Z" transform="translate(-275.379 -222.642)" fill="#fff"/>
              </g>
            </g>
          </g>
        </g>
      </g>
      <path id="Trazado_993167" data-name="Trazado 993167" d="M246.2,120.307l-6.935,2.194a4.04,4.04,0,0,0-.656.277,34.9,34.9,0,0,0-7.869-9.294,4.129,4.129,0,0,0,.392-.61l3.322-6.471a4.111,4.111,0,0,0-1.777-5.527L226.2,97.554a4.111,4.111,0,0,0-5.527,1.777l-3.322,6.471a4.115,4.115,0,0,0-.266.672,34.851,34.851,0,0,0-11.811-1.006,4.143,4.143,0,0,0-.151-.695l-2.194-6.935a4.109,4.109,0,0,0-5.152-2.676l-6.935,2.194a4.11,4.11,0,0,0-2.676,5.152l2.194,6.935a4.038,4.038,0,0,0,.277.656,34.9,34.9,0,0,0-9.294,7.869,4.13,4.13,0,0,0-.61-.392l-6.471-3.322a4.078,4.078,0,0,0-3.113-.263.121.121,0,0,0-.018.007,4.08,4.08,0,0,0-2.4,2.033l-3.322,6.471h0a4.111,4.111,0,0,0,1.777,5.527l6.471,3.322a4.054,4.054,0,0,0,.673.264,34.858,34.858,0,0,0-1.007,11.812,4.136,4.136,0,0,0-.695.151l-6.935,2.194a4.11,4.11,0,0,0-2.676,5.152l2.194,6.935a4.11,4.11,0,0,0,5.152,2.676l6.935-2.194a4.038,4.038,0,0,0,.656-.277,34.892,34.892,0,0,0,7.871,9.3,4.188,4.188,0,0,0-.394.607l-3.322,6.471a4.1,4.1,0,0,0,1.776,5.526l6.471,3.322h0a4.11,4.11,0,0,0,5.526-1.778l3.322-6.471a4.054,4.054,0,0,0,.264-.673,34.891,34.891,0,0,0,11.813,1.007,4.177,4.177,0,0,0,.151.7L213.633,183a4.11,4.11,0,0,0,5.152,2.676l6.935-2.194a4.11,4.11,0,0,0,2.676-5.152L226.2,171.4a4.036,4.036,0,0,0-.277-.656,34.892,34.892,0,0,0,9.3-7.871,4.045,4.045,0,0,0,.608.394l6.471,3.322a4.109,4.109,0,0,0,5.527-1.777l3.324-6.471a4.11,4.11,0,0,0-1.777-5.527l-6.471-3.322a4.194,4.194,0,0,0-.673-.267,34.877,34.877,0,0,0,1.006-11.81,4.179,4.179,0,0,0,.7-.151l6.935-2.194a4.109,4.109,0,0,0,2.676-5.151l-2.194-6.935A4.112,4.112,0,0,0,246.2,120.307ZM214.1,158.8a19.279,19.279,0,1,1,12.566-24.2A19.3,19.3,0,0,1,214.1,158.8Z" transform="translate(-10.785 -64.922)" fill="#0f1b63"/>
      <g id="Grupo_1159452" data-name="Grupo 1159452" transform="translate(169.04 190.773)">
        <path id="Trazado_993168" data-name="Trazado 993168" d="M231.9,256.882l-1.686,4.128a2.41,2.41,0,0,0-.127.417,21.388,21.388,0,0,0-7.465.063,2.587,2.587,0,0,0-.134-.424l-1.747-4.1a2.519,2.519,0,0,0-3.3-1.33l-4.1,1.746a2.52,2.52,0,0,0-1.33,3.3l1.747,4.1a2.587,2.587,0,0,0,.212.39,21.381,21.381,0,0,0-5.105,5.171,2.5,2.5,0,0,0-.387-.2l-4.128-1.686a2.519,2.519,0,0,0-3.281,1.378l-1.686,4.128a2.519,2.519,0,0,0,1.378,3.281l4.128,1.686a2.407,2.407,0,0,0,.417.127,21.387,21.387,0,0,0,.063,7.465,2.585,2.585,0,0,0-.424.134l-4.1,1.747a2.5,2.5,0,0,0-1.344,1.363l0,.012a2.5,2.5,0,0,0,.018,1.926l1.747,4.1h0a2.521,2.521,0,0,0,3.3,1.33l4.1-1.747a2.526,2.526,0,0,0,.388-.213,21.35,21.35,0,0,0,5.172,5.106,2.565,2.565,0,0,0-.2.387l-1.686,4.128a2.519,2.519,0,0,0,1.378,3.281l4.128,1.686a2.519,2.519,0,0,0,3.281-1.378l1.686-4.128a2.409,2.409,0,0,0,.127-.417,21.365,21.365,0,0,0,7.466-.065,2.507,2.507,0,0,0,.133.424l1.747,4.1a2.516,2.516,0,0,0,3.3,1.33l4.1-1.747h0a2.52,2.52,0,0,0,1.33-3.3l-1.746-4.1a2.388,2.388,0,0,0-.214-.388,21.349,21.349,0,0,0,5.106-5.172,2.619,2.619,0,0,0,.387.2l4.128,1.686a2.519,2.519,0,0,0,3.281-1.378l1.686-4.128a2.519,2.519,0,0,0-1.378-3.281l-4.128-1.686a2.4,2.4,0,0,0-.417-.127,21.367,21.367,0,0,0-.065-7.466,2.506,2.506,0,0,0,.424-.133l4.1-1.747a2.518,2.518,0,0,0,1.329-3.3l-1.746-4.1a2.52,2.52,0,0,0-3.3-1.33l-4.1,1.747a2.594,2.594,0,0,0-.39.212,21.383,21.383,0,0,0-5.171-5.105,2.567,2.567,0,0,0,.2-.387l1.686-4.128a2.519,2.519,0,0,0-1.378-3.281l-4.128-1.686A2.521,2.521,0,0,0,231.9,256.882Zm5.552,30.22a11.818,11.818,0,1,1-6.474-15.408A11.833,11.833,0,0,1,237.451,287.1Z" transform="translate(-174.284 -231.256)" fill="#b19cfe"/>
        <path id="Trazado_993169" data-name="Trazado 993169" d="M207.852,239.106l-2.194,2.223a1.784,1.784,0,0,0-.194.236,14.954,14.954,0,0,0-4.852-1.952,1.733,1.733,0,0,0,.027-.31l-.035-3.123a1.765,1.765,0,0,0-1.783-1.742l-3.124.036a1.765,1.765,0,0,0-1.742,1.783l.036,3.123a1.836,1.836,0,0,0,.033.309,14.962,14.962,0,0,0-4.687,1.986,1.783,1.783,0,0,0-.2-.234l-2.223-2.194a1.765,1.765,0,0,0-2.493.016l-2.194,2.223a1.765,1.765,0,0,0,.016,2.493l2.223,2.194a1.786,1.786,0,0,0,.236.194,14.965,14.965,0,0,0-1.952,4.852,1.733,1.733,0,0,0-.31-.026l-3.123.036a1.752,1.752,0,0,0-1.234.524s0,0-.006.006a1.753,1.753,0,0,0-.5,1.253l.036,3.123h0a1.765,1.765,0,0,0,1.783,1.742l3.124-.036a1.716,1.716,0,0,0,.309-.035,14.979,14.979,0,0,0,1.986,4.688,1.877,1.877,0,0,0-.234.2l-2.194,2.223a1.765,1.765,0,0,0,.016,2.493l2.223,2.194a1.765,1.765,0,0,0,2.493-.016l2.194-2.223a1.788,1.788,0,0,0,.194-.236,14.961,14.961,0,0,0,4.853,1.952,1.725,1.725,0,0,0-.028.31l.036,3.123a1.763,1.763,0,0,0,1.783,1.744l3.124-.035h0a1.765,1.765,0,0,0,1.742-1.783l-.036-3.123a1.826,1.826,0,0,0-.035-.309,14.98,14.98,0,0,0,4.688-1.986,1.8,1.8,0,0,0,.2.234l2.223,2.194a1.764,1.764,0,0,0,2.493-.016l2.194-2.223a1.765,1.765,0,0,0-.016-2.493L210.5,262.52a1.786,1.786,0,0,0-.236-.194,14.989,14.989,0,0,0,1.953-4.853,1.724,1.724,0,0,0,.31.028l3.123-.036a1.765,1.765,0,0,0,1.742-1.783l-.035-3.124a1.765,1.765,0,0,0-1.783-1.742l-3.123.036a1.837,1.837,0,0,0-.309.033,14.962,14.962,0,0,0-1.986-4.687,1.8,1.8,0,0,0,.234-.2l2.194-2.223a1.765,1.765,0,0,0-.016-2.493l-2.223-2.194A1.77,1.77,0,0,0,207.852,239.106Zm-4.475,21.053a8.279,8.279,0,1,1-.077-11.709A8.288,8.288,0,0,1,203.377,260.16Z" transform="translate(-177.578 -234.438)" fill="none" stroke="#b19cfe" stroke-miterlimit="10" stroke-width="0.5"/>
      </g>
      <g id="Grupo_1159473" data-name="Grupo 1159473" transform="translate(9.628 166.402)">
        <g id="Grupo_1159462" data-name="Grupo 1159462">
          <g id="Grupo_1159453" data-name="Grupo 1159453">
            <rect id="Rectángulo_409888" data-name="Rectángulo 409888" width="14.238" height="2.382" fill="#0f1b63"/>
          </g>
          <g id="Grupo_1159454" data-name="Grupo 1159454" transform="translate(20.122)">
            <rect id="Rectángulo_409889" data-name="Rectángulo 409889" width="36.317" height="2.382" fill="#0f1b63"/>
          </g>
          <g id="Grupo_1159455" data-name="Grupo 1159455" transform="translate(33.959 25.571)">
            <rect id="Rectángulo_409890" data-name="Rectángulo 409890" width="22.48" height="2.382" fill="#0f1b63"/>
          </g>
          <g id="Grupo_1159456" data-name="Grupo 1159456" transform="translate(0 25.571)">
            <rect id="Rectángulo_409891" data-name="Rectángulo 409891" width="28.076" height="2.382" fill="#0f1b63"/>
          </g>
          <g id="Grupo_1159457" data-name="Grupo 1159457" transform="translate(0 8.708)">
            <rect id="Rectángulo_409892" data-name="Rectángulo 409892" width="31.297" height="2.382" fill="#0f1b63"/>
          </g>
          <g id="Grupo_1159458" data-name="Grupo 1159458" transform="translate(37.18 8.708)">
            <rect id="Rectángulo_409893" data-name="Rectángulo 409893" width="19.259" height="2.382" fill="#0f1b63"/>
          </g>
          <g id="Grupo_1159459" data-name="Grupo 1159459" transform="translate(0 17.259)">
            <rect id="Rectángulo_409894" data-name="Rectángulo 409894" width="24.295" height="2.382" fill="#0f1b63"/>
          </g>
          <g id="Grupo_1159460" data-name="Grupo 1159460" transform="translate(34.36 17.259)">
            <rect id="Rectángulo_409895" data-name="Rectángulo 409895" width="22.079" height="2.382" fill="#0f1b63"/>
          </g>
          <g id="Grupo_1159461" data-name="Grupo 1159461" transform="translate(27.404 17.259)">
            <rect id="Rectángulo_409896" data-name="Rectángulo 409896" width="4.224" height="2.382" fill="#0f1b63"/>
          </g>
        </g>
        <g id="Grupo_1159472" data-name="Grupo 1159472" transform="translate(375.258 223.059)">
          <g id="Grupo_1159463" data-name="Grupo 1159463">
            <rect id="Rectángulo_409897" data-name="Rectángulo 409897" width="14.238" height="2.382" fill="#0f1b63"/>
          </g>
          <g id="Grupo_1159464" data-name="Grupo 1159464" transform="translate(20.121)">
            <rect id="Rectángulo_409898" data-name="Rectángulo 409898" width="36.317" height="2.382" fill="#0f1b63"/>
          </g>
          <g id="Grupo_1159465" data-name="Grupo 1159465" transform="translate(33.958 25.571)">
            <rect id="Rectángulo_409899" data-name="Rectángulo 409899" width="22.48" height="2.382" fill="#0f1b63"/>
          </g>
          <g id="Grupo_1159466" data-name="Grupo 1159466" transform="translate(0 25.571)">
            <rect id="Rectángulo_409900" data-name="Rectángulo 409900" width="28.075" height="2.382" fill="#0f1b63"/>
          </g>
          <g id="Grupo_1159467" data-name="Grupo 1159467" transform="translate(0 8.709)">
            <rect id="Rectángulo_409901" data-name="Rectángulo 409901" width="31.296" height="2.382" fill="#0f1b63"/>
          </g>
          <g id="Grupo_1159468" data-name="Grupo 1159468" transform="translate(37.179 8.709)">
            <rect id="Rectángulo_409902" data-name="Rectángulo 409902" width="19.259" height="2.382" fill="#0f1b63"/>
          </g>
          <g id="Grupo_1159469" data-name="Grupo 1159469" transform="translate(0 17.259)">
            <rect id="Rectángulo_409903" data-name="Rectángulo 409903" width="24.295" height="2.382" fill="#0f1b63"/>
          </g>
          <g id="Grupo_1159470" data-name="Grupo 1159470" transform="translate(34.359 17.259)">
            <rect id="Rectángulo_409904" data-name="Rectángulo 409904" width="22.079" height="2.382" fill="#0f1b63"/>
          </g>
          <g id="Grupo_1159471" data-name="Grupo 1159471" transform="translate(27.403 17.259)">
            <rect id="Rectángulo_409905" data-name="Rectángulo 409905" width="4.224" height="2.382" fill="#0f1b63"/>
          </g>
        </g>
      </g>
      <path id="Trazado_993170" data-name="Trazado 993170" d="M414.861,154.883l-5.591,1.2a3.266,3.266,0,0,0-.534.167,27.427,27.427,0,0,0-5.462-7.863,3.194,3.194,0,0,0,.353-.448l3.085-4.815a3.23,3.23,0,0,0-.976-4.458l-4.815-3.085a3.23,3.23,0,0,0-4.458.977l-3.085,4.815a3.229,3.229,0,0,0-.259.506,27.409,27.409,0,0,0-9.167-1.672,3.292,3.292,0,0,0-.066-.555l-1.2-5.592a3.23,3.23,0,0,0-3.831-2.48l-5.591,1.2a3.231,3.231,0,0,0-2.48,3.832l1.2,5.592a3.271,3.271,0,0,0,.167.534,27.445,27.445,0,0,0-7.863,5.461,3.254,3.254,0,0,0-.447-.353l-4.815-3.085a3.208,3.208,0,0,0-2.415-.439l-.015,0a3.206,3.206,0,0,0-2.027,1.412l-3.085,4.815h0A3.23,3.23,0,0,0,352.46,155l4.815,3.085a3.179,3.179,0,0,0,.507.257,27.445,27.445,0,0,0-1.673,9.169,3.3,3.3,0,0,0-.555.066l-5.591,1.2a3.231,3.231,0,0,0-2.48,3.832l1.2,5.592a3.23,3.23,0,0,0,3.831,2.48l5.592-1.2a3.267,3.267,0,0,0,.534-.167,27.4,27.4,0,0,0,5.464,7.864,3.2,3.2,0,0,0-.354.446l-3.085,4.815a3.225,3.225,0,0,0,.976,4.458l4.815,3.085h0a3.231,3.231,0,0,0,4.458-.976l3.085-4.815a3.127,3.127,0,0,0,.257-.507,27.445,27.445,0,0,0,9.169,1.673,3.161,3.161,0,0,0,.067.555l1.2,5.592a3.23,3.23,0,0,0,3.831,2.48l5.592-1.2a3.23,3.23,0,0,0,2.48-3.831l-1.2-5.592a3.262,3.262,0,0,0-.167-.534,27.4,27.4,0,0,0,7.864-5.464,3.273,3.273,0,0,0,.446.354l4.815,3.085a3.232,3.232,0,0,0,4.459-.976l3.085-4.815a3.231,3.231,0,0,0-.976-4.458l-4.815-3.085a3.279,3.279,0,0,0-.506-.259,27.4,27.4,0,0,0,1.672-9.166,3.27,3.27,0,0,0,.555-.066l5.591-1.2a3.23,3.23,0,0,0,2.48-3.831l-1.2-5.592A3.234,3.234,0,0,0,414.861,154.883Zm-28,27.719A15.155,15.155,0,1,1,398.5,164.609,15.172,15.172,0,0,1,386.858,182.6Z" transform="translate(17.347 -59.353)" fill="#0f1b63"/>
    </g>
    <g id="TEXTS" transform="translate(4523.048 855.747)">
      <g id="Grupo_1159474" data-name="Grupo 1159474" transform="translate(239.816 0)">
        <text id="_" data-name="&lt;/&gt;" transform="translate(0 27)" fill="#fff" font-size="28" font-family="Montserrat-Bold, Montserrat" font-weight="700"><tspan x="0" y="0">&lt;/&gt;</tspan></text>
      </g>
      <g id="Grupo_1159475" data-name="Grupo 1159475" transform="translate(0 305.014)">
        <text id="html" transform="translate(0 19)" fill="#fff" font-size="20" font-family="Montserrat-Bold, Montserrat" font-weight="700"><tspan x="0" y="0">html</tspan></text>
      </g>
      <g id="Grupo_1159476" data-name="Grupo 1159476" transform="translate(46.423 127.194)">
        <text id="js" transform="translate(2 19)" fill="#fff" font-size="20" font-family="Montserrat-Bold, Montserrat" font-weight="700"><tspan x="0" y="0">js</tspan></text>
      </g>
      <g id="Grupo_1159477" data-name="Grupo 1159477" transform="translate(257.106 272.264)">
        <text id="c_" data-name="c++" transform="translate(0 26)" fill="#fff" font-size="27" font-family="Montserrat-Bold, Montserrat" font-weight="700"><tspan x="0" y="0">c++</tspan></text>
      </g>
      <g id="Grupo_1159478" data-name="Grupo 1159478" transform="translate(379.631 151.751)">
        <text id="java" transform="translate(2 19)" fill="#fff" font-size="20" font-family="Montserrat-Bold, Montserrat" font-weight="700"><tspan x="0" y="0">java</tspan></text>
      </g>
    </g>
  </g>
</svg>
