<svg xmlns="http://www.w3.org/2000/svg" xmlns:xlink="http://www.w3.org/1999/xlink" width="113" height="113" viewBox="0 0 113 113">
  <defs>
    <filter id="Trazado_982547" x="0" y="0" width="113" height="113" filterUnits="userSpaceOnUse">
      <feOffset dy="3" input="SourceAlpha"/>
      <feGaussianBlur stdDeviation="3" result="blur"/>
      <feFlood flood-opacity="0.161"/>
      <feComposite operator="in" in2="blur"/>
      <feComposite in="SourceGraphic"/>
    </filter>
  </defs>
  <g id="Grupo_1161507" data-name="Grupo 1161507" transform="translate(-328 -11244)">
    <g id="Grupo_1158311" data-name="Grupo 1158311" transform="translate(2 5723)">
      <g id="Grupo_1152576" data-name="Grupo 1152576" transform="translate(-0.454 1205.621)">
        <g id="Grupo_1148633" data-name="Grupo 1148633" transform="translate(71.408 600.047)">
          <g id="Grupo_1148525" data-name="Grupo 1148525" transform="translate(264.046 3721.333)">
            <g transform="matrix(1, 0, 0, 1, -9, -6)" filter="url(#Trazado_982547)">
              <g id="Trazado_982547-2" data-name="Trazado 982547" transform="translate(9 6)" fill="#f0ebfe">
                <path d="M 47.5 93.5 C 41.28937149047852 93.5 35.26533508300781 92.28397369384766 29.59518623352051 89.88570404052734 C 24.11771965026855 87.56893157958984 19.19813346862793 84.25196075439453 14.97309303283691 80.02691650390625 C 10.74804019927979 75.80186462402344 7.431066513061523 70.88229370117188 5.114293098449707 65.40481567382812 C 2.716026782989502 59.73468017578125 1.5 53.71062850952148 1.5 47.5 C 1.5 41.28937149047852 2.716026782989502 35.26533508300781 5.114293098449707 29.59518623352051 C 7.431066513061523 24.11771965026855 10.74804019927979 19.19813346862793 14.97309303283691 14.97309303283691 C 19.19813346862793 10.74804019927979 24.11771965026855 7.431066513061523 29.59518623352051 5.114293098449707 C 35.26533508300781 2.716026782989502 41.28937149047852 1.5 47.5 1.5 C 53.71062850952148 1.5 59.73468017578125 2.716026782989502 65.40481567382812 5.114293098449707 C 70.88229370117188 7.431066513061523 75.80186462402344 10.74804019927979 80.02691650390625 14.97309303283691 C 84.25196075439453 19.19813346862793 87.56893157958984 24.11771965026855 89.88570404052734 29.59518623352051 C 92.28397369384766 35.26533508300781 93.5 41.28937149047852 93.5 47.5 C 93.5 53.71062850952148 92.28397369384766 59.73468017578125 89.88570404052734 65.40481567382812 C 87.56893157958984 70.88229370117188 84.25196075439453 75.80186462402344 80.02691650390625 80.02691650390625 C 75.80186462402344 84.25196075439453 70.88229370117188 87.56893157958984 65.40481567382812 89.88570404052734 C 59.73468017578125 92.28397369384766 53.71062850952148 93.5 47.5 93.5 Z" stroke="none"/>
                <path d="M 47.5 3 C 41.49121475219727 3 35.66376876831055 4.176155090332031 30.17950439453125 6.495796203613281 C 24.88084411621094 8.736953735351562 20.12152099609375 11.94598388671875 16.03375244140625 16.03375244140625 C 11.94598388671875 20.12152099609375 8.736953735351562 24.88084411621094 6.495796203613281 30.17950439453125 C 4.176155090332031 35.66376876831055 3 41.49121475219727 3 47.5 C 3 53.50878524780273 4.176155090332031 59.33623123168945 6.495796203613281 64.82049560546875 C 8.736953735351562 70.11915588378906 11.94598388671875 74.87847900390625 16.03375244140625 78.96624755859375 C 20.12152099609375 83.05401611328125 24.88084411621094 86.26304626464844 30.17950439453125 88.50419616699219 C 35.66376876831055 90.82384490966797 41.49121475219727 92 47.5 92 C 53.50878524780273 92 59.33623123168945 90.82384490966797 64.82049560546875 88.50419616699219 C 70.11915588378906 86.26304626464844 74.87847900390625 83.05401611328125 78.96624755859375 78.96624755859375 C 83.05401611328125 74.87847900390625 86.26304626464844 70.11915588378906 88.50419616699219 64.82049560546875 C 90.82384490966797 59.33623123168945 92 53.50878524780273 92 47.5 C 92 41.49121475219727 90.82384490966797 35.66376876831055 88.50419616699219 30.17950439453125 C 86.26304626464844 24.88084411621094 83.05401611328125 20.12152099609375 78.96624755859375 16.03375244140625 C 74.87847900390625 11.94598388671875 70.11915588378906 8.736953735351562 64.82049560546875 6.495796203613281 C 59.33623123168945 4.176155090332031 53.50878524780273 3 47.5 3 M 47.5 0 C 73.7335205078125 0 95 21.2664794921875 95 47.5 C 95 73.7335205078125 73.7335205078125 95 47.5 95 C 21.2664794921875 95 0 73.7335205078125 0 47.5 C 0 21.2664794921875 21.2664794921875 0 47.5 0 Z" stroke="none" fill="#7145fe"/>
              </g>
            </g>
          </g>
        </g>
      </g>
    </g>
    <g id="cohete_1_" data-name="cohete (1)" transform="translate(353 11259)">
      <g id="Grupo_1161506" data-name="Grupo 1161506" transform="translate(0.93 8.925)">
        <path id="Trazado_995027" data-name="Trazado 995027" d="M20.591,313.093c-3.894.2-10.55,2.41-9.907,7.021,1.626,11.7-11.175,15.455,5.86,15.455,8.57,0,13.972-3.756,14.788-11.639l-2.314-8.938Z" transform="translate(-7.586 -276.618)" fill="#fe636e" fill-rule="evenodd"/>
        <path id="Trazado_995028" data-name="Trazado 995028" d="M95.437,338.33c-1.806.095-4.9,1.118-4.6,3.262.757,5.434-5.19,7.175,2.723,7.175,3.981,0,6.493-1.741,6.871-5.406l-.875-4.415Z" transform="translate(-79.368 -298.761)" fill="#ffd659" fill-rule="evenodd"/>
        <path id="Trazado_995029" data-name="Trazado 995029" d="M27.568,383c-2.314,4.208-6.9,6.236-13.2,6.236a48.166,48.166,0,0,1-5.655-.249c-1.82,3.868-2.706,5.308,7.837,5.308,8.57,0,13.972-3.756,14.788-11.639L29.392,380.7l-.664-.669c-.059.228-.122.448-.191.669A5.778,5.778,0,0,1,27.568,383Z" transform="translate(-7.591 -335.35)" fill="#fb2a39" fill-rule="evenodd"/>
        <path id="Trazado_995030" data-name="Trazado 995030" d="M98.61,364.482c-.851,2.628-3.172,3.886-6.555,3.886-.677,0-1.251-.011-1.737-.039-1,2.495-2.425,3.385,3.234,3.385,2.64,0,4.634-.764,5.787-2.351a5.779,5.779,0,0,0,.969-2.305c.049-.242.087-.49.115-.75Z" transform="translate(-79.363 -321.708)" fill="#ffbf00" fill-rule="evenodd"/>
        <path id="Trazado_995031" data-name="Trazado 995031" d="M110.685,260.789l-5.079,2.978c-1.021.6-.851,2.2-.038,3.027l.406.406,3.064,3.094,4.992,5.031,2.685,2.712,1.4,1.412c.816.82,2.407.988,3-.038l2.949-5.126-3.338-12.977Z" transform="translate(-92.969 -230.726)" fill="#838383" fill-rule="evenodd"/>
        <path id="Trazado_995032" data-name="Trazado 995032" d="M399.709,15.7c-2.442-.452-6.892.021-12.311,1.871l2.439,9.039,9.9,3.378c1.841-5.5,2.3-10.006,1.838-12.452-.271-1.426-.445-1.573-1.869-1.836Z" transform="translate(-340.839 -15.543)" fill="#838383" fill-rule="evenodd"/>
        <path id="Trazado_995033" data-name="Trazado 995033" d="M103.946,89.861c-6.781-2.47-12.033-1.345-17.359,3.518-2.47,2.4-6.579,5.546-3.185,8.969l4.221,4.257,12.131-6.18Z" transform="translate(-72.977 -79.639)" fill="#03bed7" fill-rule="evenodd"/>
        <path id="Trazado_995034" data-name="Trazado 995034" d="M302.944,261.846l-11.4,4.754-5.2,11.713,4.221,4.257c3.394,3.423,6.517-.722,8.893-3.213C301.919,276.61,306.306,271.379,302.944,261.846Z" transform="translate(-252.171 -231.653)" fill="#03bed7" fill-rule="evenodd"/>
        <path id="Trazado_995035" data-name="Trazado 995035" d="M143.376,40.3a69.65,69.65,0,0,0-16.324,16.744l3.071,3.1,6.691,6.748,6.691,6.748,2.237,2.256.837.844a69.578,69.578,0,0,0,16.6-16.467,62.258,62.258,0,0,0,7.167-13.1c.354-.9.677-1.783.962-2.642L158.966,32.108A60.068,60.068,0,0,0,143.376,40.3Z" transform="translate(-112.407 -30.077)" fill="#ececec" fill-rule="evenodd"/>
        <path id="Trazado_995036" data-name="Trazado 995036" d="M277.335,122.663a8.434,8.434,0,0,0-12,.154,8.61,8.61,0,0,0-.153,12.1,8.434,8.434,0,0,0,12-.154A8.61,8.61,0,0,0,277.335,122.663Z" transform="translate(-231.492 -107.4)" fill="#a6e7f0" fill-rule="evenodd"/>
        <path id="Trazado_995037" data-name="Trazado 995037" d="M467.617,15.988c.24,2.565-.3,6.7-1.949,11.625l2.748,2.768c1.841-5.5,2.3-10.006,1.838-12.452-.271-1.426-.445-1.573-1.869-1.836-.24-.045-.493-.08-.768-.1Z" transform="translate(-409.514 -15.933)" fill="#595959" fill-rule="evenodd"/>
        <path id="Trazado_995038" data-name="Trazado 995038" d="M287.716,113.466a62.185,62.185,0,0,1-7.167,13.1,67.21,67.21,0,0,1-4.686,5.865,69.414,69.414,0,0,1-5.78,5.746,72.376,72.376,0,0,1-6.128,4.853l1.907,1.923.837.844a69.578,69.578,0,0,0,16.6-16.467,62.258,62.258,0,0,0,7.167-13.1c.354-.9.677-1.783.962-2.642l-2.748-2.768c-.181.536-.372,1.079-.58,1.633-.122.333-.25.673-.386,1.013Z" transform="translate(-232.528 -99.141)" fill="#cecece" fill-rule="evenodd"/>
        <path id="Trazado_995039" data-name="Trazado 995039" d="M191.381,343.36l-2.949,5.126c-.594,1.027-2.185.858-3,.038l1.945,1.962,1.4,1.412c.816.82,2.407.988,3-.039l2.949-5.126Z" transform="translate(-163.629 -303.175)" fill="#595959" fill-rule="evenodd"/>
        <path id="Trazado_995040" data-name="Trazado 995040" d="M287.228,124.055a8.7,8.7,0,0,1-9.643,13.552,8.187,8.187,0,0,0,.594.666,8.434,8.434,0,0,0,12-.154,8.61,8.61,0,0,0,.153-12.1A8.125,8.125,0,0,0,287.228,124.055Z" transform="translate(-244.487 -110.753)" fill="#6bd9e7" fill-rule="evenodd"/>
        <path id="Trazado_995041" data-name="Trazado 995041" d="M325.571,261.846q-.839,1.182-1.758,2.361c.792,6.681-2.553,10.648-4.589,12.918-1.952,2.043-4.4,5.2-7.094,4.376l1.059,1.069c3.394,3.423,6.517-.722,8.893-3.213C324.547,276.61,328.934,271.379,325.571,261.846Z" transform="translate(-274.799 -231.653)" fill="#0099b1" fill-rule="evenodd"/>
        <path id="Trazado_995042" data-name="Trazado 995042" d="M120.107,89.871a69.658,69.658,0,0,0-14.677,15.181l2.651,2.673A69.654,69.654,0,0,1,124.4,90.982,21.238,21.238,0,0,0,120.107,89.871Z" transform="translate(-93.436 -80.76)" fill="#0099b1" fill-rule="evenodd"/>
      </g>
      <path id="Trazado_995043" data-name="Trazado 995043" d="M62.579,10.747c-.339-1.783-.8-2.24-2.611-2.574-3.122-.577-9.791.161-18.315,4.143a.926.926,0,0,0,.784,1.679c1.662-.776,3.271-1.431,4.8-1.975l11.529,11.6q-.348,1-.762,2.055a65.89,65.89,0,0,1-22.8,28.7l-8.563-8.636,4.088-4.12a.926.926,0,0,0-1.315-1.305L25.336,44.42l-8.558-8.631A67.677,67.677,0,0,1,38.456,16.044a.926.926,0,0,0-.909-1.615,64.37,64.37,0,0,0-5.79,3.687c-6.83-2.351-12.351-1.151-17.843,3.864l-.02.019c-.234.227-.483.461-.746.708-1.767,1.659-3.965,3.725-4.008,6.142A4.726,4.726,0,0,0,10.7,32.286l4.221,4.257,2.23,2.25L13.1,41.167a2.362,2.362,0,0,0-1.141,1.781,3.291,3.291,0,0,0,.256,1.708c-2.882.46-6.182,1.723-7.9,3.809a5.1,5.1,0,0,0-1.2,4.084c.6,4.325-.9,7.515-2,9.844C.243,64.228-.441,65.678.347,66.92c.892,1.407,3.3,1.882,9.541,1.882,4.552,0,8.207-1.027,10.863-3.053a12.332,12.332,0,0,0,4.559-7.558l.11.111a3.333,3.333,0,0,0,2.305.946,2.884,2.884,0,0,0,.372-.024,2.352,2.352,0,0,0,1.784-1.153L32.224,54l1.382,1.393h0l5.058,5.1a4.69,4.69,0,0,0,3.346,1.573h.071c2.405-.043,4.455-2.262,6.1-4.046.245-.266.477-.516.7-.753l.019-.021c2.153-2.4,7.151-7.976,3.827-17.983a62.568,62.568,0,0,0,7-12.911c2.894-7.338,3.369-12.873,2.848-15.607ZM10.993,28.883c.029-1.635,1.911-3.4,3.424-4.824.265-.249.516-.484.758-.719,4.653-4.245,9.143-5.445,14.742-3.861A71.25,71.25,0,0,0,15.456,34.455l-3.444-3.474a2.924,2.924,0,0,1-1.019-2.1Zm-1.1,38.067a39.752,39.752,0,0,1-6.143-.33c-1.411-.239-1.752-.563-1.834-.691-.242-.381.325-1.583.873-2.745a18.307,18.307,0,0,0,2.161-10.89,3.272,3.272,0,0,1,.794-2.649c1.559-1.888,5.036-3.055,7.834-3.29l1.521,1.534A5.865,5.865,0,0,0,12.148,49.6a2.889,2.889,0,0,0-.669,2.284,7.12,7.12,0,0,1-.886,4.292c-.43.911-.835,1.771-.324,2.578.53.836,1.709,1.1,4.851,1.1,3.878,0,6.452-1.568,7.419-4.461L23.7,56.57c-.883,6.886-5.527,10.379-13.814,10.379Zm3.426-15.32a1.04,1.04,0,0,1,.262-.849,5.148,5.148,0,0,1,3.072-1.325l4.364,4.4C20.558,56.608,18.579,58,15.12,58a11.943,11.943,0,0,1-3.2-.241c.069-.209.225-.54.347-.8a8.929,8.929,0,0,0,1.046-5.337Zm14.962,5.517a.5.5,0,0,1-.418.241A1.452,1.452,0,0,1,26.734,57L22.683,52.91a.91.91,0,0,0-.074-.075L14.632,44.79a.937.937,0,0,0-.086-.087l-.359-.362a1.5,1.5,0,0,1-.393-1.153.509.509,0,0,1,.241-.424l4.459-2.615,6.189,6.242h0l6.188,6.241ZM47.535,56c-.233.244-.466.5-.713.764-1.408,1.524-3.159,3.421-4.773,3.45a2.868,2.868,0,0,1-2.069-1.025L36.522,55.7A70.743,70.743,0,0,0,51.168,41.409c.066-.087.13-.174.195-.261C53.533,49.293,49.534,53.77,47.535,56Zm1.672-44.631C53.794,9.961,57.521,9.6,59.632,10a2.972,2.972,0,0,1,.89.235,2.424,2.424,0,0,1,.237.863c.359,1.884.145,5.59-1.346,10.544Z" transform="translate(0 0)"/>
      <path id="Trazado_995044" data-name="Trazado 995044" d="M266.631,129.471a.926.926,0,0,0,.531,1.775,9.685,9.685,0,0,0,4.089-2.46,9.55,9.55,0,0,0,.153-13.406,9.108,9.108,0,0,0-6.517-2.7,9.641,9.641,0,0,0-6.951,16.265,9.136,9.136,0,0,0,3.833,2.309.926.926,0,0,0,.536-1.774,7.178,7.178,0,0,1-3.053-1.84,7.789,7.789,0,0,1,5.635-13.108,7.269,7.269,0,0,1,5.2,2.156,7.692,7.692,0,0,1-.153,10.8A7.828,7.828,0,0,1,266.631,129.471Z" transform="translate(-223.972 -91.844)"/>
    </g>
  </g>
</svg>
