<svg xmlns="http://www.w3.org/2000/svg" xmlns:xlink="http://www.w3.org/1999/xlink" width="113" height="113" viewBox="0 0 113 113">
  <defs>
    <filter id="Trazado_982547" x="0" y="0" width="113" height="113" filterUnits="userSpaceOnUse">
      <feOffset dy="3" input="SourceAlpha"/>
      <feGaussianBlur stdDeviation="3" result="blur"/>
      <feFlood flood-opacity="0.161"/>
      <feComposite operator="in" in2="blur"/>
      <feComposite in="SourceGraphic"/>
    </filter>
  </defs>
  <g id="Grupo_1161532" data-name="Grupo 1161532" transform="translate(-745 -11244)">
    <g id="Grupo_1158312" data-name="Grupo 1158312" transform="translate(2 5723)">
      <g id="Grupo_1152577" data-name="Grupo 1152577" transform="translate(-0.5 1205.621)">
        <g id="Grupo_1148634" data-name="Grupo 1148634" transform="translate(488.454 600.047)">
          <g id="Grupo_1148525" data-name="Grupo 1148525" transform="translate(264.046 3721.333)">
            <g transform="matrix(1, 0, 0, 1, -9, -6)" filter="url(#Trazado_982547)">
              <g id="Trazado_982547-2" data-name="Trazado 982547" transform="translate(9 6)" fill="#f0ebfe">
                <path d="M 47.5 93.5 C 41.28937149047852 93.5 35.26533508300781 92.28397369384766 29.59518623352051 89.88570404052734 C 24.11771965026855 87.56893157958984 19.19813346862793 84.25196075439453 14.97309303283691 80.02691650390625 C 10.74804019927979 75.80186462402344 7.431066513061523 70.88229370117188 5.114293098449707 65.40481567382812 C 2.716026782989502 59.73468017578125 1.5 53.71062850952148 1.5 47.5 C 1.5 41.28937149047852 2.716026782989502 35.26533508300781 5.114293098449707 29.59518623352051 C 7.431066513061523 24.11771965026855 10.74804019927979 19.19813346862793 14.97309303283691 14.97309303283691 C 19.19813346862793 10.74804019927979 24.11771965026855 7.431066513061523 29.59518623352051 5.114293098449707 C 35.26533508300781 2.716026782989502 41.28937149047852 1.5 47.5 1.5 C 53.71062850952148 1.5 59.73468017578125 2.716026782989502 65.40481567382812 5.114293098449707 C 70.88229370117188 7.431066513061523 75.80186462402344 10.74804019927979 80.02691650390625 14.97309303283691 C 84.25196075439453 19.19813346862793 87.56893157958984 24.11771965026855 89.88570404052734 29.59518623352051 C 92.28397369384766 35.26533508300781 93.5 41.28937149047852 93.5 47.5 C 93.5 53.71062850952148 92.28397369384766 59.73468017578125 89.88570404052734 65.40481567382812 C 87.56893157958984 70.88229370117188 84.25196075439453 75.80186462402344 80.02691650390625 80.02691650390625 C 75.80186462402344 84.25196075439453 70.88229370117188 87.56893157958984 65.40481567382812 89.88570404052734 C 59.73468017578125 92.28397369384766 53.71062850952148 93.5 47.5 93.5 Z" stroke="none"/>
                <path d="M 47.5 3 C 41.49121475219727 3 35.66376876831055 4.176155090332031 30.17950439453125 6.495796203613281 C 24.88084411621094 8.736953735351562 20.12152099609375 11.94598388671875 16.03375244140625 16.03375244140625 C 11.94598388671875 20.12152099609375 8.736953735351562 24.88084411621094 6.495796203613281 30.17950439453125 C 4.176155090332031 35.66376876831055 3 41.49121475219727 3 47.5 C 3 53.50878524780273 4.176155090332031 59.33623123168945 6.495796203613281 64.82049560546875 C 8.736953735351562 70.11915588378906 11.94598388671875 74.87847900390625 16.03375244140625 78.96624755859375 C 20.12152099609375 83.05401611328125 24.88084411621094 86.26304626464844 30.17950439453125 88.50419616699219 C 35.66376876831055 90.82384490966797 41.49121475219727 92 47.5 92 C 53.50878524780273 92 59.33623123168945 90.82384490966797 64.82049560546875 88.50419616699219 C 70.11915588378906 86.26304626464844 74.87847900390625 83.05401611328125 78.96624755859375 78.96624755859375 C 83.05401611328125 74.87847900390625 86.26304626464844 70.11915588378906 88.50419616699219 64.82049560546875 C 90.82384490966797 59.33623123168945 92 53.50878524780273 92 47.5 C 92 41.49121475219727 90.82384490966797 35.66376876831055 88.50419616699219 30.17950439453125 C 86.26304626464844 24.88084411621094 83.05401611328125 20.12152099609375 78.96624755859375 16.03375244140625 C 74.87847900390625 11.94598388671875 70.11915588378906 8.736953735351562 64.82049560546875 6.495796203613281 C 59.33623123168945 4.176155090332031 53.50878524780273 3 47.5 3 M 47.5 0 C 73.7335205078125 0 95 21.2664794921875 95 47.5 C 95 73.7335205078125 73.7335205078125 95 47.5 95 C 21.2664794921875 95 0 73.7335205078125 0 47.5 C 0 21.2664794921875 21.2664794921875 0 47.5 0 Z" stroke="none" fill="#7145fe"/>
              </g>
            </g>
          </g>
        </g>
      </g>
    </g>
    <g id="apoyo-tecnico" transform="translate(772 11267.687)">
      <g id="Grupo_1161529" data-name="Grupo 1161529" transform="translate(0.862 1.175)">
        <g id="Grupo_1161528" data-name="Grupo 1161528">
          <g id="Grupo_1161520" data-name="Grupo 1161520">
            <g id="Grupo_1161508" data-name="Grupo 1161508" transform="translate(37.628)">
              <path id="Trazado_995045" data-name="Trazado 995045" d="M351.749,7.812h-14.5a2.508,2.508,0,0,0-2.508,2.508v7.254a2.508,2.508,0,0,0,2.508,2.508,1.465,1.465,0,0,1,1.465,1.465v4.486a.561.561,0,0,0,1.043.289l3.315-5.528a1.465,1.465,0,0,1,1.256-.711h7.426a2.508,2.508,0,0,0,2.508-2.508V10.32a2.508,2.508,0,0,0-2.508-2.508Z" transform="translate(-334.736 -7.812)" fill="#b3e59f"/>
              <path id="Trazado_995046" data-name="Trazado 995046" d="M371.052,7.812h-7.512a2.508,2.508,0,0,1,2.508,2.508v7.254a2.508,2.508,0,0,1-2.508,2.508h-6.992a1.465,1.465,0,0,1,1.465,1.465v4.486a.561.561,0,0,0,1.043.289l3.315-5.528a1.465,1.465,0,0,1,1.256-.711h7.426a2.508,2.508,0,0,0,2.508-2.508V10.32a2.508,2.508,0,0,0-2.508-2.508Z" transform="translate(-354.039 -7.812)" fill="#95d6a4"/>
            </g>
            <g id="Grupo_1161519" data-name="Grupo 1161519" transform="translate(0 25.727)">
              <g id="Grupo_1161518" data-name="Grupo 1161518">
                <g id="Grupo_1161517" data-name="Grupo 1161517">
                  <g id="Grupo_1161512" data-name="Grupo 1161512" transform="translate(15.381)">
                    <g id="Grupo_1161511" data-name="Grupo 1161511">
                      <g id="Grupo_1161510" data-name="Grupo 1161510">
                        <g id="Grupo_1161509" data-name="Grupo 1161509">
                          <path id="Trazado_995047" data-name="Trazado 995047" d="M154.935,240.915a2.511,2.511,0,0,1-2.037-2.466v-6.9h-9.6v6.9a2.517,2.517,0,0,1-2.037,2.466S155.585,241.04,154.935,240.915Z" transform="translate(-141.261 -231.551)" fill="#ffddce"/>
                        </g>
                      </g>
                    </g>
                  </g>
                  <g id="Grupo_1161516" data-name="Grupo 1161516" transform="translate(0.69 9.817)">
                    <g id="Grupo_1161515" data-name="Grupo 1161515">
                      <g id="Grupo_1161514" data-name="Grupo 1161514">
                        <g id="Grupo_1161513" data-name="Grupo 1161513">
                          <path id="Trazado_995048" data-name="Trazado 995048" d="M44.528,316.988c-.684-.132-19,0-19,0A14.832,14.832,0,0,0,13.5,331.552v4.891a2.009,2.009,0,0,0,2.009,2.009H54.548a2.009,2.009,0,0,0,2.009-2.009v-4.891A14.831,14.831,0,0,0,44.528,316.988Z" transform="translate(-13.501 -316.93)" fill="#ffd064"/>
                        </g>
                      </g>
                    </g>
                  </g>
                  <path id="Trazado_995049" data-name="Trazado 995049" d="M76.249,330.631H41.219l-.929-17.118a2.647,2.647,0,0,1,2.643-2.791h31.6a2.647,2.647,0,0,1,2.643,2.791Z" transform="translate(-36.516 -301.618)" fill="#eaf2ff"/>
                  <path id="Trazado_995050" data-name="Trazado 995050" d="M280.315,310.722H272.8a2.647,2.647,0,0,1,2.643,2.791l-.929,17.118h7.512l.929-17.118A2.647,2.647,0,0,0,280.315,310.722Z" transform="translate(-242.297 -301.618)" fill="#dbe8f9"/>
                  <path id="Trazado_995051" data-name="Trazado 995051" d="M50.081,471.934H9.354a1.854,1.854,0,0,0,0,3.709H50.081a1.854,1.854,0,1,0,0-3.709Z" transform="translate(-7.5 -444.293)" fill="#9bc4f9"/>
                  <path id="Trazado_995052" data-name="Trazado 995052" d="M319.58,471.934h-5.712v1.854a1.854,1.854,0,0,1-1.854,1.854h7.567a1.854,1.854,0,0,0,0-3.709Z" transform="translate(-276.998 -444.293)" fill="#7fb2f9"/>
                </g>
              </g>
              <path id="Trazado_995053" data-name="Trazado 995053" d="M162.553,377.453a6.145,6.145,0,0,1,1.586-4.11l.023-.025a5.261,5.261,0,0,0-1.328-8.08.452.452,0,0,0-.677.392v3.913a1.188,1.188,0,0,1-1.188,1.188h-1.46a1.188,1.188,0,0,1-1.188-1.188v-3.913a.452.452,0,0,0-.677-.392,5.261,5.261,0,0,0-1.328,8.08l.023.025a6.145,6.145,0,0,1,1.586,4.11Z" transform="translate(-138.021 -349.812)" fill="#7fb2f9"/>
            </g>
          </g>
          <g id="Grupo_1161527" data-name="Grupo 1161527" transform="translate(9.001 3.235)">
            <g id="Grupo_1161526" data-name="Grupo 1161526">
              <g id="Grupo_1161525" data-name="Grupo 1161525">
                <g id="Grupo_1161524" data-name="Grupo 1161524">
                  <path id="Trazado_995054" data-name="Trazado 995054" d="M120.264,61.491l-.642,0-.011-2.585a9.411,9.411,0,0,0-18.819.08l.008,1.823,0,.763-.642,0a1.714,1.714,0,0,0-1.7,1.731l.008,1.91a1.713,1.713,0,0,0,1.71,1.717l.644,0a8.907,8.907,0,0,0,3,6.532A9.549,9.549,0,0,0,116.7,73.41a8.909,8.909,0,0,0,2.941-6.558l.644,0a1.714,1.714,0,0,0,1.7-1.731l-.008-1.91a1.713,1.713,0,0,0-1.71-1.717Z" transform="translate(-97.007 -48.123)" fill="#ffddce"/>
                  <path id="Trazado_995055" data-name="Trazado 995055" d="M192.211,66.783a1.713,1.713,0,0,0-1.71-1.717l-.641,0-.011-2.585a9.144,9.144,0,0,0-6.529-8.74,9.037,9.037,0,0,1,1.247,4.6l.031,12.083a8.909,8.909,0,0,1-2.941,6.558,10.069,10.069,0,0,1-3.828,2.138,9.457,9.457,0,0,0,9.11-2.138,8.909,8.909,0,0,0,2.941-6.558l.644,0a1.714,1.714,0,0,0,1.7-1.731Z" transform="translate(-167.244 -51.697)" fill="#ffcbbe"/>
                  <g id="Grupo_1161523" data-name="Grupo 1161523" transform="translate(0 11.812)">
                    <g id="Grupo_1161521" data-name="Grupo 1161521" transform="translate(22.629)">
                      <path id="Trazado_995056" data-name="Trazado 995056" d="M282.575,138.669v7.109h1.888a1.917,1.917,0,0,0,1.917-1.917v-3.276a1.917,1.917,0,0,0-1.917-1.917Z" transform="translate(-282.575 -138.669)" fill="#9bc4f9"/>
                    </g>
                    <g id="Grupo_1161522" data-name="Grupo 1161522">
                      <path id="Trazado_995057" data-name="Trazado 995057" d="M89.583,138.669v7.109H87.695a1.917,1.917,0,0,1-1.917-1.917v-3.276a1.917,1.917,0,0,1,1.917-1.917Z" transform="translate(-85.778 -138.669)" fill="#9bc4f9"/>
                    </g>
                  </g>
                  <path id="Trazado_995058" data-name="Trazado 995058" d="M119.844,39.782h-.1a.969.969,0,0,1-.969-.969,2.87,2.87,0,0,0-2.87-2.87h-9.133a7.36,7.36,0,0,0-7.36,7.36v4.864a1.679,1.679,0,0,0,1.127,1.585l1.813.631a.974.974,0,0,0,1.294-.921l0-3.43A3,3,0,0,1,106.617,43h.036a4.766,4.766,0,0,1,1.48.229,8.409,8.409,0,0,0,2.606.432h.653A8.4,8.4,0,0,0,114,43.228a4.769,4.769,0,0,1,1.48-.229h.036a3,3,0,0,1,2.971,3.033l0,3.43a.974.974,0,0,0,1.294.921l1.812-.631a1.679,1.679,0,0,0,1.127-1.585V42.651A2.87,2.87,0,0,0,119.844,39.782Z" transform="translate(-97.848 -35.943)" fill="#756e78"/>
                  <path id="Trazado_995059" data-name="Trazado 995059" d="M218.751,39.782h-.1a.969.969,0,0,1-.969-.969,2.87,2.87,0,0,0-2.87-2.87h-3.642a8.969,8.969,0,0,1,2.9,6.647v.418c.1-.006.2-.01.305-.009h.036a3,3,0,0,1,2.971,3.033l0,3.43a.974.974,0,0,0,1.294.921l1.812-.631a1.679,1.679,0,0,0,1.127-1.585V42.651A2.87,2.87,0,0,0,218.751,39.782Z" transform="translate(-196.754 -35.943)" fill="#665e66"/>
                  <path id="Trazado_995060" data-name="Trazado 995060" d="M229.157,223.06h-2.164a1.5,1.5,0,0,1,0-2.99h2.164a1.5,1.5,0,1,1,0,2.99Z" transform="translate(-209.432 -198.898)" fill="#db636e"/>
                </g>
              </g>
            </g>
          </g>
        </g>
      </g>
      <g id="Grupo_1161531" data-name="Grupo 1161531" transform="translate(0 0.313)">
        <g id="Grupo_1161530" data-name="Grupo 1161530" transform="translate(0 0)">
          <path id="Trazado_995061" data-name="Trazado 995061" d="M406.365,37.252H398.84a.862.862,0,0,0,0,1.725h7.525a.862.862,0,0,0,0-1.725Z" transform="translate(-352.216 -33.005)"/>
          <path id="Trazado_995062" data-name="Trazado 995062" d="M361.678,38.977h.917a.862.862,0,0,0,0-1.725h-.917a.862.862,0,0,0,0,1.725Z" transform="translate(-319.327 -33.005)"/>
          <path id="Trazado_995063" data-name="Trazado 995063" d="M361.678,74.209h11.8a.862.862,0,0,0,0-1.725h-11.8a.862.862,0,0,0,0,1.725Z" transform="translate(-319.327 -64.185)"/>
          <path id="Trazado_995064" data-name="Trazado 995064" d="M45.47,76.236a15.751,15.751,0,0,0-3.245-9.555l.16-2.944a3.507,3.507,0,0,0-3.5-3.7h-9.44a1.645,1.645,0,0,1-.7-1.344V56.285a9.771,9.771,0,0,0,3.246-3.311h1.669a3.505,3.505,0,0,0,3.5-3.5V43.033a2.778,2.778,0,0,0-1.568-2.5v-4.52a3.736,3.736,0,0,0-3.732-3.732h-.1a.107.107,0,0,1-.107-.107,3.736,3.736,0,0,0-3.732-3.732H18.791a8.231,8.231,0,0,0-8.222,8.222v3.869A2.778,2.778,0,0,0,9,43.032v3.275a2.782,2.782,0,0,0,2.779,2.779h1.113A9.685,9.685,0,0,0,16.116,55.3a11.826,11.826,0,0,0,1.3.977v2.418a1.647,1.647,0,0,1-.7,1.344H7.28a3.507,3.507,0,0,0-3.5,3.7l.16,2.944A15.751,15.751,0,0,0,.69,76.236v3.248a2.715,2.715,0,0,0,2.027,4.523H43.444a2.715,2.715,0,0,0,2.027-4.523Zm-1.725,0v2.355a2.728,2.728,0,0,0-.3-.017H41.58l.487-8.968a14.013,14.013,0,0,1,1.679,6.63Zm-8.4-33.624a1.049,1.049,0,0,1,.089.421v3.275a1.056,1.056,0,0,1-1.055,1.055H33.355V44.112l.531-.185A2.541,2.541,0,0,0,35.346,42.612ZM29.589,52.6H27.424a.633.633,0,1,1,0-1.265h2.164a.633.633,0,1,1,0,1.265Zm4.07-1.354h-.872a10.151,10.151,0,0,0,.5-2.162H34.38a2.764,2.764,0,0,0,1.055-.208v.594A1.779,1.779,0,0,1,33.658,51.25ZM12.294,36.663a6.5,6.5,0,0,1,6.5-6.5h9.133a2.01,2.01,0,0,1,2.007,2.007A1.834,1.834,0,0,0,31.763,34h.1a2.009,2.009,0,0,1,2.007,2.007v5.515a.817.817,0,0,1-.548.771l-1.812.631a.111.111,0,0,1-.148-.106l0-3.427c.01-2.5-2.331-4.682-5.613-3.628a9.167,9.167,0,0,1-5.337,0c-3.247-1.044-5.623,1.1-5.613,3.626l0,3.43a.111.111,0,0,1-.148.106L12.842,42.3a.817.817,0,0,1-.548-.771V36.663Zm-1.568,9.645V43.033a1.05,1.05,0,0,1,.089-.421,2.541,2.541,0,0,0,1.46,1.315l.531.185v3.251H11.78a1.056,1.056,0,0,1-1.055-1.054Zm3.821,1.783c-.029-1.134-.011-2.337-.016-3.439.053,0,.106.007.16.007a1.837,1.837,0,0,0,1.837-1.839l0-3.432c-.006-1.4,1.25-2.657,3.36-1.979a10.857,10.857,0,0,0,6.393,0c2.01-.646,3.366.491,3.36,1.982l0,3.429a1.836,1.836,0,0,0,2,1.831v3.509a8.507,8.507,0,0,1-.356,2.164,2.349,2.349,0,0,0-1.685-.712H27.424a2.357,2.357,0,1,0,0,4.715h1.1a8.825,8.825,0,0,1-5.395,1.925,8.456,8.456,0,0,1-8.579-8.161Zm4.6,10.6V57.184a10.512,10.512,0,0,0,3.981.794h.02a10.523,10.523,0,0,0,3.876-.786v1.5a3.365,3.365,0,0,0,.28,1.344H18.861a3.357,3.357,0,0,0,.281-1.344ZM4.094,69.606l.136,2.509a.862.862,0,0,0,1.722-.093L5.5,63.643A1.784,1.784,0,0,1,7.28,61.762h31.6a1.784,1.784,0,0,1,1.782,1.882l-.81,14.931H26.33A5.3,5.3,0,0,1,27.621,75.9l.025-.028a6.127,6.127,0,0,0-1.545-9.4,1.315,1.315,0,0,0-1.965,1.141v3.913a.326.326,0,0,1-.325.325H22.35a.326.326,0,0,1-.325-.325V67.613a1.315,1.315,0,0,0-1.965-1.141,6.127,6.127,0,0,0-1.542,9.407l.022.025a5.3,5.3,0,0,1,1.292,2.671H6.308l-.138-2.55a.862.862,0,1,0-1.722.093l.133,2.456H2.717a2.756,2.756,0,0,0-.3.017V76.236a14.015,14.015,0,0,1,1.679-6.63Zm17.48,8.968a7.012,7.012,0,0,0-1.752-3.825l-.021-.023a4.4,4.4,0,0,1,.5-6.336v3.135a2.052,2.052,0,0,0,2.05,2.05h1.46a2.052,2.052,0,0,0,2.05-2.05V68.39a4.4,4.4,0,0,1,.5,6.338l-.019.021a7.012,7.012,0,0,0-1.752,3.825Zm21.87,3.709H2.717a.992.992,0,1,1,0-1.984H43.444a.992.992,0,1,1,0,1.984Z" transform="translate(0 -25.207)"/>
          <path id="Trazado_995065" data-name="Trazado 995065" d="M347.618,6.215a.862.862,0,0,0,.862-.862V3.683a3.374,3.374,0,0,0-3.37-3.37h-14.5a3.374,3.374,0,0,0-3.37,3.37v7.254a3.374,3.374,0,0,0,3.37,3.37.6.6,0,0,1,.6.6V19.4a1.424,1.424,0,0,0,2.645.732l3.315-5.528a.606.606,0,0,1,.517-.293h7.426a3.374,3.374,0,0,0,3.37-3.37V9.384a.862.862,0,1,0-1.725,0v1.553a1.647,1.647,0,0,1-1.646,1.646h-7.426a2.339,2.339,0,0,0-2,1.13l-2.756,4.6v-3.4a2.33,2.33,0,0,0-2.327-2.327,1.647,1.647,0,0,1-1.646-1.646V3.683a1.647,1.647,0,0,1,1.646-1.646h14.5a1.647,1.647,0,0,1,1.646,1.646V5.353a.862.862,0,0,0,.862.862Z" transform="translate(-289.607 -0.313)"/>
        </g>
      </g>
    </g>
  </g>
</svg>
