<svg xmlns="http://www.w3.org/2000/svg" xmlns:xlink="http://www.w3.org/1999/xlink" width="113" height="113" viewBox="0 0 113 113">
  <defs>
    <filter id="Trazado_982547" x="0" y="0" width="113" height="113" filterUnits="userSpaceOnUse">
      <feOffset dy="3" input="SourceAlpha"/>
      <feGaussianBlur stdDeviation="3" result="blur"/>
      <feFlood flood-opacity="0.161"/>
      <feComposite operator="in" in2="blur"/>
      <feComposite in="SourceGraphic"/>
    </filter>
  </defs>
  <g id="Grupo_1161533" data-name="Grupo 1161533" transform="translate(-1165.546 -11243.912)">
    <g id="Grupo_1158313" data-name="Grupo 1158313" transform="translate(1.546 5722.912)">
      <g id="Grupo_1152578" data-name="Grupo 1152578" transform="translate(0.046 1205.621)">
        <g id="Grupo_1148635" data-name="Grupo 1148635" transform="translate(908.908 600.047)">
          <g id="Grupo_1148525" data-name="Grupo 1148525" transform="translate(264.046 3721.333)">
            <g transform="matrix(1, 0, 0, 1, -9, -6)" filter="url(#Trazado_982547)">
              <g id="Trazado_982547-2" data-name="Trazado 982547" transform="translate(9 6)" fill="#f0ebfe">
                <path d="M 47.5 93.5 C 41.28937149047852 93.5 35.26533508300781 92.28397369384766 29.59518623352051 89.88570404052734 C 24.11771965026855 87.56893157958984 19.19813346862793 84.25196075439453 14.97309303283691 80.02691650390625 C 10.74804019927979 75.80186462402344 7.431066513061523 70.88229370117188 5.114293098449707 65.40481567382812 C 2.716026782989502 59.73468017578125 1.5 53.71062850952148 1.5 47.5 C 1.5 41.28937149047852 2.716026782989502 35.26533508300781 5.114293098449707 29.59518623352051 C 7.431066513061523 24.11771965026855 10.74804019927979 19.19813346862793 14.97309303283691 14.97309303283691 C 19.19813346862793 10.74804019927979 24.11771965026855 7.431066513061523 29.59518623352051 5.114293098449707 C 35.26533508300781 2.716026782989502 41.28937149047852 1.5 47.5 1.5 C 53.71062850952148 1.5 59.73468017578125 2.716026782989502 65.40481567382812 5.114293098449707 C 70.88229370117188 7.431066513061523 75.80186462402344 10.74804019927979 80.02691650390625 14.97309303283691 C 84.25196075439453 19.19813346862793 87.56893157958984 24.11771965026855 89.88570404052734 29.59518623352051 C 92.28397369384766 35.26533508300781 93.5 41.28937149047852 93.5 47.5 C 93.5 53.71062850952148 92.28397369384766 59.73468017578125 89.88570404052734 65.40481567382812 C 87.56893157958984 70.88229370117188 84.25196075439453 75.80186462402344 80.02691650390625 80.02691650390625 C 75.80186462402344 84.25196075439453 70.88229370117188 87.56893157958984 65.40481567382812 89.88570404052734 C 59.73468017578125 92.28397369384766 53.71062850952148 93.5 47.5 93.5 Z" stroke="none"/>
                <path d="M 47.5 3 C 41.49121475219727 3 35.66376876831055 4.176155090332031 30.17950439453125 6.495796203613281 C 24.88084411621094 8.736953735351562 20.12152099609375 11.94598388671875 16.03375244140625 16.03375244140625 C 11.94598388671875 20.12152099609375 8.736953735351562 24.88084411621094 6.495796203613281 30.17950439453125 C 4.176155090332031 35.66376876831055 3 41.49121475219727 3 47.5 C 3 53.50878524780273 4.176155090332031 59.33623123168945 6.495796203613281 64.82049560546875 C 8.736953735351562 70.11915588378906 11.94598388671875 74.87847900390625 16.03375244140625 78.96624755859375 C 20.12152099609375 83.05401611328125 24.88084411621094 86.26304626464844 30.17950439453125 88.50419616699219 C 35.66376876831055 90.82384490966797 41.49121475219727 92 47.5 92 C 53.50878524780273 92 59.33623123168945 90.82384490966797 64.82049560546875 88.50419616699219 C 70.11915588378906 86.26304626464844 74.87847900390625 83.05401611328125 78.96624755859375 78.96624755859375 C 83.05401611328125 74.87847900390625 86.26304626464844 70.11915588378906 88.50419616699219 64.82049560546875 C 90.82384490966797 59.33623123168945 92 53.50878524780273 92 47.5 C 92 41.49121475219727 90.82384490966797 35.66376876831055 88.50419616699219 30.17950439453125 C 86.26304626464844 24.88084411621094 83.05401611328125 20.12152099609375 78.96624755859375 16.03375244140625 C 74.87847900390625 11.94598388671875 70.11915588378906 8.736953735351562 64.82049560546875 6.495796203613281 C 59.33623123168945 4.176155090332031 53.50878524780273 3 47.5 3 M 47.5 0 C 73.7335205078125 0 95 21.2664794921875 95 47.5 C 95 73.7335205078125 73.7335205078125 95 47.5 95 C 21.2664794921875 95 0 73.7335205078125 0 47.5 C 0 21.2664794921875 21.2664794921875 0 47.5 0 Z" stroke="none" fill="#7145fe"/>
              </g>
            </g>
          </g>
        </g>
      </g>
    </g>
    <g id="Layer_20" data-name="Layer 20" transform="translate(1190.043 11265.38)">
      <path id="Trazado_995066" data-name="Trazado 995066" d="M41.6,56.656a20.83,20.83,0,0,1-4.6,1.72V62H27V58.376a20.831,20.831,0,0,1-5.871-2.434l-2.564,2.564-7.071-7.071,2.564-2.564A20.831,20.831,0,0,1,11.624,43H8V28.942L19.586,18.457,21.129,20A20.831,20.831,0,0,1,27,17.566V13.942H37v3.624A20.831,20.831,0,0,1,42.871,20l2.564-2.564,7.071,7.071-2.564,2.564a20.831,20.831,0,0,1,2.434,5.871H56v8.2Z" fill="#f79b31"/>
      <path id="Trazado_995067" data-name="Trazado 995067" d="M56,32.942H52.376a20.831,20.831,0,0,0-2.434-5.871l2.564-2.564-7.071-7.071L42.871,20A20.831,20.831,0,0,0,37,17.566V13.942H27v3.624A20.831,20.831,0,0,0,21.129,20l-1.543-1.543-2.681,2.426A24,24,0,0,0,37,58c.495,0,.986-.02,1.474-.049a20.864,20.864,0,0,0,3.125-1.3L56,41.142Z" fill="#fcb732"/>
      <circle id="Elipse_12028" data-name="Elipse 12028" cx="15" cy="15" r="15" transform="translate(17 23)" fill="#e6e6e6"/>
      <path id="Trazado_995068" data-name="Trazado 995068" d="M31,24a14.926,14.926,0,0,0-10.083,3.917A14.982,14.982,0,0,0,42.083,49.083,14.982,14.982,0,0,0,31,24Z" fill="#fff"/>
      <path id="Trazado_995069" data-name="Trazado 995069" d="M36.058,42.412,34,42V40.464H30V42l-2.058.412A3.659,3.659,0,0,0,25,46v5.262a14.9,14.9,0,0,0,14-.017V46a3.659,3.659,0,0,0-2.942-3.588Z" fill="#e73844"/>
      <path id="Trazado_995070" data-name="Trazado 995070" d="M29.942,42.412A3.659,3.659,0,0,0,27,46v.418a6.5,6.5,0,0,0,5.933,6.543H33a14.865,14.865,0,0,0,6-1.72V46a3.659,3.659,0,0,0-2.942-3.588L34,42V40.464H32V42Z" fill="#ff4d55"/>
      <path id="Trazado_995071" data-name="Trazado 995071" d="M26,35.271V31a4,4,0,0,1,4-4h4a2,2,0,0,1,2,2h0a2,2,0,0,1,2,2v4.271" fill="#383838"/>
      <path id="Trazado_995072" data-name="Trazado 995072" d="M28,31v4.271H38V31a2,2,0,0,0-2-2,2,2,0,0,0-2-2H32A4,4,0,0,0,28,31Z" fill="#4c4c4c"/>
      <path id="Trazado_995073" data-name="Trazado 995073" d="M28,34v3a4,4,0,0,0,4,4h0a4,4,0,0,0,4-4V34a2,2,0,0,0-2-2h0a6.826,6.826,0,0,1-4.828,2Z" fill="#d08d78"/>
      <path id="Trazado_995074" data-name="Trazado 995074" d="M28,35H27a2,2,0,0,0-2,2h0a2,2,0,0,0,2,2h1.536" fill="#d08d78"/>
      <path id="Trazado_995075" data-name="Trazado 995075" d="M36,35h1a2,2,0,0,1,2,2h0a2,2,0,0,1-2,2H35.464" fill="#d08d78"/>
      <path id="Trazado_995076" data-name="Trazado 995076" d="M32,45a4,4,0,0,0,3.765-2.648h0L34,42V40.464H30V42l-1.765.353h0A4,4,0,0,0,32,45Z" fill="#d08d78"/>
      <path id="Trazado_995077" data-name="Trazado 995077" d="M32.5,40.95A3.988,3.988,0,0,0,36,37V34a2,2,0,0,0-2-2,6.826,6.826,0,0,1-4.828,2H29v3A3.988,3.988,0,0,0,32.5,40.95Z" fill="#f2b9a1"/>
      <path id="Trazado_995078" data-name="Trazado 995078" d="M35.765,42.353h0L34,42v-.555A3.955,3.955,0,0,1,32,42h-.011a1.336,1.336,0,0,0-.682,2.443,2.812,2.812,0,0,0,1.193.517A4,4,0,0,0,35.765,42.353Z" fill="#f2b9a1"/>
      <path id="Trazado_995079" data-name="Trazado 995079" d="M16,28a2,2,0,0,0,0-4H8a2,2,0,0,0,0,4,2,2,0,0,0,0,4h8a2,2,0,0,0,0-4Z" fill="#4c4c4c"/>
      <path id="Trazado_995080" data-name="Trazado 995080" d="M8,32H8a4,4,0,0,0,4,4h0a4,4,0,0,0,4-4Z" fill="#5e5e5e"/>
      <path id="Trazado_995081" data-name="Trazado 995081" d="M16.034,24a6.632,6.632,0,0,1,2.394-4.339,10,10,0,1,0-12.856,0A6.632,6.632,0,0,1,7.966,24" fill="#f9cb5d"/>
      <circle id="Elipse_12029" data-name="Elipse 12029" cx="11" cy="11" r="11" transform="translate(40 40)" fill="#82ab00"/>
      <path id="Trazado_995082" data-name="Trazado 995082" d="M51,40a10.94,10.94,0,0,0-6.706,2.294A10.987,10.987,0,0,0,59.706,57.706,10.987,10.987,0,0,0,51,40Z" fill="#8dbf00"/>
      <path id="Trazado_995083" data-name="Trazado 995083" d="M43,52l3-3,3,3,7-7,3,3L49,58Z" fill="#fff"/>
      <path id="Trazado_995084" data-name="Trazado 995084" d="M12,2a9.968,9.968,0,0,0-3.937.807A10,10,0,0,0,18.919,19.2,9.987,9.987,0,0,0,12,2Z" fill="#ffd98c"/>
      <path id="Trazado_995085" data-name="Trazado 995085" d="M18,30a2,2,0,0,0-2-2,2,2,0,0,0,0-4H10a2,2,0,0,0,0,4,2,2,0,0,0,0,4h6A2,2,0,0,0,18,30Z" fill="#5e5e5e"/>
      <path id="Trazado_995086" data-name="Trazado 995086" d="M17.723,27H6.277A1.994,1.994,0,0,0,8,28a1.994,1.994,0,0,0-1.723,1H17.723A1.994,1.994,0,0,0,16,28a1.994,1.994,0,0,0,1.723-1Z" fill="#4c4c4c"/>
      <path id="Trazado_995087" data-name="Trazado 995087" d="M15.859,33H11.805a1.39,1.39,0,0,0-1.2,2.108,4.08,4.08,0,0,0,.683.821A3.933,3.933,0,0,0,15.859,33Z" fill="#666"/>
      <path id="Trazado_995088" data-name="Trazado 995088" d="M28,48v4.45a14.832,14.832,0,0,0,2,.413V48Z" fill="#e73844"/>
      <path id="Trazado_995089" data-name="Trazado 995089" d="M34,48v4.861a14.689,14.689,0,0,0,2-.418V48Z" fill="#e73844"/>
      <path id="Trazado_995090" data-name="Trazado 995090" d="M57,40.623V33a1,1,0,0,0-1-1H53.146a21.779,21.779,0,0,0-1.952-4.709l2.019-2.019a1,1,0,0,0,0-1.414l-7.07-7.071a1,1,0,0,0-1.414,0l-2.02,2.019A21.829,21.829,0,0,0,38,16.854V14a1,1,0,0,0-1-1H27a1,1,0,0,0-1,1v2.854a21.829,21.829,0,0,0-4.709,1.952l-.378-.378a10.993,10.993,0,1,0-15.984,2A5.757,5.757,0,0,1,6.791,23.26,2.993,2.993,0,0,0,5.766,28a2.986,2.986,0,0,0,1.269,4.827A.9.9,0,0,0,7,33V43.058a1,1,0,0,0,1,1h2.854a21.821,21.821,0,0,0,1.952,4.709l-2.019,2.019a1,1,0,0,0,0,1.414l7.07,7.071a1,1,0,0,0,1.414,0l2.02-2.019A21.829,21.829,0,0,0,26,59.2v2.854a1,1,0,0,0,1,1H37a1,1,0,0,0,1-1V59.2a22.018,22.018,0,0,0,3.25-1.235A11.989,11.989,0,1,0,57,40.623ZM21.647,20.913a19.851,19.851,0,0,1,5.59-2.318A1,1,0,0,0,28,17.624V15h8v2.624a1,1,0,0,0,.763.971,19.851,19.851,0,0,1,5.59,2.318,1,1,0,0,0,1.225-.148l1.858-1.857,5.656,5.657-1.857,1.857a1,1,0,0,0-.147,1.226A19.816,19.816,0,0,1,51.4,33.237a1,1,0,0,0,.972.763H55v5.7a11.71,11.71,0,0,0-7.067-.288c.041-.469.067-.94.067-1.412a15.992,15.992,0,0,0-29.19-9.038A2.981,2.981,0,0,0,18.234,28a2.993,2.993,0,0,0-1.025-4.741,5.757,5.757,0,0,1,1.862-2.832c.184-.155.35-.325.523-.49l.828.828A1,1,0,0,0,21.647,20.913ZM34,48v3.857A14.16,14.16,0,0,1,32,52a13.884,13.884,0,0,1-2-.16V48H28v3.41a13.864,13.864,0,0,1-2-.78V46a2.667,2.667,0,0,1,1.693-2.477,4.983,4.983,0,0,0,8.614,0A2.667,2.667,0,0,1,38,46v4.644a13.854,13.854,0,0,1-2,.771V48ZM27,36v1a5,5,0,0,0,.1,1H27a1,1,0,0,1,0-2Zm1-3a1,1,0,0,0-1,1V31a3,3,0,0,1,3-3h4a1,1,0,0,1,1,1,1,1,0,0,0,1,1,1,1,0,0,1,1,1v3a3,3,0,0,0-3-3,1,1,0,0,0-.707.293A5.868,5.868,0,0,1,29.172,33Zm9,4V36a1,1,0,0,1,0,2h-.1A5,5,0,0,0,37,37Zm-5,3a3,3,0,0,1-3-3V35h.172a7.889,7.889,0,0,0,5.161-1.943A1,1,0,0,1,35,34v3A3,3,0,0,1,32,40Zm0,2a5,5,0,0,0,1-.1V42a1,1,0,0,0,.8.98l.371.075a2.975,2.975,0,0,1-4.35,0l.371-.075A1,1,0,0,0,31,42v-.1A5,5,0,0,0,32,42Zm8,4.218V46a4.67,4.67,0,0,0-3.745-4.568L35,41.181v-.207A4.993,4.993,0,0,0,35.974,40H37a2.989,2.989,0,0,0,2-5.22V31a3,3,0,0,0-2.129-2.871A3,3,0,0,0,34,26H30a5.006,5.006,0,0,0-5,5v3.78A2.989,2.989,0,0,0,27,40h1.026a4.993,4.993,0,0,0,.974.974v.207l-1.255.251A4.67,4.67,0,0,0,24,46v3.473A13.994,13.994,0,1,1,46,38a14.248,14.248,0,0,1-.185,2.2A12.057,12.057,0,0,0,40,46.218ZM16,25a1,1,0,0,1,0,2H8a1,1,0,0,1,0-2ZM8,29h8a1,1,0,0,1,0,2H8a1,1,0,0,1,0-2Zm6.816,4a2.982,2.982,0,0,1-5.632,0Zm-8.6-14.1a9,9,0,1,1,11.568,0A7.721,7.721,0,0,0,15.2,23H8.8a7.721,7.721,0,0,0-2.584-4.1ZM36.762,57.462a1,1,0,0,0-.762.972v2.624H28V58.434a1,1,0,0,0-.763-.972,19.857,19.857,0,0,1-5.589-2.316,1,1,0,0,0-1.226.147L18.564,57.15l-5.656-5.657,1.857-1.857a1,1,0,0,0,.147-1.227A19.775,19.775,0,0,1,12.6,42.82a1,1,0,0,0-.972-.762H9V35.974a4.943,4.943,0,0,0,7.482-1.8,15.978,15.978,0,0,0,22.6,18.167,11.884,11.884,0,0,0,1.151,3.919,19.881,19.881,0,0,1-3.471,1.2ZM51,61A10,10,0,1,1,61,51,10,10,0,0,1,51,61Z"/>
      <path id="Trazado_995091" data-name="Trazado 995091" d="M55.293,44.293,49,50.586l-2.293-2.293a1,1,0,0,0-1.414,0l-3,3a1,1,0,0,0,0,1.414l6,6a1,1,0,0,0,1.414,0l10-10a1,1,0,0,0,0-1.414l-3-3A1,1,0,0,0,55.293,44.293ZM49,56.586,44.414,52,46,50.414l2.293,2.293a1,1,0,0,0,1.414,0L56,46.414,57.586,48Z"/>
    </g>
  </g>
</svg>
