<svg xmlns="http://www.w3.org/2000/svg" xmlns:xlink="http://www.w3.org/1999/xlink" width="108" height="108" viewBox="0 0 108 108">
  <defs>
    <filter id="Trazado_982547" x="0" y="0" width="108" height="108" filterUnits="userSpaceOnUse">
      <feOffset dy="3" input="SourceAlpha"/>
      <feGaussianBlur stdDeviation="3" result="blur"/>
      <feFlood flood-opacity="0.161"/>
      <feComposite operator="in" in2="blur"/>
      <feComposite in="SourceGraphic"/>
    </filter>
  </defs>
  <g id="Grupo_1159481" data-name="Grupo 1159481" transform="translate(-197 -1803)">
    <g id="Grupo_1158153" data-name="Grupo 1158153" transform="translate(36 -352)">
      <g id="Grupo_1153207" data-name="Grupo 1153207" transform="translate(0 703)">
        <g id="Grupo_1153117" data-name="Grupo 1153117" transform="translate(-93 939)">
          <g id="Grupo_1149598" data-name="Grupo 1149598" transform="translate(80 315)">
            <g id="Grupo_1148770" data-name="Grupo 1148770" transform="translate(-27 -2583)">
              <g id="Grupo_1146954" data-name="Grupo 1146954" transform="translate(-415 -1202)">
                <g transform="matrix(1, 0, 0, 1, 616, 3983)" filter="url(#Trazado_982547)">
                  <g id="Trazado_982547-2" data-name="Trazado 982547" transform="translate(9 6)" fill="#ebfefd">
                    <path d="M 45 88.5 C 39.12687683105469 88.5 33.43022537231445 87.35007476806641 28.06830024719238 85.08217620849609 C 22.88852500915527 82.89131164550781 18.23629951477051 79.75458526611328 14.2408504486084 75.75914764404297 C 10.24541282653809 71.76370239257812 7.108687400817871 67.11147308349609 4.917825222015381 61.93170166015625 C 2.649924993515015 56.56977462768555 1.5 50.87312316894531 1.5 45 C 1.5 39.12687683105469 2.649924993515015 33.43022537231445 4.917825222015381 28.06830024719238 C 7.108687400817871 22.88852500915527 10.24541282653809 18.23629951477051 14.2408504486084 14.2408504486084 C 18.23629951477051 10.24541282653809 22.88852500915527 7.108687400817871 28.06830024719238 4.917825222015381 C 33.43022537231445 2.649924993515015 39.12687683105469 1.5 45 1.5 C 50.87312316894531 1.5 56.56977462768555 2.649924993515015 61.93170166015625 4.917825222015381 C 67.11147308349609 7.108687400817871 71.76370239257812 10.24541282653809 75.75914764404297 14.2408504486084 C 79.75458526611328 18.23629951477051 82.89131164550781 22.88852500915527 85.08217620849609 28.06830024719238 C 87.35007476806641 33.43022537231445 88.5 39.12687683105469 88.5 45 C 88.5 50.87312316894531 87.35007476806641 56.56977462768555 85.08217620849609 61.93170166015625 C 82.89131164550781 67.11147308349609 79.75458526611328 71.76370239257812 75.75914764404297 75.75914764404297 C 71.76370239257812 79.75458526611328 67.11147308349609 82.89131164550781 61.93170166015625 85.08217620849609 C 56.56977462768555 87.35007476806641 50.87312316894531 88.5 45 88.5 Z" stroke="none"/>
                    <path d="M 45 3 C 39.32871246337891 3 33.82865524291992 4.110054016113281 28.65262985229492 6.299339294433594 C 23.65165710449219 8.414573669433594 19.15968322753906 11.44334411621094 15.301513671875 15.301513671875 C 11.44334411621094 19.15968322753906 8.414573669433594 23.65165710449219 6.299339294433594 28.65262985229492 C 4.110054016113281 33.82865524291992 3 39.32871246337891 3 45 C 3 50.67128753662109 4.110054016113281 56.17134475708008 6.299339294433594 61.34737396240234 C 8.414573669433594 66.34834289550781 11.44334411621094 70.84031677246094 15.301513671875 74.698486328125 C 19.15968322753906 78.55665588378906 23.65165710449219 81.58542633056641 28.65262985229492 83.70066070556641 C 33.82865524291992 85.88994598388672 39.32871246337891 87 45 87 C 50.67128753662109 87 56.17134475708008 85.88994598388672 61.34737396240234 83.70066070556641 C 66.34834289550781 81.58542633056641 70.84031677246094 78.55665588378906 74.698486328125 74.698486328125 C 78.55665588378906 70.84031677246094 81.58542633056641 66.34834289550781 83.70066070556641 61.34737396240234 C 85.88994598388672 56.17134475708008 87 50.67128753662109 87 45 C 87 39.32871246337891 85.88994598388672 33.82865524291992 83.70066070556641 28.65262985229492 C 81.58542633056641 23.65165710449219 78.55665588378906 19.15968322753906 74.698486328125 15.301513671875 C 70.84031677246094 11.44334411621094 66.34834289550781 8.414573669433594 61.34737396240234 6.299339294433594 C 56.17134475708008 4.110054016113281 50.67128753662109 3 45 3 M 45 0 C 69.85281372070312 0 90 20.14718627929688 90 45 C 90 69.85281372070312 69.85281372070312 90 45 90 C 20.14718627929688 90 0 69.85281372070312 0 45 C 0 20.14718627929688 20.14718627929688 0 45 0 Z" stroke="none" fill="#268985"/>
                  </g>
                </g>
              </g>
            </g>
          </g>
        </g>
      </g>
    </g>
    <g id="Computer-Engineer-Gear-Monitor-Construction" transform="translate(219 1822)">
      <path id="Trazado_993171" data-name="Trazado 993171" d="M53,17V41H3V17a4,4,0,0,1,4-4H49A4,4,0,0,1,53,17Z" fill="#5aaae7"/>
      <path id="Trazado_993172" data-name="Trazado 993172" d="M53,41v4a4,4,0,0,1-4,4H7a4,4,0,0,1-4-4V41Z" fill="#c6c5ca"/>
      <path id="Trazado_993173" data-name="Trazado 993173" d="M53,17V29.53c-.17.05-.35.1-.53.15L52,33H48l-.47-3.32a9.8,9.8,0,0,1-2.62-1.09l-2.69,2.02-2.83-2.83,2.02-2.69a9.8,9.8,0,0,1-1.09-2.62L37,22V18l3.32-.47A9.427,9.427,0,0,1,41.36,15a.405.405,0,0,1,.05-.09L39.98,13H49a4,4,0,0,1,4,4Z" fill="#3d9ae2"/>
      <path id="Trazado_993174" data-name="Trazado 993174" d="M57.68,20.47a9.8,9.8,0,0,1-1.09,2.62l2.02,2.69-2.83,2.83-2.69-2.02a.405.405,0,0,1-.09.05,9.427,9.427,0,0,1-2.53,1.04L50,31H46l-.47-3.32a9.8,9.8,0,0,1-2.62-1.09l-2.69,2.02-2.83-2.83,2.02-2.69a9.8,9.8,0,0,1-1.09-2.62L35,20V16l3.32-.47A9.427,9.427,0,0,1,39.36,13a.4.4,0,0,1,.05-.09l-2.02-2.69,2.83-2.83,2.69,2.02a9.8,9.8,0,0,1,2.62-1.09L46,5h4l.47,3.32a9.8,9.8,0,0,1,2.62,1.09l2.69-2.02,2.83,2.83-2.02,2.69a9.8,9.8,0,0,1,1.09,2.62L61,16v4Z" fill="#ff9811"/>
      <circle id="Elipse_12004" data-name="Elipse 12004" cx="5" cy="5" r="5" transform="translate(43 13)" fill="#ffd422"/>
      <path id="Trazado_993175" data-name="Trazado 993175" d="M39.41,57.59A1.955,1.955,0,0,1,40,59a2.006,2.006,0,0,1-2,2H18a2,2,0,1,1,0-4H38A1.955,1.955,0,0,1,39.41,57.59Z" fill="#898890"/>
      <path id="Trazado_993176" data-name="Trazado 993176" d="M36,57H20l1-8H35Z" fill="#acabb1"/>
      <path id="Trazado_993177" data-name="Trazado 993177" d="M33,38.9V41H9V38.9a6,6,0,0,1,3.559-5.479L15.3,32.2,18,31V28.32A6.946,6.946,0,0,1,14.08,23H13a2,2,0,0,1,0-4h1V17a2,2,0,1,1,0-4H28a2,2,0,0,1,0,4v2h1a2,2,0,0,1,0,4H27.92A6.952,6.952,0,0,1,24,28.32V31l2.7,1.2,2.74,1.22A6,6,0,0,1,33,38.9Z" fill="#3d9ae2"/>
      <path id="Trazado_993178" data-name="Trazado 993178" d="M31,36.9V41H22l-1.82-8.18L21,32l3,1,.7-2.8,2.74,1.22A6,6,0,0,1,31,36.9Z" fill="#1e81ce"/>
      <path id="Trazado_993179" data-name="Trazado 993179" d="M27.41,11.59A1.955,1.955,0,0,1,28,13a2.006,2.006,0,0,1-2,2H12a2,2,0,1,1,0-4H26a1.955,1.955,0,0,1,1.41.59Z" fill="#f7910c"/>
      <path id="Trazado_993180" data-name="Trazado 993180" d="M26,11H21V5.09A5.984,5.984,0,0,1,25.91,10,5.47,5.47,0,0,1,26,11Z" fill="#ff9811"/>
      <path id="Trazado_993181" data-name="Trazado 993181" d="M24.7,30.2,24,33l-3-1-1-2,2-1Z" fill="#1a6fb0"/>
      <path id="Trazado_993182" data-name="Trazado 993182" d="M20.18,32.82,22,41H16l1.82-8.18L19,34Z" fill="#ed1c24"/>
      <path id="Trazado_993183" data-name="Trazado 993183" d="M21,5.09V11H17V4a1,1,0,0,1,1-1h2a1,1,0,0,1,1,1Z" fill="#ffa733"/>
      <path id="Trazado_993184" data-name="Trazado 993184" d="M20,30l1,2-.82.82L19,34l-1.18-1.18L17,32l1-2Z" fill="#ed1c24"/>
      <path id="Trazado_993185" data-name="Trazado 993185" d="M18,30l-1,2-3,1-.7-2.8L16,29Z" fill="#1a6fb0"/>
      <path id="Trazado_993186" data-name="Trazado 993186" d="M17.82,32.82,16,41H7V36.9a6,6,0,0,1,3.559-5.479L13.3,30.2,14,33l3-1Z" fill="#1e81ce"/>
      <path id="Trazado_993187" data-name="Trazado 993187" d="M17,5.09V11H12a5.47,5.47,0,0,1,.09-1A5.992,5.992,0,0,1,17,5.09Z" fill="#ff9811"/>
      <path id="Trazado_993188" data-name="Trazado 993188" d="M22,26v3l-2,1H18l-2-1V26Z" fill="#ffc477"/>
      <g id="Grupo_1159480" data-name="Grupo 1159480">
        <path id="Trazado_993189" data-name="Trazado 993189" d="M13,17v4H11a2,2,0,0,1,0-4Z" fill="#ffb655"/>
        <path id="Trazado_993190" data-name="Trazado 993190" d="M29,19a2.006,2.006,0,0,1-2,2H25V17h2a2.006,2.006,0,0,1,2,2Z" fill="#ffb655"/>
        <path id="Trazado_993191" data-name="Trazado 993191" d="M22,26v2.32a6.958,6.958,0,0,1-6,0V26Z" fill="#ffb655"/>
      </g>
      <path id="Trazado_993192" data-name="Trazado 993192" d="M26,17v3a5.474,5.474,0,0,1-.08,1,6.99,6.99,0,0,1-13.84,0A5.474,5.474,0,0,1,12,20V15H26Z" fill="#ffc477"/>
      <path id="Trazado_993193" data-name="Trazado 993193" d="M12,15H26v2H12Z" fill="#ffb655"/>
      <path id="Trazado_993194" data-name="Trazado 993194" d="M35.25,51H20.75L21,49H35Z" fill="#898890"/>
      <path id="Trazado_993195" data-name="Trazado 993195" d="M31,12h5v2H31Z"/>
      <path id="Trazado_993196" data-name="Trazado 993196" d="M52,30V40H32V36.9a7,7,0,0,0-4.15-6.39L23,28.35V26.92A8.06,8.06,0,0,0,26.74,22H27a3,3,0,0,0,0-6v-.18a2.983,2.983,0,0,0-.05-5.65,6.934,6.934,0,0,0-2-4.11A6.756,6.756,0,0,0,22,4.31V4a2.006,2.006,0,0,0-2-2H18a2.006,2.006,0,0,0-2,2v.3a6.96,6.96,0,0,0-4.95,5.87A2.983,2.983,0,0,0,11,15.82V16a3,3,0,0,0,0,6h.26A8.06,8.06,0,0,0,15,26.92v1.43l-4.85,2.16A7,7,0,0,0,6,36.9V40H4V17a3.009,3.009,0,0,1,3-3V12a5,5,0,0,0-5,5V45a5,5,0,0,0,5,5H19.87l-.75,6H18a3,3,0,0,0,0,6H38a3,3,0,1,0,0-6H36.88l-.75-6H49a5,5,0,0,0,5-5V30ZM11,20a1,1,0,0,1,0-2ZM24,34a1,1,0,0,0,.48-.12,1.017,1.017,0,0,0,.49-.64l.41-1.64,1.65.73A5,5,0,0,1,30,36.9V40H22.8l-1.52-6.85,2.4.8A1.185,1.185,0,0,0,24,34Zm-.47-3.23-.24.94-1.58-.53-.37-.73.69-.34ZM28,19a1,1,0,0,1-1,1V18A1,1,0,0,1,28,19ZM22,6.43a5.106,5.106,0,0,1,1.54,1.04A4.913,4.913,0,0,1,24.9,10H22ZM18,4h2v6H18ZM16,6.43V10H13.1A4.961,4.961,0,0,1,16,6.43ZM11,13a1,1,0,0,1,1-1H26a1,1,0,0,1,0,2H12A1,1,0,0,1,11,13Zm2,7V16H25v4a6,6,0,1,1-12,0Zm5.41,14.78a.9.9,0,0,0,1.18,0L20.75,40h-3.5Zm-.19-2.98.4-.8h.76l.4.8-.78.79ZM19.76,29H18.24L17,28.38v-.64a7.822,7.822,0,0,0,4,0v.64Zm-3.79,1.11.69.34-.37.73-1.58.53-.24-.94ZM8,36.9a5,5,0,0,1,2.971-4.57l1.649-.73.41,1.64a1.017,1.017,0,0,0,.49.64A1,1,0,0,0,14,34a1.185,1.185,0,0,0,.32-.05l2.4-.8L15.2,40H8ZM38,58a1,1,0,0,1,0,2H18a1,1,0,0,1,0-2ZM21.13,56l.75-6H34.12l.75,6ZM52,45a3.009,3.009,0,0,1-3,3H7a3.009,3.009,0,0,1-3-3V42H52Z"/>
      <path id="Trazado_993197" data-name="Trazado 993197" d="M46,44h2v2H46Z"/>
      <path id="Trazado_993198" data-name="Trazado 993198" d="M15,18h2v2H15Z"/>
      <path id="Trazado_993199" data-name="Trazado 993199" d="M21,18h2v2H21Z"/>
      <path id="Trazado_993200" data-name="Trazado 993200" d="M61.142,15.01l-2.682-.383a10.861,10.861,0,0,0-.679-1.639l1.625-2.166a1,1,0,0,0-.093-1.307L56.485,6.687a1,1,0,0,0-1.306-.093L53.012,8.218a10.9,10.9,0,0,0-1.639-.678L50.99,4.858A1,1,0,0,0,50,4H46a1,1,0,0,0-.99.858L44.627,7.54a10.855,10.855,0,0,0-1.639.678L40.821,6.594a1,1,0,0,0-1.306.093L36.687,9.515a1,1,0,0,0-.093,1.307l1.625,2.166a10.86,10.86,0,0,0-.679,1.639l-2.682.383A1,1,0,0,0,34,16v4a1,1,0,0,0,.858.99l2.682.383a10.86,10.86,0,0,0,.679,1.639l-1.625,2.166a1,1,0,0,0,.093,1.307l2.828,2.828a1,1,0,0,0,1.306.093l2.167-1.624a10.855,10.855,0,0,0,1.639.678l.383,2.682A1,1,0,0,0,46,32h4a1,1,0,0,0,.99-.858l.383-2.682a10.9,10.9,0,0,0,1.639-.678l2.167,1.624a1,1,0,0,0,1.306-.093l2.828-2.828a1,1,0,0,0,.093-1.307l-1.625-2.166a10.861,10.861,0,0,0,.679-1.639l2.682-.383A1,1,0,0,0,62,20V16a1,1,0,0,0-.858-.99ZM60,19.133l-2.463.352a1,1,0,0,0-.827.742,8.923,8.923,0,0,1-.977,2.357,1,1,0,0,0,.061,1.111l1.492,1.99-1.6,1.6-1.991-1.492a1,1,0,0,0-1.11-.06,8.859,8.859,0,0,1-2.356.975,1,1,0,0,0-.744.828L49.133,30H46.867l-.351-2.463a1,1,0,0,0-.744-.828,8.859,8.859,0,0,1-2.356-.975,1,1,0,0,0-1.11.06l-1.991,1.492-1.6-1.6,1.492-1.99a1,1,0,0,0,.061-1.111,8.923,8.923,0,0,1-.977-2.357,1,1,0,0,0-.827-.742L36,19.133V16.867l2.463-.352a1,1,0,0,0,.827-.742,8.923,8.923,0,0,1,.977-2.357,1,1,0,0,0-.061-1.111l-1.492-1.99,1.6-1.6,1.991,1.492a1,1,0,0,0,1.11.06,8.859,8.859,0,0,1,2.356-.975,1,1,0,0,0,.744-.828L46.867,6h2.266l.351,2.463a1,1,0,0,0,.744.828,8.859,8.859,0,0,1,2.356.975,1,1,0,0,0,1.11-.06l1.991-1.492,1.6,1.6L55.793,12.3a1,1,0,0,0-.061,1.111,8.923,8.923,0,0,1,.977,2.357,1,1,0,0,0,.827.742L60,16.867Z"/>
      <path id="Trazado_993201" data-name="Trazado 993201" d="M48,12a6,6,0,1,0,6,6,6,6,0,0,0-6-6Zm0,10a4,4,0,1,1,4-4A4,4,0,0,1,48,22Z"/>
      <path id="Trazado_993202" data-name="Trazado 993202" d="M36,32h8v2H36Z"/>
      <path id="Trazado_993203" data-name="Trazado 993203" d="M36,36h8v2H36Z"/>
    </g>
  </g>
</svg>
