<svg xmlns="http://www.w3.org/2000/svg" xmlns:xlink="http://www.w3.org/1999/xlink" width="113" height="113" viewBox="0 0 113 113">
  <defs>
    <filter id="Trazado_982547" x="0" y="0" width="113" height="113" filterUnits="userSpaceOnUse">
      <feOffset dy="3" input="SourceAlpha"/>
      <feGaussianBlur stdDeviation="3" result="blur"/>
      <feFlood flood-opacity="0.161"/>
      <feComposite operator="in" in2="blur"/>
      <feComposite in="SourceGraphic"/>
    </filter>
  </defs>
  <g id="Grupo_1159498" data-name="Grupo 1159498" transform="translate(-325 -2064)">
    <g id="Grupo_1153871" data-name="Grupo 1153871" transform="translate(-1 -3457)">
      <g id="Grupo_1152576" data-name="Grupo 1152576" transform="translate(-0.454 1205.621)">
        <g id="Grupo_1148633" data-name="Grupo 1148633" transform="translate(71.408 600.047)">
          <g id="Grupo_1148525" data-name="Grupo 1148525" transform="translate(264.046 3721.333)">
            <g transform="matrix(1, 0, 0, 1, -9, -6)" filter="url(#Trazado_982547)">
              <g id="Trazado_982547-2" data-name="Trazado 982547" transform="translate(9 6)" fill="#f0ebfe">
                <path d="M 47.5 93.5 C 41.28937149047852 93.5 35.26533508300781 92.28397369384766 29.59518623352051 89.88570404052734 C 24.11771965026855 87.56893157958984 19.19813346862793 84.25196075439453 14.97309303283691 80.02691650390625 C 10.74804019927979 75.80186462402344 7.431066513061523 70.88229370117188 5.114293098449707 65.40481567382812 C 2.716026782989502 59.73468017578125 1.5 53.71062850952148 1.5 47.5 C 1.5 41.28937149047852 2.716026782989502 35.26533508300781 5.114293098449707 29.59518623352051 C 7.431066513061523 24.11771965026855 10.74804019927979 19.19813346862793 14.97309303283691 14.97309303283691 C 19.19813346862793 10.74804019927979 24.11771965026855 7.431066513061523 29.59518623352051 5.114293098449707 C 35.26533508300781 2.716026782989502 41.28937149047852 1.5 47.5 1.5 C 53.71062850952148 1.5 59.73468017578125 2.716026782989502 65.40481567382812 5.114293098449707 C 70.88229370117188 7.431066513061523 75.80186462402344 10.74804019927979 80.02691650390625 14.97309303283691 C 84.25196075439453 19.19813346862793 87.56893157958984 24.11771965026855 89.88570404052734 29.59518623352051 C 92.28397369384766 35.26533508300781 93.5 41.28937149047852 93.5 47.5 C 93.5 53.71062850952148 92.28397369384766 59.73468017578125 89.88570404052734 65.40481567382812 C 87.56893157958984 70.88229370117188 84.25196075439453 75.80186462402344 80.02691650390625 80.02691650390625 C 75.80186462402344 84.25196075439453 70.88229370117188 87.56893157958984 65.40481567382812 89.88570404052734 C 59.73468017578125 92.28397369384766 53.71062850952148 93.5 47.5 93.5 Z" stroke="none"/>
                <path d="M 47.5 3 C 41.49121475219727 3 35.66376876831055 4.176155090332031 30.17950439453125 6.495796203613281 C 24.88084411621094 8.736953735351562 20.12152099609375 11.94598388671875 16.03375244140625 16.03375244140625 C 11.94598388671875 20.12152099609375 8.736953735351562 24.88084411621094 6.495796203613281 30.17950439453125 C 4.176155090332031 35.66376876831055 3 41.49121475219727 3 47.5 C 3 53.50878524780273 4.176155090332031 59.33623123168945 6.495796203613281 64.82049560546875 C 8.736953735351562 70.11915588378906 11.94598388671875 74.87847900390625 16.03375244140625 78.96624755859375 C 20.12152099609375 83.05401611328125 24.88084411621094 86.26304626464844 30.17950439453125 88.50419616699219 C 35.66376876831055 90.82384490966797 41.49121475219727 92 47.5 92 C 53.50878524780273 92 59.33623123168945 90.82384490966797 64.82049560546875 88.50419616699219 C 70.11915588378906 86.26304626464844 74.87847900390625 83.05401611328125 78.96624755859375 78.96624755859375 C 83.05401611328125 74.87847900390625 86.26304626464844 70.11915588378906 88.50419616699219 64.82049560546875 C 90.82384490966797 59.33623123168945 92 53.50878524780273 92 47.5 C 92 41.49121475219727 90.82384490966797 35.66376876831055 88.50419616699219 30.17950439453125 C 86.26304626464844 24.88084411621094 83.05401611328125 20.12152099609375 78.96624755859375 16.03375244140625 C 74.87847900390625 11.94598388671875 70.11915588378906 8.736953735351562 64.82049560546875 6.495796203613281 C 59.33623123168945 4.176155090332031 53.50878524780273 3 47.5 3 M 47.5 0 C 73.7335205078125 0 95 21.2664794921875 95 47.5 C 95 73.7335205078125 73.7335205078125 95 47.5 95 C 21.2664794921875 95 0 73.7335205078125 0 47.5 C 0 21.2664794921875 21.2664794921875 0 47.5 0 Z" stroke="none" fill="#7145fe"/>
              </g>
            </g>
          </g>
        </g>
      </g>
    </g>
    <g id="evaluacion" transform="translate(353 2090)">
      <g id="Grupo_1159496" data-name="Grupo 1159496" transform="translate(0.908 0.908)">
        <g id="Grupo_1159482" data-name="Grupo 1159482" transform="translate(41.758 33.588)">
          <path id="Trazado_993204" data-name="Trazado 993204" d="M59.709,42.539v16.34H56.986L47,44.354,54.262,38Z" transform="translate(-47 -38)" fill="#ff826e"/>
        </g>
        <g id="Grupo_1159483" data-name="Grupo 1159483" transform="translate(2.723 47.204)">
          <path id="Trazado_993205" data-name="Trazado 993205" d="M14.666,58.447l.227,1.816H4L4.908,53h9.078Z" transform="translate(-4 -53)" fill="#ff826e"/>
        </g>
        <g id="Grupo_1159484" data-name="Grupo 1159484" transform="translate(3.631 3.631)">
          <path id="Trazado_993206" data-name="Trazado 993206" d="M8.631,17.709V32.678a2.292,2.292,0,0,0,.182.89l1.28,2.987a15.977,15.977,0,0,1-4.421-8.206l-.354-1.77A1.95,1.95,0,0,0,5,25.833V6.816A1.821,1.821,0,0,1,6.816,5H37.68A1.821,1.821,0,0,1,39.5,6.816V22.284a3.249,3.249,0,0,0-1.87.926l-.409.408a2.381,2.381,0,0,0-1.353-.463V13.17a.91.91,0,0,0-.908-.908H9.539a.91.91,0,0,0-.908.908Z" transform="translate(-5 -5)" fill="#969faa"/>
        </g>
        <g id="Grupo_1159485" data-name="Grupo 1159485" transform="translate(12.709 38.245)">
          <path id="Trazado_993207" data-name="Trazado 993207" d="M15.726,52.09H35.879a.91.91,0,0,0,.908-.908V43.139l.009-.009a9.933,9.933,0,0,0,3.622,1.244V55.721A1.821,1.821,0,0,1,38.6,57.536H15.681L15,52.09l.1-.254Z" transform="translate(-15 -43.13)" fill="#969faa"/>
        </g>
        <g id="Grupo_1159486" data-name="Grupo 1159486" transform="translate(7.262 10.893)">
          <path id="Trazado_993208" data-name="Trazado 993208" d="M35.325,49.311H9v-35.4A.908.908,0,0,1,9.908,13H35.325a.908.908,0,0,1,.908.908V48.4A.908.908,0,0,1,35.325,49.311Z" transform="translate(-9 -13)" fill="#69d6f4"/>
        </g>
        <g id="Grupo_1159487" data-name="Grupo 1159487" transform="translate(23.602 36.311)">
          <path id="Trazado_993209" data-name="Trazado 993209" d="M34.262,41.908v5.447a.91.91,0,0,1-.908.908H27.908A.91.91,0,0,1,27,47.354V41.908A.91.91,0,0,1,27.908,41h5.447A.91.91,0,0,1,34.262,41.908Z" transform="translate(-27 -41)" fill="#e6e9ed"/>
        </g>
        <g id="Grupo_1159488" data-name="Grupo 1159488" transform="translate(23.602 25.418)">
          <path id="Trazado_993210" data-name="Trazado 993210" d="M31.929,29l2.342,2.052a2.529,2.529,0,0,0-1.071-.236,2.572,2.572,0,0,0-2.569,2.569v.082a2.541,2.541,0,0,0,.645,1.707l.971,1.089H27.908A.91.91,0,0,1,27,35.354V29.908A.91.91,0,0,1,27.908,29H31.92Z" transform="translate(-27 -29)" fill="#e6e9ed"/>
        </g>
        <g id="Grupo_1159489" data-name="Grupo 1159489" transform="translate(23.602 14.524)">
          <path id="Trazado_993211" data-name="Trazado 993211" d="M29.36,22.991a1.963,1.963,0,0,0-.545,1.271h-.908A.91.91,0,0,1,27,23.354V17.908A.91.91,0,0,1,27.908,17h5.447a.91.91,0,0,1,.908.908v5.447a.914.914,0,0,1-.7.89l-1.489-1.325a1.91,1.91,0,0,0-1.244-.472h-.145a1.889,1.889,0,0,0-1.325.545Z" transform="translate(-27 -17)" fill="#e6e9ed"/>
        </g>
        <g id="Grupo_1159490" data-name="Grupo 1159490" transform="translate(25.418 19.971)">
          <path id="Trazado_993212" data-name="Trazado 993212" d="M39.43,25.279l.409-.408a3.249,3.249,0,0,1,1.87-.926,2.551,2.551,0,0,1,.454-.036,3.284,3.284,0,0,1,2.324.962l1.189,1.189a30.762,30.762,0,0,1,6.545,9.668l.381.89L45.34,42.971l-3.531-.445c-.036,0-.064-.009-.1-.009a9.933,9.933,0,0,1-3.622-1.244,9.528,9.528,0,0,1-2.505-2.015l-3.15-3.549-.971-1.089a2.541,2.541,0,0,1-.645-1.707v-.082a2.572,2.572,0,0,1,2.569-2.569,2.529,2.529,0,0,1,1.071.236l-2.342-2.052H32.1l-2.469-2.161A1.913,1.913,0,0,1,29,24.87v-.054a1.963,1.963,0,0,1,.545-1.271A1.889,1.889,0,0,1,30.87,23h.145a1.91,1.91,0,0,1,1.244.472L33.748,24.8l1.825,1.616.953-.953a2.185,2.185,0,0,1,1.552-.645,2.381,2.381,0,0,1,1.353.463Z" transform="translate(-29 -23)" fill="#f0d0b4"/>
        </g>
        <g id="Grupo_1159491" data-name="Grupo 1159491" transform="translate(0 23.602)">
          <path id="Trazado_993213" data-name="Trazado 993213" d="M9.724,38.583,8.444,35.6a2.292,2.292,0,0,1-.182-.89v-.018A2.232,2.232,0,0,1,10.5,32.447a2.239,2.239,0,0,1,2.006,1.244l.29.572,1.162,2.315a14.751,14.751,0,0,1,1.462,4.947,14.92,14.92,0,0,1,.1,1.688,14.862,14.862,0,0,1-1.062,5.5l-.654,1.634-.1.254H4.631A60.23,60.23,0,0,1,1,30V29a1.984,1.984,0,0,1,2-2,1.968,1.968,0,0,1,1.634.862,1.95,1.95,0,0,1,.318.744l.354,1.77A15.977,15.977,0,0,0,9.724,38.583Z" transform="translate(-1 -27)" fill="#f0d0b4"/>
        </g>
        <g id="Grupo_1159492" data-name="Grupo 1159492" transform="translate(43.573 14.524)">
          <path id="Trazado_993214" data-name="Trazado 993214" d="M54.447,17v2.723a2.723,2.723,0,1,1-5.447,0V17h5.447Z" transform="translate(-49 -17)" fill="#ccd1d9"/>
        </g>
        <g id="Grupo_1159493" data-name="Grupo 1159493" transform="translate(38.127)">
          <path id="Trazado_993215" data-name="Trazado 993215" d="M52.241,1H50.1a7.1,7.1,0,0,0-3.94,13l2.288,1.525h5.447L56.181,14a7.1,7.1,0,0,0-3.94-13Z" transform="translate(-43 -1)" fill="#ffeaa7"/>
        </g>
        <g id="Grupo_1159494" data-name="Grupo 1159494" transform="translate(47.386 5.447)">
          <path id="Trazado_993216" data-name="Trazado 993216" d="M54.925,10.631H53.382L53.209,8.9a1.1,1.1,0,0,1-.009-.172,1.725,1.725,0,0,1,3.45,0v.182a1.724,1.724,0,0,1-1.725,1.725Z" transform="translate(-53.2 -7)" fill="#fcd770"/>
        </g>
        <g id="Grupo_1159495" data-name="Grupo 1159495" transform="translate(41.758 5.447)">
          <path id="Trazado_993217" data-name="Trazado 993217" d="M48.725,7A1.727,1.727,0,0,1,50.44,8.9l-.172,1.734H48.725A1.724,1.724,0,0,1,47,8.906V8.725A1.724,1.724,0,0,1,48.725,7Z" transform="translate(-47 -7)" fill="#fcd770"/>
        </g>
      </g>
      <g id="Grupo_1159497" data-name="Grupo 1159497" transform="translate(0)">
        <path id="Trazado_993218" data-name="Trazado 993218" d="M20,8h7.262V9.816H20Z" transform="translate(-1.845 -0.738)"/>
        <path id="Trazado_993219" data-name="Trazado 993219" d="M12,18h3.631v1.816H12Z" transform="translate(-1.107 -1.66)"/>
        <path id="Trazado_993220" data-name="Trazado 993220" d="M18,18h5.447v1.816H18Z" transform="translate(-1.66 -1.66)"/>
        <path id="Trazado_993221" data-name="Trazado 993221" d="M12,22h9.078v1.816H12Z" transform="translate(-1.107 -2.029)"/>
        <path id="Trazado_993222" data-name="Trazado 993222" d="M12,30h3.631v1.816H12Z" transform="translate(-1.107 -2.767)"/>
        <path id="Trazado_993223" data-name="Trazado 993223" d="M18,30h5.447v1.816H18Z" transform="translate(-1.66 -2.767)"/>
        <path id="Trazado_993224" data-name="Trazado 993224" d="M50.38,33.247A31.609,31.609,0,0,0,43.643,23.3l-1.189-1.189a4.151,4.151,0,0,0-2.513-1.185V13.058a8.011,8.011,0,0,0,1.748,1.6l1.884,1.255v2.238a3.631,3.631,0,1,0,7.262,0V15.918l1.883-1.255A8,8,0,0,0,48.279,0H46.13a8.007,8.007,0,0,0-7.1,4.333,2.7,2.7,0,0,0-1.807-.7H6.354A2.727,2.727,0,0,0,3.631,6.354V23.707a2.855,2.855,0,0,0-.728-.1,2.907,2.907,0,0,0-2.9,2.9v1A61.04,61.04,0,0,0,3.612,48.206L2.6,56.282h12.95l-.227-1.816H37.219a2.727,2.727,0,0,0,2.723-2.723V41.424l2.207.276L52.173,56.282h4.109V38.609l-5.606-4.671Zm-8.02-8.667a29.8,29.8,0,0,1,6.352,9.383l.122.284L42.373,39.9l-3.129-.391a9.077,9.077,0,0,1-5.659-2.977L29.467,31.9a1.724,1.724,0,0,1-.418-1.19,1.661,1.661,0,0,1,2.834-1.174l2.879,2.879,1.284-1.284-2.879-2.879a3.464,3.464,0,0,0-.829-.6l-4.775-4.178a.966.966,0,0,1,.636-1.691h.138a.967.967,0,0,1,.642.244l7.638,6.789,1.206-1.356-3.606-3.205.279-.281a1.313,1.313,0,0,1,1.816,0l2.082,2.082,1.284-1.284-1.6-1.6a2.439,2.439,0,0,1,3.1.217ZM16.075,43.573h5.712V41.758h-5.5c.023-.346.049-.691.049-1.039,0-.259-.01-.517-.023-.776h5.469V38.127H16.119a15.83,15.83,0,0,0-1.441-4.444l-.5-1h5.793V30.864h-6.7l-.037-.074a3.123,3.123,0,0,0-4.155-1.433V12.709H34.5v9.25a2.952,2.952,0,0,0-1.284.735l-.355.355-.412-.367a1.816,1.816,0,0,0,.235-.9V16.34a1.817,1.817,0,0,0-1.816-1.816H25.418A1.817,1.817,0,0,0,23.6,16.34v5.447A1.817,1.817,0,0,0,25.418,23.6h.149a2.771,2.771,0,0,0,.8,1.243l.655.573h-1.6A1.817,1.817,0,0,0,23.6,27.233V32.68A1.817,1.817,0,0,0,25.418,34.5h3.93l1.623,1.826c-.035,0-.07-.011-.106-.011H25.418A1.817,1.817,0,0,0,23.6,38.127v5.447a1.817,1.817,0,0,0,1.816,1.816h5.447a1.817,1.817,0,0,0,1.816-1.816V38.2A10.857,10.857,0,0,0,34.5,39.672V47.2H14.957l.258-.644a15.707,15.707,0,0,0,.86-2.987ZM25.6,21.787h-.182V16.34h5.447v4.938l-.68-.6a2.778,2.778,0,0,0-1.848-.7H28.2a2.78,2.78,0,0,0-2.6,1.816ZM27.8,32.68h-2.38V27.233H29.1l.3.262a3.534,3.534,0,0,0-2.163,3.3A3.463,3.463,0,0,0,27.8,32.68Zm3.067,10.893H25.418V38.127h5.447Zm14.247-34.5H44.39a.818.818,0,0,1-.817-.817V8.079a.818.818,0,0,1,.817-.817.816.816,0,0,1,.812.9ZM49.2,8.16a.816.816,0,0,1,.813-.9.818.818,0,0,1,.817.817v.182a.818.818,0,0,1-.817.817H49.3Zm-2,11.811a1.817,1.817,0,0,1-1.816-1.816V16.34H49.02v1.816A1.817,1.817,0,0,1,47.2,19.971Zm-.812-5.447.363-3.631h.9l.363,3.631ZM46.129,1.816h2.149A6.187,6.187,0,0,1,51.71,13.152L49.83,14.406l-.351-3.513h.54a2.636,2.636,0,0,0,2.633-2.633V8.079a2.632,2.632,0,1,0-5.251.261l.073.737h-.536l.074-.737a2.633,2.633,0,1,0-5.252-.261v.182a2.635,2.635,0,0,0,2.633,2.633h.54l-.351,3.513L42.7,13.152A6.187,6.187,0,0,1,46.129,1.816ZM6.354,5.447H37.219a.909.909,0,0,1,.908.908V21.122a4.165,4.165,0,0,0-1.529.923c-.094-.037-.191-.057-.287-.085V12.709A1.817,1.817,0,0,0,34.5,10.893H9.078a1.817,1.817,0,0,0-1.816,1.816v18.48A15.041,15.041,0,0,1,6.1,27.71L5.75,25.935a2.882,2.882,0,0,0-.3-.811V6.354a.909.909,0,0,1,.908-.908ZM1.816,26.505a1.088,1.088,0,0,1,2.154-.213l.355,1.775A16.8,16.8,0,0,0,8.864,36.6l.4.923a3.465,3.465,0,0,1-.086,2.918l1.624.812a5.274,5.274,0,0,0,.131-4.444L9.187,32.748a1.355,1.355,0,0,1-.109-.547,1.336,1.336,0,0,1,2.531-.6l1.446,2.892a13.986,13.986,0,0,1,1.47,6.224,13.846,13.846,0,0,1-1,5.168L13,47.2H5.19A59.213,59.213,0,0,1,1.816,27.5ZM4.66,54.466,5.34,49.02h7.475l.681,5.447Zm32.559-1.816H15.1l-.454-3.631H34.5A1.817,1.817,0,0,0,36.311,47.2V40.6a10.866,10.866,0,0,0,1.816.553V51.743A.909.909,0,0,1,37.219,52.651Zm17.248,1.816H53.128L43.871,41l6.071-5.313,4.524,3.772Z" transform="translate(0)"/>
      </g>
    </g>
  </g>
</svg>
