<svg xmlns="http://www.w3.org/2000/svg" xmlns:xlink="http://www.w3.org/1999/xlink" width="113" height="113" viewBox="0 0 113 113">
  <defs>
    <filter id="Trazado_982547" x="0" y="0" width="113" height="113" filterUnits="userSpaceOnUse">
      <feOffset dy="3" input="SourceAlpha"/>
      <feGaussianBlur stdDeviation="3" result="blur"/>
      <feFlood flood-opacity="0.161"/>
      <feComposite operator="in" in2="blur"/>
      <feComposite in="SourceGraphic"/>
    </filter>
  </defs>
  <g id="Grupo_1159500" data-name="Grupo 1159500" transform="translate(-742 -2064)">
    <g id="Grupo_1153872" data-name="Grupo 1153872" transform="translate(-1 -3457)">
      <g id="Grupo_1152577" data-name="Grupo 1152577" transform="translate(-0.5 1205.621)">
        <g id="Grupo_1148634" data-name="Grupo 1148634" transform="translate(488.454 600.047)">
          <g id="Grupo_1148525" data-name="Grupo 1148525" transform="translate(264.046 3721.333)">
            <g transform="matrix(1, 0, 0, 1, -9, -6)" filter="url(#Trazado_982547)">
              <g id="Trazado_982547-2" data-name="Trazado 982547" transform="translate(9 6)" fill="#f0ebfe">
                <path d="M 47.5 93.5 C 41.28937149047852 93.5 35.26533508300781 92.28397369384766 29.59518623352051 89.88570404052734 C 24.11771965026855 87.56893157958984 19.19813346862793 84.25196075439453 14.97309303283691 80.02691650390625 C 10.74804019927979 75.80186462402344 7.431066513061523 70.88229370117188 5.114293098449707 65.40481567382812 C 2.716026782989502 59.73468017578125 1.5 53.71062850952148 1.5 47.5 C 1.5 41.28937149047852 2.716026782989502 35.26533508300781 5.114293098449707 29.59518623352051 C 7.431066513061523 24.11771965026855 10.74804019927979 19.19813346862793 14.97309303283691 14.97309303283691 C 19.19813346862793 10.74804019927979 24.11771965026855 7.431066513061523 29.59518623352051 5.114293098449707 C 35.26533508300781 2.716026782989502 41.28937149047852 1.5 47.5 1.5 C 53.71062850952148 1.5 59.73468017578125 2.716026782989502 65.40481567382812 5.114293098449707 C 70.88229370117188 7.431066513061523 75.80186462402344 10.74804019927979 80.02691650390625 14.97309303283691 C 84.25196075439453 19.19813346862793 87.56893157958984 24.11771965026855 89.88570404052734 29.59518623352051 C 92.28397369384766 35.26533508300781 93.5 41.28937149047852 93.5 47.5 C 93.5 53.71062850952148 92.28397369384766 59.73468017578125 89.88570404052734 65.40481567382812 C 87.56893157958984 70.88229370117188 84.25196075439453 75.80186462402344 80.02691650390625 80.02691650390625 C 75.80186462402344 84.25196075439453 70.88229370117188 87.56893157958984 65.40481567382812 89.88570404052734 C 59.73468017578125 92.28397369384766 53.71062850952148 93.5 47.5 93.5 Z" stroke="none"/>
                <path d="M 47.5 3 C 41.49121475219727 3 35.66376876831055 4.176155090332031 30.17950439453125 6.495796203613281 C 24.88084411621094 8.736953735351562 20.12152099609375 11.94598388671875 16.03375244140625 16.03375244140625 C 11.94598388671875 20.12152099609375 8.736953735351562 24.88084411621094 6.495796203613281 30.17950439453125 C 4.176155090332031 35.66376876831055 3 41.49121475219727 3 47.5 C 3 53.50878524780273 4.176155090332031 59.33623123168945 6.495796203613281 64.82049560546875 C 8.736953735351562 70.11915588378906 11.94598388671875 74.87847900390625 16.03375244140625 78.96624755859375 C 20.12152099609375 83.05401611328125 24.88084411621094 86.26304626464844 30.17950439453125 88.50419616699219 C 35.66376876831055 90.82384490966797 41.49121475219727 92 47.5 92 C 53.50878524780273 92 59.33623123168945 90.82384490966797 64.82049560546875 88.50419616699219 C 70.11915588378906 86.26304626464844 74.87847900390625 83.05401611328125 78.96624755859375 78.96624755859375 C 83.05401611328125 74.87847900390625 86.26304626464844 70.11915588378906 88.50419616699219 64.82049560546875 C 90.82384490966797 59.33623123168945 92 53.50878524780273 92 47.5 C 92 41.49121475219727 90.82384490966797 35.66376876831055 88.50419616699219 30.17950439453125 C 86.26304626464844 24.88084411621094 83.05401611328125 20.12152099609375 78.96624755859375 16.03375244140625 C 74.87847900390625 11.94598388671875 70.11915588378906 8.736953735351562 64.82049560546875 6.495796203613281 C 59.33623123168945 4.176155090332031 53.50878524780273 3 47.5 3 M 47.5 0 C 73.7335205078125 0 95 21.2664794921875 95 47.5 C 95 73.7335205078125 73.7335205078125 95 47.5 95 C 21.2664794921875 95 0 73.7335205078125 0 47.5 C 0 21.2664794921875 21.2664794921875 0 47.5 0 Z" stroke="none" fill="#7145fe"/>
              </g>
            </g>
          </g>
        </g>
      </g>
    </g>
    <g id="documentacion" transform="translate(764 2063.322)">
      <g id="Grupo_1159499" data-name="Grupo 1159499" transform="translate(0.936 24.619)">
        <path id="Trazado_993225" data-name="Trazado 993225" d="M7.063,52.18,25.553,30.8a.274.274,0,0,1,.38-.027L53.318,54.456a.267.267,0,0,1,.027.38L34.855,76.217a.269.269,0,0,1-.376.027L7.09,52.56a.274.274,0,0,1-.027-.38Z" transform="translate(-6.999 -30.708)" fill="#006694" fill-rule="evenodd"/>
        <path id="Trazado_993226" data-name="Trazado 993226" d="M94.995,77.849,107.9,71.963,128.979,90.19a.267.267,0,0,1,.027.38l-18.489,21.381a.269.269,0,0,1-.376.027l-1.315-1.136L94.451,79.312a1.1,1.1,0,0,1,.543-1.463Z" transform="translate(-82.661 -66.442)" fill="#005c85" fill-rule="evenodd"/>
        <path id="Trazado_993227" data-name="Trazado 993227" d="M100.756,45.572l25.717-11.726a.272.272,0,0,1,.357.133l15.02,32.944a.274.274,0,0,1-.133.357L116,79.006a.268.268,0,0,1-.353-.133l-15.02-32.944a.269.269,0,0,1,.133-.357Z" transform="translate(-88.073 -33.405)" fill="#60b7ff" fill-rule="evenodd"/>
        <path id="Trazado_993228" data-name="Trazado 993228" d="M208.706,91.47h14.253l11.574,25.386a.274.274,0,0,1-.133.357l-25.721,11.726a.268.268,0,0,1-.353-.133l-.726-1.588V92.576a1.1,1.1,0,0,1,1.106-1.106Z" transform="translate(-180.755 -83.339)" fill="#56a5e6" fill-rule="evenodd"/>
        <path id="Trazado_993229" data-name="Trazado 993229" d="M214.118,97.717h21.047l7.485,7.485v28.988a.268.268,0,0,1-.266.27H214.118a.271.271,0,0,1-.27-.27v-36.2A.271.271,0,0,1,214.118,97.717Z" transform="translate(-186.167 -88.75)" fill="#eaf6ff" fill-rule="evenodd"/>
        <path id="Trazado_993230" data-name="Trazado 993230" d="M373.138,97.717v5.806a1.685,1.685,0,0,0,1.68,1.679h5.806Z" transform="translate(-324.141 -88.75)" fill="#bec7cf" fill-rule="evenodd"/>
        <path id="Trazado_993231" data-name="Trazado 993231" d="M126.394,238.664h22.091a4.241,4.241,0,0,1,4.225,4.225v17.353a4.238,4.238,0,0,1-4.225,4.225h-39.16a4.236,4.236,0,0,1-4.225-4.225v-25.8a3.475,3.475,0,0,1,3.469-3.469h7.379a4.235,4.235,0,0,1,2.926,1.6l4.594,4.487a4.235,4.235,0,0,0,2.926,1.6Z" transform="translate(-91.972 -204.171)" fill="#ffba57" fill-rule="evenodd"/>
        <path id="Trazado_993232" data-name="Trazado 993232" d="M203.37,239.375a4.223,4.223,0,0,1,1.892,3.515v17.353a4.238,4.238,0,0,1-4.225,4.225H203.4a4.238,4.238,0,0,0,4.225-4.225V242.89a4.232,4.232,0,0,0-4.225-4.225h-2.363A4.175,4.175,0,0,1,203.37,239.375Zm-24.987-2.314-3.815-3.724-.779-.764a4.235,4.235,0,0,0-2.926-1.6H168.5a4.235,4.235,0,0,1,2.926,1.6l3.142,3.07,1.453,1.417a4.235,4.235,0,0,0,2.926,1.6h2.363a4.235,4.235,0,0,1-2.926-1.6Z" transform="translate(-146.888 -204.171)" fill="#e6a74e" fill-rule="evenodd"/>
        <path id="Trazado_993233" data-name="Trazado 993233" d="M393.46,278.142a8,8,0,1,0-8-8A8,8,0,0,0,393.46,278.142Z" transform="translate(-334.815 -231.174)" fill="#25c73b" fill-rule="evenodd"/>
        <path id="Trazado_993234" data-name="Trazado 993234" d="M440.177,262.172a8,8,0,0,1,.407,15.9c-.137.019-.27.034-.407.046.133.011.27.019.407.023.087,0,.179,0,.27,0a8,8,0,1,0,0-16c-.228,0-.456.008-.676.027Z" transform="translate(-382.208 -231.174)" fill="#21b335" fill-rule="evenodd"/>
        <path id="Trazado_993235" data-name="Trazado 993235" d="M416.3,153.653v15.514a7.929,7.929,0,0,1,1.71-.7V153.653Z" transform="translate(-361.527 -137.2)" fill="#d3dde6" fill-rule="evenodd"/>
      </g>
      <path id="Trazado_993236" data-name="Trazado 993236" d="M32.34,40.111a.937.937,0,0,1,.937-.937H45.665a.937.937,0,1,1,0,1.874H33.277A.937.937,0,0,1,32.34,40.111Zm.937,5.5H52.842a.937.937,0,1,0,0-1.874H33.277a.937.937,0,0,0,0,1.874Zm19.565,2.682H33.277a.937.937,0,0,0,0,1.874H52.842a.937.937,0,1,0,0-1.874Zm0,4.556H33.277a.937.937,0,0,0,0,1.874H52.842a.937.937,0,1,0,0-1.874Zm9.775,19.178V80.7a5.161,5.161,0,0,1-5.155,5.154H18.37A5.161,5.161,0,0,1,13.215,80.7V58.223L.323,47.074a.937.937,0,0,1-.1-1.322L19.038,24a.937.937,0,0,1,1.322-.1l6.739,5.83L39.238,24.2a.937.937,0,0,1,1.241.464l3.68,8.074h5.8a.938.938,0,0,1,.663.274L58.1,40.488a.937.937,0,0,1,.274.663V54.793a8.921,8.921,0,0,1,4.245,17.229ZM56.5,55.261V42.087H51.64a2.616,2.616,0,0,1-2.614-2.614V34.614H29.62V53.446l3.523,3.444c.8.781,1.428,1.334,2.266,1.334H52.5a8.962,8.962,0,0,1,4-2.962ZM50.9,39.473a.74.74,0,0,0,.74.74h3.534L50.9,35.939ZM39.163,26.3,27.38,31.668a.945.945,0,0,1-.109.05L14.706,37.445l5.968,13.1h4.306a4.262,4.262,0,0,1,2.765,1.119V33.677a.937.937,0,0,1,.937-.937H42.1ZM13.215,55.746v-.8a4.407,4.407,0,0,1,4.4-4.4h1l-6-13.172a.937.937,0,0,1,.464-1.241l12.147-5.537-5.381-4.655L2.258,46.27ZM60.744,72.473A8.917,8.917,0,0,1,51.4,60.1H35.408a5.125,5.125,0,0,1-3.576-1.868l-3.78-3.695c-.017-.016-.034-.032-.05-.049l-.752-.736c-.827-.805-1.432-1.334-2.269-1.334H17.619a2.531,2.531,0,0,0-2.53,2.527V80.7a3.285,3.285,0,0,0,3.281,3.281H57.462A3.285,3.285,0,0,0,60.744,80.7Zm5.9-8.845a7.048,7.048,0,1,0-7.048,7.048A7.048,7.048,0,0,0,66.642,63.629Zm-2.278-3.542a.937.937,0,0,0-1.325,0l-5.1,5.1-1.8-1.8a.937.937,0,1,0-1.325,1.325l2.458,2.458a.937.937,0,0,0,1.325,0l5.758-5.758A.937.937,0,0,0,64.365,60.087ZM55.729,78.134H20.1a.937.937,0,0,0,0,1.874H55.729a.937.937,0,0,0,0-1.874ZM20.1,73.609h9.138a.937.937,0,1,0,0-1.873H20.1a.937.937,0,0,0,0,1.874Z" transform="translate(0 0)"/>
    </g>
  </g>
</svg>
