<svg xmlns="http://www.w3.org/2000/svg" xmlns:xlink="http://www.w3.org/1999/xlink" width="113" height="113" viewBox="0 0 113 113">
  <defs>
    <filter id="Trazado_982547" x="0" y="0" width="113" height="113" filterUnits="userSpaceOnUse">
      <feOffset dy="3" input="SourceAlpha"/>
      <feGaussianBlur stdDeviation="3" result="blur"/>
      <feFlood flood-opacity="0.161"/>
      <feComposite operator="in" in2="blur"/>
      <feComposite in="SourceGraphic"/>
    </filter>
  </defs>
  <g id="Grupo_1159502" data-name="Grupo 1159502" transform="translate(-1163 -2064)">
    <g id="Grupo_1153873" data-name="Grupo 1153873" transform="translate(-1 -3457)">
      <g id="Grupo_1152578" data-name="Grupo 1152578" transform="translate(0.046 1205.621)">
        <g id="Grupo_1148635" data-name="Grupo 1148635" transform="translate(908.908 600.047)">
          <g id="Grupo_1148525" data-name="Grupo 1148525" transform="translate(264.046 3721.333)">
            <g transform="matrix(1, 0, 0, 1, -9, -6)" filter="url(#Trazado_982547)">
              <g id="Trazado_982547-2" data-name="Trazado 982547" transform="translate(9 6)" fill="#f0ebfe">
                <path d="M 47.5 93.5 C 41.28937149047852 93.5 35.26533508300781 92.28397369384766 29.59518623352051 89.88570404052734 C 24.11771965026855 87.56893157958984 19.19813346862793 84.25196075439453 14.97309303283691 80.02691650390625 C 10.74804019927979 75.80186462402344 7.431066513061523 70.88229370117188 5.114293098449707 65.40481567382812 C 2.716026782989502 59.73468017578125 1.5 53.71062850952148 1.5 47.5 C 1.5 41.28937149047852 2.716026782989502 35.26533508300781 5.114293098449707 29.59518623352051 C 7.431066513061523 24.11771965026855 10.74804019927979 19.19813346862793 14.97309303283691 14.97309303283691 C 19.19813346862793 10.74804019927979 24.11771965026855 7.431066513061523 29.59518623352051 5.114293098449707 C 35.26533508300781 2.716026782989502 41.28937149047852 1.5 47.5 1.5 C 53.71062850952148 1.5 59.73468017578125 2.716026782989502 65.40481567382812 5.114293098449707 C 70.88229370117188 7.431066513061523 75.80186462402344 10.74804019927979 80.02691650390625 14.97309303283691 C 84.25196075439453 19.19813346862793 87.56893157958984 24.11771965026855 89.88570404052734 29.59518623352051 C 92.28397369384766 35.26533508300781 93.5 41.28937149047852 93.5 47.5 C 93.5 53.71062850952148 92.28397369384766 59.73468017578125 89.88570404052734 65.40481567382812 C 87.56893157958984 70.88229370117188 84.25196075439453 75.80186462402344 80.02691650390625 80.02691650390625 C 75.80186462402344 84.25196075439453 70.88229370117188 87.56893157958984 65.40481567382812 89.88570404052734 C 59.73468017578125 92.28397369384766 53.71062850952148 93.5 47.5 93.5 Z" stroke="none"/>
                <path d="M 47.5 3 C 41.49121475219727 3 35.66376876831055 4.176155090332031 30.17950439453125 6.495796203613281 C 24.88084411621094 8.736953735351562 20.12152099609375 11.94598388671875 16.03375244140625 16.03375244140625 C 11.94598388671875 20.12152099609375 8.736953735351562 24.88084411621094 6.495796203613281 30.17950439453125 C 4.176155090332031 35.66376876831055 3 41.49121475219727 3 47.5 C 3 53.50878524780273 4.176155090332031 59.33623123168945 6.495796203613281 64.82049560546875 C 8.736953735351562 70.11915588378906 11.94598388671875 74.87847900390625 16.03375244140625 78.96624755859375 C 20.12152099609375 83.05401611328125 24.88084411621094 86.26304626464844 30.17950439453125 88.50419616699219 C 35.66376876831055 90.82384490966797 41.49121475219727 92 47.5 92 C 53.50878524780273 92 59.33623123168945 90.82384490966797 64.82049560546875 88.50419616699219 C 70.11915588378906 86.26304626464844 74.87847900390625 83.05401611328125 78.96624755859375 78.96624755859375 C 83.05401611328125 74.87847900390625 86.26304626464844 70.11915588378906 88.50419616699219 64.82049560546875 C 90.82384490966797 59.33623123168945 92 53.50878524780273 92 47.5 C 92 41.49121475219727 90.82384490966797 35.66376876831055 88.50419616699219 30.17950439453125 C 86.26304626464844 24.88084411621094 83.05401611328125 20.12152099609375 78.96624755859375 16.03375244140625 C 74.87847900390625 11.94598388671875 70.11915588378906 8.736953735351562 64.82049560546875 6.495796203613281 C 59.33623123168945 4.176155090332031 53.50878524780273 3 47.5 3 M 47.5 0 C 73.7335205078125 0 95 21.2664794921875 95 47.5 C 95 73.7335205078125 73.7335205078125 95 47.5 95 C 21.2664794921875 95 0 73.7335205078125 0 47.5 C 0 21.2664794921875 21.2664794921875 0 47.5 0 Z" stroke="none" fill="#7145fe"/>
              </g>
            </g>
          </g>
        </g>
      </g>
    </g>
    <g id="requisito" transform="translate(1147.321 2069.982)">
      <path id="Trazado_993237" data-name="Trazado 993237" d="M108.441,139.831a12.636,12.636,0,0,1,8.375-17.263v-9.6l-4.51,1.07a.857.857,0,0,1-1.007-1.118l.687-2.3a.833.833,0,0,1,.036-.1l.741-2.136A.851.851,0,0,1,113,108l3.815-3.6V93.945a.585.585,0,0,0-.581-.581h-8.072v.869a.857.857,0,0,1-.857.857H89.954a.857.857,0,0,1-.857-.857v-.869H81.025a.585.585,0,0,0-.581.581v45.3a.585.585,0,0,0,.581.581Z" transform="translate(-32.697 -66.963)" fill="#f7f7f8" fill-rule="evenodd"/>
      <g id="Grupo_1159501" data-name="Grupo 1159501" transform="translate(51.902 33.398)">
        <path id="Trazado_993238" data-name="Trazado 993238" d="M112.426,342.031a.855.855,0,1,1,.911-1.447l1.186.749,1.893-2.065a3.089,3.089,0,1,0,1,1.434l-2.085,2.274a.855.855,0,0,1-1.119.184Z" transform="translate(-111.399 -312.673)" fill="#41ba7d" fill-rule="evenodd"/>
        <path id="Trazado_993239" data-name="Trazado 993239" d="M112.431,245.484a.855.855,0,0,1,.911-1.447l1.186.749,1.893-2.065a3.088,3.088,0,1,0,1,1.434l-2.085,2.274a.855.855,0,0,1-1.119.184Z" transform="translate(-111.404 -229.085)" fill="#41ba7d" fill-rule="evenodd"/>
        <path id="Trazado_993240" data-name="Trazado 993240" d="M112.431,148.935a.855.855,0,0,1,.911-1.447l1.186.749,1.893-2.065a3.088,3.088,0,1,0,1,1.434l-2.085,2.274a.855.855,0,0,1-1.119.184Z" transform="translate(-111.404 -145.496)" fill="#41ba7d" fill-rule="evenodd"/>
      </g>
      <path id="Trazado_993241" data-name="Trazado 993241" d="M161.868,32.323h-4.186v5.1h15.636v-5.1h-4.186v0a.854.854,0,0,1-.854-.844,2.779,2.779,0,0,0-5.555-.064c0,.018,0,.036,0,.054a.857.857,0,0,1-.858.858Z" transform="translate(-99.567 -11.01)" fill="#6298c6" fill-rule="evenodd"/>
      <path id="Trazado_993242" data-name="Trazado 993242" d="M350.3,125.444l-1.748-1.851a.247.247,0,0,0-.173-.077.253.253,0,0,0-.182.069l-8.331,7.863a.856.856,0,0,1-.086.081l-3.421,3.229,2.092,2.216.155-.146a.864.864,0,0,1,.086-.081l11.6-10.948a.248.248,0,0,0,.077-.173.254.254,0,0,0-.068-.182Z" transform="translate(-254.264 -93.067)" fill="#f5ca81" fill-rule="evenodd"/>
      <path id="Trazado_993243" data-name="Trazado 993243" d="M326.545,220.593l.93-.221-1.281-1.357-.3.857-.007.026-.274.915Z" transform="translate(-244.958 -175.748)" fill="#9c9c9c" fill-rule="evenodd"/>
      <path id="Trazado_993244" data-name="Trazado 993244" d="M297.313,81.142l1.64-1.547V72.31a3.949,3.949,0,0,0-3.936-3.935h-8.072v1.639h8.072a2.3,2.3,0,0,1,2.3,2.3Z" transform="translate(-211.479 -45.329)" fill="#85beed" fill-rule="evenodd"/>
      <path id="Trazado_993245" data-name="Trazado 993245" d="M312.591,323.846a10.911,10.911,0,1,0,3.2,7.715,10.911,10.911,0,0,0-3.2-7.715Z" transform="translate(-217.556 -263.741)" fill="#2fa369" fill-rule="evenodd"/>
      <path id="Trazado_993246" data-name="Trazado 993246" d="M88.957,121.55a12.688,12.688,0,0,1-1.239-1.639H59.39a2.3,2.3,0,0,1-2.3-2.3V72.31a2.3,2.3,0,0,1,2.3-2.3h8.072v-1.64H59.39a3.949,3.949,0,0,0-3.935,3.935v45.3a3.949,3.949,0,0,0,3.935,3.935Z" transform="translate(-11.062 -45.329)" fill="#85beed" fill-rule="evenodd"/>
      <path id="Trazado_993247" data-name="Trazado 993247" d="M365.671,230.264h.153V218.231l-1.639,1.547v10.573A12.766,12.766,0,0,1,365.671,230.264Z" transform="translate(-278.35 -175.07)" fill="#85beed" fill-rule="evenodd"/>
      <path id="Trazado_993248" data-name="Trazado 993248" d="M62.8,60.82a.857.857,0,0,1,0-1.715H74.063a.857.857,0,0,1,0,1.715Zm0,4.141a.857.857,0,0,1,0-1.715H72.26a.857.857,0,1,1,0,1.715Zm-4.716-6.233.6-.659a.854.854,0,1,1,1.26,1.152l-.764.833a4.814,4.814,0,1,1-1.1-1.327ZM52.93,62.757a.855.855,0,1,1,.911-1.447l1.186.749,1.893-2.065a3.089,3.089,0,1,0,1,1.434L55.836,63.7a.855.855,0,0,1-1.119.184l-1.788-1.129Zm9.866-14.9a.857.857,0,0,1,0-1.715h13.02a.857.857,0,0,1,0,1.715ZM62.8,52a.857.857,0,0,1,0-1.715H80.207a.857.857,0,1,1,0,1.715ZM58.08,45.768l.6-.659a.853.853,0,0,1,1.259,1.152l-.764.833a4.814,4.814,0,1,1-1.1-1.327ZM52.929,49.8a.855.855,0,1,1,.911-1.447l1.186.749,1.893-2.065a3.088,3.088,0,1,0,1,1.434l-2.085,2.274a.855.855,0,0,1-1.119.184L52.929,49.8ZM62.8,34.9a.857.857,0,0,1,0-1.715H80.207a.857.857,0,1,1,0,1.715Zm0,4.141a.857.857,0,0,1,0-1.715H80.207a.857.857,0,1,1,0,1.715Zm-4.715-6.233.6-.659A.853.853,0,0,1,59.944,33.3l-.764.833a4.814,4.814,0,1,1-1.1-1.327ZM52.93,36.837a.855.855,0,1,1,.911-1.447l1.186.749,1.893-2.065a3.088,3.088,0,1,0,1,1.434l-2.085,2.274a.855.855,0,0,1-1.119.184l-1.788-1.129ZM62.3,21.313H58.115v5.1H73.751v-5.1H69.566v0a.854.854,0,0,1-.854-.844,2.779,2.779,0,0,0-5.555-.064c0,.018,0,.036,0,.054a.857.857,0,0,1-.857.857ZM96.039,32.376l-1.748-1.851a.247.247,0,0,0-.173-.077.253.253,0,0,0-.182.069L85.606,38.38a.86.86,0,0,1-.086.081L82.1,41.69l2.092,2.216.155-.146a.863.863,0,0,1,.086-.081l11.6-10.948a.248.248,0,0,0,.077-.173.254.254,0,0,0-.069-.182ZM81.586,44.845l-.93.221.274-.915.007-.026.3-.857,1.281,1.357Zm4.247-9.032,1.64-1.547V26.981a3.949,3.949,0,0,0-3.936-3.935H75.466v1.639h8.072a2.3,2.3,0,0,1,2.3,2.3v8.831Zm9.2,24.292a10.911,10.911,0,1,0,3.2,7.715A10.911,10.911,0,0,0,95.036,60.105ZM75.744,72.868A12.636,12.636,0,0,1,84.119,55.6v-9.6l-4.51,1.07A.857.857,0,0,1,78.6,45.958l.687-2.3a.831.831,0,0,1,.036-.1l.741-2.136a.85.85,0,0,1,.238-.395l3.815-3.6V26.981a.585.585,0,0,0-.581-.581H75.466v.869a.857.857,0,0,1-.857.857H57.258a.857.857,0,0,1-.857-.857V26.4H48.328a.585.585,0,0,0-.581.581v45.3a.585.585,0,0,0,.581.581ZM77.9,76.222a12.686,12.686,0,0,1-1.239-1.639H48.328a2.3,2.3,0,0,1-2.3-2.3V26.981a2.3,2.3,0,0,1,2.3-2.3H56.4v-1.64H48.328a3.949,3.949,0,0,0-3.935,3.935v45.3a3.949,3.949,0,0,0,3.935,3.935Zm11.293-20.89V41.543L97.2,33.977a1.967,1.967,0,0,0,.082-2.773l-1.748-1.851a1.967,1.967,0,0,0-2.773-.082l-3.576,3.376V26.983a5.665,5.665,0,0,0-5.65-5.651H75.466v-.876a.857.857,0,0,0-.857-.857H70.328a4.488,4.488,0,0,0-8.79,0H57.258a.857.857,0,0,0-.857.857v.876H48.328a5.665,5.665,0,0,0-5.65,5.65v45.3a5.665,5.665,0,0,0,5.65,5.65H79.765a12.626,12.626,0,1,0,9.424-22.6Zm-1.868-.137a12.769,12.769,0,0,0-1.488.087l0-10.573,1.64-1.547V55.2h-.153ZM81.588,69.6a.855.855,0,1,1,.911-1.447l3.394,2.144,6.076-6.628a.853.853,0,1,1,1.259,1.152L86.7,71.938a.855.855,0,0,1-1.119.184Z" fill-rule="evenodd"/>
    </g>
  </g>
</svg>
